<?xml version="1.0" standalone="no"?>
<!DOCTYPE svg PUBLIC "-//W3C//DTD SVG 1.1//EN" "http://www.w3.org/Graphics/SVG/1.1/DTD/svg11.dtd" >
<svg xmlns="http://www.w3.org/2000/svg" xmlns:xlink="http://www.w3.org/1999/xlink" version="1.1">
<metadata>
Created by FontForge 20161116 at Wed Jun  5 22:11:38 2013
 By Jimmy Warting
Copyright (c) 1981, 1982, 1983, 1989 and 1993, Linotype Library GmbH or its affiliated Linotype-Hell companies. All rights reserved.

The digitally encoded machine readable software for producing the Typefaces licensed to you is now the property of Heidelberger Druckmaschinen AG and its licensors, and may not be reproduced, used, displayed, modified, disclosed or transferred without the express written approval of Heidelberger Druckmaschinen AG.

Copyright (c) 1988, 1990, 1993 Adobe Systems Incorporated. All Rights Reserved.
</metadata>
<defs>
<font id="Copperplate-Bold" horiz-adv-x="611" >
  <font-face 
    font-family="Copperplate"
    font-weight="700"
    font-stretch="normal"
    units-per-em="1000"
    panose-1="2 0 9 4 5 0 0 2 0 4"
    ascent="800"
    descent="-200"
    x-height="440"
    cap-height="526"
    bbox="-581 -288 1743 928"
    underline-thickness="50"
    underline-position="-125"
    unicode-range="U+0009-FB02"
  />
<missing-glyph horiz-adv-x="500" 
d="M394 454h-288v-396h288v396zM450 512v-512h-400v512h400z" />
    <glyph glyph-name=".notdef" horiz-adv-x="500" 
d="M394 454h-288v-396h288v396zM450 512v-512h-400v512h400z" />
    <glyph glyph-name=".null" horiz-adv-x="0" 
 />
    <glyph glyph-name=".null" horiz-adv-x="0" 
 />
    <glyph glyph-name="nonmarkingreturn" unicode="&#xd;" horiz-adv-x="305" 
 />
    <glyph glyph-name="space" unicode="&#x9;" horiz-adv-x="305" 
 />
    <glyph glyph-name="space" unicode=" " horiz-adv-x="305" 
 />
    <glyph glyph-name="exclam" unicode="!" horiz-adv-x="389" 
d="M195 152q32 0 55.5 -23.5t23.5 -55.5t-23.5 -54t-55.5 -22t-55.5 22t-23.5 54t23.5 55.5t55.5 23.5zM302 514q-8 0 -14.5 -5t-9.5 -20l-48 -250q-1 -2 -1.5 -7t0.5 -8q0 -3 4 -9.5t18 -8.5v-12h-112v12q14 2 18 8.5t4 9.5q1 3 0.5 8t-1.5 7l-48 250q-3 15 -9.5 20
t-14.5 5v12h214v-12z" />
    <glyph glyph-name="quotedbl" unicode="&#x22;" horiz-adv-x="305" 
d="M139 552q-15 -4 -19.5 -9t-5.5 -17l-5 -203q-1 -8 4.5 -10.5t13.5 -2.5v-12h-104v12q8 0 13.5 2.5t4.5 10.5l-7 203q-1 12 -5.5 17t-19.5 9v12h130v-12zM298 552q-15 -4 -19.5 -9t-5.5 -17l-5 -203q-1 -8 4.5 -10.5t13.5 -2.5v-12h-104v12q8 0 13.5 2.5t4.5 10.5l-7 203
q-1 12 -5.5 17t-19.5 9v12h130v-12z" />
    <glyph glyph-name="numbersign" unicode="#" 
d="M385 376l31 150h83l-31 -150h94v-68h-108l-19 -90h98v-68h-112l-31 -150h-83l31 150h-111l-31 -150h-80l31 150h-98v68h112l19 90h-101v68h115l31 150h80l-31 -150h111zM241 218h111l19 90h-111z" />
    <glyph glyph-name="dollar" unicode="$" 
d="M345 92q13 0 30 2t32 7.5t25.5 16t10.5 28.5t-11 28t-26 15t-32 7t-29 5v-109zM275 434q-13 0 -28 -2t-27.5 -8t-21 -16.5t-8.5 -26.5t9 -26t21.5 -15.5t27.5 -8t27 -3.5v106zM99 185l12 -5q-1 -5 -1 -13q0 -4 3 -12q8 -17 49 -33.5t113 -27.5v118q-31 4 -67.5 13
t-67.5 25.5t-51.5 43t-20.5 66.5q0 47 17.5 78.5t46.5 51.5t66 29.5t77 12.5v85h70v-85q30 -2 61 -8.5t57 -13.5t43.5 -12.5t20.5 -5.5q5 0 9 4l7 7l12 -3l-59 -143l-11 4q0 4 1.5 8.5t1.5 9.5t-11 14t-30 17.5t-45.5 15.5t-56.5 8v-114q35 -5 74 -12.5t72.5 -24t55.5 -45
t22 -73.5q0 -47 -20.5 -79.5t-52.5 -52.5t-72 -28t-79 -8v-105h-70v105q-42 0 -77.5 6.5t-62 15t-43 16t-19.5 7.5q-5 0 -10.5 -5t-9.5 -8l-12 4z" />
    <glyph glyph-name="percent" unicode="%" horiz-adv-x="1000" 
d="M612 274q35 0 66 -13.5t54 -36.5t36.5 -54t13.5 -67t-13.5 -67t-36.5 -53t-54 -35t-66 -13t-66 13t-54 35t-36.5 53t-13.5 67t13.5 67t36.5 54t54 36.5t66 13.5zM210 495q-37 0 -60 -24.5t-23 -59.5t23 -59.5t60 -24.5t60 24.5t23 59.5t-23 59.5t-60 24.5zM210 582
q35 0 66 -13.5t54 -36.5t36.5 -54t13.5 -67t-13.5 -67t-36.5 -54t-54 -36.5t-66 -13.5t-66 13.5t-54 36.5t-36.5 54t-13.5 67t13.5 67t36.5 54t54 36.5t66 13.5zM138 -65l245 340l156 307h146l-238 -341l-154 -306h-155zM614 187q-37 0 -60 -24.5t-23 -59.5t23 -59.5
t60 -24.5t60 24.5t23 59.5t-23 59.5t-60 24.5z" />
    <glyph glyph-name="ampersand" unicode="&#x26;" horiz-adv-x="722" 
d="M323 456q-23 0 -45 -14t-24 -44q2 -30 24 -44t45 -14t45 14t24 44q-2 30 -24 44t-45 14zM301 104q29 0 61 14.5t50 37.5q-31 88 -111 88q-38 0 -63 -18.5t-25 -51.5t25 -51.5t63 -18.5zM655 218q-2 7 -6.5 10.5t-15.5 3.5q-10 0 -21 -9t-21 -21.5t-17.5 -25.5t-10.5 -22
q5 -5 14 -11t19 -11t20 -8.5t17 -3.5q15 0 18 14h12v-137q-24 0 -49 1.5t-49 8t-45.5 18.5t-38.5 30q-48 -35 -96.5 -46.5t-107.5 -11.5q-37 0 -76 8.5t-70.5 28.5t-51.5 51t-20 75q0 29 10 53.5t27 44.5t40 34.5t49 23.5q-20 16 -34.5 37.5t-14.5 47.5q0 40 17.5 65.5
t45 40t61 20t64.5 5.5q32 0 64 -5.5t58.5 -19.5t43 -38.5t16.5 -63.5q0 -19 -7.5 -35.5t-19.5 -30t-27 -24.5t-30 -20q17 -14 32 -32t29 -35q35 51 79 93.5t101 68.5v-172h-8z" />
    <glyph glyph-name="quotesingle" unicode="'" horiz-adv-x="222" 
d="M185 548q-15 -4 -19.5 -9t-5.5 -17l-5 -203q-1 -8 4.5 -10.5t13.5 -2.5v-12h-124v12q8 0 13.5 2.5t4.5 10.5l-7 203q-1 12 -5.5 17t-19.5 9v12h150v-12z" />
    <glyph glyph-name="parenleft" unicode="(" horiz-adv-x="444" 
d="M383 508q-48 -15 -79 -44.5t-49.5 -68t-25.5 -83t-7 -89.5q0 -47 6 -95t24 -88.5t50 -72t83 -46.5v-24q-67 4 -122.5 29.5t-95.5 67t-61.5 99t-21.5 124.5t21.5 123.5t61 98t94.5 66t122 27.5v-24z" />
    <glyph glyph-name="parenright" unicode=")" horiz-adv-x="444" 
d="M61 532q67 -3 122 -27.5t94.5 -66t61 -98t21.5 -123.5t-21.5 -124.5t-61.5 -99t-95 -67t-123 -29.5v24q51 15 83 46.5t50 72t24 88.5t6 95q0 45 -7 89.5t-25.5 83t-49.5 68t-79 44.5v24z" />
    <glyph glyph-name="asterisk" unicode="*" horiz-adv-x="500" 
d="M296 532l-29 -133l6 -4l123 68l24 -90l-140 -8l-1 -7l102 -96l-71 -52l-57 130h-5l-58 -130l-73 51l104 98l-1 4l-140 14l27 86l120 -69l4 5l-25 133h90z" />
    <glyph glyph-name="plus" unicode="+" horiz-adv-x="600" 
d="M500 269q8 0 11.5 6t3.5 22h18v-154h-18q0 28 -15 28h-151v-138q0 -8 6 -11.5t22 -3.5v-18h-154v18q28 0 28 15v138h-151q-8 0 -11.5 -6t-3.5 -22h-18v154h18q0 -28 15 -28h151v138q0 8 -6 11.5t-22 3.5v18h154v-18q-28 0 -28 -15v-138h151z" />
    <glyph glyph-name="comma" unicode="," horiz-adv-x="305" 
d="M71 -89q31 12 57.5 33.5t33.5 55.5q-39 0 -66.5 17.5t-27.5 59.5q0 35 25 55t58 20q45 0 65 -27t20 -72q0 -35 -14.5 -62t-37.5 -49t-53 -37.5t-60 -25.5v32z" />
    <glyph glyph-name="hyphen" unicode="-" horiz-adv-x="333" 
d="M35 279h262v-118h-262v118z" />
    <glyph glyph-name="period" unicode="." horiz-adv-x="305" 
d="M153 152q32 0 55.5 -23.5t23.5 -55.5t-23.5 -54t-55.5 -22t-55.5 22t-23.5 54t23.5 55.5t55.5 23.5z" />
    <glyph glyph-name="slash" unicode="/" horiz-adv-x="278" 
d="M192 532h119l-244 -536h-117z" />
    <glyph glyph-name="zero" unicode="0" 
d="M305 532q56 0 105 -20.5t86.5 -56.5t59 -85t21.5 -107t-21.5 -107t-59 -85t-86.5 -55t-105 -19q-55 0 -104.5 19t-87 55t-59 85t-21.5 107t21.5 107t59 85t87 56.5t104.5 20.5zM305 414q-33 0 -56.5 -13t-38.5 -34.5t-22 -48.5t-7 -55t7 -55t22 -48.5t38.5 -34.5
t56.5 -13t56.5 13t38.5 34.5t22 48.5t7 55t-7 55t-22 48.5t-38.5 34.5t-56.5 13z" />
    <glyph glyph-name="one" unicode="1" 
d="M153 464h12q0 -5 1.5 -14.5t9.5 -9.5q2 0 11 3.5t20 7.5t21 8t13 5v32q0 11 -7 14t-13 4v12h196v-12q-11 -1 -18.5 -4t-7.5 -14v-466q0 -11 7.5 -14t16.5 -4v-12h-199v12q10 1 17.5 4t7.5 14v318q-25 -6 -40.5 -10t-23 -8.5t-10 -10.5t-2.5 -16h-12v161z" />
    <glyph glyph-name="two" unicode="2" 
d="M519 118q12 0 17.5 4.5t7.5 18.5h12v-161h-12q-2 14 -8.5 17t-21.5 3h-444q-10 0 -15 -3t-5 -17h-12q-2 44 12 81t39 68t58.5 57t70 48t73.5 42t70 40q15 9 22 19t7 27q0 19 -16.5 35.5t-54.5 16.5q-35 0 -65.5 -11t-53.5 -26t-36 -30.5t-13 -25.5q0 -6 4 -15l-12 -9
l-106 149l11 8q3 -3 7.5 -5.5t10.5 -2.5q8 0 26.5 13.5t49.5 29.5q32 17 75 30t100 13q43 0 82 -13t69 -35.5t48 -54t18 -69.5q0 -37 -15.5 -64t-40.5 -47.5t-56.5 -36.5t-63.5 -30.5t-61 -29.5t-49 -34h271z" />
    <glyph glyph-name="three" unicode="3" 
d="M97 210q0 -5 -0.5 -8.5t-0.5 -8.5q0 -15 18.5 -30t48 -27t66 -20t72.5 -8q60 0 84 16.5t24 42.5q0 25 -20.5 42t-62.5 17h-62q-10 0 -15 -5t-5 -22h-12v151h12q0 -13 5 -17.5t13 -4.5h68q22 0 39 10.5t17 33.5q0 26 -18 39t-69 15q-37 0 -70 -9t-57 -20.5t-38 -23.5
t-14 -18q0 -4 0.5 -7t1.5 -7l-8 -8l-85 135l11 5q7 -7 15 -7t27 10.5t49.5 22.5t72.5 22.5t96 10.5q42 0 82.5 -8t72.5 -26t51.5 -46.5t19.5 -69.5q0 -20 -6 -35.5t-15 -27t-19.5 -20t-19.5 -14.5v-5q42 -19 64.5 -48.5t22.5 -74.5q0 -40 -21 -70.5t-54.5 -51t-75.5 -29.5
t-84 -9q-57 0 -103.5 7.5t-83.5 18.5q-35 11 -56.5 20t-26.5 9t-9 -2t-9 -9l-12 3l68 171z" />
    <glyph glyph-name="four" unicode="4" 
d="M35 194q21 26 47.5 58.5t54 67t54 67t47 58.5t33 42.5t12.5 18.5q0 5 -5 6t-13 2v12h238v-12q-10 -1 -15.5 -2t-5.5 -6v-313h63q6 0 12 4t6 18h12v-145h-12q0 14 -6 18.5t-12 4.5h-63v-63q0 -11 7.5 -14t15.5 -4v-12h-178v12q7 1 14 4t7 14v63h-283q-6 0 -12 -4.5
t-6 -18.5h-12v124zM348 426h-2l-190 -233h192v233z" />
    <glyph glyph-name="five" unicode="5" 
d="M141 191q-3 -7 -3 -15q0 -7 10.5 -18t31.5 -21.5t52 -17.5t72 -7q51 0 82 19t31 54q0 29 -28.5 49.5t-83.5 20.5q-43 0 -59.5 -8.5t-16.5 -17.5q0 -3 2 -5.5t5 -7.5l-6 -11l-174 105l7 10q2 -2 6 -2h6q8 0 8 10v168q0 11 -7 14t-15 4v12h442q6 0 12 4.5t6 20.5h12v-156
h-12q0 15 -6 20t-12 5h-290v-87q35 11 68 15.5t68 4.5q42 0 81 -9.5t69 -30.5t48 -54t18 -81q0 -43 -20 -77t-56 -57.5t-86 -35t-110 -11.5q-42 0 -76 4.5t-61 12t-46 15.5t-31 13q-7 3 -13 5.5t-9 2.5q-5 0 -15 -7l-12 6l100 151z" />
    <glyph glyph-name="six" unicode="6" 
d="M431 176q0 35 -32 54.5t-78 19.5t-78 -19.5t-32 -54.5t32 -53.5t78 -18.5t78 18.5t32 53.5zM475 379q1 2 1 5v5q0 14 -32 29.5t-96 15.5q-34 0 -64 -8.5t-52 -25.5t-35 -44t-13 -63q39 33 77.5 46t89.5 13q39 0 77.5 -11.5t69 -34t49 -56t18.5 -78.5q0 -48 -22 -82
t-56.5 -55t-76.5 -29.5t-82 -8.5q-63 0 -116 14t-90.5 46t-58.5 81.5t-21 118.5q0 62 23.5 113t63.5 87t93 55.5t113 19.5q47 0 80.5 -4.5t56 -10.5t35.5 -10.5t20 -4.5q6 0 9.5 4.5t8.5 8.5l11 -4l-72 -138z" />
    <glyph glyph-name="seven" unicode="7" 
d="M84 408q-6 0 -12 -4.5t-6 -18.5h-12v166h12q0 -16 6 -20.5t12 -4.5h449q6 0 12 4.5t6 18.5h12v-128l-193 -351q-6 -11 -13 -23t-7 -17q0 -11 7.5 -14t16.5 -4v-12h-221v12q11 1 18.5 8t13.5 17l221 371h-322z" />
    <glyph glyph-name="eight" unicode="8" 
d="M305 324q14 0 30 2.5t30 8.5t23.5 17t9.5 27q0 17 -9.5 27.5t-23.5 16.5t-30 8.5t-30 2.5q-13 0 -29.5 -2.5t-30.5 -8.5t-23.5 -16.5t-9.5 -27.5q0 -16 9.5 -27t23.5 -17t30.5 -8.5t29.5 -2.5zM305 222q-15 0 -35 -2.5t-38.5 -9.5t-31 -20t-12.5 -33t12.5 -33t31 -20
t38.5 -9.5t35 -2.5t35 2.5t38.5 9.5t31 20t12.5 33t-12.5 33t-31 20t-38.5 9.5t-35 2.5zM305 532q29 0 69.5 -5.5t78 -21.5t63.5 -44.5t26 -75.5q0 -40 -23 -66t-57 -42q45 -16 74.5 -44t29.5 -79q0 -49 -26.5 -80t-66 -48.5t-85 -23t-83.5 -5.5t-83.5 5.5t-85 23t-66 48.5
t-26.5 80q0 24 7.5 43.5t20.5 35t30 27.5t36 21q-26 13 -48 38.5t-22 65.5q0 47 26 75.5t63.5 44.5t78 21.5t69.5 5.5z" />
    <glyph glyph-name="nine" unicode="9" 
d="M289 430q-14 0 -33 -3.5t-36 -11.5t-29 -22.5t-12 -36.5t12 -36.5t29 -22.5t36 -11.5t33 -3.5t33 3.5t36 11.5t29 22.5t12 36.5t-12 36.5t-29 22.5t-36 11.5t-33 3.5zM131 151v-9q0 -13 11 -22.5t29 -15.5t41.5 -9t47.5 -3q32 0 61.5 8.5t53 26t39 43.5t18.5 62
q-52 -26 -95 -39t-93 -13q-39 0 -74 12t-62 35t-43 55.5t-16 73.5q0 48 22.5 81.5t57 54.5t77 30.5t82.5 9.5q63 0 114 -16t87.5 -48.5t56.5 -81t20 -114.5t-25 -118t-67 -87t-97.5 -52.5t-116.5 -17.5q-39 0 -71.5 4t-56.5 10.5t-38 11.5t-17 5q-12 0 -23 -11l-12 5l79 134
z" />
    <glyph glyph-name="colon" unicode=":" horiz-adv-x="305" 
d="M153 440q32 0 55.5 -23.5t23.5 -55.5t-23.5 -55.5t-55.5 -23.5t-55.5 23.5t-23.5 55.5t23.5 55.5t55.5 23.5zM153 152q32 0 55.5 -23.5t23.5 -55.5t-23.5 -54t-55.5 -22t-55.5 22t-23.5 54t23.5 55.5t55.5 23.5z" />
    <glyph glyph-name="semicolon" unicode=";" horiz-adv-x="305" 
d="M153 440q32 0 55.5 -23.5t23.5 -55.5t-23.5 -55.5t-55.5 -23.5t-55.5 23.5t-23.5 55.5t23.5 55.5t55.5 23.5zM71 -89q31 12 57.5 33.5t33.5 55.5q-39 0 -66.5 17.5t-27.5 59.5q0 35 25 55t58 20q45 0 65 -27t20 -72q0 -35 -14.5 -62t-37.5 -49t-53 -37.5t-60 -25.5v32z
" />
    <glyph glyph-name="less" unicode="&#x3c;" horiz-adv-x="600" 
d="M46 176v85l408 178q8 4 9 10.5t-7 20.5l18 8l58 -134l-18 -8q-10 26 -24 20l-327 -136l327 -136q14 -6 24 20l18 -8l-58 -135l-18 8q8 14 7 20.5t-9 10.5z" />
    <glyph glyph-name="equal" unicode="=" horiz-adv-x="600" 
d="M113 264q-15 0 -15 -18h-18v134h18q0 -6 3.5 -12t11.5 -6h374q8 0 11.5 6t3.5 12h18v-134h-18q0 18 -15 18h-374zM113 78q-15 0 -15 -18h-18v134h18q0 -6 3.5 -12t11.5 -6h374q8 0 11.5 6t3.5 12h18v-134h-18q0 18 -15 18h-374z" />
    <glyph glyph-name="greater" unicode="&#x3e;" horiz-adv-x="600" 
d="M124 0q-8 -4 -9 -10.5t7 -20.5l-18 -8l-58 135l18 8q10 -26 24 -20l327 136l-327 136q-14 6 -24 -20l-18 8l58 134l18 -8q-8 -14 -7 -20.5t9 -10.5l408 -178v-85z" />
    <glyph glyph-name="question" unicode="?" horiz-adv-x="500" 
d="M266 152q32 0 55.5 -23.5t23.5 -55.5t-23.5 -54t-55.5 -22t-55.5 22t-23.5 54t23.5 55.5t55.5 23.5zM178 194v12q16 5 23 9t16 21q17 30 30.5 52t22.5 38t14 28t5 23q0 23 -15 33t-34 10q-10 0 -20.5 -4t-19 -10t-14 -13.5t-5.5 -14.5q0 -4 2.5 -8t4.5 -7l-9 -7l-111 105
l12 12q1 -4 12 -4q8 0 21.5 10t35.5 21.5t54 21.5t77 10q30 0 57 -9.5t47 -26.5t31.5 -41t11.5 -54q0 -26 -14 -52.5t-31.5 -50.5t-31.5 -44t-14 -34q0 -8 6.5 -11t13.5 -3v-12h-178z" />
    <glyph glyph-name="at" unicode="@" horiz-adv-x="600" 
d="M348 146l-14 49h-72l-13 -49h-78v15q13 0 20 7t10 15l50 143q10 31 -20 31v15h150v-15q-13 0 -19 -9t-1 -23l40 -123h65q3 15 5.5 34.5t2.5 48.5q0 73 -37.5 116t-124.5 43q-91 0 -139.5 -53.5t-48.5 -144.5q0 -92 51.5 -139t138.5 -47q32 0 59.5 5t47.5 11q23 7 42 17
q10 8 13 14t-2 16l14 10l55 -99l-16 -12q-8 8 -15 8t-14 -5q-21 -13 -48 -23q-24 -9 -58 -16t-79 -7q-75 0 -129.5 19.5t-90 54.5t-52.5 83.5t-17 107.5q0 69 22 121.5t61 88t92 54t115 18.5q52 0 99.5 -14t83.5 -43.5t57 -75t21 -107.5q0 -35 -3.5 -71t-8.5 -69h-215z
M272 240h52l-26 87z" />
    <glyph glyph-name="A" unicode="A" horiz-adv-x="722" 
d="M200 22q0 -5 3.5 -7.5t14.5 -2.5v-12h-177v12q11 2 16 6.5t10 16.5q2 5 10 27t21 55.5t29 74.5t32 83.5t31.5 83t27.5 72.5l19.5 52t7.5 21q0 5 -6.5 7t-13.5 3v12h261v-12q-8 -1 -13 -3t-5 -10q0 -2 9.5 -26t24.5 -62.5t34.5 -87t40.5 -99t40.5 -98.5t35.5 -86
q8 -18 13.5 -24t14.5 -6v-12h-197v12q19 1 19 12q0 1 -5 13.5t-11 28t-11.5 29.5t-6.5 19h-237q-10 -27 -16 -44t-9.5 -27t-5 -14.5t-1.5 -6.5zM443 194l-97 238l-89 -238h186z" />
    <glyph glyph-name="B" unicode="B" horiz-adv-x="722" 
d="M425 106q54 0 76 13.5t22 46.5t-22 46.5t-76 13.5h-170v-120h170zM391 328q32 0 53 1.5t33 6.5t17 14t5 24t-5 24t-17 14t-33 6.5t-53 1.5h-136v-92h136zM105 496q0 7 -4.5 11.5t-23.5 6.5v12h381q41 0 75 -8t59 -24.5t39 -43t14 -63.5q0 -45 -27 -72.5t-69 -36.5v-2
q51 -14 83.5 -43t32.5 -85q0 -30 -11.5 -57t-36 -47t-63 -32t-91.5 -12h-386v12q19 2 23.5 6.5t4.5 11.5v466z" />
    <glyph glyph-name="C" unicode="C" horiz-adv-x="722" 
d="M560 339q1 3 1.5 6.5t0.5 8.5q0 8 -13.5 16t-36 14.5t-51.5 11t-61 4.5q-30 0 -63 -7t-60.5 -23t-45 -42.5t-17.5 -64.5t17.5 -64.5t45 -42.5t60.5 -23t63 -7q13 0 41 4.5t56 12.5t49.5 18t21.5 21q0 5 -2 8t-4 7l11 7l103 -157l-12 -7q-2 5 -5.5 6.5t-8.5 1.5
q-7 0 -28 -8.5t-54.5 -18t-78.5 -17t-101 -7.5q-60 0 -119 15.5t-106 49t-76 84t-29 117.5t29 117.5t76 84t106 50.5t119 17t103.5 -6.5t73.5 -14.5q29 -8 45 -13.5t24 -5.5q9 0 15 8l11 -3l-90 -165z" />
    <glyph glyph-name="D" unicode="D" horiz-adv-x="722" 
d="M386 118q79 0 114 40.5t35 104.5t-35 104.5t-114 40.5h-127v-290h127zM109 496q0 7 -4.5 11.5t-23.5 6.5v12h332q69 0 120 -20t84 -55.5t49.5 -83.5t16.5 -104q0 -51 -17.5 -98.5t-53 -84t-88 -58.5t-122.5 -22h-321v12q19 2 23.5 6.5t4.5 11.5v466z" />
    <glyph glyph-name="E" unicode="E" horiz-adv-x="667" 
d="M475 192q-2 10 -8.5 16.5t-21.5 6.5h-186v-93h321q8 0 12 5.5t6 24.5h12v-171h-12q-2 13 -6 16t-12 3h-499v12q19 2 23.5 6.5t4.5 11.5v466q0 7 -4.5 11.5t-23.5 6.5v12h499q8 0 12 5.5t6 22.5h12v-174h-12q-2 17 -6 22.5t-12 5.5h-321v-83h186q15 0 21.5 6.5t8.5 16.5
h12v-156h-12z" />
    <glyph glyph-name="F" unicode="F" horiz-adv-x="667" 
d="M611 380q-2 14 -6 19t-12 5h-330v-89h222q8 0 12 4.5t6 18.5h12v-168h-12q-2 17 -6 22t-12 5h-222v-167q0 -7 4.5 -11.5t23.5 -6.5v-12h-210v12q19 2 23.5 6.5t4.5 11.5v466q0 7 -4.5 11.5t-23.5 6.5v12h512q8 0 12 5.5t6 22.5h12v-174h-12z" />
    <glyph glyph-name="G" unicode="G" horiz-adv-x="722" 
d="M393 191q-8 0 -11 -5.5t-4 -14.5h-12v140h12q2 -18 15 -18h295v-12q-16 -1 -16 -17v-166q0 -7 2 -12t10 -5h5v-12q-136 -72 -322 -72q-63 0 -121.5 15.5t-103.5 48.5t-72.5 83.5t-27.5 118.5t27.5 118.5t72.5 84t103.5 50t121.5 16.5q25 0 44 -1t37 -4t37 -7.5t45 -11.5
q25 -7 46 -16.5t27 -9.5q8 0 14 8l12 -4l-65 -132l-12 7q2 6 2 11q0 7 -17 15.5t-43 15.5t-58.5 12t-63.5 5q-36 0 -68.5 -9.5t-58 -29.5t-40.5 -49.5t-15 -70.5q0 -40 18 -69.5t45.5 -48.5t61.5 -28t67 -9q42 0 75.5 5t64.5 14v66h-129z" />
    <glyph glyph-name="H" unicode="H" horiz-adv-x="778" 
d="M669 30q0 -7 4.5 -11.5t23.5 -6.5v-12h-206v12q19 2 23.5 6.5t4.5 11.5v185h-260v-185q0 -7 4.5 -11.5t23.5 -6.5v-12h-206v12q19 2 23.5 6.5t4.5 11.5v466q0 7 -4.5 11.5t-23.5 6.5v12h206v-12q-19 -2 -23.5 -6.5t-4.5 -11.5v-159h260v159q0 7 -4.5 11.5t-23.5 6.5v12
h206v-12q-19 -2 -23.5 -6.5t-4.5 -11.5v-466z" />
    <glyph glyph-name="I" unicode="I" horiz-adv-x="389" 
d="M92 12q19 2 23.5 6.5t4.5 11.5v466q0 7 -4.5 11.5t-23.5 6.5v12h206v-12q-19 -2 -23.5 -6.5t-4.5 -11.5v-466q0 -7 4.5 -11.5t23.5 -6.5v-12h-206v12z" />
    <glyph glyph-name="J" unicode="J" horiz-adv-x="556" 
d="M93 187q-1 -5 -1.5 -9t-0.5 -6q0 -18 17.5 -29.5t40.5 -18.5t46 -9.5t34 -2.5q43 0 56.5 19t13.5 57v308q0 7 -4.5 11.5t-23.5 6.5v12h206v-12q-19 -2 -23.5 -6.5t-4.5 -11.5v-333q0 -53 -17.5 -86t-48 -51t-71.5 -23.5t-88 -5.5q-36 0 -66 4t-52.5 10t-36.5 11t-18 5
q-8 0 -11.5 -3t-11.5 -10l-15 9l68 168z" />
    <glyph glyph-name="K" unicode="K" horiz-adv-x="722" 
d="M476 12q9 0 14 1.5t5 11.5q0 3 -9 18t-23 37t-31 47t-32 48t-27 40t-16 23l-98 -88v-120q0 -7 4.5 -11.5t23.5 -6.5v-12h-206v12q19 2 23.5 6.5t4.5 11.5v466q0 7 -4.5 11.5t-23.5 6.5v12h206v-12q-19 -2 -23.5 -6.5t-4.5 -11.5v-180h7q30 29 64.5 60t63.5 57.5t48.5 45
t19.5 22.5q0 9 -5 10.5t-13 2.5v12h254v-12q-10 -1 -16.5 -3t-12 -6t-12 -9.5t-15.5 -13.5l-173 -149l204 -305q8 -12 15 -14t17 -2v-12h-229v12z" />
    <glyph glyph-name="L" unicode="L" horiz-adv-x="667" 
d="M603 122q8 0 12 5.5t6 22.5h12v-173h-12q-2 16 -6 19.5t-12 3.5h-522v12q19 2 23.5 6.5t4.5 11.5v466q0 7 -4.5 11.5t-23.5 6.5v12h206v-12q-19 -2 -23.5 -6.5t-4.5 -11.5v-374h344z" />
    <glyph glyph-name="M" unicode="M" horiz-adv-x="833" 
d="M555 12q19 2 23.5 6.5t4.5 11.5v368l-2 2l-178 -388l-176 392h-2v-374q0 -7 4.5 -11.5t23.5 -6.5v-12h-176v12q19 2 23.5 6.5t4.5 11.5v466q0 7 -4.5 11.5t-23.5 6.5v12h261v-12q-24 -1 -24 -18q0 -1 6 -16t15.5 -37t21 -47.5t22 -49t18.5 -41.5t11 -24q17 38 35 74
t32.5 66t23.5 50t9 25q0 17 -24 18v12h271v-12q-19 -2 -23.5 -6.5t-4.5 -11.5v-466q0 -7 4.5 -11.5t23.5 -6.5v-12h-200v12z" />
    <glyph glyph-name="N" unicode="N" horiz-adv-x="778" 
d="M109 496q0 7 -4.5 11.5t-23.5 6.5v12h241v-12q-17 -1 -22.5 -4.5t-5.5 -8.5q0 -2 13 -18t34 -40t47.5 -53.5t53.5 -59t52 -56t43 -45.5v267q0 17 -21 18v12h183v-12q-19 -2 -23.5 -6.5t-4.5 -11.5v-466q0 -7 4.5 -11.5t23.5 -6.5v-12h-190v12q14 0 18.5 3t4.5 8
q0 3 -3 7.5t-13 15.5t-29.5 31.5t-51.5 55t-79 86t-113 125.5v-314q0 -7 4.5 -11.5t23.5 -6.5v-12h-190v12q19 2 23.5 6.5t4.5 11.5v466z" />
    <glyph glyph-name="O" unicode="O" horiz-adv-x="722" 
d="M361 532q64 0 120.5 -17.5t99 -51.5t67.5 -84t25 -116t-25 -116t-67.5 -84t-99 -50t-120.5 -16t-120.5 16t-99 50t-67.5 84t-25 116t25 116t67.5 84t99 51.5t120.5 17.5zM361 410q-33 0 -62.5 -10t-52 -28.5t-36 -46t-13.5 -62.5t13.5 -62.5t36 -46t52 -28.5t62.5 -10
t62.5 10t52 28.5t36 46t13.5 62.5t-13.5 62.5t-36 46t-52 28.5t-62.5 10z" />
    <glyph glyph-name="P" unicode="P" horiz-adv-x="667" 
d="M411 299q42 0 61.5 14t19.5 46q0 29 -19.5 42t-61.5 13h-152v-115h152zM259 30q0 -7 4.5 -11.5t23.5 -6.5v-12h-206v12q19 2 23.5 6.5t4.5 11.5v466q0 7 -4.5 11.5t-23.5 6.5v12h358q47 0 83 -13.5t60 -36.5t36 -53.5t12 -63.5t-12 -63.5t-36 -53t-60 -36t-83 -13.5h-180
v-163z" />
    <glyph glyph-name="Q" unicode="Q" horiz-adv-x="722" 
d="M529 -101q3 4 6.5 8.5t3.5 9.5t-8 17.5t-19 27t-21.5 27.5t-15.5 21q-26 -8 -55 -10.5t-59 -2.5q-64 0 -120.5 16t-99 50t-67.5 84t-25 116t25 116t67.5 84t99 51.5t120.5 17.5t120.5 -17.5t99 -51.5t67.5 -84t25 -116q0 -72 -29.5 -125.5t-80.5 -86.5q6 -6 15.5 -17.5
t19 -22.5t18.5 -19.5t14 -8.5q7 0 11.5 2t9.5 5l6 -12l-121 -89zM361 410q-33 0 -62.5 -10t-52 -28.5t-36 -46t-13.5 -62.5t11.5 -65.5t33 -52.5t52.5 -34.5t69 -12.5q9 0 20.5 -0.5t19.5 4.5q-11 29 -28.5 45t-34.5 24t-29 11t-12 6q0 6 9.5 10.5t22.5 7t25 3.5t17 1
q31 0 58.5 -16t51.5 -44q9 6 16.5 17.5t13 27t9 33t3.5 35.5q0 35 -13.5 62.5t-36 46t-52 28.5t-62.5 10z" />
    <glyph glyph-name="R" unicode="R" horiz-adv-x="722" 
d="M427 304q44 0 60.5 16.5t16.5 38.5t-16.5 38.5t-60.5 16.5h-168v-110h168zM259 30q0 -7 4.5 -11.5t23.5 -6.5v-12h-206v12q19 2 23.5 6.5t4.5 11.5v466q0 7 -4.5 11.5t-23.5 6.5v12h366q111 0 161 -40.5t50 -125.5q0 -69 -40.5 -108t-102.5 -56l118 -166q12 -18 29 -18
v-12h-208v12q22 1 22 18q0 2 -8 14t-20 29t-26.5 36.5t-28 37.5t-23.5 32t-13 19h-98v-168z" />
    <glyph glyph-name="S" unicode="S" horiz-adv-x="667" 
d="M125 203q-2 -6 -2 -21q0 -10 18.5 -22.5t48 -23.5t67.5 -18.5t77 -7.5q75 0 110 17.5t35 50.5q0 18 -30.5 25.5t-76.5 12t-99 10t-99 20t-76.5 42t-30.5 75.5q0 38 17.5 69t49 53t76.5 34.5t100 12.5q51 0 95 -6.5t78 -14.5t57 -14.5t33 -6.5t16 4.5t11 10.5l11 -4
l-69 -139l-12 6v11q0 9 -19.5 18.5t-49.5 17t-67 12.5t-72 5q-65 0 -91 -15t-26 -32t18 -25.5t47 -12.5t66 -6.5t76 -7.5t76 -14t66 -26.5t47 -46t18 -71.5q0 -33 -13.5 -65t-46 -57.5t-87 -40.5t-135.5 -15q-63 0 -108.5 6t-77.5 14.5t-50.5 15.5t-27.5 7q-6 0 -10.5 -4
t-9.5 -9l-12 3l74 178z" />
    <glyph glyph-name="T" unicode="T" 
d="M202 12q19 2 23.5 6.5t4.5 11.5v374h-172q-8 0 -12 -5.5t-6 -22.5h-12v178h12q2 -17 6 -22.5t12 -5.5h494q8 0 12 5.5t6 22.5h12v-178h-12q-2 17 -6 22.5t-12 5.5h-172v-374q0 -7 4.5 -11.5t23.5 -6.5v-12h-206v12z" />
    <glyph glyph-name="U" unicode="U" horiz-adv-x="778" 
d="M515 496q0 7 -4.5 11.5t-23.5 6.5v12h206v-12q-19 -2 -23.5 -6.5t-4.5 -11.5v-268q0 -66 -21.5 -111t-59 -72t-88 -37.5t-107.5 -10.5t-107.5 10.5t-88 37.5t-59 72t-21.5 111v268q0 7 -4.5 11.5t-23.5 6.5v12h206v-12q-19 -2 -23.5 -6.5t-4.5 -11.5v-268q0 -58 33 -83
t93 -25t93 25t33 83v268z" />
    <glyph glyph-name="V" unicode="V" horiz-adv-x="667" 
d="M234 12q9 2 12 4t3 5q0 2 -8 20.5t-20.5 48.5t-29.5 68t-34.5 79t-35.5 81t-33 74t-25.5 59t-14.5 35q-7 17 -11 22t-12 6v12h205v-12q-12 -1 -16 -4t-4 -8q0 -3 4.5 -12.5t19 -40.5t42 -90t74.5 -161q45 99 71.5 157.5t41 89.5t18.5 42.5t4 15.5q0 5 -3 7.5t-12 3.5v12
h172v-12q-6 -2 -9.5 -4t-5.5 -9q-2 -6 -12 -29t-24.5 -57t-32 -75.5t-36 -84.5t-36 -84t-31 -73t-21.5 -53t-8 -23q0 -9 14 -9v-13h-206v12z" />
    <glyph glyph-name="W" unicode="W" horiz-adv-x="944" 
d="M175 12q8 2 14 4.5t6 12.5q0 2 -6.5 22t-17.5 52.5t-24.5 74t-28 84.5t-28.5 85t-25 75.5t-18 55.5t-8 25q-3 11 -10 11v12h183v-12q-9 -2 -15 -4.5t-6 -10.5q0 -3 5.5 -21t14.5 -46t20 -61.5l22 -67t20.5 -63.5t15.5 -50h2q6 19 15 48.5t19.5 63t21 67.5t19 62
t13.5 46.5t5 21.5q0 8 -7.5 10.5l-13.5 4.5v12h238v-12q-7 -2 -12 -4.5t-5 -10.5q0 -1 5 -20t13 -48t18 -64.5t19 -69t17 -62.5t12 -45h2q3 12 11.5 38.5t19.5 59.5t22.5 68.5t21.5 65.5t16.5 51t6.5 24q0 9 -6.5 12t-14.5 5v12h168v-12q-8 -1 -11.5 -6t-5.5 -13
q-1 -3 -8 -24.5t-18 -54t-25 -74t-29 -84t-28.5 -83.5t-24.5 -73.5t-17.5 -53t-6.5 -22.5q0 -9 6.5 -11t13.5 -3v-12h-208v12q20 3 20 14q0 12 -10 49.5t-24.5 87.5t-31 106.5t-30.5 106.5h-2q-12 -44 -30 -101.5t-35 -110.5t-29 -92t-12 -46q0 -14 22 -14v-12h-216v12z" />
    <glyph glyph-name="X" unicode="X" horiz-adv-x="722" 
d="M47 12q9 0 23 17l200 238l-186 234q-7 8 -12.5 10.5t-10.5 2.5v12h234v-12q-12 -1 -18 -3t-6 -10q0 -2 13 -18.5t29.5 -36t31 -37t18.5 -22.5l21 24.5t30.5 36.5t28 34.5t12.5 18.5q0 8 -7.5 10.5t-13.5 2.5v12h229v-12q-16 -1 -25 -12l-184 -228l203 -257q3 -4 8 -4.5
t10 -0.5v-12h-234v12q19 0 19 5q0 4 -9.5 18t-24 33.5t-32 42t-33.5 43.5q-3 -5 -12.5 -16t-21 -24t-24.5 -27.5t-24 -27.5t-18 -22.5t-7 -13.5q0 -8 9 -9.5t15 -1.5v-12h-231v12z" />
    <glyph glyph-name="Y" unicode="Y" horiz-adv-x="667" 
d="M629 526v-12q-8 0 -13.5 -5.5t-10.5 -12.5l-192 -271v-195q0 -7 4.5 -11.5t23.5 -6.5v-12h-206v12q19 2 23.5 6.5t4.5 11.5v176l-191 274q-16 23 -21 28.5t-12 5.5v12h220v-12q-9 0 -17 -2t-8 -10q0 -4 13 -24t30.5 -46t36.5 -53t31 -46q3 5 13 18.5t22.5 31.5t27 38
t26 37t19.5 29.5t8 14.5q0 8 -7.5 10t-14.5 2v12h190z" />
    <glyph glyph-name="Z" unicode="Z" 
d="M542 118q8 0 12 4.5t6 17.5h12v-159h-12q-2 13 -6 16t-12 3h-512v12l288 396h-239q-8 0 -12 -4.5t-6 -18.5h-12v169h12q2 -17 6 -22.5t12 -5.5h493v-12l-290 -396h260z" />
    <glyph glyph-name="bracketleft" unicode="[" horiz-adv-x="444" 
d="M98 526h280v-95h-150v-454h152v-91h-282v640z" />
    <glyph glyph-name="backslash" unicode="\" horiz-adv-x="278" 
d="M311 -4h-117l-244 536h119z" />
    <glyph glyph-name="bracketright" unicode="]" horiz-adv-x="444" 
d="M361 -114h-282v91h152v454h-150v95h280v-640z" />
    <glyph glyph-name="asciicircum" unicode="^" horiz-adv-x="600" 
d="M256 526h87l153 -317h-96l-100 219l-101 -219h-95z" />
    <glyph glyph-name="underscore" unicode="_" horiz-adv-x="500" 
d="M0 -73h500v-50h-500v50z" />
    <glyph glyph-name="grave" unicode="`" horiz-adv-x="333" 
d="M251 495h-103l-147 146h155z" />
    <glyph glyph-name="a" unicode="a" horiz-adv-x="667" 
d="M454 12q3 0 8 1t5 8q0 4 -3.5 12.5t-8 18.5t-9.5 20t-8 17h-232q-2 -7 -6.5 -17t-9.5 -20t-9 -18.5t-4 -12.5q0 -7 5 -8t8 -1v-12h-150v12q6 0 12 2.5t8 7.5q30 70 61 138.5t55.5 124t40.5 92t16 41.5q0 9 -13 10v12h209v-12q-13 -1 -13 -10q0 -3 10.5 -26.5t27.5 -59
t37.5 -78.5l41 -86t38.5 -81.5t29 -64.5q2 -5 8 -7.5t12 -2.5v-12h-166v12zM320 336l-82 -175h166z" />
    <glyph glyph-name="b" unicode="b" 
d="M348 84q35 0 59 12t24 42q0 20 -7.5 31t-19.5 16t-26.5 6t-29.5 1h-109v-108h109zM358 260q39 0 52.5 14t13.5 34q0 30 -16.5 39t-49.5 9h-119v-96h119zM105 410q0 11 -8.5 14t-23.5 4v12h301q45 0 77 -4.5t52 -16.5t29.5 -33.5t9.5 -54.5q0 -32 -19.5 -57.5t-46.5 -38.5
q40 -13 60.5 -37.5t20.5 -69.5q0 -59 -42 -93.5t-137 -34.5h-305v12q15 1 23.5 4t8.5 14v380z" />
    <glyph glyph-name="c" unicode="c" 
d="M478 271l-14 7q1 4 2.5 8t1.5 9q0 6 -12.5 14t-32 14.5t-44 11.5t-49.5 5q-28 0 -57 -7t-52 -21.5t-38 -37t-15 -54.5q0 -31 15 -54t38 -37.5t52 -21.5t57 -7q30 0 56.5 7.5t47 18t32 21t11.5 15.5v9q0 6 -1 9l11 7l95 -137l-12 -7q-9 11 -16 11q-4 0 -21.5 -9
t-46.5 -20.5t-68.5 -19.5t-87.5 -8q-55 0 -107.5 11t-93.5 37.5t-66 69.5t-25 105q0 61 25 104t66 70t93.5 39.5t107.5 12.5q33 0 64 -5.5t57 -11.5t45 -11.5t27 -5.5q5 0 9 3t6 6l12 -4z" />
    <glyph glyph-name="d" unicode="d" 
d="M293 96q78 0 112 27.5t34 96.5t-34 96.5t-112 27.5h-72v-248h72zM87 410q0 11 -7.5 14t-18.5 4v12h300q56 0 95 -18t64.5 -48t37 -70t11.5 -84t-11.5 -84t-37 -70t-64.5 -48t-95 -18h-300v12q11 1 18.5 4t7.5 14v380z" />
    <glyph glyph-name="e" unicode="e" 
d="M507 88q20 0 26 25h12v-131h-10q-5 14 -10.5 16t-17.5 2h-446v12q11 1 19.5 4t8.5 14v380q0 11 -8.5 14t-19.5 4v12h454q6 0 12 4t6 18h12v-134h-12q0 15 -6 19.5t-12 4.5h-292v-81h188q6 0 12 4.5t6 18.5h12v-130h-12q0 14 -6 18.5t-12 4.5h-188v-99h284z" />
    <glyph glyph-name="f" unicode="f" horiz-adv-x="556" 
d="M91 410q0 11 -8 14t-22 4v12h435q6 0 12 4t6 18h12v-138h-12q0 15 -6 19.5t-12 4.5h-271v-93h183q6 0 12 4t6 18h12v-134h-12q0 15 -6 19.5t-12 4.5h-183v-137q0 -11 8 -14t20 -4v-12h-190v12q12 1 20 4t8 14v380z" />
    <glyph glyph-name="g" unicode="g" 
d="M546 103q0 -10 5 -18t14 -8h9v-12q-24 -12 -55 -24.5t-67 -22.5t-74 -15.5t-76 -5.5q-58 0 -107 12t-83.5 39.5t-54 70t-19.5 101.5t22 101.5t59 70t84.5 41t98.5 13.5q38 0 69.5 -4.5t55.5 -10.5t39.5 -10.5t20.5 -4.5q8 0 10.5 3t6.5 7l12 -2l-52 -132l-12 6v7
q0 9 -13.5 17t-33.5 14.5t-42.5 10t-40.5 3.5q-31 0 -59 -7t-48.5 -23t-32.5 -40.5t-12 -59.5q0 -36 12 -61.5t33 -42t49 -24.5t61 -8q25 0 49 3.5t48 11.5v65h-84q-12 0 -15 -9t-3 -15h-12v124h12q0 -6 3 -15t15 -9h208v-137z" />
    <glyph glyph-name="h" unicode="h" horiz-adv-x="667" 
d="M223 30q0 -11 8 -14t20 -4v-12h-190v12q12 1 20 4t8 14v380q0 11 -8 14t-20 4v12h190v-12q-12 -1 -20 -4t-8 -14v-126h221v126q0 11 -8 14t-20 4v12h190v-12q-12 -1 -20 -4t-8 -14v-380q0 -11 8 -14t20 -4v-12h-190v12q12 1 20 4t8 14v152h-221v-152z" />
    <glyph glyph-name="i" unicode="i" horiz-adv-x="333" 
d="M266 428q-15 -1 -23.5 -4t-8.5 -14v-380q0 -11 8.5 -14t23.5 -4v-12h-198v12q15 1 23.5 4t8.5 14v380q0 11 -8.5 14t-23.5 4v12h198v-12z" />
    <glyph glyph-name="j" unicode="j" horiz-adv-x="444" 
d="M64 144v-13q2 -15 25 -25t68 -10q35 0 53 12t18 47v255q0 11 -7 14t-15 4v12h175v-12q-5 -1 -12 -4t-7 -14v-266q0 -44 -14.5 -73t-40.5 -46t-62 -22.5t-80 -5.5q-20 0 -42 2t-40.5 5.5t-31.5 6.5t-16 3q-5 0 -8.5 -3t-7.5 -7l-9 4l42 140z" />
    <glyph glyph-name="k" unicode="k" 
d="M380 12q7 0 17.5 3t10.5 14q0 3 -7 14.5t-17.5 27.5t-23.5 35.5t-25 37t-21.5 31.5t-13.5 21l-87 -84v-82q0 -11 9 -14t19 -4v-12h-187v12q9 -1 17 3t8 15v380q0 11 -8 15t-17 3v12h187v-12q-10 -1 -19 -4t-9 -14v-184q15 13 35.5 31t43 37.5t44.5 38.5t39.5 35.5
t28 27.5t10.5 14q0 11 -8.5 14t-16.5 4v12h195v-12q-15 -2 -39 -21t-51 -43.5t-53.5 -50t-45.5 -40.5l166 -246q5 -8 10.5 -11t12.5 -4v-12h-204v12z" />
    <glyph glyph-name="l" unicode="l" horiz-adv-x="556" 
d="M86 410q0 11 -8 14t-19 4v12h187v-12q-11 -1 -18.5 -4t-7.5 -14v-308h274q6 0 12 4.5t6 20.5h12v-149h-12q0 16 -6 19t-12 3h-435v12q11 1 19 4t8 14v380z" />
    <glyph glyph-name="m" unicode="m" horiz-adv-x="722" 
d="M206 30q0 -11 8 -14t20 -4v-12h-157v12q8 1 15.5 4t7.5 14v380q0 11 -7.5 14t-15.5 4v12h217v-12q-8 -1 -13.5 -2t-5.5 -6q0 -4 11.5 -29t26.5 -55t28 -56.5t16 -34.5q12 24 27.5 52.5t29 54t22.5 44.5t9 24t-5.5 6t-13.5 2v12h218v-12q-7 -1 -14 -4t-7 -14v-380
q0 -11 7 -14t14 -4v-12h-167v12q11 1 18.5 4t7.5 14v284h-2l-149 -289l-144 289h-2v-284z" />
    <glyph glyph-name="n" unicode="n" horiz-adv-x="667" 
d="M579 30q0 -11 8 -14t20 -4v-12h-185v12q8 0 18.5 2t10.5 11t-22 33.5t-56.5 60.5t-77.5 80.5t-85 94.5l-2 -2v-262q0 -11 7.5 -14t18.5 -4v-12h-171v12q10 1 17.5 4t7.5 14v380q0 11 -8 14t-19 4v12h238v-12q-7 -1 -14 -4t-7 -14q0 -2 16.5 -20.5t42.5 -46.5t58 -62
l64 -68v197q0 11 -8 14t-20 4v12h176v-12q-12 -1 -20 -4t-8 -14v-380z" />
    <glyph glyph-name="o" unicode="o" 
d="M305 340q-28 0 -53 -8.5t-44 -24t-29.5 -37.5t-10.5 -50t10.5 -50t29.5 -37.5t44 -24t53 -8.5q29 0 53.5 8.5t43.5 24t29.5 37.5t10.5 50t-10.5 50t-29.5 37.5t-43.5 24t-53.5 8.5zM305 446q47 0 94.5 -13t86 -40.5t62.5 -70.5t24 -102q0 -60 -24 -102.5t-62.5 -69.5
t-86 -39t-94.5 -12t-94.5 12t-86 39t-62.5 69.5t-24 102.5q0 59 24 102t62.5 70.5t86 40.5t94.5 13z" />
    <glyph glyph-name="p" unicode="p" horiz-adv-x="556" 
d="M313 238q42 0 60 13.5t18 45.5q0 31 -16 45t-54 14h-103v-118h95zM84 410q0 11 -6.5 14t-9.5 4v12h263q37 0 71.5 -6t60.5 -22t42 -43.5t16 -71.5q0 -43 -16 -71t-42 -44t-60.5 -22t-71.5 -6h-113v-124q0 -11 7.5 -14t15.5 -4v-12h-173v12q3 1 9.5 4t6.5 14v380z" />
    <glyph glyph-name="q" unicode="q" 
d="M469 -75l4.5 9t2.5 10q0 4 -7 13t-16.5 19.5t-20.5 19.5t-19 16q-56 -15 -108 -15q-47 0 -94.5 12t-86 39t-62.5 69.5t-24 102.5q0 59 24 102t62.5 70.5t86 40.5t94.5 13t94.5 -13t86 -40.5t62.5 -70.5t24 -102q0 -58 -23 -99.5t-59 -68.5q5 -9 12.5 -19t16.5 -18.5
t18 -13.5t17 -5q9 0 13.5 2t9.5 3l7 -5l-107 -80zM305 340q-28 0 -53 -8.5t-44 -24t-29.5 -37.5t-10.5 -50q0 -31 11.5 -55.5t30 -41t43.5 -25t52 -8.5q11 0 22.5 1t23.5 4q-13 19 -29 34t-36 30q-6 5 -14.5 7.5t-8.5 7.5q0 6 9.5 8t21.5 2q33 0 62 -16.5t55 -34.5
q14 14 22.5 35t8.5 52q0 28 -10.5 50t-29.5 37.5t-43.5 24t-53.5 8.5z" />
    <glyph glyph-name="r" unicode="r" 
d="M361 248q32 0 50.5 13.5t18.5 40.5q0 23 -15.5 38.5t-60.5 15.5h-135v-108h142zM93 410q0 11 -7 14t-15 4v12h321q75 0 119.5 -35t44.5 -104q0 -54 -31.5 -85.5t-79.5 -49.5l89 -134q5 -8 14.5 -14t20.5 -6v-12h-202v12q7 0 15.5 2.5t8.5 10.5q0 5 -10.5 25t-24 43
t-26 44t-15.5 27h-96v-134q0 -11 7.5 -14t18.5 -4v-12h-172v12q6 1 13 4t7 14v380z" />
    <glyph glyph-name="s" unicode="s" horiz-adv-x="556" 
d="M92 147q0 -2 -0.5 -4.5t-0.5 -6.5q0 -10 19 -19t48.5 -16.5t64 -12t64.5 -4.5q9 0 24.5 1t30.5 5.5t25.5 13t10.5 23.5q0 20 -24 28.5t-60.5 13t-79 9.5t-79 17.5t-60.5 36t-24 65.5q0 23 12 49.5t38 48.5t68.5 36.5t103.5 14.5q36 0 68.5 -4t59 -9t45 -9t26.5 -4t13 4.5
t9 7.5l11 -4l-60 -126l-13 6q0 2 0.5 5t0.5 6q0 4 -12 10t-31.5 12t-44 10.5t-50.5 4.5q-9 0 -28 -0.5t-38 -5t-33.5 -13t-14.5 -25.5q0 -18 24 -25.5t60.5 -12t79 -10t79 -18.5t60.5 -37.5t24 -68.5q0 -29 -13 -55.5t-40 -46.5t-68.5 -30.5t-98.5 -10.5q-36 0 -73 4.5
t-68 11t-51.5 12t-23.5 5.5q-7 0 -12.5 -4.5t-10.5 -9.5l-11 3l41 134z" />
    <glyph glyph-name="t" unicode="t" horiz-adv-x="556" 
d="M488 440q6 0 12 4t6 18h12v-146h-12q0 14 -6 18t-12 4h-143v-308q0 -11 7.5 -14t15.5 -4v-12h-180v12q8 1 15.5 4t7.5 14v308h-143q-6 0 -12 -4t-6 -18h-12v146h12q0 -14 6 -18t12 -4h420z" />
    <glyph glyph-name="u" unicode="u" horiz-adv-x="667" 
d="M99 410q0 11 -8.5 14t-20.5 4v12h180v-12q-5 -1 -11 -4t-6 -14v-243q0 -38 27.5 -54.5t72.5 -16.5t72.5 16.5t27.5 54.5v243q0 11 -6 14t-11 4v12h180v-12q-12 -1 -20.5 -4t-8.5 -14v-220q0 -40 -12 -75.5t-39 -62t-72 -41t-111 -14.5t-111 14.5t-72 41t-39 62t-12 75.5
v220z" />
    <glyph glyph-name="v" unicode="v" horiz-adv-x="556" 
d="M212 440v-12q-6 0 -15.5 -1t-9.5 -9q0 -2 6 -20t15.5 -44t20.5 -56.5t21 -58t17.5 -48.5t9.5 -28h2q13 32 31 74.5t34 81.5t27.5 67.5t11.5 31.5q0 8 -9 9t-14 1v12h167v-12q-8 -1 -13.5 -3.5t-7.5 -10.5q-3 -11 -15.5 -43t-30 -74t-36.5 -88.5t-35.5 -86t-27 -66
t-10.5 -28.5q0 -8 7 -12.5t14 -3.5v-12h-211v12q7 -1 14 3.5t7 12.5q0 1 -9.5 30t-24 72t-32 93.5t-33.5 94t-27.5 73.5t-15.5 32q-6 4 -9.5 4.5t-7.5 0.5v12h189z" />
    <glyph glyph-name="w" unicode="w" horiz-adv-x="833" 
d="M203 428q-9 0 -18 -3.5t-9 -14.5q0 -4 5 -22t13 -42.5t17 -53t17.5 -55t15 -48t8.5 -31.5h2q2 11 9.5 32t17.5 47t21 54.5t20.5 52.5t15.5 42t6 24q0 11 -9 14.5t-18 3.5v12h203v-12q-10 0 -19 -3.5t-9 -14.5q0 -3 6.5 -21t16 -43.5t20.5 -55.5t21.5 -57t18 -47.5
t9.5 -27.5h2q2 11 8.5 32.5t15 47.5t17.5 53.5t17 52t13 42.5t5 24q0 11 -9 14.5t-19 3.5v12h166v-12q-14 -2 -18 -9t-8 -18q-3 -10 -13 -41t-24 -72t-28.5 -86t-27.5 -83.5t-21 -64.5t-8 -29q0 -10 28 -13v-12h-211v12q29 3 29 13q0 5 -6 23t-15 43t-19.5 54t-20.5 55
t-17 46t-9 28h-2q-2 -8 -9 -28t-17 -46t-20.5 -55t-19.5 -54t-15 -43t-6 -23q0 -6 7.5 -8.5t18.5 -4.5v-12h-207v12q27 3 27 13q0 4 -9 33t-22.5 70.5t-29.5 90t-30 90.5t-23.5 71.5t-10.5 34.5q-2 8 -6.5 10.5t-9.5 2.5v12h176v-12z" />
    <glyph glyph-name="x" unicode="x" 
d="M44 12q11 0 14 5l163 213l-149 189q-5 6 -13 7.5t-12 1.5v12h213v-12q-3 0 -13 -1t-10 -9q0 -6 7 -16t16.5 -21.5t21 -23t20.5 -21.5q7 10 17 22.5t19.5 24.5t16 21.5t6.5 13.5q0 8 -6.5 9t-13.5 1v12h199v-12q-2 0 -9.5 -1.5t-12.5 -7.5l-139 -181l179 -221q5 -5 16 -5
v-12h-208v12q2 0 9 1t7 6q0 8 -11.5 24.5t-26 34t-27.5 32.5t-17 21q-3 -6 -16 -23t-27 -35.5t-25.5 -34t-11.5 -19.5q0 -5 7.5 -6t11.5 -1v-12h-195v12z" />
    <glyph glyph-name="y" unicode="y" 
d="M377 30q0 -11 7 -14t14 -4v-12h-176v12q7 1 14 4t7 14v129l-191 259q-4 6 -13.5 8t-15.5 2v12h215v-12q-6 0 -14.5 -1.5t-8.5 -9.5q0 -5 9.5 -18.5t23.5 -32.5t31 -40.5t32 -41.5q4 8 18 28t29.5 42t27.5 40t12 23q0 8 -8 9.5t-13 1.5v12h198v-12q-5 0 -14 -2t-13 -8
l-171 -255v-133z" />
    <glyph glyph-name="z" unicode="z" horiz-adv-x="556" 
d="M90 338q-9 0 -13.5 -3.5t-4.5 -19.5h-12v148h12q0 -16 4.5 -19.5t13.5 -3.5h402v-12l-231 -326h215q9 0 13.5 4t4.5 22h12v-148h-12q0 16 -4.5 18t-13.5 2h-426v12l233 326h-193z" />
    <glyph glyph-name="braceleft" unicode="{" horiz-adv-x="444" 
d="M129 121q0 35 -8 54t-39 28q31 12 39 31.5t8 54.5v134q0 33 11 53t36 31.5t65.5 15t99.5 3.5v-24q-40 -8 -57 -27.5t-17 -51.5v-123q0 -39 -10 -61.5t-45 -32.5v-2q35 -10 45 -32.5t10 -61.5v-120q0 -32 17 -51.5t57 -27.5v-24q-59 0 -99.5 3.5t-65.5 15t-36 31.5t-11 53
v131z" />
    <glyph glyph-name="bar" unicode="|" horiz-adv-x="222" 
d="M160 750v-998h-98v998h98z" />
    <glyph glyph-name="braceright" unicode="}" horiz-adv-x="444" 
d="M315 -10q0 -33 -11 -53t-36 -31.5t-65.5 -15t-99.5 -3.5v24q40 8 57 27.5t17 51.5v120q0 39 10 61.5t45 32.5v2q-35 10 -45 32.5t-10 61.5v123q0 32 -17 51.5t-57 27.5v24q59 0 99.5 -3.5t65.5 -15t36 -31.5t11 -53v-134q0 -35 8 -54.5t39 -31.5q-31 -10 -39 -28t-8 -54
v-131z" />
    <glyph glyph-name="asciitilde" unicode="~" horiz-adv-x="600" 
d="M501 220q-10 -14 -21 -27.5t-23.5 -24t-28.5 -17t-36 -6.5q-24 0 -45.5 8.5t-43.5 20.5q-21 11 -45.5 20t-54.5 9q-29 0 -45.5 -19t-27.5 -42l-31 78q14 27 39.5 51t69.5 24q22 0 46.5 -8.5t49.5 -19.5q24 -11 47.5 -21.5t41.5 -10.5q26 0 43.5 20t32.5 43z" />
    <glyph glyph-name="Adieresis" unicode="&#xc4;" horiz-adv-x="722" 
d="M383 687h128v-116h-128v116zM187 687h128v-116h-128v116zM443 194l-97 238l-89 -238h186zM232 114q-10 -27 -16 -44t-9.5 -27t-5 -14.5t-1.5 -6.5q0 -5 3.5 -7.5t14.5 -2.5v-12h-177v12q11 2 16 6.5t10 16.5q2 5 10 27t21 55.5t29 74.5t32 83.5t31.5 83t27.5 72.5
l19.5 52t7.5 21q0 5 -6.5 7t-13.5 3v12h261v-12q-8 -1 -13 -3t-5 -10q0 -2 9.5 -26t24.5 -62.5t34.5 -87t40.5 -99t40.5 -98.5t35.5 -86q8 -18 13.5 -24t14.5 -6v-12h-197v12q19 1 19 12q0 1 -5 13.5t-11 28t-11.5 29.5t-6.5 19h-237z" />
    <glyph glyph-name="Aring" unicode="&#xc5;" horiz-adv-x="722" 
d="M349 713q-23 0 -38 -15t-15 -38t15 -38t38 -15t38 15t15 38t-15 38t-38 15zM349 767q22 0 41.5 -8.5t34 -23t23 -34t8.5 -41.5t-8.5 -41.5t-23 -34t-34 -23t-41.5 -8.5t-41.5 8.5t-34 23t-23 34t-8.5 41.5t8.5 41.5t23 34t34 23t41.5 8.5zM232 114q-10 -27 -16 -44
t-9.5 -27t-5 -14.5t-1.5 -6.5q0 -5 3.5 -7.5t14.5 -2.5v-12h-177v12q11 2 16 6.5t10 16.5q2 5 10 27t21 55.5t29 74.5t32 83.5t31.5 83t27.5 72.5l19.5 52t7.5 21q0 5 -6.5 7t-13.5 3v12h261v-12q-8 -1 -13 -3t-5 -10q0 -2 9.5 -26t24.5 -62.5t34.5 -87t40.5 -99t40.5 -98.5
t35.5 -86q8 -18 13.5 -24t14.5 -6v-12h-197v12q19 1 19 12q0 1 -5 13.5t-11 28t-11.5 29.5t-6.5 19h-237zM443 194l-97 238l-89 -238h186z" />
    <glyph glyph-name="Ccedilla" unicode="&#xc7;" horiz-adv-x="722" 
d="M560 339q1 3 1.5 6.5t0.5 8.5q0 8 -13.5 16t-36 14.5t-51.5 11t-61 4.5q-30 0 -63 -7t-60.5 -23t-45 -42.5t-17.5 -64.5t17.5 -64.5t45 -42.5t60.5 -23t63 -7q13 0 41 4.5t56 12.5t49.5 18t21.5 21q0 5 -2 8t-4 7l11 7l103 -157l-12 -7q-2 5 -5.5 6.5t-8.5 1.5
q-7 0 -27.5 -8t-52.5 -17.5t-76 -17t-98 -8.5l-33 -46l2 -2q6 2 15 4t17 2q18 0 34 -5t28.5 -15t20 -24.5t7.5 -32.5q0 -25 -12 -43t-30.5 -29.5t-41 -17t-43.5 -5.5q-28 0 -55.5 7.5t-53.5 18.5l19 44q18 -6 37 -11t38 -5q22 0 38 8t16 32q0 14 -12.5 23.5t-26.5 9.5
q-12 0 -23 -2.5t-22 -5.5l-21 20l51 78q-55 2 -107 21t-92 52.5t-64 81t-24 108.5q0 67 29 117.5t76 84t106 50.5t119 17t103.5 -6.5t73.5 -14.5q29 -8 45 -13.5t24 -5.5q9 0 15 8l11 -3l-90 -165z" />
    <glyph glyph-name="Eacute" unicode="&#xc9;" horiz-adv-x="667" 
d="M364 562h-103l95 146h155zM475 192q-2 10 -8.5 16.5t-21.5 6.5h-186v-93h321q8 0 12 5.5t6 24.5h12v-171h-12q-2 13 -6 16t-12 3h-499v12q19 2 23.5 6.5t4.5 11.5v466q0 7 -4.5 11.5t-23.5 6.5v12h499q8 0 12 5.5t6 22.5h12v-174h-12q-2 17 -6 22.5t-12 5.5h-321v-83h186
q15 0 21.5 6.5t8.5 16.5h12v-156h-12z" />
    <glyph glyph-name="Ntilde" unicode="&#xd1;" horiz-adv-x="778" 
d="M573 697q-5 -22 -13 -44t-21 -39t-31.5 -27.5t-45.5 -10.5q-19 0 -39 5.5t-39.5 12t-37 12t-32.5 5.5q-18 0 -29.5 -13t-15.5 -29h-62q3 23 11.5 45t22.5 39.5t34 28t46 10.5q21 0 40 -5.5t36.5 -12.5t33.5 -12.5t30 -5.5q20 0 31 12t16 29h65zM109 496q0 7 -4.5 11.5
t-23.5 6.5v12h241v-12q-17 -1 -22.5 -4.5t-5.5 -8.5q0 -2 13 -18t34 -40t47.5 -53.5t53.5 -59t52 -56t43 -45.5v267q0 17 -21 18v12h183v-12q-19 -2 -23.5 -6.5t-4.5 -11.5v-466q0 -7 4.5 -11.5t23.5 -6.5v-12h-190v12q14 0 18.5 3t4.5 8q0 3 -3 7.5t-13 15.5t-29.5 31.5
t-51.5 55t-79 86t-113 125.5v-314q0 -7 4.5 -11.5t23.5 -6.5v-12h-190v12q19 2 23.5 6.5t4.5 11.5v466z" />
    <glyph glyph-name="Odieresis" unicode="&#xd6;" horiz-adv-x="722" 
d="M395 687h128v-116h-128v116zM199 687h128v-116h-128v116zM361 532q64 0 120.5 -17.5t99 -51.5t67.5 -84t25 -116t-25 -116t-67.5 -84t-99 -50t-120.5 -16t-120.5 16t-99 50t-67.5 84t-25 116t25 116t67.5 84t99 51.5t120.5 17.5zM361 410q-33 0 -62.5 -10t-52 -28.5
t-36 -46t-13.5 -62.5t13.5 -62.5t36 -46t52 -28.5t62.5 -10t62.5 10t52 28.5t36 46t13.5 62.5t-13.5 62.5t-36 46t-52 28.5t-62.5 10z" />
    <glyph glyph-name="Udieresis" unicode="&#xdc;" horiz-adv-x="778" 
d="M423 687h128v-116h-128v116zM227 687h128v-116h-128v116zM515 496q0 7 -4.5 11.5t-23.5 6.5v12h206v-12q-19 -2 -23.5 -6.5t-4.5 -11.5v-268q0 -66 -21.5 -111t-59 -72t-88 -37.5t-107.5 -10.5t-107.5 10.5t-88 37.5t-59 72t-21.5 111v268q0 7 -4.5 11.5t-23.5 6.5v12
h206v-12q-19 -2 -23.5 -6.5t-4.5 -11.5v-268q0 -58 33 -83t93 -25t93 25t33 83v268z" />
    <glyph glyph-name="aacute" unicode="&#xe1;" horiz-adv-x="667" 
d="M340 495h-103l95 146h155zM454 12q3 0 8 1t5 8q0 4 -3.5 12.5t-8 18.5t-9.5 20t-8 17h-232q-2 -7 -6.5 -17t-9.5 -20t-9 -18.5t-4 -12.5q0 -7 5 -8t8 -1v-12h-150v12q6 0 12 2.5t8 7.5q30 70 61 138.5t55.5 124t40.5 92t16 41.5q0 9 -13 10v12h209v-12q-13 -1 -13 -10
q0 -3 10.5 -26.5t27.5 -59t37.5 -78.5l41 -86t38.5 -81.5t29 -64.5q2 -5 8 -7.5t12 -2.5v-12h-166v12zM320 336l-82 -175h166z" />
    <glyph glyph-name="agrave" unicode="&#xe0;" horiz-adv-x="667" 
d="M406 495h-103l-147 146h155zM454 12q3 0 8 1t5 8q0 4 -3.5 12.5t-8 18.5t-9.5 20t-8 17h-232q-2 -7 -6.5 -17t-9.5 -20t-9 -18.5t-4 -12.5q0 -7 5 -8t8 -1v-12h-150v12q6 0 12 2.5t8 7.5q30 70 61 138.5t55.5 124t40.5 92t16 41.5q0 9 -13 10v12h209v-12q-13 -1 -13 -10
q0 -3 10.5 -26.5t27.5 -59t37.5 -78.5l41 -86t38.5 -81.5t29 -64.5q2 -5 8 -7.5t12 -2.5v-12h-166v12zM320 336l-82 -175h166z" />
    <glyph glyph-name="acircumflex" unicode="&#xe2;" horiz-adv-x="667" 
d="M500 495h-115l-63 83l-64 -83h-112l113 146h125zM454 12q3 0 8 1t5 8q0 4 -3.5 12.5t-8 18.5t-9.5 20t-8 17h-232q-2 -7 -6.5 -17t-9.5 -20t-9 -18.5t-4 -12.5q0 -7 5 -8t8 -1v-12h-150v12q6 0 12 2.5t8 7.5q30 70 61 138.5t55.5 124t40.5 92t16 41.5q0 9 -13 10v12h209
v-12q-13 -1 -13 -10q0 -3 10.5 -26.5t27.5 -59t37.5 -78.5l41 -86t38.5 -81.5t29 -64.5q2 -5 8 -7.5t12 -2.5v-12h-166v12zM320 336l-82 -175h166z" />
    <glyph glyph-name="adieresis" unicode="&#xe4;" horiz-adv-x="667" 
d="M355 620h128v-116h-128v116zM159 620h128v-116h-128v116zM320 336l-82 -175h166zM454 12q3 0 8 1t5 8q0 4 -3.5 12.5t-8 18.5t-9.5 20t-8 17h-232q-2 -7 -6.5 -17t-9.5 -20t-9 -18.5t-4 -12.5q0 -7 5 -8t8 -1v-12h-150v12q6 0 12 2.5t8 7.5q30 70 61 138.5t55.5 124
t40.5 92t16 41.5q0 9 -13 10v12h209v-12q-13 -1 -13 -10q0 -3 10.5 -26.5t27.5 -59t37.5 -78.5l41 -86t38.5 -81.5t29 -64.5q2 -5 8 -7.5t12 -2.5v-12h-166v12z" />
    <glyph glyph-name="atilde" unicode="&#xe3;" horiz-adv-x="667" 
d="M505 630q-5 -22 -13 -44t-21 -39t-31.5 -27.5t-45.5 -10.5q-19 0 -39 5.5t-39.5 12t-37 12t-32.5 5.5q-18 0 -29.5 -13t-15.5 -29h-62q3 23 11.5 45t22.5 39.5t34 28t46 10.5q21 0 40 -5.5t36.5 -12.5t33.5 -12.5t30 -5.5q20 0 31 12t16 29h65zM454 12q3 0 8 1t5 8
q0 4 -3.5 12.5t-8 18.5t-9.5 20t-8 17h-232q-2 -7 -6.5 -17t-9.5 -20t-9 -18.5t-4 -12.5q0 -7 5 -8t8 -1v-12h-150v12q6 0 12 2.5t8 7.5q30 70 61 138.5t55.5 124t40.5 92t16 41.5q0 9 -13 10v12h209v-12q-13 -1 -13 -10q0 -3 10.5 -26.5t27.5 -59t37.5 -78.5l41 -86
t38.5 -81.5t29 -64.5q2 -5 8 -7.5t12 -2.5v-12h-166v12zM320 336l-82 -175h166z" />
    <glyph glyph-name="aring" unicode="&#xe5;" horiz-adv-x="667" 
d="M321 646q-23 0 -38 -15t-15 -38t15 -38t38 -15t38 15t15 38t-15 38t-38 15zM321 700q22 0 41.5 -8.5t34 -23t23 -34t8.5 -41.5t-8.5 -41.5t-23 -34t-34 -23t-41.5 -8.5t-41.5 8.5t-34 23t-23 34t-8.5 41.5t8.5 41.5t23 34t34 23t41.5 8.5zM454 12q3 0 8 1t5 8
q0 4 -3.5 12.5t-8 18.5t-9.5 20t-8 17h-232q-2 -7 -6.5 -17t-9.5 -20t-9 -18.5t-4 -12.5q0 -7 5 -8t8 -1v-12h-150v12q6 0 12 2.5t8 7.5q30 70 61 138.5t55.5 124t40.5 92t16 41.5q0 9 -13 10v12h209v-12q-13 -1 -13 -10q0 -3 10.5 -26.5t27.5 -59t37.5 -78.5l41 -86
t38.5 -81.5t29 -64.5q2 -5 8 -7.5t12 -2.5v-12h-166v12zM320 336l-82 -175h166z" />
    <glyph glyph-name="ccedilla" unicode="&#xe7;" 
d="M478 271l-14 7q1 4 2.5 8t1.5 9q0 6 -12.5 14t-32 14.5t-44 11.5t-49.5 5q-28 0 -57 -7t-52 -21.5t-38 -37t-15 -54.5q0 -31 15 -54t38 -37.5t52 -21.5t57 -7q30 0 56.5 7.5t47 18t32 21t11.5 15.5v9q0 6 -1 9l11 7l95 -137l-12 -7q-9 11 -16 11q-4 0 -20.5 -8.5
t-43.5 -19t-63.5 -19t-81.5 -9.5l-33 -47l2 -2q6 2 15 4t17 2q18 0 34 -5t28.5 -15t20 -24.5t7.5 -32.5q0 -25 -12 -43t-30.5 -29.5t-41 -17t-43.5 -5.5q-28 0 -55.5 7.5t-53.5 18.5l19 44q18 -6 37 -11t38 -5q22 0 38 8t16 32q0 14 -12.5 23.5t-26.5 9.5q-12 0 -23 -2.5
t-22 -5.5l-21 20l51 77q-49 1 -95.5 15t-82 41t-57 68t-21.5 97q0 61 25 104t66 70t93.5 39.5t107.5 12.5q33 0 64 -5.5t57 -11.5t45 -11.5t27 -5.5q5 0 9 3t6 6l12 -4z" />
    <glyph glyph-name="eacute" unicode="&#xe9;" 
d="M324 495h-103l95 146h155zM507 88q20 0 26 25h12v-131h-10q-5 14 -10.5 16t-17.5 2h-446v12q11 1 19.5 4t8.5 14v380q0 11 -8.5 14t-19.5 4v12h454q6 0 12 4t6 18h12v-134h-12q0 15 -6 19.5t-12 4.5h-292v-81h188q6 0 12 4.5t6 18.5h12v-130h-12q0 14 -6 18.5t-12 4.5
h-188v-99h284z" />
    <glyph glyph-name="egrave" unicode="&#xe8;" 
d="M390 495h-103l-147 146h155zM507 88q20 0 26 25h12v-131h-10q-5 14 -10.5 16t-17.5 2h-446v12q11 1 19.5 4t8.5 14v380q0 11 -8.5 14t-19.5 4v12h454q6 0 12 4t6 18h12v-134h-12q0 15 -6 19.5t-12 4.5h-292v-81h188q6 0 12 4.5t6 18.5h12v-130h-12q0 14 -6 18.5t-12 4.5
h-188v-99h284z" />
    <glyph glyph-name="ecircumflex" unicode="&#xea;" 
d="M484 495h-115l-63 83l-64 -83h-112l113 146h125zM507 88q20 0 26 25h12v-131h-10q-5 14 -10.5 16t-17.5 2h-446v12q11 1 19.5 4t8.5 14v380q0 11 -8.5 14t-19.5 4v12h454q6 0 12 4t6 18h12v-134h-12q0 15 -6 19.5t-12 4.5h-292v-81h188q6 0 12 4.5t6 18.5h12v-130h-12
q0 14 -6 18.5t-12 4.5h-188v-99h284z" />
    <glyph glyph-name="edieresis" unicode="&#xeb;" 
d="M339 620h128v-116h-128v116zM143 620h128v-116h-128v116zM507 88q20 0 26 25h12v-131h-10q-5 14 -10.5 16t-17.5 2h-446v12q11 1 19.5 4t8.5 14v380q0 11 -8.5 14t-19.5 4v12h454q6 0 12 4t6 18h12v-134h-12q0 15 -6 19.5t-12 4.5h-292v-81h188q6 0 12 4.5t6 18.5h12
v-130h-12q0 14 -6 18.5t-12 4.5h-188v-99h284z" />
    <glyph glyph-name="iacute" unicode="&#xed;" horiz-adv-x="333" 
d="M185 495h-103l95 146h155zM266 428q-15 -1 -23.5 -4t-8.5 -14v-380q0 -11 8.5 -14t23.5 -4v-12h-198v12q15 1 23.5 4t8.5 14v380q0 11 -8.5 14t-23.5 4v12h198v-12z" />
    <glyph glyph-name="igrave" unicode="&#xec;" horiz-adv-x="333" 
d="M251 495h-103l-147 146h155zM266 428q-15 -1 -23.5 -4t-8.5 -14v-380q0 -11 8.5 -14t23.5 -4v-12h-198v12q15 1 23.5 4t8.5 14v380q0 11 -8.5 14t-23.5 4v12h198v-12z" />
    <glyph glyph-name="icircumflex" unicode="&#xee;" horiz-adv-x="333" 
d="M345 495h-115l-63 83l-64 -83h-109l110 146h125zM266 428q-15 -1 -23.5 -4t-8.5 -14v-380q0 -11 8.5 -14t23.5 -4v-12h-198v12q15 1 23.5 4t8.5 14v380q0 11 -8.5 14t-23.5 4v12h198v-12z" />
    <glyph glyph-name="idieresis" unicode="&#xef;" horiz-adv-x="333" 
d="M200 620h128v-116h-128v116zM4 620h128v-116h-128v116zM266 428q-15 -1 -23.5 -4t-8.5 -14v-380q0 -11 8.5 -14t23.5 -4v-12h-198v12q15 1 23.5 4t8.5 14v380q0 11 -8.5 14t-23.5 4v12h198v-12z" />
    <glyph glyph-name="ntilde" unicode="&#xf1;" horiz-adv-x="667" 
d="M517 630q-5 -22 -13 -44t-21 -39t-31.5 -27.5t-45.5 -10.5q-19 0 -39 5.5t-39.5 12t-37 12t-32.5 5.5q-18 0 -29.5 -13t-15.5 -29h-62q3 23 11.5 45t22.5 39.5t34 28t46 10.5q21 0 40 -5.5t36.5 -12.5t33.5 -12.5t30 -5.5q20 0 31 12t16 29h65zM579 30q0 -11 8 -14t20 -4
v-12h-185v12q8 0 18.5 2t10.5 11t-22 33.5t-56.5 60.5t-77.5 80.5t-85 94.5l-2 -2v-262q0 -11 7.5 -14t18.5 -4v-12h-171v12q10 1 17.5 4t7.5 14v380q0 11 -8 14t-19 4v12h238v-12q-7 -1 -14 -4t-7 -14q0 -2 16.5 -20.5t42.5 -46.5t58 -62l64 -68v197q0 11 -8 14t-20 4v12
h176v-12q-12 -1 -20 -4t-8 -14v-380z" />
    <glyph glyph-name="oacute" unicode="&#xf3;" 
d="M324 495h-103l95 146h155zM305 340q-28 0 -53 -8.5t-44 -24t-29.5 -37.5t-10.5 -50t10.5 -50t29.5 -37.5t44 -24t53 -8.5q29 0 53.5 8.5t43.5 24t29.5 37.5t10.5 50t-10.5 50t-29.5 37.5t-43.5 24t-53.5 8.5zM305 446q47 0 94.5 -13t86 -40.5t62.5 -70.5t24 -102
q0 -60 -24 -102.5t-62.5 -69.5t-86 -39t-94.5 -12t-94.5 12t-86 39t-62.5 69.5t-24 102.5q0 59 24 102t62.5 70.5t86 40.5t94.5 13z" />
    <glyph glyph-name="ograve" unicode="&#xf2;" 
d="M390 495h-103l-147 146h155zM305 340q-28 0 -53 -8.5t-44 -24t-29.5 -37.5t-10.5 -50t10.5 -50t29.5 -37.5t44 -24t53 -8.5q29 0 53.5 8.5t43.5 24t29.5 37.5t10.5 50t-10.5 50t-29.5 37.5t-43.5 24t-53.5 8.5zM305 446q47 0 94.5 -13t86 -40.5t62.5 -70.5t24 -102
q0 -60 -24 -102.5t-62.5 -69.5t-86 -39t-94.5 -12t-94.5 12t-86 39t-62.5 69.5t-24 102.5q0 59 24 102t62.5 70.5t86 40.5t94.5 13z" />
    <glyph glyph-name="ocircumflex" unicode="&#xf4;" 
d="M484 495h-115l-63 83l-64 -83h-112l113 146h125zM305 340q-28 0 -53 -8.5t-44 -24t-29.5 -37.5t-10.5 -50t10.5 -50t29.5 -37.5t44 -24t53 -8.5q29 0 53.5 8.5t43.5 24t29.5 37.5t10.5 50t-10.5 50t-29.5 37.5t-43.5 24t-53.5 8.5zM305 446q47 0 94.5 -13t86 -40.5
t62.5 -70.5t24 -102q0 -60 -24 -102.5t-62.5 -69.5t-86 -39t-94.5 -12t-94.5 12t-86 39t-62.5 69.5t-24 102.5q0 59 24 102t62.5 70.5t86 40.5t94.5 13z" />
    <glyph glyph-name="odieresis" unicode="&#xf6;" 
d="M339 620h128v-116h-128v116zM143 620h128v-116h-128v116zM305 340q-28 0 -53 -8.5t-44 -24t-29.5 -37.5t-10.5 -50t10.5 -50t29.5 -37.5t44 -24t53 -8.5q29 0 53.5 8.5t43.5 24t29.5 37.5t10.5 50t-10.5 50t-29.5 37.5t-43.5 24t-53.5 8.5zM305 446q47 0 94.5 -13
t86 -40.5t62.5 -70.5t24 -102q0 -60 -24 -102.5t-62.5 -69.5t-86 -39t-94.5 -12t-94.5 12t-86 39t-62.5 69.5t-24 102.5q0 59 24 102t62.5 70.5t86 40.5t94.5 13z" />
    <glyph glyph-name="otilde" unicode="&#xf5;" 
d="M489 630q-5 -22 -13 -44t-21 -39t-31.5 -27.5t-45.5 -10.5q-19 0 -39 5.5t-39.5 12t-37 12t-32.5 5.5q-18 0 -29.5 -13t-15.5 -29h-62q3 23 11.5 45t22.5 39.5t34 28t46 10.5q21 0 40 -5.5t36.5 -12.5t33.5 -12.5t30 -5.5q20 0 31 12t16 29h65zM305 340q-28 0 -53 -8.5
t-44 -24t-29.5 -37.5t-10.5 -50t10.5 -50t29.5 -37.5t44 -24t53 -8.5q29 0 53.5 8.5t43.5 24t29.5 37.5t10.5 50t-10.5 50t-29.5 37.5t-43.5 24t-53.5 8.5zM305 446q47 0 94.5 -13t86 -40.5t62.5 -70.5t24 -102q0 -60 -24 -102.5t-62.5 -69.5t-86 -39t-94.5 -12t-94.5 12
t-86 39t-62.5 69.5t-24 102.5q0 59 24 102t62.5 70.5t86 40.5t94.5 13z" />
    <glyph glyph-name="uacute" unicode="&#xfa;" horiz-adv-x="667" 
d="M352 495h-103l95 146h155zM99 410q0 11 -8.5 14t-20.5 4v12h180v-12q-5 -1 -11 -4t-6 -14v-243q0 -38 27.5 -54.5t72.5 -16.5t72.5 16.5t27.5 54.5v243q0 11 -6 14t-11 4v12h180v-12q-12 -1 -20.5 -4t-8.5 -14v-220q0 -40 -12 -75.5t-39 -62t-72 -41t-111 -14.5
t-111 14.5t-72 41t-39 62t-12 75.5v220z" />
    <glyph glyph-name="ugrave" unicode="&#xf9;" horiz-adv-x="667" 
d="M418 495h-103l-147 146h155zM99 410q0 11 -8.5 14t-20.5 4v12h180v-12q-5 -1 -11 -4t-6 -14v-243q0 -38 27.5 -54.5t72.5 -16.5t72.5 16.5t27.5 54.5v243q0 11 -6 14t-11 4v12h180v-12q-12 -1 -20.5 -4t-8.5 -14v-220q0 -40 -12 -75.5t-39 -62t-72 -41t-111 -14.5
t-111 14.5t-72 41t-39 62t-12 75.5v220z" />
    <glyph glyph-name="ucircumflex" unicode="&#xfb;" horiz-adv-x="667" 
d="M512 495h-115l-63 83l-64 -83h-112l113 146h125zM99 410q0 11 -8.5 14t-20.5 4v12h180v-12q-5 -1 -11 -4t-6 -14v-243q0 -38 27.5 -54.5t72.5 -16.5t72.5 16.5t27.5 54.5v243q0 11 -6 14t-11 4v12h180v-12q-12 -1 -20.5 -4t-8.5 -14v-220q0 -40 -12 -75.5t-39 -62
t-72 -41t-111 -14.5t-111 14.5t-72 41t-39 62t-12 75.5v220z" />
    <glyph glyph-name="udieresis" unicode="&#xfc;" horiz-adv-x="667" 
d="M367 620h128v-116h-128v116zM171 620h128v-116h-128v116zM99 410q0 11 -8.5 14t-20.5 4v12h180v-12q-5 -1 -11 -4t-6 -14v-243q0 -38 27.5 -54.5t72.5 -16.5t72.5 16.5t27.5 54.5v243q0 11 -6 14t-11 4v12h180v-12q-12 -1 -20.5 -4t-8.5 -14v-220q0 -40 -12 -75.5
t-39 -62t-72 -41t-111 -14.5t-111 14.5t-72 41t-39 62t-12 75.5v220z" />
    <glyph glyph-name="dagger" unicode="&#x2020;" horiz-adv-x="500" 
d="M226 -109q-10 81 -18.5 157.5t-27.5 154.5q16 27 27.5 56.5t16.5 59.5l-156 -44v136l156 -47l-40 162h132l-40 -162l156 47v-136l-156 44q3 -30 14 -59.5t27 -56.5q-19 -78 -27.5 -154.5t-18.5 -157.5h-45z" />
    <glyph glyph-name="degree" unicode="&#xb0;" horiz-adv-x="400" 
d="M200 532q30 0 56 -11t45.5 -30.5t30.5 -45.5t11 -56t-11 -56t-30.5 -45.5t-45.5 -30.5t-56 -11t-56 11t-45.5 30.5t-30.5 45.5t-11 56t11 56t30.5 45.5t45.5 30.5t56 11zM113 389q0 -18 6.5 -34t18 -28t27.5 -19.5t35 -7.5t35 7.5t27.5 19.5t18 28t6.5 34t-6.5 34t-18 28
t-27.5 19.5t-35 7.5t-35 -7.5t-27.5 -19.5t-18 -28t-6.5 -34z" />
    <glyph glyph-name="cent" unicode="&#xa2;" 
d="M345 309q-26 0 -49.5 -7t-41 -20.5t-28 -34t-10.5 -48.5q0 -26 12.5 -52t40.5 -34zM476 257q-14 17 -33.5 27t-39.5 16l-81 -205q3 -1 9 -1h9q36 0 68.5 15t55.5 42l73 -89q-22 -5 -42.5 -15.5t-43.5 -21t-52 -18t-68 -7.5q-9 0 -18.5 0.5t-19.5 0.5l-51 -124h-78l58 142
q-60 26 -94 71t-34 111q0 48 19 85.5t51 63.5t73 39.5t86 13.5q13 0 25.5 -0.5t25.5 -0.5l43 110h78l-53 -125q22 -6 43 -16t44 -13z" />
    <glyph glyph-name="sterling" unicode="&#xa3;" 
d="M523 490l-70 -120l-8 4q6 13 -7 26q-21 19 -50.5 30t-64.5 11q-22 0 -41.5 -5t-34.5 -15.5t-23.5 -27t-8.5 -40.5q0 -22 6 -36.5t12.5 -28t12.5 -28.5t6 -37q0 -26 -13.5 -46.5t-29.5 -34.5q-18 -17 -42 -29l3 -6q15 9 32 17q14 7 31.5 12.5t36.5 5.5q25 0 42 -4.5
t31.5 -10.5t28 -10.5t31.5 -4.5q31 0 44.5 16t13.5 43q0 11 -5 15t-16 4v10h149v-9q-11 0 -15 -6t-4 -14q0 -33 -7 -65t-25.5 -57t-50.5 -40.5t-81 -15.5q-30 0 -53 6.5t-45.5 14.5t-46.5 14.5t-55 6.5q-45 0 -71.5 -13.5t-49.5 -29.5q-10 -7 -4 -20l-8 -4l-73 141l7 5
q10 -13 24 -8q27 8 48 23q18 13 33 35t15 57q0 19 -6 35.5t-13 34t-13 38t-6 47.5q0 39 18 70t49.5 52.5t73 32.5t88.5 11q57 0 97.5 -13t77.5 -38q8 -5 13 -2.5t8 7.5zM51 236q-8 0 -11.5 -6t-3.5 -12h-11v118h11q0 -18 15 -18h305q8 0 11.5 6t3.5 12h11v-118h-11
q0 18 -15 18h-305z" />
    <glyph glyph-name="section" unicode="&#xa7;" horiz-adv-x="500" 
d="M28 256q0 25 10 45t27.5 35t39.5 24t46 11q-34 19 -46 42t-12 50q0 23 11 44t32 36.5t51 25t68 9.5q44 0 75.5 -11t66.5 -24q5 -2 8.5 0.5t5.5 7.5l12 -5l-37 -105l-14 6q2 3 1.5 8t-4.5 7q-30 19 -56 25.5t-55 6.5q-22 0 -39.5 -8.5t-17.5 -31.5q0 -9 3 -17t13.5 -15.5
t30.5 -15t53 -15.5q46 -12 76.5 -26t48.5 -31t25.5 -37t7.5 -43q0 -39 -30.5 -66.5t-79.5 -43.5q38 -18 52 -40t14 -46q0 -26 -11.5 -48t-33 -38.5t-52 -26t-67.5 -9.5q-44 0 -75 9t-64 24q-5 2 -10 0t-7 -7l-12 5l39 105l14 -6q-4 -12 6 -18q26 -18 50 -25t56 -7
q66 0 66 37q0 28 -28 39.5t-91 24.5q-83 17 -125 48.5t-42 90.5zM357 242q1 14 -3.5 26.5t-16.5 23t-31.5 18.5t-49.5 13q-61 11 -94.5 -4t-33.5 -55q0 -28 21.5 -46t73.5 -29q24 -5 47.5 -5t42.5 6t31 18.5t13 33.5z" />
    <glyph glyph-name="bullet" unicode="&#x2022;" horiz-adv-x="300" 
d="M181 377q0 -14 7 -28.5t18.5 -26t26 -19t28.5 -7.5q12 0 12 14h14v-90h-14q0 14 -12 14q-15 0 -29 -6t-25.5 -17t-18.5 -25.5t-7 -31.5q0 -12 13 -12v-14h-89v14q14 0 14 12q0 16 -7.5 31t-19.5 25.5t-26.5 17t-27.5 6.5q-12 0 -12 -14h-14v90h14q0 -14 12 -14
q13 0 27.5 7.5t26.5 19t19.5 26t7.5 28.5q0 12 -14 12v14h89v-14q-13 0 -13 -12z" />
    <glyph glyph-name="paragraph" unicode="&#xb6;" horiz-adv-x="420" 
d="M400 508q-20 -2 -31.5 -4.5t-17 -8t-6.5 -14t-1 -22.5v-568h-82v613h-46v-613h-82v330q-57 0 -88.5 43t-31.5 115q0 77 36 112t120 35h230v-18z" />
    <glyph glyph-name="germandbls" unicode="&#xdf;" horiz-adv-x="1112" 
d="M648 147q0 -2 -0.5 -4.5t-0.5 -6.5q0 -10 19 -19t48.5 -16.5t64 -12t64.5 -4.5q9 0 24.5 1t30.5 5.5t25.5 13t10.5 23.5q0 20 -24 28.5t-60.5 13t-79 9.5t-79 17.5t-60.5 36t-24 65.5q0 23 12 49.5t38 48.5t68.5 36.5t103.5 14.5q36 0 68.5 -4t59 -9t45 -9t26.5 -4
t13 4.5t9 7.5l11 -4l-60 -126l-13 6q0 2 0.5 5t0.5 6q0 4 -12 10t-31.5 12t-44 10.5t-50.5 4.5q-9 0 -28 -0.5t-38 -5t-33.5 -13t-14.5 -25.5q0 -18 24 -25.5t60.5 -12t79 -10t79 -18.5t60.5 -37.5t24 -68.5q0 -29 -13 -55.5t-40 -46.5t-68.5 -30.5t-98.5 -10.5
q-36 0 -73 4.5t-68 11t-51.5 12t-23.5 5.5q-7 0 -12.5 -4.5t-10.5 -9.5l-11 3l41 134zM92 147q0 -2 -0.5 -4.5t-0.5 -6.5q0 -10 19 -19t48.5 -16.5t64 -12t64.5 -4.5q9 0 24.5 1t30.5 5.5t25.5 13t10.5 23.5q0 20 -24 28.5t-60.5 13t-79 9.5t-79 17.5t-60.5 36t-24 65.5
q0 23 12 49.5t38 48.5t68.5 36.5t103.5 14.5q36 0 68.5 -4t59 -9t45 -9t26.5 -4t13 4.5t9 7.5l11 -4l-60 -126l-13 6q0 2 0.5 5t0.5 6q0 4 -12 10t-31.5 12t-44 10.5t-50.5 4.5q-9 0 -28 -0.5t-38 -5t-33.5 -13t-14.5 -25.5q0 -18 24 -25.5t60.5 -12t79 -10t79 -18.5
t60.5 -37.5t24 -68.5q0 -29 -13 -55.5t-40 -46.5t-68.5 -30.5t-98.5 -10.5q-36 0 -73 4.5t-68 11t-51.5 12t-23.5 5.5q-7 0 -12.5 -4.5t-10.5 -9.5l-11 3l41 134z" />
    <glyph glyph-name="registered" unicode="&#xae;" horiz-adv-x="600" 
d="M300 47q44 0 81.5 17t65 46t43 68t15.5 84t-15.5 85t-42.5 70t-64.5 47t-82.5 17q-44 0 -81.5 -17t-65 -47t-43 -70t-15.5 -85t16.5 -84t44.5 -68t65.5 -46t78.5 -17zM300 -3q-56 0 -104 19.5t-83.5 55t-55.5 84t-20 106.5q0 57 20 106.5t55.5 85.5t83.5 57t104 21
q57 0 105 -21t83 -57t55 -85.5t20 -106.5q0 -58 -20 -106.5t-55 -84t-83 -55t-105 -19.5zM327 285q50 0 50 31q0 14 -11.5 21.5t-38.5 7.5h-81v-60h81zM328 382q46 0 72 -15t26 -51q0 -30 -19 -44t-40 -20l50 -74q7 -10 19 -12v-10h-78v10q7 0 7 4q0 5 -8 16l-40 61h-72v-74
q0 -4 3.5 -5.5t6.5 -1.5v-10h-69v10q10 0 10 7v193q0 7 -10 7v9h142z" />
    <glyph glyph-name="copyright" unicode="&#xa9;" horiz-adv-x="600" 
d="M300 47q44 0 81.5 17t65 46t43 68t15.5 84t-15.5 85t-42.5 70t-64.5 47t-82.5 17q-44 0 -81.5 -17t-65 -47t-43 -70t-15.5 -85t16.5 -84t44.5 -68t65.5 -46t78.5 -17zM300 -3q-56 0 -104 19.5t-83.5 55t-55.5 84t-20 106.5q0 57 20 106.5t55.5 85.5t83.5 57t104 21
q57 0 105 -21t83 -57t55 -85.5t20 -106.5q0 -58 -20 -106.5t-55 -84t-83 -55t-105 -19.5zM381 314v3v3q0 3 -6 7t-16.5 9t-24 8t-30.5 3q-20 0 -36.5 -5.5t-29 -16t-18.5 -26t-6 -35.5t7 -36t19.5 -27.5t28 -17.5t31.5 -6q15 0 31 4t28.5 9.5t20.5 11.5t8 11v5v5l6 5l41 -58
l-6 -3q-7 3 -9 3q-4 0 -14 -5t-25 -11.5t-36 -11t-46 -4.5q-26 0 -51 7t-44 23t-31.5 40t-12.5 55t12.5 54.5t32 39.5t45.5 23.5t53 7.5q22 0 39.5 -4.5t30.5 -9t22 -8.5t13 -4q3 0 5 2t5 3l5 -4l-36 -53z" />
    <glyph glyph-name="trademark" unicode="&#x2122;" horiz-adv-x="800" 
d="M133 237q3 0 6.5 2.5t3.5 7.5v224h-87q-6 0 -10.5 -3t-4.5 -9h-12v77h12q0 -9 4.5 -12.5t10.5 -3.5h238q6 0 10.5 3.5t4.5 12.5h12v-77h-12q0 6 -4.5 9t-10.5 3h-87v-224q0 -10 12 -10v-12h-86v12zM385 237q4 1 6 3t2 9v246q0 9 -1.5 11t-6.5 2v12h94v-12q-7 0 -7 -6
q0 -3 2.5 -7t6.5 -12l82 -151l83 150q4 8 7 13t3 7q0 6 -6 6v12h95v-12q-3 0 -6 -1.5t-3 -7.5v-252q0 -5 3 -7.5t6 -2.5v-12h-78v12q14 0 12 10v189h-1l-114 -211h-6l-108 211h1h-1v-189q0 -10 11 -10v-12h-76v12z" />
    <glyph glyph-name="acute" unicode="&#xb4;" horiz-adv-x="333" 
d="M185 495h-103l95 146h155z" />
    <glyph glyph-name="dieresis" unicode="&#xa8;" horiz-adv-x="333" 
d="M200 620h128v-116h-128v116zM4 620h128v-116h-128v116z" />
    <glyph glyph-name="notequal" unicode="&#x2260;" horiz-adv-x="549" 
d="M91 296q-15 0 -15 -18h-18v134h18q0 -6 3.5 -12t11.5 -6h374q8 0 11.5 6t3.5 12h18v-134h-18q0 18 -15 18h-374zM91 110q-15 0 -15 -18h-18v134h18q0 -6 3.5 -12t11.5 -6h374q8 0 11.5 6t3.5 12h18v-134h-18q0 18 -15 18h-374zM356 517h75l-240 -532h-73z" />
    <glyph glyph-name="AE" unicode="&#xc6;" horiz-adv-x="1000" 
d="M239 123q-11 -16 -21 -32t-18 -29.5t-12.5 -23.5t-4.5 -13q0 -9 8 -11t15 -2v-12h-183v12q8 0 22 17q2 2 14 23t30.5 53.5t42 73t48 83t47.5 83t41 72.5t29 52t11 21q0 12 -5.5 16.5t-19.5 7.5v12h653q8 0 12 5.5t6 22.5h12v-174h-12q-2 17 -6 22.5t-12 5.5h-321v-83h186
q15 0 21.5 6t8.5 17h12v-156h-12q-2 10 -8.5 16.5t-21.5 6.5h-186v-93h321q8 0 12 5.5t6 24.5h12v-171h-12q-2 13 -6 16t-12 3h-499v12q28 1 28 18v93h-226zM465 203v215q0 36 -18 36q-14 0 -21.5 -7.5t-22.5 -33.5l-120 -210h182z" />
    <glyph glyph-name="Oslash" unicode="&#xd8;" horiz-adv-x="722" 
d="M660 618l-100 -140q51 -33 82 -86.5t31 -128.5q0 -66 -25 -116t-67.5 -84t-99 -50t-120.5 -16q-36 0 -69.5 4t-64.5 16l-87 -120h-87l109 151q-52 34 -82.5 88t-30.5 127q0 66 25 116t67.5 84t99 51.5t120.5 17.5q74 0 133 -22l78 108h88zM305 125q27 -9 56 -9
q33 0 62.5 10t52 28.5t36 46t13.5 62.5t-12.5 61t-32.5 44zM417 402q-29 8 -56 8q-33 0 -62.5 -10t-52 -28.5t-36 -46t-13.5 -62.5q0 -33 12 -59t33 -45z" />
    <glyph glyph-name="infinity" unicode="&#x221e;" horiz-adv-x="713" 
d="M103 261q0 -42 22.5 -69t57.5 -27q47 0 78 28.5t60 95.5q19 45 42.5 75t49 48.5t53 26t54.5 7.5q36 0 68 -12t56 -35t38 -56.5t14 -77.5q0 -43 -14 -76.5t-38 -56t-56 -34t-67 -11.5t-61 8t-49 26t-45 47t-47 71q-17 28 -30.5 49t-28 35t-32 21t-41.5 7q-16 0 -31 -6
t-27 -17.5t-19 -28.5t-7 -38zM523 359q-24 0 -42 -9t-32.5 -25t-26.5 -38t-24 -48q-20 -42 -41 -72.5t-45.5 -50.5t-55 -29.5t-69.5 -9.5q-35 0 -65.5 13t-53 37t-35.5 57.5t-13 74.5q0 45 14 78.5t36.5 56t51.5 34t59 11.5q32 0 58.5 -6.5t51 -24t48 -47.5t49.5 -76
q31 -56 62.5 -87.5t71.5 -31.5q39 0 62.5 27t23.5 69q0 19 -5.5 36.5t-16 31t-26.5 21.5t-37 8z" />
    <glyph glyph-name="plusminus" unicode="&#xb1;" horiz-adv-x="600" 
d="M487 332q8 0 11.5 6t3.5 22h18v-154h-18q0 28 -15 28h-138v-75q0 -8 6 -11.5t22 -3.5v-18h-154v18q28 0 28 15v75h-138q-8 0 -11.5 -6t-3.5 -22h-18v154h18q0 -28 15 -28h138v75q0 8 -6 11.5t-22 3.5v18h154v-18q-28 0 -28 -15v-75h138zM113 0q-8 0 -11.5 -6t-3.5 -12
h-18v134h18q0 -18 15 -18h374q8 0 11.5 6t3.5 12h18v-134h-18q0 18 -15 18h-374z" />
    <glyph glyph-name="lessequal" unicode="&#x2264;" horiz-adv-x="549" 
d="M26 319v85l408 178q8 4 9 10.5t-7 20.5l18 8l58 -134l-18 -8q-10 26 -24 20l-327 -136l327 -136q14 -6 24 20l18 -8l-58 -135l-18 8q8 14 7 20.5t-9 10.5zM74 -48q-8 0 -11.5 -6t-3.5 -22h-18v144h18q0 -28 15 -28h404q8 0 11.5 6t3.5 22h18v-144h-18q0 28 -15 28h-404z
" />
    <glyph glyph-name="greaterequal" unicode="&#x2265;" horiz-adv-x="549" 
d="M104 143q-8 -4 -9 -10.5t7 -20.5l-18 -8l-58 135l18 8q10 -26 24 -20l327 136l-327 136q-14 6 -24 -20l-18 8l58 134l18 -8q-8 -14 -7 -20.5t9 -10.5l408 -178v-85zM60 -48q-15 0 -15 -28h-18v144h18q0 -16 3.5 -22t11.5 -6h404q15 0 15 28h18v-144h-18q0 16 -3.5 22
t-11.5 6h-404z" />
    <glyph glyph-name="yen" unicode="&#xa5;" 
d="M166 324l-113 156q-19 25 -27.5 29.5t-15.5 4.5v12h212v-12q-9 0 -17 -2t-8 -10q0 -4 1 -13.5t15 -29.5l101 -143l94 132q14 20 23 36t9 18q0 8 -7.5 10t-14.5 2v12h182v-12q-8 0 -17 -3.5t-17 -14.5l-122 -172h116v-58h-153l-23 -33v-25h176v-58h-176v-120q0 -16 24 -18
v-12h-197v12q23 2 23 18v120h-184v58h183v17l-29 41h-154v58h116z" />
    <glyph glyph-name="mu" unicode="&#xb5;" horiz-adv-x="722" 
d="M206 30q0 -11 8 -14t20 -4v-12h-157v12q8 1 15.5 4t7.5 14v380q0 11 -7.5 14t-15.5 4v12h217v-12q-8 -1 -13.5 -2t-5.5 -6q0 -4 11.5 -29t26.5 -55t28 -56.5t16 -34.5q12 24 27.5 52.5t29 54t22.5 44.5t9 24t-5.5 6t-13.5 2v12h218v-12q-7 -1 -14 -4t-7 -14v-380
q0 -11 7 -14t14 -4v-12h-167v12q11 1 18.5 4t7.5 14v284h-2l-149 -289l-144 289h-2v-284z" />
    <glyph glyph-name="partialdiff" unicode="&#x2202;" horiz-adv-x="494" 
d="M258 446q37 0 65 -7t46.5 -16.5t29.5 -19t14 -14.5l-22 -89q-14 10 -32 18q-16 7 -39 13t-54 6q-63 0 -93 -39t-32 -101q-1 -20 2.5 -39.5t12.5 -35.5t24 -25.5t38 -9.5q28 0 53.5 24t44.5 64.5t30.5 92.5t11.5 109q0 55 -4.5 95t-16.5 65.5t-33 37.5t-53 12
q-20 0 -36 -5.5t-28 -13t-21 -16t-14 -13.5q-7 -7 -8.5 -15t4.5 -20l-13 -9l-82 140l12 8q16 -20 39 -5q10 7 26 17.5t36 20.5t44.5 16.5t51.5 6.5q65 0 107.5 -28t67 -76.5t32 -114.5t2.5 -142q-5 -75 -28.5 -140.5t-59.5 -114t-82 -76t-98 -27.5q-35 0 -68.5 10.5
t-59 34.5t-41 63.5t-15.5 96.5q0 62 19.5 110.5t52 82t76 51t91.5 17.5z" />
    <glyph glyph-name="summation" unicode="&#x2211;" horiz-adv-x="713" 
d="M620 563q0 11 -8.5 16.5t-29.5 5.5h-364l274 -333l-278 -352h398q15 0 24.5 7t9.5 19h18v-157h-18q0 15 -9.5 17t-24.5 2h-581v18q7 0 12.5 4.5t5.5 13.5v59l281 367l-281 337v70q0 9 -5.5 13.5t-12.5 4.5v18h551q21 0 29.5 6.5t8.5 17.5h18v-154h-18z" />
    <glyph glyph-name="product" unicode="&#x220f;" horiz-adv-x="823" 
d="M73 -194q26 0 26 18v833q0 18 -26 18v18h196v-18q-26 0 -26 -18v-833q0 -18 26 -18v-18h-196v18zM553 -194q26 0 26 18v833q0 18 -26 18v18h196v-18q-26 0 -26 -18v-833q0 -18 26 -18v-18h-196v18zM120 693h553v-106h-553v106z" />
    <glyph glyph-name="pi" unicode="&#x3c0;" horiz-adv-x="662" 
d="M601 440v-12q-12 -1 -20 -4t-8 -14v-380q0 -11 8 -14t20 -4v-12h-190v12q12 1 20 4t8 14v308h-216v-308q0 -11 8 -14t20 -4v-12h-190v12q12 1 20 4t8 14v380q0 11 -8 14t-20 4v12h540z" />
    <glyph glyph-name="integral" unicode="&#x222b;" horiz-adv-x="274" 
d="M205 -14q0 -43 -13 -70.5t-32.5 -43t-42.5 -21.5t-44 -6q-32 0 -51 7.5t-38 12.5t-26 -19l-16 5l53 158l17 -6q-4 -13 4 -22.5t26 -9.5q17 0 23 13.5t6 48.5v675q0 43 12.5 70.5t32 43t43 21.5t44.5 6q32 0 51 -7.5t38 -12.5t26 19l16 -5l-53 -158l-17 6q4 13 -4 22.5
t-26 9.5q-17 0 -23 -13.5t-6 -48.5v-675z" />
    <glyph glyph-name="ordfeminine" unicode="&#xaa;" horiz-adv-x="400" 
d="M113 290q-4 -7 -4 -11q0 -5 4 -6t6 -1v-8h-108v8q9 0 12 6q19 42 38.5 83t35 74t25 54.5t9.5 24.5q0 4 -8 6v8h145v-8q-7 -1 -7 -6q0 -1 6 -14.5t16 -35t23 -47.5t25.5 -52t24 -49t19.5 -38q3 -6 13 -6v-8h-120v8q3 0 7 0.5t4 5.5q0 2 -1 3.5t-2 3.5l-16 32h-134z
M193 476l-47 -107h95z" />
    <glyph glyph-name="ordmasculine" unicode="&#xba;" horiz-adv-x="367" 
d="M184 462q-30 0 -51.5 -18t-21.5 -48t21.5 -48t51.5 -18t51 18t21 48t-21 48t-51 18zM184 532q28 0 56.5 -8t51.5 -24.5t37.5 -42t14.5 -61.5t-14.5 -61.5t-37.5 -42t-51.5 -24.5t-56.5 -8t-56.5 8t-52 24.5t-38 42t-14.5 61.5t14.5 61.5t38 42t52 24.5t56.5 8z" />
    <glyph glyph-name="Omegagreek" unicode="&#x3a9;" horiz-adv-x="752" 
d="M376 415q-36 0 -68 -9t-55.5 -27t-37 -44.5t-13.5 -61.5q0 -53 28 -92.5t65 -68.5v-112h-227q-8 0 -12 -3t-6 -15h-12v158h12q2 -17 6 -22.5t12 -5.5h99q-21 16 -41.5 35.5t-36 44t-25.5 53.5t-10 65q0 54 25.5 95t69.5 69.5t102.5 43t124.5 14.5t124.5 -14.5t102.5 -43
t69.5 -69.5t25.5 -95q0 -36 -10 -65t-25.5 -53.5t-36 -44t-41.5 -35.5h99q8 0 12 5.5t6 22.5h12v-158h-12q-2 12 -6 15t-12 3h-227v112q37 29 65 68.5t28 92.5q0 35 -13.5 61.5t-37 44.5t-55.5 27t-68 9z" />
    <glyph glyph-name="ae" unicode="&#xe6;" horiz-adv-x="944" 
d="M555 271h190q6 0 12 4.5t6 18.5h12v-130h-12q0 14 -6 18.5t-12 4.5h-190v-99h286q20 0 26 25h12v-131h-10q-5 14 -10.5 16t-17.5 2h-450v12q11 1 20.5 4t9.5 14v74h-206q-2 -4 -9 -16.5t-15 -27t-14 -26t-6 -13.5q0 -5 4.5 -6t11.5 -3v-12h-169v12q8 0 13 4t10 11
q4 6 23.5 37t46 73t56.5 89.5t55 88.5t41.5 69t16.5 31q0 8 -5 10t-12 3v12h586q6 0 12 4t6 18h12v-134h-12q0 15 -6 19.5t-12 4.5h-294v-81zM421 176v192q0 14 -3.5 22t-19.5 8q-7 0 -11 -5t-9 -12l-122 -205h165z" />
    <glyph glyph-name="oslash" unicode="&#xf8;" 
d="M472 400q45 -26 72.5 -70t27.5 -110q0 -60 -24 -102.5t-62.5 -69.5t-86 -39t-94.5 -12q-30 0 -60 4t-59 15l-78 -103h-70l97 129q-43 27 -70 71t-27 107q0 59 24 102t62.5 70.5t86 40.5t94.5 13q29 0 57.5 -4.5t56.5 -15.5l76 102h72zM255 108q26 -8 50 -8q29 0 53.5 8.5
t43.5 24t29.5 37.5t10.5 50t-10.5 50t-28.5 37zM351 334q-22 6 -46 6q-28 0 -53 -8.5t-44 -24t-29.5 -37.5t-10.5 -50q0 -26 10 -47.5t27 -36.5z" />
    <glyph glyph-name="questiondown" unicode="&#xbf;" horiz-adv-x="500" 
d="M234 374q-32 0 -55.5 23.5t-23.5 55.5t23.5 55.5t55.5 23.5t55.5 -23.5t23.5 -55.5t-23.5 -55.5t-55.5 -23.5zM322 332v-12q-16 -5 -23 -9t-16 -21q-17 -30 -30.5 -52t-22.5 -38t-14 -28t-5 -23q0 -23 15 -33t34 -10q10 0 20.5 4t19 10t14 13.5t5.5 14.5q0 4 -2.5 8
t-4.5 7l9 7l111 -105l-12 -12q-1 4 -12 4q-9 0 -22.5 -9.5t-35 -21.5t-53.5 -20.5t-77 -8.5q-30 0 -57 8t-47 25t-31.5 41t-11.5 54q0 26 14 52.5t31.5 50.5t31.5 44t14 34q0 8 -6.5 11t-13.5 3v12h178z" />
    <glyph glyph-name="exclamdown" unicode="&#xa1;" horiz-adv-x="389" 
d="M194 374q-32 0 -55.5 23.5t-23.5 55.5t23.5 55.5t55.5 23.5t55.5 -23.5t23.5 -55.5t-23.5 -55.5t-55.5 -23.5zM87 12q8 0 14.5 5t9.5 20l48 250q1 2 1.5 7t-0.5 8q0 3 -4 9.5t-18 8.5v12h112v-12q-14 -2 -18 -8.5t-4 -9.5q-1 -3 -0.5 -8t1.5 -7l48 -250q3 -15 9.5 -20
t14.5 -5v-12h-214v12z" />
    <glyph glyph-name="logicalnot" unicode="&#xac;" horiz-adv-x="600" 
d="M80 264v98h440v-284h-98v186h-342z" />
    <glyph glyph-name="radical" unicode="&#x221a;" horiz-adv-x="549" 
d="M548 913l-152 -949l-219 448l-95 -47l-41 82l206 103l97 -211l93 589z" />
    <glyph glyph-name="florin" unicode="&#x192;" 
d="M49 -36q1 -26 21.5 -38.5t43.5 -12.5q30 0 51 11.5t26 43.5l51 277h-110v76h124q5 37 15 74.5t29 68t49.5 49.5t75.5 19q34 0 60.5 -4.5t45.5 -10.5t30.5 -10.5t16.5 -4.5q3 0 6 2.5t5 4.5l13 -3l-38 -130l-12 3q-3 31 -25.5 43t-49.5 12q-24 0 -37.5 -7t-21 -21.5
t-11 -35.5t-7.5 -49h125v-76h-138l-61 -304q-5 -26 -18 -48.5t-34 -40t-50 -27.5t-67 -10q-25 0 -48.5 4t-41.5 9t-30 9t-14 4t-4 -2t-4 -3l-12 4l34 128z" />
    <glyph glyph-name="approxequal" unicode="&#x2248;" horiz-adv-x="549" 
d="M523 366q-11 -16 -23 -31.5t-27 -27.5t-33.5 -19.5t-41.5 -7.5q-28 0 -52.5 9.5t-49.5 23.5q-24 14 -52 24.5t-63 10.5q-16 0 -29 -6.5t-23.5 -16.5t-18 -23t-13.5 -26l-49 88q8 16 19 31.5t26.5 27.5t35 19.5t44.5 7.5q26 0 54 -9.5t57 -22.5q28 -12 55 -24t47 -12
q15 0 27.5 6.5t23 16.5t19.5 23l18 26zM523 133q-11 -16 -23 -31.5t-27 -27.5t-33.5 -19.5t-41.5 -7.5q-28 0 -52.5 9.5t-49.5 23.5q-24 14 -52 24.5t-63 10.5q-16 0 -29 -6.5t-23.5 -16.5t-18 -23t-13.5 -26l-49 88q8 16 19 31.5t26.5 27.5t35 19.5t44.5 7.5q26 0 54 -9.5
t57 -22.5q28 -12 55 -24t47 -12q15 0 27.5 6.5t23 16.5t19.5 23l18 26z" />
    <glyph glyph-name="Delta" unicode="&#x2206;" horiz-adv-x="737" 
d="M41 12q11 2 16 6.5t10 16.5q2 6 16 42.5t34 88t42.5 110t41.5 109t31.5 84t12.5 35.5q0 5 -6.5 7t-13.5 3v12h276v-12q-8 -1 -13 -3t-5 -10q0 -2 9.5 -26t24.5 -62.5t34.5 -87t40.5 -99t40.5 -98.5t35.5 -86q8 -18 13.5 -24t14.5 -6v-12h-655v12zM487 90
q-18 49 -50.5 132.5t-83.5 209.5q-26 -71 -46 -125t-35 -95t-26 -70.5t-18 -51.5h259z" />
    <glyph glyph-name="guillemotleft" unicode="&#xab;" horiz-adv-x="500" 
d="M337 220l117 -154h-104l-118 158l113 150h106zM147 220l117 -154h-104l-118 158l113 150h106z" />
    <glyph glyph-name="guillemotright" unicode="&#xbb;" horiz-adv-x="500" 
d="M353 220l-117 154h104l118 -158l-113 -150h-106zM163 220l-117 154h104l118 -158l-113 -150h-106z" />
    <glyph glyph-name="ellipsis" unicode="&#x2026;" horiz-adv-x="1000" 
d="M833 154q32 0 55.5 -23.5t23.5 -55.5t-23.5 -54t-55.5 -22t-55.5 22t-23.5 54t23.5 55.5t55.5 23.5zM500 154q32 0 55.5 -23.5t23.5 -55.5t-23.5 -54t-55.5 -22t-55.5 22t-23.5 54t23.5 55.5t55.5 23.5zM167 154q32 0 55.5 -23.5t23.5 -55.5t-23.5 -54t-55.5 -22
t-55.5 22t-23.5 54t23.5 55.5t55.5 23.5z" />
    <glyph glyph-name="nonbreakingspace" unicode="&#xa0;" horiz-adv-x="305" 
 />
    <glyph glyph-name="Agrave" unicode="&#xc0;" horiz-adv-x="722" 
d="M434 562h-103l-147 146h155zM232 114q-10 -27 -16 -44t-9.5 -27t-5 -14.5t-1.5 -6.5q0 -5 3.5 -7.5t14.5 -2.5v-12h-177v12q11 2 16 6.5t10 16.5q2 5 10 27t21 55.5t29 74.5t32 83.5t31.5 83t27.5 72.5l19.5 52t7.5 21q0 5 -6.5 7t-13.5 3v12h261v-12q-8 -1 -13 -3
t-5 -10q0 -2 9.5 -26t24.5 -62.5t34.5 -87t40.5 -99t40.5 -98.5t35.5 -86q8 -18 13.5 -24t14.5 -6v-12h-197v12q19 1 19 12q0 1 -5 13.5t-11 28t-11.5 29.5t-6.5 19h-237zM443 194l-97 238l-89 -238h186z" />
    <glyph glyph-name="Atilde" unicode="&#xc3;" horiz-adv-x="722" 
d="M533 697q-5 -22 -13 -44t-21 -39t-31.5 -27.5t-45.5 -10.5q-19 0 -39 5.5t-39.5 12t-37 12t-32.5 5.5q-18 0 -29.5 -13t-15.5 -29h-62q3 23 11.5 45t22.5 39.5t34 28t46 10.5q21 0 40 -5.5t36.5 -12.5t33.5 -12.5t30 -5.5q20 0 31 12t16 29h65zM232 114q-10 -27 -16 -44
t-9.5 -27t-5 -14.5t-1.5 -6.5q0 -5 3.5 -7.5t14.5 -2.5v-12h-177v12q11 2 16 6.5t10 16.5q2 5 10 27t21 55.5t29 74.5t32 83.5t31.5 83t27.5 72.5l19.5 52t7.5 21q0 5 -6.5 7t-13.5 3v12h261v-12q-8 -1 -13 -3t-5 -10q0 -2 9.5 -26t24.5 -62.5t34.5 -87t40.5 -99t40.5 -98.5
t35.5 -86q8 -18 13.5 -24t14.5 -6v-12h-197v12q19 1 19 12q0 1 -5 13.5t-11 28t-11.5 29.5t-6.5 19h-237zM443 194l-97 238l-89 -238h186z" />
    <glyph glyph-name="Otilde" unicode="&#xd5;" horiz-adv-x="722" 
d="M545 697q-5 -22 -13 -44t-21 -39t-31.5 -27.5t-45.5 -10.5q-19 0 -39 5.5t-39.5 12t-37 12t-32.5 5.5q-18 0 -29.5 -13t-15.5 -29h-62q3 23 11.5 45t22.5 39.5t34 28t46 10.5q21 0 40 -5.5t36.5 -12.5t33.5 -12.5t30 -5.5q20 0 31 12t16 29h65zM361 532q64 0 120.5 -17.5
t99 -51.5t67.5 -84t25 -116t-25 -116t-67.5 -84t-99 -50t-120.5 -16t-120.5 16t-99 50t-67.5 84t-25 116t25 116t67.5 84t99 51.5t120.5 17.5zM361 410q-33 0 -62.5 -10t-52 -28.5t-36 -46t-13.5 -62.5t13.5 -62.5t36 -46t52 -28.5t62.5 -10t62.5 10t52 28.5t36 46
t13.5 62.5t-13.5 62.5t-36 46t-52 28.5t-62.5 10z" />
    <glyph glyph-name="OE" unicode="&#x152;" horiz-adv-x="1000" 
d="M793 325q18 0 23.5 9t6.5 20h12v-166h-12q-1 9 -6.5 18t-23.5 9h-147v-93h282q8 0 12 5.5t6 24.5h12v-171h-12q-2 13 -6 16t-12 3h-583q-61 0 -115.5 17.5t-95 50.5t-64 81.5t-23.5 111.5q0 46 17.5 93t53.5 85.5t92 62.5t133 24h585q8 0 12 5.5t6 22.5h12v-174h-12
q-2 17 -6 22.5t-12 5.5h-282v-83h147zM496 368q0 23 -22.5 33.5t-70.5 10.5q-37 0 -74.5 -7t-67 -24t-48 -47t-18.5 -76q0 -40 20 -68t51 -46t67.5 -26t69.5 -8q12 0 28 1.5t30.5 6t24.5 12.5t10 21v217z" />
    <glyph glyph-name="oe" unicode="&#x153;" horiz-adv-x="944" 
d="M871 328q0 15 -6 19.5t-12 4.5h-294v-81h190q6 0 12 4.5t6 18.5h12v-130h-12q0 14 -6 18.5t-12 4.5h-190v-99h286q20 0 26 25h12v-131h-10q-5 14 -10.5 16t-17.5 2h-513q-80 0 -136 19t-91 50.5t-51 71t-16 79.5q0 53 19.5 93.5t54 69t82 43t102.5 14.5h557q6 0 12 4
t6 18h12v-134h-12zM429 288q0 30 -25.5 47t-73.5 17q-33 0 -62.5 -6.5t-51.5 -22t-35 -40.5t-13 -63q0 -37 13 -62.5t35 -41t51.5 -22t62.5 -6.5q51 0 75 20.5t24 43.5v136z" />
    <glyph glyph-name="endash" unicode="&#x2013;" horiz-adv-x="500" 
d="M0 269h500v-98h-500v98z" />
    <glyph glyph-name="emdash" unicode="&#x2014;" horiz-adv-x="1000" 
d="M0 269h1000v-98h-1000v98z" />
    <glyph glyph-name="quotedblleft" unicode="&#x201c;" horiz-adv-x="500" 
d="M219 526q-31 -12 -57.5 -33.5t-33.5 -56.5q39 0 66.5 -18.5t27.5 -60.5q0 -35 -25 -55t-58 -20q-44 0 -64.5 29.5t-20.5 69.5q0 36 14.5 64t37.5 50t53 37.5t60 25.5v-32zM442 526q-31 -12 -57.5 -33.5t-33.5 -56.5q39 0 66.5 -18.5t27.5 -60.5q0 -35 -25 -55t-58 -20
q-44 0 -64.5 29.5t-20.5 69.5q0 36 14.5 64t37.5 50t53 37.5t60 25.5v-32z" />
    <glyph glyph-name="quotedblright" unicode="&#x201d;" horiz-adv-x="500" 
d="M281 306q31 12 57.5 33.5t33.5 56.5q-39 0 -66.5 18.5t-27.5 60.5q0 35 25 55t58 20q44 0 64.5 -29.5t20.5 -69.5q0 -36 -14.5 -64t-37.5 -50t-53 -37.5t-60 -25.5v32zM58 306q31 12 57.5 33.5t33.5 56.5q-39 0 -66.5 18.5t-27.5 60.5q0 35 25 55t58 20q44 0 64.5 -29.5
t20.5 -69.5q0 -36 -14.5 -64t-37.5 -50t-53 -37.5t-60 -25.5v32z" />
    <glyph glyph-name="quoteleft" unicode="&#x2018;" horiz-adv-x="278" 
d="M233 526q-31 -12 -57.5 -33.5t-33.5 -56.5q39 0 66.5 -18.5t27.5 -60.5q0 -35 -25 -55t-58 -20q-44 0 -64.5 29.5t-20.5 69.5q0 36 14.5 64t37.5 50t53 37.5t60 25.5v-32z" />
    <glyph glyph-name="quoteright" unicode="&#x2019;" horiz-adv-x="278" 
d="M45 306q31 12 57.5 33.5t33.5 56.5q-39 0 -66.5 18.5t-27.5 60.5q0 35 25 55t58 20q44 0 64.5 -29.5t20.5 -69.5q0 -36 -14.5 -64t-37.5 -50t-53 -37.5t-60 -25.5v32z" />
    <glyph glyph-name="divide" unicode="&#xf7;" horiz-adv-x="600" 
d="M301 117q15 0 29 -6t24.5 -16.5t17 -24.5t6.5 -30q0 -32 -23 -53t-54 -21t-54 21t-23 53q0 16 6.5 30t17 24.5t24.5 16.5t29 6zM301 477q15 0 29 -6t24.5 -16.5t17 -24.5t6.5 -30t-6.5 -30t-17 -24.5t-24.5 -16.5t-29 -6t-29 6t-24.5 16.5t-17 24.5t-6.5 30t6.5 30
t17 24.5t24.5 16.5t29 6zM80 269h440v-98h-440v98z" />
    <glyph glyph-name="lozenge" unicode="&#x25ca;" horiz-adv-x="494" 
d="M472 346l-204 -346h-54l-191 346l191 348h54zM145 346l99 -177l103 177l-103 178z" />
    <glyph glyph-name="ydieresis" unicode="&#xff;" 
d="M339 620h128v-116h-128v116zM143 620h128v-116h-128v116zM377 30q0 -11 7 -14t14 -4v-12h-176v12q7 1 14 4t7 14v129l-191 259q-4 6 -13.5 8t-15.5 2v12h215v-12q-6 0 -14.5 -1.5t-8.5 -9.5q0 -5 9.5 -18.5t23.5 -32.5t31 -40.5t32 -41.5q4 8 18 28t29.5 42t27.5 40
t12 23q0 8 -8 9.5t-13 1.5v12h198v-12q-5 0 -14 -2t-13 -8l-171 -255v-133z" />
    <glyph glyph-name="Ydieresis" unicode="&#x178;" horiz-adv-x="667" 
d="M367 687h128v-116h-128v116zM171 687h128v-116h-128v116zM629 526v-12q-8 0 -13.5 -5.5t-10.5 -12.5l-192 -271v-195q0 -7 4.5 -11.5t23.5 -6.5v-12h-206v12q19 2 23.5 6.5t4.5 11.5v176l-191 274q-16 23 -21 28.5t-12 5.5v12h220v-12q-9 0 -17 -2t-8 -10q0 -4 13 -24
t30.5 -46t36.5 -53t31 -46q3 5 13 18.5t22.5 31.5t27 38t26 37t19.5 29.5t8 14.5q0 8 -7.5 10t-14.5 2v12h190z" />
    <glyph glyph-name="fraction" unicode="&#x2044;" horiz-adv-x="167" 
d="M334 532l-426 -536h-73l428 536h71z" />
    <glyph glyph-name="Euro" unicode="&#x20ac;" 
d="M532 363q1 3 1.5 6.5t0.5 8.5q0 8 -11 14.5t-28 11t-36.5 7.5t-37.5 3q-22 0 -45 -2.5t-45 -10t-41 -21t-32 -35.5h280l-25 -64h-271q-1 -3 -1 -9v-9v-12h259l-25 -64h-219q13 -24 30.5 -38.5t38 -22.5t42.5 -11t44 -3q18 0 36.5 3t34.5 7.5t26 11.5t10 14q0 5 -0.5 8.5
t-1.5 6.5l11 4l62 -154l-11 -4q-7 9 -14 9q-4 0 -7.5 -1t-10 -3t-16.5 -4.5t-27 -6.5q-22 -3 -50 -4.5t-48 -1.5q-51 0 -99.5 9.5t-88.5 33t-70 60t-44 87.5h-91l24 64h57v12v9q0 6 1 9h-82l24 64h69q15 49 46 84t73 58t91 34t100 11q10 0 23.5 -0.5t27.5 -2l28 -3t25 -3.5
q17 -4 27 -6.5t16.5 -4.5t10 -3t7.5 -1q7 0 14 9l11 -4l-62 -154z" />
    <glyph glyph-name="guilsinglleft" unicode="&#x2039;" horiz-adv-x="333" 
d="M161 220l117 -154h-104l-118 158l113 150h106z" />
    <glyph glyph-name="guilsinglright" unicode="&#x203a;" horiz-adv-x="333" 
d="M172 220l-117 154h104l118 -158l-113 -150h-106z" />
    <glyph glyph-name="fi" unicode="&#xfb01;" horiz-adv-x="889" 
d="M822 428q-15 -1 -23.5 -4t-8.5 -14v-380q0 -11 8.5 -14t23.5 -4v-12h-198v12q15 1 23.5 4t8.5 14v380q0 11 -8.5 14t-23.5 4v12h198v-12zM91 410q0 11 -8 14t-22 4v12h435q6 0 12 4t6 18h12v-138h-12q0 15 -6 19.5t-12 4.5h-271v-93h183q6 0 12 4t6 18h12v-134h-12
q0 15 -6 19.5t-12 4.5h-183v-137q0 -11 8 -14t20 -4v-12h-190v12q12 1 20 4t8 14v380z" />
    <glyph glyph-name="fl" unicode="&#xfb02;" horiz-adv-x="1112" 
d="M642 410q0 11 -8 14t-19 4v12h187v-12q-11 -1 -18.5 -4t-7.5 -14v-308h274q6 0 12 4.5t6 20.5h12v-149h-12q0 16 -6 19t-12 3h-435v12q11 1 19 4t8 14v380zM91 410q0 11 -8 14t-22 4v12h435q6 0 12 4t6 18h12v-138h-12q0 15 -6 19.5t-12 4.5h-271v-93h183q6 0 12 4t6 18
h12v-134h-12q0 15 -6 19.5t-12 4.5h-183v-137q0 -11 8 -14t20 -4v-12h-190v12q12 1 20 4t8 14v380z" />
    <glyph glyph-name="daggerdbl" unicode="&#x2021;" horiz-adv-x="500" 
d="M274 382l158 42v-131l-158 41q4 -33 12 -66t25 -62q-13 -32 -22.5 -63t-14.5 -63l158 41v-128l-158 39l38 -141h-124l38 141l-158 -39v128l158 -41q-5 32 -14.5 63t-22.5 63q17 29 25 62t12 66l-158 -41v131l158 -42l-39 144h126z" />
    <glyph glyph-name="periodcentered" unicode="&#xb7;" horiz-adv-x="305" 
d="M153 299q32 0 55.5 -22.5t23.5 -56.5t-23.5 -56.5t-55.5 -22.5t-55.5 22.5t-23.5 56.5t23.5 56.5t55.5 22.5z" />
    <glyph glyph-name="quotesinglbase" unicode="&#x201a;" horiz-adv-x="278" 
d="M45 -89q31 12 57.5 33.5t33.5 55.5q-39 0 -66.5 17.5t-27.5 59.5q0 35 25 55t58 20q44 0 64.5 -29.5t20.5 -69.5q0 -35 -14.5 -62t-37.5 -49t-53 -37.5t-60 -25.5v32z" />
    <glyph glyph-name="quotedblbase" unicode="&#x201e;" horiz-adv-x="500" 
d="M281 -89q31 12 57.5 33.5t33.5 55.5q-39 0 -66.5 17.5t-27.5 59.5q0 35 25 55t58 20q44 0 64.5 -29.5t20.5 -69.5q0 -35 -14.5 -62t-37.5 -49t-53 -37.5t-60 -25.5v32zM58 -89q31 12 57.5 33.5t33.5 55.5q-39 0 -66.5 17.5t-27.5 59.5q0 35 25 55t58 20q44 0 64.5 -29.5
t20.5 -69.5q0 -35 -14.5 -62t-37.5 -49t-53 -37.5t-60 -25.5v32z" />
    <glyph glyph-name="perthousand" unicode="&#x2030;" horiz-adv-x="1000" 
d="M835 257q30 0 57 -11.5t47 -31.5t31.5 -46.5t11.5 -56.5t-11.5 -56.5t-31.5 -45t-47 -30t-57 -11.5t-57 11.5t-47 30t-31.5 45t-11.5 56.5t11.5 56.5t31.5 46.5t47 31.5t57 11.5zM835 175q-26 0 -45.5 -18.5t-19.5 -45.5t19.5 -45.5t45.5 -18.5t45.5 18.5t19.5 45.5
t-19.5 45.5t-45.5 18.5zM489 257q30 0 57 -11.5t47 -31.5t31.5 -46.5t11.5 -56.5t-11.5 -56.5t-31.5 -45t-47 -30t-57 -11.5t-57 11.5t-47 30t-31.5 45t-11.5 56.5t11.5 56.5t31.5 46.5t47 31.5t57 11.5zM489 175q-26 0 -45.5 -18.5t-19.5 -45.5t19.5 -45.5t45.5 -18.5
t45.5 18.5t19.5 45.5t-19.5 45.5t-45.5 18.5zM165 590q30 0 57 -11.5t47 -31.5t31.5 -46.5t11.5 -56.5t-11.5 -56.5t-31.5 -46.5t-47 -31.5t-57 -11.5t-57 11.5t-47 31.5t-31.5 46.5t-11.5 56.5t11.5 56.5t31.5 46.5t47 31.5t57 11.5zM165 508q-26 0 -45.5 -18.5
t-19.5 -45.5t19.5 -45.5t45.5 -18.5t45.5 18.5t19.5 45.5t-19.5 45.5t-45.5 18.5zM80 -29l222 324l137 287h131l-214 -312l-146 -299h-130z" />
    <glyph glyph-name="Acircumflex" unicode="&#xc2;" horiz-adv-x="722" 
d="M528 562h-115l-63 83l-64 -83h-112l113 146h125zM232 114q-10 -27 -16 -44t-9.5 -27t-5 -14.5t-1.5 -6.5q0 -5 3.5 -7.5t14.5 -2.5v-12h-177v12q11 2 16 6.5t10 16.5q2 5 10 27t21 55.5t29 74.5t32 83.5t31.5 83t27.5 72.5l19.5 52t7.5 21q0 5 -6.5 7t-13.5 3v12h261v-12
q-8 -1 -13 -3t-5 -10q0 -2 9.5 -26t24.5 -62.5t34.5 -87t40.5 -99t40.5 -98.5t35.5 -86q8 -18 13.5 -24t14.5 -6v-12h-197v12q19 1 19 12q0 1 -5 13.5t-11 28t-11.5 29.5t-6.5 19h-237zM443 194l-97 238l-89 -238h186z" />
    <glyph glyph-name="Ecircumflex" unicode="&#xca;" horiz-adv-x="667" 
d="M524 562h-115l-63 83l-64 -83h-112l113 146h125zM475 192q-2 10 -8.5 16.5t-21.5 6.5h-186v-93h321q8 0 12 5.5t6 24.5h12v-171h-12q-2 13 -6 16t-12 3h-499v12q19 2 23.5 6.5t4.5 11.5v466q0 7 -4.5 11.5t-23.5 6.5v12h499q8 0 12 5.5t6 22.5h12v-174h-12q-2 17 -6 22.5
t-12 5.5h-321v-83h186q15 0 21.5 6.5t8.5 16.5h12v-156h-12z" />
    <glyph glyph-name="Aacute" unicode="&#xc1;" horiz-adv-x="722" 
d="M368 562h-103l95 146h155zM232 114q-10 -27 -16 -44t-9.5 -27t-5 -14.5t-1.5 -6.5q0 -5 3.5 -7.5t14.5 -2.5v-12h-177v12q11 2 16 6.5t10 16.5q2 5 10 27t21 55.5t29 74.5t32 83.5t31.5 83t27.5 72.5l19.5 52t7.5 21q0 5 -6.5 7t-13.5 3v12h261v-12q-8 -1 -13 -3t-5 -10
q0 -2 9.5 -26t24.5 -62.5t34.5 -87t40.5 -99t40.5 -98.5t35.5 -86q8 -18 13.5 -24t14.5 -6v-12h-197v12q19 1 19 12q0 1 -5 13.5t-11 28t-11.5 29.5t-6.5 19h-237zM443 194l-97 238l-89 -238h186z" />
    <glyph glyph-name="Edieresis" unicode="&#xcb;" horiz-adv-x="667" 
d="M379 687h128v-116h-128v116zM183 687h128v-116h-128v116zM475 192q-2 10 -8.5 16.5t-21.5 6.5h-186v-93h321q8 0 12 5.5t6 24.5h12v-171h-12q-2 13 -6 16t-12 3h-499v12q19 2 23.5 6.5t4.5 11.5v466q0 7 -4.5 11.5t-23.5 6.5v12h499q8 0 12 5.5t6 22.5h12v-174h-12
q-2 17 -6 22.5t-12 5.5h-321v-83h186q15 0 21.5 6.5t8.5 16.5h12v-156h-12z" />
    <glyph glyph-name="Egrave" unicode="&#xc8;" horiz-adv-x="667" 
d="M430 562h-103l-147 146h155zM475 192q-2 10 -8.5 16.5t-21.5 6.5h-186v-93h321q8 0 12 5.5t6 24.5h12v-171h-12q-2 13 -6 16t-12 3h-499v12q19 2 23.5 6.5t4.5 11.5v466q0 7 -4.5 11.5t-23.5 6.5v12h499q8 0 12 5.5t6 22.5h12v-174h-12q-2 17 -6 22.5t-12 5.5h-321v-83
h186q15 0 21.5 6.5t8.5 16.5h12v-156h-12z" />
    <glyph glyph-name="Iacute" unicode="&#xcd;" horiz-adv-x="389" 
d="M213 562h-103l95 146h155zM92 12q19 2 23.5 6.5t4.5 11.5v466q0 7 -4.5 11.5t-23.5 6.5v12h206v-12q-19 -2 -23.5 -6.5t-4.5 -11.5v-466q0 -7 4.5 -11.5t23.5 -6.5v-12h-206v12z" />
    <glyph glyph-name="Icircumflex" unicode="&#xce;" horiz-adv-x="389" 
d="M373 562h-115l-63 83l-64 -83h-112l113 146h125zM92 12q19 2 23.5 6.5t4.5 11.5v466q0 7 -4.5 11.5t-23.5 6.5v12h206v-12q-19 -2 -23.5 -6.5t-4.5 -11.5v-466q0 -7 4.5 -11.5t23.5 -6.5v-12h-206v12z" />
    <glyph glyph-name="Idieresis" unicode="&#xcf;" horiz-adv-x="389" 
d="M228 687h128v-116h-128v116zM32 687h128v-116h-128v116zM92 12q19 2 23.5 6.5t4.5 11.5v466q0 7 -4.5 11.5t-23.5 6.5v12h206v-12q-19 -2 -23.5 -6.5t-4.5 -11.5v-466q0 -7 4.5 -11.5t23.5 -6.5v-12h-206v12z" />
    <glyph glyph-name="Igrave" unicode="&#xcc;" horiz-adv-x="389" 
d="M279 562h-103l-147 146h155zM92 12q19 2 23.5 6.5t4.5 11.5v466q0 7 -4.5 11.5t-23.5 6.5v12h206v-12q-19 -2 -23.5 -6.5t-4.5 -11.5v-466q0 -7 4.5 -11.5t23.5 -6.5v-12h-206v12z" />
    <glyph glyph-name="Oacute" unicode="&#xd3;" horiz-adv-x="722" 
d="M380 562h-103l95 146h155zM361 532q64 0 120.5 -17.5t99 -51.5t67.5 -84t25 -116t-25 -116t-67.5 -84t-99 -50t-120.5 -16t-120.5 16t-99 50t-67.5 84t-25 116t25 116t67.5 84t99 51.5t120.5 17.5zM361 410q-33 0 -62.5 -10t-52 -28.5t-36 -46t-13.5 -62.5t13.5 -62.5
t36 -46t52 -28.5t62.5 -10t62.5 10t52 28.5t36 46t13.5 62.5t-13.5 62.5t-36 46t-52 28.5t-62.5 10z" />
    <glyph glyph-name="Ocircumflex" unicode="&#xd4;" horiz-adv-x="722" 
d="M540 562h-115l-63 83l-64 -83h-112l113 146h125zM361 532q64 0 120.5 -17.5t99 -51.5t67.5 -84t25 -116t-25 -116t-67.5 -84t-99 -50t-120.5 -16t-120.5 16t-99 50t-67.5 84t-25 116t25 116t67.5 84t99 51.5t120.5 17.5zM361 410q-33 0 -62.5 -10t-52 -28.5t-36 -46
t-13.5 -62.5t13.5 -62.5t36 -46t52 -28.5t62.5 -10t62.5 10t52 28.5t36 46t13.5 62.5t-13.5 62.5t-36 46t-52 28.5t-62.5 10z" />
    <glyph glyph-name="apple" unicode="&#xf8ff;" horiz-adv-x="790" 
d="M408 588q20 0 71 17t87 17q60 0 107 -32q13 -10 26 -22t26 -28q-39 -34 -57 -60q-33 -46 -33 -103q0 -62 35 -112q34 -49 79 -63q-10 -30 -25 -61.5t-36 -63.5q-64 -95 -129 -95q-27 0 -71 16q-43 13 -75 13q-33 0 -72 -14q-42 -17 -66 -17q-76 0 -150 127
q-74 128 -74 252q0 114 56 187q57 72 143 72q37 0 89 -15q53 -15 69 -15zM561 790q0 -32 -15 -69t-46 -69q-29 -27 -55 -36q-19 -5 -51 -8q1 74 38.5 128.5t125.5 74.5q2 -7 2.5 -12t0.5 -9z" />
    <glyph glyph-name="Ograve" unicode="&#xd2;" horiz-adv-x="722" 
d="M446 562h-103l-147 146h155zM361 532q64 0 120.5 -17.5t99 -51.5t67.5 -84t25 -116t-25 -116t-67.5 -84t-99 -50t-120.5 -16t-120.5 16t-99 50t-67.5 84t-25 116t25 116t67.5 84t99 51.5t120.5 17.5zM361 410q-33 0 -62.5 -10t-52 -28.5t-36 -46t-13.5 -62.5t13.5 -62.5
t36 -46t52 -28.5t62.5 -10t62.5 10t52 28.5t36 46t13.5 62.5t-13.5 62.5t-36 46t-52 28.5t-62.5 10z" />
    <glyph glyph-name="Uacute" unicode="&#xda;" horiz-adv-x="778" 
d="M408 562h-103l95 146h155zM515 496q0 7 -4.5 11.5t-23.5 6.5v12h206v-12q-19 -2 -23.5 -6.5t-4.5 -11.5v-268q0 -66 -21.5 -111t-59 -72t-88 -37.5t-107.5 -10.5t-107.5 10.5t-88 37.5t-59 72t-21.5 111v268q0 7 -4.5 11.5t-23.5 6.5v12h206v-12q-19 -2 -23.5 -6.5
t-4.5 -11.5v-268q0 -58 33 -83t93 -25t93 25t33 83v268z" />
    <glyph glyph-name="Ucircumflex" unicode="&#xdb;" horiz-adv-x="778" 
d="M568 562h-115l-63 83l-64 -83h-112l113 146h125zM515 496q0 7 -4.5 11.5t-23.5 6.5v12h206v-12q-19 -2 -23.5 -6.5t-4.5 -11.5v-268q0 -66 -21.5 -111t-59 -72t-88 -37.5t-107.5 -10.5t-107.5 10.5t-88 37.5t-59 72t-21.5 111v268q0 7 -4.5 11.5t-23.5 6.5v12h206v-12
q-19 -2 -23.5 -6.5t-4.5 -11.5v-268q0 -58 33 -83t93 -25t93 25t33 83v268z" />
    <glyph glyph-name="Ugrave" unicode="&#xd9;" horiz-adv-x="778" 
d="M474 562h-103l-147 146h155zM515 496q0 7 -4.5 11.5t-23.5 6.5v12h206v-12q-19 -2 -23.5 -6.5t-4.5 -11.5v-268q0 -66 -21.5 -111t-59 -72t-88 -37.5t-107.5 -10.5t-107.5 10.5t-88 37.5t-59 72t-21.5 111v268q0 7 -4.5 11.5t-23.5 6.5v12h206v-12q-19 -2 -23.5 -6.5
t-4.5 -11.5v-268q0 -58 33 -83t93 -25t93 25t33 83v268z" />
    <glyph glyph-name="dotlessi" unicode="&#x131;" horiz-adv-x="333" 
d="M266 428q-15 -1 -23.5 -4t-8.5 -14v-380q0 -11 8.5 -14t23.5 -4v-12h-198v12q15 1 23.5 4t8.5 14v380q0 11 -8.5 14t-23.5 4v12h198v-12z" />
    <glyph glyph-name="circumflex" unicode="&#x2c6;" horiz-adv-x="333" 
d="M345 495h-115l-63 83l-64 -83h-110l111 146h125z" />
    <glyph glyph-name="tilde" unicode="&#x2dc;" horiz-adv-x="333" 
d="M350 630q-5 -22 -13 -44t-21 -39t-31.5 -27.5t-45.5 -10.5q-19 0 -39 5.5t-39.5 12t-37 12t-32.5 5.5q-18 0 -29.5 -13t-15.5 -29h-59q3 23 10 45t21 39.5t34 28t46 10.5q21 0 40 -5.5t36.5 -12.5t33.5 -12.5t30 -5.5q20 0 31 12t16 29h65z" />
    <glyph glyph-name="macron" unicode="&#xaf;" horiz-adv-x="333" 
d="M-4 601h344v-74h-344v74z" />
    <glyph glyph-name="breve" unicode="&#x2d8;" horiz-adv-x="333" 
d="M334 641q-10 -75 -54.5 -110.5t-119.5 -35.5q-69 0 -114 37t-46 109h65q2 -21 11.5 -35t24 -21.5t32 -10.5t35.5 -3q40 0 66 14t34 56h66z" />
    <glyph glyph-name="dotaccent" unicode="&#x2d9;" horiz-adv-x="333" 
d="M102 620h128v-116h-128v116z" />
    <glyph glyph-name="ring" unicode="&#x2da;" horiz-adv-x="333" 
d="M166 646q-23 0 -38 -15t-15 -38t15 -38t38 -15t38 15t15 38t-15 38t-38 15zM166 700q22 0 41.5 -8.5t34 -23t23 -34t8.5 -41.5t-8.5 -41.5t-23 -34t-34 -23t-41.5 -8.5t-41.5 8.5t-34 23t-23 34t-8.5 41.5t8.5 41.5t23 34t34 23t41.5 8.5z" />
    <glyph glyph-name="cedilla" unicode="&#xb8;" horiz-adv-x="333" 
d="M63 -147q18 -6 37 -11t38 -5q22 0 38 8t16 32q0 14 -12.5 23.5t-26.5 9.5q-12 0 -23 -2.5t-22 -5.5l-21 20l59 87h53l-43 -58l2 -2q6 2 15 4t17 2q18 0 34 -5t28.5 -15t20 -24.5t7.5 -32.5q0 -25 -12 -43t-30.5 -29.5t-41 -17t-43.5 -5.5q-28 0 -55.5 7.5t-53.5 18.5z
" />
    <glyph glyph-name="hungarumlaut" unicode="&#x2dd;" horiz-adv-x="333" 
d="M428 641l-147 -146h-103l95 146h155zM220 641l-128 -146h-96l74 146h150z" />
    <glyph glyph-name="ogonek" unicode="&#x2db;" horiz-adv-x="333" 
d="M258 8q-20 -8 -44.5 -17.5t-45.5 -24.5t-35.5 -34.5t-14.5 -45.5q0 -23 14.5 -36t36.5 -13q24 0 50 13.5t46 26.5l20 -34q-34 -23 -71.5 -41.5t-79.5 -18.5q-43 0 -73.5 23.5t-30.5 68.5q0 40 24.5 66t60 42.5t74.5 24t69 12.5v-12z" />
    <glyph glyph-name="caron" unicode="&#x2c7;" horiz-adv-x="333" 
d="M104 495l-111 146h110l64 -82l63 82h115l-116 -146h-125z" />
    <glyph glyph-name="Ohm" unicode="&#x2126;" horiz-adv-x="768" 
d="M35 0v142h16q8 -21 22.5 -25.5t49.5 -4.5h148v5q-106 19 -161.5 90.5t-55.5 180.5q0 66 25.5 119.5t69.5 90.5t104.5 57t130.5 20q69 0 129 -19.5t104.5 -56.5t70.5 -90.5t26 -120.5q0 -218 -216 -271v-5h148q18 0 30 1t20 4t13 9t8 16h17v-142h-326l6 204q33 4 62 20
t50.5 40.5t34.5 55.5t13 67q0 44 -15 77t-41 55.5t-60 33.5t-71 11q-92 0 -141.5 -44t-49.5 -132q0 -42 12 -74.5t33 -55.5t50 -36.5t63 -17.5l6 -204h-325z" />
    <glyph glyph-name="currency" unicode="&#xa4;" 
d="M306 409q-30 0 -56 -12t-44.5 -32t-29 -46.5t-10.5 -55.5t10.5 -55.5t29 -46.5t44.5 -32t56 -12t56 12t44.5 32t29 46.5t10.5 55.5t-10.5 55.5t-29 46.5t-44.5 32t-56 12zM502 1l-58 57q-21 -19 -58.5 -31t-79.5 -12t-79.5 12t-58.5 31l-58 -57l-64 64l55 56
q-20 23 -31.5 61.5t-11.5 80.5t11.5 80.5t31.5 61.5l-55 56l64 64l58 -57q21 19 58.5 31t79.5 12t79.5 -12t58.5 -31l58 57l64 -64l-55 -56q20 -23 31.5 -61.5t11.5 -80.5t-11.5 -80.5t-31.5 -61.5l55 -56z" />
    <glyph glyph-name="Lslash" unicode="&#x141;" horiz-adv-x="667" 
d="M423 420v-121l-164 -55v-122h344q8 0 12 5.5t6 22.5h12v-173h-12q-2 16 -6 19.5t-12 3.5h-522v12q19 2 23.5 6.5t4.5 11.5v164l-77 -26v119l77 26v183q0 7 -4.5 11.5t-23.5 6.5v12h206v-12q-19 -2 -23.5 -6.5t-4.5 -11.5v-132z" />
    <glyph glyph-name="lslash" unicode="&#x142;" horiz-adv-x="556" 
d="M36 154v94l50 13v149q0 11 -8 14t-19 4v12h187v-12q-11 -1 -18.5 -4t-7.5 -14v-116l125 32v-92l-125 -32v-100h274q6 0 12 4.5t6 20.5h12v-149h-12q0 16 -6 19t-12 3h-435v12q11 1 19 4t8 14v137z" />
    <glyph glyph-name="onesuperior" unicode="&#xb9;" horiz-adv-x="366" 
d="M151 422q-29 -6 -38 -11t-11 -17h-8v98h8q0 -13 7 -13q3 0 9 2t12.5 4.5t12.5 4.5t8 2v16q0 10 -13 14v8h127v-8q-9 -1 -12.5 -4.5t-3.5 -16.5v-270q0 -6 4.5 -8t10.5 -2v-8h-129v8q6 0 11 2t5 8v191z" />
    <glyph glyph-name="minus" unicode="&#x2212;" horiz-adv-x="600" 
d="M80 269h440v-98h-440v98z" />
    <glyph glyph-name="onequarter" unicode="&#xbc;" horiz-adv-x="916" 
d="M114 492h8q0 -13 7 -13q3 0 9 2t12.5 4.5t12.5 4.5t8 2v16q0 10 -13 14v8h127v-8q-9 -1 -12.5 -4.5t-3.5 -16.5v-270q0 -6 4.5 -8t10.5 -2v-8h-129v8q6 0 11 2t5 8v191q-29 -6 -38 -11t-11 -17h-8v98zM694 532l-428 -535h-73l430 535h71zM466 117q20 24 48 56t53 60.5
t42.5 49t17.5 22.5q0 4 -12 4v8h155v-8q-14 0 -14 -4v-188h41q5 0 8.5 2.5t3.5 10.5h8v-87h-8q0 14 -12 14h-41v-38q0 -6 5 -8t10 -3v-8h-115v8q4 1 8 3t4 8v38h-183q-4 0 -7.5 -3t-3.5 -11h-8v74zM668 257l-124 -140h124v140z" />
    <glyph glyph-name="onehalf" unicode="&#xbd;" horiz-adv-x="916" 
d="M94 492h8q0 -13 7 -13q3 0 9 2t12.5 4.5t12.5 4.5t8 2v16q0 10 -13 14v8h127v-8q-9 -1 -12.5 -4.5t-3.5 -16.5v-270q0 -6 4.5 -8t10.5 -2v-8h-129v8q6 0 11 2t5 8v191q-29 -6 -38 -11t-11 -17h-8v98zM650 532l-428 -535h-73l430 535h71zM501 273q2 -2 4.5 -4t7.5 -2t17 8
t31.5 18t47 18t62.5 8q26 0 52.5 -6t47.5 -19t34 -33t13 -48q0 -32 -21.5 -51.5t-51.5 -34t-62 -26.5t-52 -28v-3h181q4 0 8 2.5t4 13.5h8v-98h-8q0 9 -4 10.5t-8 1.5h-298q-4 0 -7.5 -1.5t-3.5 -10.5h-8q-2 40 18.5 70t52.5 53t69.5 41.5t69.5 36.5q7 5 13 11.5t6 18.5
q0 30 -50 30q-13 0 -31.5 -4.5t-35 -12.5t-28 -18.5t-11.5 -22.5q0 -4 3 -7l-8 -6l-69 89z" />
    <glyph glyph-name="Eth" unicode="&#xd0;" horiz-adv-x="722" 
d="M259 217v-99h127q79 0 114 40.5t35 104.5t-35 104.5t-114 40.5h-127v-73h123v-118h-123zM109 335v161q0 7 -4.5 11.5t-23.5 6.5v12h332q69 0 120 -20t84 -55.5t49.5 -83.5t16.5 -104q0 -51 -17.5 -98.5t-53 -84t-88 -58.5t-122.5 -22h-321v12q19 2 23.5 6.5t4.5 11.5v187
h-74v118h74z" />
    <glyph glyph-name="brokenbar" unicode="&#xa6;" horiz-adv-x="222" 
d="M160 675v-350h-98v350h98zM160 175v-348h-98v348h98z" />
    <glyph glyph-name="thorn" unicode="&#xfe;" horiz-adv-x="556" 
d="M313 168q42 0 60 13.5t18 45.5q0 31 -16 45t-54 14h-103v-118h95zM84 410q0 11 -6.5 14t-9.5 4v12h173v-12q-8 -1 -15.5 -4t-7.5 -14v-40h113q37 0 71.5 -6t60.5 -22t42 -43.5t16 -71.5q0 -43 -16 -71t-42 -44t-60.5 -22t-71.5 -6h-113v-54q0 -11 7.5 -14t15.5 -4v-12
h-173v12q3 1 9.5 4t6.5 14v380z" />
    <glyph glyph-name="yacute" unicode="&#xfd;" 
d="M324 495h-103l95 146h155zM377 30q0 -11 7 -14t14 -4v-12h-176v12q7 1 14 4t7 14v129l-191 259q-4 6 -13.5 8t-15.5 2v12h215v-12q-6 0 -14.5 -1.5t-8.5 -9.5q0 -5 9.5 -18.5t23.5 -32.5t31 -40.5t32 -41.5q4 8 18 28t29.5 42t27.5 40t12 23q0 8 -8 9.5t-13 1.5v12h198
v-12q-5 0 -14 -2t-13 -8l-171 -255v-133z" />
    <glyph glyph-name="eth" unicode="&#xf0;" 
d="M221 185v-89h72q78 0 112 27.5t34 96.5t-34 96.5t-112 27.5h-72v-63h90v-96h-90zM87 281v129q0 11 -7.5 14t-18.5 4v12h300q56 0 95 -18t64.5 -48t37 -70t11.5 -84t-11.5 -84t-37 -70t-64.5 -48t-95 -18h-300v12q11 1 18.5 4t7.5 14v155h-54v96h54z" />
    <glyph glyph-name="Scaron" unicode="&#x160;" horiz-adv-x="667" 
d="M271 562l-113 146h112l64 -82l63 82h115l-116 -146h-125zM125 203q-2 -6 -2 -21q0 -10 18.5 -22.5t48 -23.5t67.5 -18.5t77 -7.5q75 0 110 17.5t35 50.5q0 18 -30.5 25.5t-76.5 12t-99 10t-99 20t-76.5 42t-30.5 75.5q0 38 17.5 69t49 53t76.5 34.5t100 12.5
q51 0 95 -6.5t78 -14.5t57 -14.5t33 -6.5t16 4.5t11 10.5l11 -4l-69 -139l-12 6v11q0 9 -19.5 18.5t-49.5 17t-67 12.5t-72 5q-65 0 -91 -15t-26 -32t18 -25.5t47 -12.5t66 -6.5t76 -7.5t76 -14t66 -26.5t47 -46t18 -71.5q0 -33 -13.5 -65t-46 -57.5t-87 -40.5t-135.5 -15
q-63 0 -108.5 6t-77.5 14.5t-50.5 15.5t-27.5 7q-6 0 -10.5 -4t-9.5 -9l-12 3l74 178z" />
    <glyph glyph-name="multiply" unicode="&#xd7;" horiz-adv-x="600" 
d="M150 440l151 -151l150 151l69 -71l-150 -149l150 -151l-69 -69l-150 150l-151 -150l-70 69l151 151l-151 149z" />
    <glyph glyph-name="twosuperior" unicode="&#xb2;" horiz-adv-x="366" 
d="M21 486q2 -2 4.5 -4t7.5 -2t17 8t31.5 18t47 18t62.5 8q26 0 52.5 -6t47.5 -19t34 -33t13 -48q0 -32 -21.5 -51.5t-51.5 -34t-62 -26.5t-52 -28v-3h181q4 0 8 2.5t4 13.5h8v-101h-8q0 9 -4 12t-8 3h-298q-4 0 -7.5 -3t-3.5 -12h-8q-2 42 18.5 72.5t52.5 54t69.5 41.5
t69.5 36q7 5 13 11.5t6 18.5q0 30 -50 30q-13 0 -31.5 -4.5t-35 -12.5t-28 -18.5t-11.5 -22.5q0 -4 3 -7l-8 -6l-69 89z" />
    <glyph glyph-name="zcaron" unicode="&#x17e;" horiz-adv-x="556" 
d="M216 495l-113 146h112l64 -82l63 82h115l-116 -146h-125zM90 338q-9 0 -13.5 -3.5t-4.5 -19.5h-12v148h12q0 -16 4.5 -19.5t13.5 -3.5h402v-12l-231 -326h215q9 0 13.5 4t4.5 22h12v-148h-12q0 16 -4.5 18t-13.5 2h-426v12l233 326h-193z" />
    <glyph glyph-name="Yacute" unicode="&#xdd;" horiz-adv-x="667" 
d="M352 562h-103l95 146h155zM629 526v-12q-8 0 -13.5 -5.5t-10.5 -12.5l-192 -271v-195q0 -7 4.5 -11.5t23.5 -6.5v-12h-206v12q19 2 23.5 6.5t4.5 11.5v176l-191 274q-16 23 -21 28.5t-12 5.5v12h220v-12q-9 0 -17 -2t-8 -10q0 -4 13 -24t30.5 -46t36.5 -53t31 -46
q3 5 13 18.5t22.5 31.5t27 38t26 37t19.5 29.5t8 14.5q0 8 -7.5 10t-14.5 2v12h190z" />
    <glyph glyph-name="threesuperior" unicode="&#xb3;" horiz-adv-x="366" 
d="M61 337q-2 -6 -2 -11q0 -7 12 -15.5t31.5 -15.5t43 -11.5t47.5 -4.5q9 0 21 1t22.5 4.5t18 10t7.5 18.5q0 23 -20.5 29t-65.5 6q-20 0 -20 -16h-8v91h8q1 -7 5 -10t15 -3q42 0 57 5t15 25q0 19 -19 23.5t-40 4.5q-15 0 -34.5 -4t-37 -10t-29.5 -13.5t-12 -15.5v-4
q0 -3 1 -4l-6 -4l-54 79l7 4q4 -4 11 -4q3 0 15 6.5t32.5 14t48 13.5t61.5 6q27 0 53.5 -5t47.5 -15.5t34 -27.5t13 -42q0 -24 -14 -37.5t-26 -20.5v-3q27 -11 42.5 -29t15.5 -47q0 -25 -15.5 -43.5t-39 -30t-50 -17t-49.5 -5.5q-36 0 -67.5 5.5t-55.5 12.5t-38.5 12.5
t-16.5 5.5q-5 0 -9 -7l-8 1l44 102z" />
    <glyph glyph-name="Zcaron" unicode="&#x17d;" 
d="M243 562l-113 146h112l64 -82l63 82h115l-116 -146h-125zM542 118q8 0 12 4.5t6 17.5h12v-159h-12q-2 13 -6 16t-12 3h-512v12l288 396h-239q-8 0 -12 -4.5t-6 -18.5h-12v169h12q2 -17 6 -22.5t12 -5.5h493v-12l-290 -396h260z" />
    <glyph glyph-name="threequarters" unicode="&#xbe;" horiz-adv-x="916" 
d="M742 532l-428 -535h-73l430 535h71zM99 339q-3 -9 -3 -13q0 -7 12 -15.5t31.5 -15.5t43.5 -11.5t48 -4.5q9 0 21 1t22.5 4.5t18 10t7.5 18.5q0 23 -20.5 29t-65.5 6q-13 0 -16 -3t-4 -13h-8v91h8q1 -8 4 -10.5t16 -2.5q42 0 57 5t15 25q0 19 -19 23.5t-40 4.5
q-15 0 -34.5 -4t-37 -10t-30 -13.5t-12.5 -15.5q0 -2 2 -8l-6 -4l-54 79l7 4q4 -4 11 -4q3 0 15 6.5t32.5 14t48 13.5t61.5 6q27 0 53.5 -5t47.5 -15.5t34 -27.5t13 -42q0 -24 -14 -37.5t-26 -20.5v-3q27 -11 42.5 -29t15.5 -47q0 -25 -15.5 -43.5t-39 -30t-50 -17
t-49.5 -5.5q-36 0 -67.5 5.5t-55.5 12.5q-23 7 -38 12.5t-17 5.5q-3 0 -5 -3t-4 -5l-8 2l44 102zM526 117q20 24 48 56t53 60.5t42.5 49t17.5 22.5q0 4 -12 4v8h155v-8q-14 0 -14 -4v-188h41q5 0 8.5 2.5t3.5 10.5h8v-87h-8q0 14 -12 14h-41v-38q0 -6 5 -8t10 -3v-8h-115v8
q4 1 8 3t4 8v38h-183q-4 0 -7.5 -3t-3.5 -11h-8v74zM728 257h-1l-123 -140h124v140z" />
    <glyph glyph-name="scaron" unicode="&#x161;" horiz-adv-x="556" 
d="M216 495l-113 146h112l64 -82l63 82h115l-116 -146h-125zM92 147q0 -2 -0.5 -4.5t-0.5 -6.5q0 -10 19 -19t48.5 -16.5t64 -12t64.5 -4.5q9 0 24.5 1t30.5 5.5t25.5 13t10.5 23.5q0 20 -24 28.5t-60.5 13t-79 9.5t-79 17.5t-60.5 36t-24 65.5q0 23 12 49.5t38 48.5
t68.5 36.5t103.5 14.5q36 0 68.5 -4t59 -9t45 -9t26.5 -4t13 4.5t9 7.5l11 -4l-60 -126l-13 6q0 2 0.5 5t0.5 6q0 4 -12 10t-31.5 12t-44 10.5t-50.5 4.5q-9 0 -28 -0.5t-38 -5t-33.5 -13t-14.5 -25.5q0 -18 24 -25.5t60.5 -12t79 -10t79 -18.5t60.5 -37.5t24 -68.5
q0 -29 -13 -55.5t-40 -46.5t-68.5 -30.5t-98.5 -10.5q-36 0 -73 4.5t-68 11t-51.5 12t-23.5 5.5q-7 0 -12.5 -4.5t-10.5 -9.5l-11 3l41 134z" />
    <glyph glyph-name="Thorn" unicode="&#xde;" horiz-adv-x="667" 
d="M411 219q42 0 61.5 14t19.5 46q0 29 -19.5 42t-61.5 13h-152v-115h152zM259 30q0 -7 4.5 -11.5t23.5 -6.5v-12h-206v12q19 2 23.5 6.5t4.5 11.5v466q0 7 -4.5 11.5t-23.5 6.5v12h206v-12q-19 -2 -23.5 -6.5t-4.5 -11.5v-50h180q47 0 83 -13.5t60 -36.5t36 -53.5t12 -63.5
t-12 -63.5t-36 -53t-60 -36t-83 -13.5h-180v-83z" />
    <glyph glyph-name="gravecmb" unicode="&#x300;" horiz-adv-x="0" 
d="M-79 495h-103l-147 146h155z" />
    <glyph glyph-name="acutecmb" unicode="&#x301;" horiz-adv-x="0" 
d="M-145 495h-103l95 146h155z" />
    <glyph glyph-name="circumflexcmb" unicode="&#x302;" horiz-adv-x="0" 
d="M15 495h-115l-63 83l-64 -83h-110l111 146h125z" />
    <glyph glyph-name="tildecmb" unicode="&#x303;" horiz-adv-x="0" 
d="M20 630q-5 -22 -13 -44t-21 -39t-31.5 -27.5t-45.5 -10.5q-19 0 -39 5.5t-39.5 12t-37 12t-32.5 5.5q-18 0 -29.5 -13t-15.5 -29h-59q3 23 10 45t21 39.5t34 28t46 10.5q21 0 40 -5.5t36.5 -12.5t33.5 -12.5t30 -5.5q20 0 31 12t16 29h65z" />
    <glyph glyph-name="macroncmb" unicode="&#x304;" horiz-adv-x="0" 
d="M-334 601h344v-74h-344v74z" />
    <glyph glyph-name="brevecmb" unicode="&#x306;" horiz-adv-x="0" 
d="M4 641q-10 -75 -54.5 -110.5t-119.5 -35.5q-69 0 -114 37t-46 109h65q2 -21 11.5 -35t24 -21.5t32 -10.5t35.5 -3q40 0 66 14t34 56h66z" />
    <glyph glyph-name="dotaccentcmb" unicode="&#x307;" horiz-adv-x="0" 
d="M-228 620h128v-116h-128v116z" />
    <glyph glyph-name="dieresiscmb" unicode="&#x308;" horiz-adv-x="0" 
d="M98 641l-147 -146h-103l95 146h155zM-110 641l-128 -146h-96l74 146h150z" />
    <glyph glyph-name="ringcmb" unicode="&#x30a;" horiz-adv-x="0" 
d="M-164 646q-23 0 -38 -15t-15 -38t15 -38t38 -15t38 15t15 38t-15 38t-38 15zM-164 700q22 0 41.5 -8.5t34 -23t23 -34t8.5 -41.5t-8.5 -41.5t-23 -34t-34 -23t-41.5 -8.5t-41.5 8.5t-34 23t-23 34t-8.5 41.5t8.5 41.5t23 34t34 23t41.5 8.5z" />
    <glyph glyph-name="hungarumlautcmb" unicode="&#x30b;" horiz-adv-x="0" 
d="M98 641l-147 -146h-103l95 146h155zM-110 641l-128 -146h-96l74 146h150z" />
    <glyph glyph-name="caroncmb" unicode="&#x30c;" horiz-adv-x="0" 
d="M-226 495l-111 146h110l64 -82l63 82h115l-116 -146h-125z" />
    <glyph glyph-name="cedillacmb" unicode="&#x327;" horiz-adv-x="0" 
d="M-267 -147q18 -6 37 -11t38 -5q22 0 38 8t16 32q0 14 -12.5 23.5t-26.5 9.5q-12 0 -23 -2.5t-22 -5.5l-21 20l59 87h53l-43 -58l2 -2q6 2 15 4t17 2q18 0 34 -5t28.5 -15t20 -24.5t7.5 -32.5q0 -25 -12 -43t-30.5 -29.5t-41 -17t-43.5 -5.5q-28 0 -55.5 7.5t-53.5 18.5z
" />
    <glyph glyph-name="ogonekcmb" unicode="&#x328;" horiz-adv-x="0" 
d="M-72 8q-20 -8 -44.5 -17.5t-45.5 -24.5t-35.5 -34.5t-14.5 -45.5q0 -23 14.5 -36t36.5 -13q24 0 50 13.5t46 26.5l20 -34q-34 -23 -71.5 -41.5t-79.5 -18.5q-43 0 -73.5 23.5t-30.5 68.5q0 40 24.5 66t60 42.5t74.5 24t69 12.5v-12z" />
    <glyph glyph-name="soliduslongoverlaycmb" unicode="&#x338;" horiz-adv-x="0" 
d="M-83 532h119l-244 -536h-117z" />
    <glyph glyph-name="uni0132" unicode="&#x132;" horiz-adv-x="945" 
d="M92 12q19 2 23.5 6.5t4.5 11.5v466q0 7 -4.5 11.5t-23.5 6.5v12h206v-12q-19 -2 -23.5 -6.5t-4.5 -11.5v-466q0 -7 4.5 -11.5t23.5 -6.5v-12h-206v12zM482 187q-1 -5 -1.5 -9t-0.5 -6q0 -18 17.5 -29.5t40.5 -18.5t46 -9.5t34 -2.5q43 0 56.5 19t13.5 57v308
q0 7 -4.5 11.5t-23.5 6.5v12h206v-12q-19 -2 -23.5 -6.5t-4.5 -11.5v-333q0 -53 -17.5 -86t-48 -51t-71.5 -23.5t-88 -5.5q-36 0 -66 4t-52.5 10t-36.5 11t-18 5q-8 0 -11.5 -3t-11.5 -10l-15 9l68 168z" />
    <glyph glyph-name="uni0133" unicode="&#x133;" horiz-adv-x="777" 
d="M266 428q-15 -1 -23.5 -4t-8.5 -14v-380q0 -11 8.5 -14t23.5 -4v-12h-198v12q15 1 23.5 4t8.5 14v380q0 11 -8.5 14t-23.5 4v12h198v-12zM397 144v-13q2 -15 25 -25t68 -10q35 0 53 12t18 47v255q0 11 -7 14t-15 4v12h175v-12q-5 -1 -12 -4t-7 -14v-266q0 -44 -14.5 -73
t-40.5 -46t-62 -22.5t-80 -5.5q-20 0 -42 2t-40.5 5.5t-31.5 6.5t-16 3q-5 0 -8.5 -3t-7.5 -7l-9 4l42 140z" />
    <glyph glyph-name="clickdental" unicode="&#x1c0;" horiz-adv-x="222" 
d="M160 750v-998h-98v998h98z" />
    <glyph glyph-name="clicklateral" unicode="&#x1c1;" horiz-adv-x="444" 
d="M160 750v-998h-98v998h98zM382 750v-998h-98v998h98z" />
    <glyph glyph-name="combininggraphemejoiner" unicode="&#x34f;" horiz-adv-x="0" 
 />
    <glyph glyph-name="zerowidthspace" unicode="&#x200b;" horiz-adv-x="0" 
 />
    <glyph glyph-name="afii61664" unicode="&#x200c;" horiz-adv-x="0" 
 />
    <glyph glyph-name="afii301" unicode="&#x200d;" horiz-adv-x="0" 
 />
    <glyph glyph-name="centigrade" unicode="&#x2103;" horiz-adv-x="1055" 
d="M204 549q30 0 56 -11t45.5 -30.5t30.5 -45.5t11 -56t-11 -56t-30.5 -45.5t-45.5 -30.5t-56 -11t-56 11t-45.5 30.5t-30.5 45.5t-11 56t11 56t30.5 45.5t45.5 30.5t56 11zM117 406q0 -18 6.5 -34t18 -28t27.5 -19.5t35 -7.5t35 7.5t27.5 19.5t18 28t6.5 34t-6.5 34t-18 28
t-27.5 19.5t-35 7.5t-35 -7.5t-27.5 -19.5t-18 -28t-6.5 -34zM893 339q1 3 1.5 6.5t0.5 8.5q0 8 -13.5 16t-36 14.5t-51.5 11t-61 4.5q-30 0 -63 -7t-60.5 -23t-45 -42.5t-17.5 -64.5t17.5 -64.5t45 -42.5t60.5 -23t63 -7q13 0 41 4.5t56 12.5t49.5 18t21.5 21q0 5 -2 8
t-4 7l11 7l103 -157l-12 -7q-2 5 -5.5 6.5t-8.5 1.5q-7 0 -28 -8.5t-54.5 -18t-78.5 -17t-101 -7.5q-60 0 -119 15.5t-106 49t-76 84t-29 117.5t29 117.5t76 84t106 50.5t119 17t103.5 -6.5t73.5 -14.5q29 -8 45 -13.5t24 -5.5q9 0 15 8l11 -3l-90 -165z" />
    <glyph glyph-name="fahrenheit" unicode="&#x2109;" horiz-adv-x="1020" 
d="M213 538q30 0 56 -11t45.5 -30.5t30.5 -45.5t11 -56t-11 -56t-30.5 -45.5t-45.5 -30.5t-56 -11t-56 11t-45.5 30.5t-30.5 45.5t-11 56t11 56t30.5 45.5t45.5 30.5t56 11zM126 395q0 -18 6.5 -34t18 -28t27.5 -19.5t35 -7.5t35 7.5t27.5 19.5t18 28t6.5 34t-6.5 34t-18 28
t-27.5 19.5t-35 7.5t-35 -7.5t-27.5 -19.5t-18 -28t-6.5 -34zM964 380q-2 14 -6 19t-12 5h-330v-89h222q8 0 12 4.5t6 18.5h12v-168h-12q-2 17 -6 22t-12 5h-222v-167q0 -7 4.5 -11.5t23.5 -6.5v-12h-210v12q19 2 23.5 6.5t4.5 11.5v466q0 7 -4.5 11.5t-23.5 6.5v12h512
q8 0 12 5.5t6 22.5h12v-174h-12z" />
    <glyph glyph-name="kelvin" unicode="&#x212a;" horiz-adv-x="722" 
d="M476 12q9 0 14 1.5t5 11.5q0 3 -9 18t-23 37t-31 47t-32 48t-27 40t-16 23l-98 -88v-120q0 -7 4.5 -11.5t23.5 -6.5v-12h-206v12q19 2 23.5 6.5t4.5 11.5v466q0 7 -4.5 11.5t-23.5 6.5v12h206v-12q-19 -2 -23.5 -6.5t-4.5 -11.5v-180h7q30 29 64.5 60t63.5 57.5t48.5 45
t19.5 22.5q0 9 -5 10.5t-13 2.5v12h254v-12q-10 -1 -16.5 -3t-12 -6t-12 -9.5t-15.5 -13.5l-173 -149l204 -305q8 -12 15 -14t17 -2v-12h-229v12z" />
    <glyph glyph-name="angstrom" unicode="&#x212b;" horiz-adv-x="722" 
d="M349 713q-23 0 -38 -15t-15 -38t15 -38t38 -15t38 15t15 38t-15 38t-38 15zM349 767q22 0 41.5 -8.5t34 -23t23 -34t8.5 -41.5t-8.5 -41.5t-23 -34t-34 -23t-41.5 -8.5t-41.5 8.5t-34 23t-23 34t-8.5 41.5t8.5 41.5t23 34t34 23t41.5 8.5zM232 114q-10 -27 -16 -44
t-9.5 -27t-5 -14.5t-1.5 -6.5q0 -5 3.5 -7.5t14.5 -2.5v-12h-177v12q11 2 16 6.5t10 16.5q2 5 10 27t21 55.5t29 74.5t32 83.5t31.5 83t27.5 72.5l19.5 52t7.5 21q0 5 -6.5 7t-13.5 3v12h261v-12q-8 -1 -13 -3t-5 -10q0 -2 9.5 -26t24.5 -62.5t34.5 -87t40.5 -99t40.5 -98.5
t35.5 -86q8 -18 13.5 -24t14.5 -6v-12h-197v12q19 1 19 12q0 1 -5 13.5t-11 28t-11.5 29.5t-6.5 19h-237zM443 194l-97 238l-89 -238h186z" />
    <glyph glyph-name="Oneroman" unicode="&#x2160;" horiz-adv-x="389" 
d="M92 12q19 2 23.5 6.5t4.5 11.5v466q0 7 -4.5 11.5t-23.5 6.5v12h206v-12q-19 -2 -23.5 -6.5t-4.5 -11.5v-466q0 -7 4.5 -11.5t23.5 -6.5v-12h-206v12z" />
    <glyph glyph-name="Tworoman" unicode="&#x2161;" horiz-adv-x="778" 
d="M92 12q19 2 23.5 6.5t4.5 11.5v466q0 7 -4.5 11.5t-23.5 6.5v12h206v-12q-19 -2 -23.5 -6.5t-4.5 -11.5v-466q0 -7 4.5 -11.5t23.5 -6.5v-12h-206v12zM481 12q19 2 23.5 6.5t4.5 11.5v466q0 7 -4.5 11.5t-23.5 6.5v12h206v-12q-19 -2 -23.5 -6.5t-4.5 -11.5v-466
q0 -7 4.5 -11.5t23.5 -6.5v-12h-206v12z" />
    <glyph glyph-name="Threeroman" unicode="&#x2162;" horiz-adv-x="1167" 
d="M92 12q19 2 23.5 6.5t4.5 11.5v466q0 7 -4.5 11.5t-23.5 6.5v12h206v-12q-19 -2 -23.5 -6.5t-4.5 -11.5v-466q0 -7 4.5 -11.5t23.5 -6.5v-12h-206v12zM481 12q19 2 23.5 6.5t4.5 11.5v466q0 7 -4.5 11.5t-23.5 6.5v12h206v-12q-19 -2 -23.5 -6.5t-4.5 -11.5v-466
q0 -7 4.5 -11.5t23.5 -6.5v-12h-206v12zM870 12q19 2 23.5 6.5t4.5 11.5v466q0 7 -4.5 11.5t-23.5 6.5v12h206v-12q-19 -2 -23.5 -6.5t-4.5 -11.5v-466q0 -7 4.5 -11.5t23.5 -6.5v-12h-206v12z" />
    <glyph glyph-name="Fourroman" unicode="&#x2163;" horiz-adv-x="1056" 
d="M92 12q19 2 23.5 6.5t4.5 11.5v466q0 7 -4.5 11.5t-23.5 6.5v12h206v-12q-19 -2 -23.5 -6.5t-4.5 -11.5v-466q0 -7 4.5 -11.5t23.5 -6.5v-12h-206v12zM623 12q9 2 12 4t3 5q0 2 -8 20.5t-20.5 48.5t-29.5 68t-34.5 79t-35.5 81t-33 74t-25.5 59t-14.5 35q-7 17 -11 22
t-12 6v12h205v-12q-12 -1 -16 -4t-4 -8q0 -3 4.5 -12.5t19 -40.5t42 -90t74.5 -161q45 99 71.5 157.5t41 89.5t18.5 42.5t4 15.5q0 5 -3 7.5t-12 3.5v12h172v-12q-6 -2 -9.5 -4t-5.5 -9q-2 -6 -12 -29t-24.5 -57t-32 -75.5t-36 -84.5t-36 -84t-31 -73t-21.5 -53t-8 -23
q0 -9 14 -9v-13h-206v12z" />
    <glyph glyph-name="Fiveroman" unicode="&#x2164;" horiz-adv-x="667" 
d="M234 12q9 2 12 4t3 5q0 2 -8 20.5t-20.5 48.5t-29.5 68t-34.5 79t-35.5 81t-33 74t-25.5 59t-14.5 35q-7 17 -11 22t-12 6v12h205v-12q-12 -1 -16 -4t-4 -8q0 -3 4.5 -12.5t19 -40.5t42 -90t74.5 -161q45 99 71.5 157.5t41 89.5t18.5 42.5t4 15.5q0 5 -3 7.5t-12 3.5v12
h172v-12q-6 -2 -9.5 -4t-5.5 -9q-2 -6 -12 -29t-24.5 -57t-32 -75.5t-36 -84.5t-36 -84t-31 -73t-21.5 -53t-8 -23q0 -9 14 -9v-13h-206v12z" />
    <glyph glyph-name="Sixroman" unicode="&#x2165;" horiz-adv-x="1056" 
d="M234 12q9 2 12 4t3 5q0 2 -8 20.5t-20.5 48.5t-29.5 68t-34.5 79t-35.5 81t-33 74t-25.5 59t-14.5 35q-7 17 -11 22t-12 6v12h205v-12q-12 -1 -16 -4t-4 -8q0 -3 4.5 -12.5t19 -40.5t42 -90t74.5 -161q45 99 71.5 157.5t41 89.5t18.5 42.5t4 15.5q0 5 -3 7.5t-12 3.5v12
h172v-12q-6 -2 -9.5 -4t-5.5 -9q-2 -6 -12 -29t-24.5 -57t-32 -75.5t-36 -84.5t-36 -84t-31 -73t-21.5 -53t-8 -23q0 -9 14 -9v-13h-206v12zM759 12q19 2 23.5 6.5t4.5 11.5v466q0 7 -4.5 11.5t-23.5 6.5v12h206v-12q-19 -2 -23.5 -6.5t-4.5 -11.5v-466q0 -7 4.5 -11.5
t23.5 -6.5v-12h-206v12z" />
    <glyph glyph-name="Sevenroman" unicode="&#x2166;" horiz-adv-x="1445" 
d="M234 12q9 2 12 4t3 5q0 2 -8 20.5t-20.5 48.5t-29.5 68t-34.5 79t-35.5 81t-33 74t-25.5 59t-14.5 35q-7 17 -11 22t-12 6v12h205v-12q-12 -1 -16 -4t-4 -8q0 -3 4.5 -12.5t19 -40.5t42 -90t74.5 -161q45 99 71.5 157.5t41 89.5t18.5 42.5t4 15.5q0 5 -3 7.5t-12 3.5v12
h172v-12q-6 -2 -9.5 -4t-5.5 -9q-2 -6 -12 -29t-24.5 -57t-32 -75.5t-36 -84.5t-36 -84t-31 -73t-21.5 -53t-8 -23q0 -9 14 -9v-13h-206v12zM759 12q19 2 23.5 6.5t4.5 11.5v466q0 7 -4.5 11.5t-23.5 6.5v12h206v-12q-19 -2 -23.5 -6.5t-4.5 -11.5v-466q0 -7 4.5 -11.5
t23.5 -6.5v-12h-206v12zM1148 12q19 2 23.5 6.5t4.5 11.5v466q0 7 -4.5 11.5t-23.5 6.5v12h206v-12q-19 -2 -23.5 -6.5t-4.5 -11.5v-466q0 -7 4.5 -11.5t23.5 -6.5v-12h-206v12z" />
    <glyph glyph-name="Eightroman" unicode="&#x2167;" horiz-adv-x="1834" 
d="M234 12q9 2 12 4t3 5q0 2 -8 20.5t-20.5 48.5t-29.5 68t-34.5 79t-35.5 81t-33 74t-25.5 59t-14.5 35q-7 17 -11 22t-12 6v12h205v-12q-12 -1 -16 -4t-4 -8q0 -3 4.5 -12.5t19 -40.5t42 -90t74.5 -161q45 99 71.5 157.5t41 89.5t18.5 42.5t4 15.5q0 5 -3 7.5t-12 3.5v12
h172v-12q-6 -2 -9.5 -4t-5.5 -9q-2 -6 -12 -29t-24.5 -57t-32 -75.5t-36 -84.5t-36 -84t-31 -73t-21.5 -53t-8 -23q0 -9 14 -9v-13h-206v12zM759 12q19 2 23.5 6.5t4.5 11.5v466q0 7 -4.5 11.5t-23.5 6.5v12h206v-12q-19 -2 -23.5 -6.5t-4.5 -11.5v-466q0 -7 4.5 -11.5
t23.5 -6.5v-12h-206v12zM1148 12q19 2 23.5 6.5t4.5 11.5v466q0 7 -4.5 11.5t-23.5 6.5v12h206v-12q-19 -2 -23.5 -6.5t-4.5 -11.5v-466q0 -7 4.5 -11.5t23.5 -6.5v-12h-206v12zM1537 12q19 2 23.5 6.5t4.5 11.5v466q0 7 -4.5 11.5t-23.5 6.5v12h206v-12q-19 -2 -23.5 -6.5
t-4.5 -11.5v-466q0 -7 4.5 -11.5t23.5 -6.5v-12h-206v12z" />
    <glyph glyph-name="Nineroman" unicode="&#x2168;" horiz-adv-x="1111" 
d="M92 12q19 2 23.5 6.5t4.5 11.5v466q0 7 -4.5 11.5t-23.5 6.5v12h206v-12q-19 -2 -23.5 -6.5t-4.5 -11.5v-466q0 -7 4.5 -11.5t23.5 -6.5v-12h-206v12zM436 12q9 0 23 17l200 238l-186 234q-7 8 -12.5 10.5t-10.5 2.5v12h234v-12q-12 -1 -18 -3t-6 -10q0 -2 13 -18.5
t29.5 -36t31 -37t18.5 -22.5l21 24.5t30.5 36.5t28 34.5t12.5 18.5q0 8 -7.5 10.5t-13.5 2.5v12h229v-12q-16 -1 -25 -12l-184 -228l203 -257q3 -4 8 -4.5t10 -0.5v-12h-234v12q19 0 19 5q0 4 -9.5 18t-24 33.5t-32 42t-33.5 43.5q-3 -5 -12.5 -16t-21 -24t-24.5 -27.5
t-24 -27.5t-18 -22.5t-7 -13.5q0 -8 9 -9.5t15 -1.5v-12h-231v12z" />
    <glyph glyph-name="Tenroman" unicode="&#x2169;" horiz-adv-x="722" 
d="M47 12q9 0 23 17l200 238l-186 234q-7 8 -12.5 10.5t-10.5 2.5v12h234v-12q-12 -1 -18 -3t-6 -10q0 -2 13 -18.5t29.5 -36t31 -37t18.5 -22.5l21 24.5t30.5 36.5t28 34.5t12.5 18.5q0 8 -7.5 10.5t-13.5 2.5v12h229v-12q-16 -1 -25 -12l-184 -228l203 -257q3 -4 8 -4.5
t10 -0.5v-12h-234v12q19 0 19 5q0 4 -9.5 18t-24 33.5t-32 42t-33.5 43.5q-3 -5 -12.5 -16t-21 -24t-24.5 -27.5t-24 -27.5t-18 -22.5t-7 -13.5q0 -8 9 -9.5t15 -1.5v-12h-231v12z" />
    <glyph glyph-name="Elevenroman" unicode="&#x216a;" horiz-adv-x="1111" 
d="M47 12q9 0 23 17l200 238l-186 234q-7 8 -12.5 10.5t-10.5 2.5v12h234v-12q-12 -1 -18 -3t-6 -10q0 -2 13 -18.5t29.5 -36t31 -37t18.5 -22.5l21 24.5t30.5 36.5t28 34.5t12.5 18.5q0 8 -7.5 10.5t-13.5 2.5v12h229v-12q-16 -1 -25 -12l-184 -228l203 -257q3 -4 8 -4.5
t10 -0.5v-12h-234v12q19 0 19 5q0 4 -9.5 18t-24 33.5t-32 42t-33.5 43.5q-3 -5 -12.5 -16t-21 -24t-24.5 -27.5t-24 -27.5t-18 -22.5t-7 -13.5q0 -8 9 -9.5t15 -1.5v-12h-231v12zM814 12q19 2 23.5 6.5t4.5 11.5v466q0 7 -4.5 11.5t-23.5 6.5v12h206v-12q-19 -2 -23.5 -6.5
t-4.5 -11.5v-466q0 -7 4.5 -11.5t23.5 -6.5v-12h-206v12z" />
    <glyph glyph-name="Twelveroman" unicode="&#x216b;" horiz-adv-x="1500" 
d="M47 12q9 0 23 17l200 238l-186 234q-7 8 -12.5 10.5t-10.5 2.5v12h234v-12q-12 -1 -18 -3t-6 -10q0 -2 13 -18.5t29.5 -36t31 -37t18.5 -22.5l21 24.5t30.5 36.5t28 34.5t12.5 18.5q0 8 -7.5 10.5t-13.5 2.5v12h229v-12q-16 -1 -25 -12l-184 -228l203 -257q3 -4 8 -4.5
t10 -0.5v-12h-234v12q19 0 19 5q0 4 -9.5 18t-24 33.5t-32 42t-33.5 43.5q-3 -5 -12.5 -16t-21 -24t-24.5 -27.5t-24 -27.5t-18 -22.5t-7 -13.5q0 -8 9 -9.5t15 -1.5v-12h-231v12zM814 12q19 2 23.5 6.5t4.5 11.5v466q0 7 -4.5 11.5t-23.5 6.5v12h206v-12q-19 -2 -23.5 -6.5
t-4.5 -11.5v-466q0 -7 4.5 -11.5t23.5 -6.5v-12h-206v12zM1203 12q19 2 23.5 6.5t4.5 11.5v466q0 7 -4.5 11.5t-23.5 6.5v12h206v-12q-19 -2 -23.5 -6.5t-4.5 -11.5v-466q0 -7 4.5 -11.5t23.5 -6.5v-12h-206v12z" />
    <glyph glyph-name="uni216C" unicode="&#x216c;" horiz-adv-x="667" 
d="M603 122q8 0 12 5.5t6 22.5h12v-173h-12q-2 16 -6 19.5t-12 3.5h-522v12q19 2 23.5 6.5t4.5 11.5v466q0 7 -4.5 11.5t-23.5 6.5v12h206v-12q-19 -2 -23.5 -6.5t-4.5 -11.5v-374h344z" />
    <glyph glyph-name="uni216D" unicode="&#x216d;" horiz-adv-x="722" 
d="M560 339q1 3 1.5 6.5t0.5 8.5q0 8 -13.5 16t-36 14.5t-51.5 11t-61 4.5q-30 0 -63 -7t-60.5 -23t-45 -42.5t-17.5 -64.5t17.5 -64.5t45 -42.5t60.5 -23t63 -7q13 0 41 4.5t56 12.5t49.5 18t21.5 21q0 5 -2 8t-4 7l11 7l103 -157l-12 -7q-2 5 -5.5 6.5t-8.5 1.5
q-7 0 -28 -8.5t-54.5 -18t-78.5 -17t-101 -7.5q-60 0 -119 15.5t-106 49t-76 84t-29 117.5t29 117.5t76 84t106 50.5t119 17t103.5 -6.5t73.5 -14.5q29 -8 45 -13.5t24 -5.5q9 0 15 8l11 -3l-90 -165z" />
    <glyph glyph-name="uni216E" unicode="&#x216e;" horiz-adv-x="722" 
d="M386 118q79 0 114 40.5t35 104.5t-35 104.5t-114 40.5h-127v-290h127zM109 496q0 7 -4.5 11.5t-23.5 6.5v12h332q69 0 120 -20t84 -55.5t49.5 -83.5t16.5 -104q0 -51 -17.5 -98.5t-53 -84t-88 -58.5t-122.5 -22h-321v12q19 2 23.5 6.5t4.5 11.5v466z" />
    <glyph glyph-name="uni216F" unicode="&#x216f;" horiz-adv-x="833" 
d="M555 12q19 2 23.5 6.5t4.5 11.5v368l-2 2l-178 -388l-176 392h-2v-374q0 -7 4.5 -11.5t23.5 -6.5v-12h-176v12q19 2 23.5 6.5t4.5 11.5v466q0 7 -4.5 11.5t-23.5 6.5v12h261v-12q-24 -1 -24 -18q0 -1 6 -16t15.5 -37t21 -47.5t22 -49t18.5 -41.5t11 -24q17 38 35 74
t32.5 66t23.5 50t9 25q0 17 -24 18v12h271v-12q-19 -2 -23.5 -6.5t-4.5 -11.5v-466q0 -7 4.5 -11.5t23.5 -6.5v-12h-200v12z" />
    <glyph glyph-name="oneroman" unicode="&#x2170;" horiz-adv-x="333" 
d="M266 428q-15 -1 -23.5 -4t-8.5 -14v-380q0 -11 8.5 -14t23.5 -4v-12h-198v12q15 1 23.5 4t8.5 14v380q0 11 -8.5 14t-23.5 4v12h198v-12z" />
    <glyph glyph-name="tworoman" unicode="&#x2171;" horiz-adv-x="666" 
d="M266 428q-15 -1 -23.5 -4t-8.5 -14v-380q0 -11 8.5 -14t23.5 -4v-12h-198v12q15 1 23.5 4t8.5 14v380q0 11 -8.5 14t-23.5 4v12h198v-12zM599 428q-15 -1 -23.5 -4t-8.5 -14v-380q0 -11 8.5 -14t23.5 -4v-12h-198v12q15 1 23.5 4t8.5 14v380q0 11 -8.5 14t-23.5 4v12h198
v-12z" />
    <glyph glyph-name="threeroman" unicode="&#x2172;" horiz-adv-x="999" 
d="M266 428q-15 -1 -23.5 -4t-8.5 -14v-380q0 -11 8.5 -14t23.5 -4v-12h-198v12q15 1 23.5 4t8.5 14v380q0 11 -8.5 14t-23.5 4v12h198v-12zM599 428q-15 -1 -23.5 -4t-8.5 -14v-380q0 -11 8.5 -14t23.5 -4v-12h-198v12q15 1 23.5 4t8.5 14v380q0 11 -8.5 14t-23.5 4v12h198
v-12zM932 428q-15 -1 -23.5 -4t-8.5 -14v-380q0 -11 8.5 -14t23.5 -4v-12h-198v12q15 1 23.5 4t8.5 14v380q0 11 -8.5 14t-23.5 4v12h198v-12z" />
    <glyph glyph-name="fourroman" unicode="&#x2173;" horiz-adv-x="889" 
d="M266 428q-15 -1 -23.5 -4t-8.5 -14v-380q0 -11 8.5 -14t23.5 -4v-12h-198v12q15 1 23.5 4t8.5 14v380q0 11 -8.5 14t-23.5 4v12h198v-12zM545 440v-12q-6 0 -15.5 -1t-9.5 -9q0 -2 6 -20t15.5 -44t20.5 -56.5t21 -58t17.5 -48.5t9.5 -28h2q13 32 31 74.5t34 81.5
t27.5 67.5t11.5 31.5q0 8 -9 9t-14 1v12h167v-12q-8 -1 -13.5 -3.5t-7.5 -10.5q-3 -11 -15.5 -43t-30 -74t-36.5 -88.5t-35.5 -86t-27 -66t-10.5 -28.5q0 -8 7 -12.5t14 -3.5v-12h-211v12q7 -1 14 3.5t7 12.5q0 1 -9.5 30t-24 72t-32 93.5t-33.5 94t-27.5 73.5t-15.5 32
q-6 4 -9.5 4.5t-7.5 0.5v12h189z" />
    <glyph glyph-name="fiveroman" unicode="&#x2174;" horiz-adv-x="556" 
d="M212 440v-12q-6 0 -15.5 -1t-9.5 -9q0 -2 6 -20t15.5 -44t20.5 -56.5t21 -58t17.5 -48.5t9.5 -28h2q13 32 31 74.5t34 81.5t27.5 67.5t11.5 31.5q0 8 -9 9t-14 1v12h167v-12q-8 -1 -13.5 -3.5t-7.5 -10.5q-3 -11 -15.5 -43t-30 -74t-36.5 -88.5t-35.5 -86t-27 -66
t-10.5 -28.5q0 -8 7 -12.5t14 -3.5v-12h-211v12q7 -1 14 3.5t7 12.5q0 1 -9.5 30t-24 72t-32 93.5t-33.5 94t-27.5 73.5t-15.5 32q-6 4 -9.5 4.5t-7.5 0.5v12h189z" />
    <glyph glyph-name="sixroman" unicode="&#x2175;" horiz-adv-x="889" 
d="M212 440v-12q-6 0 -15.5 -1t-9.5 -9q0 -2 6 -20t15.5 -44t20.5 -56.5t21 -58t17.5 -48.5t9.5 -28h2q13 32 31 74.5t34 81.5t27.5 67.5t11.5 31.5q0 8 -9 9t-14 1v12h167v-12q-8 -1 -13.5 -3.5t-7.5 -10.5q-3 -11 -15.5 -43t-30 -74t-36.5 -88.5t-35.5 -86t-27 -66
t-10.5 -28.5q0 -8 7 -12.5t14 -3.5v-12h-211v12q7 -1 14 3.5t7 12.5q0 1 -9.5 30t-24 72t-32 93.5t-33.5 94t-27.5 73.5t-15.5 32q-6 4 -9.5 4.5t-7.5 0.5v12h189zM822 428q-15 -1 -23.5 -4t-8.5 -14v-380q0 -11 8.5 -14t23.5 -4v-12h-198v12q15 1 23.5 4t8.5 14v380
q0 11 -8.5 14t-23.5 4v12h198v-12z" />
    <glyph glyph-name="sevenroman" unicode="&#x2176;" horiz-adv-x="1222" 
d="M212 440v-12q-6 0 -15.5 -1t-9.5 -9q0 -2 6 -20t15.5 -44t20.5 -56.5t21 -58t17.5 -48.5t9.5 -28h2q13 32 31 74.5t34 81.5t27.5 67.5t11.5 31.5q0 8 -9 9t-14 1v12h167v-12q-8 -1 -13.5 -3.5t-7.5 -10.5q-3 -11 -15.5 -43t-30 -74t-36.5 -88.5t-35.5 -86t-27 -66
t-10.5 -28.5q0 -8 7 -12.5t14 -3.5v-12h-211v12q7 -1 14 3.5t7 12.5q0 1 -9.5 30t-24 72t-32 93.5t-33.5 94t-27.5 73.5t-15.5 32q-6 4 -9.5 4.5t-7.5 0.5v12h189zM822 428q-15 -1 -23.5 -4t-8.5 -14v-380q0 -11 8.5 -14t23.5 -4v-12h-198v12q15 1 23.5 4t8.5 14v380
q0 11 -8.5 14t-23.5 4v12h198v-12zM1155 428q-15 -1 -23.5 -4t-8.5 -14v-380q0 -11 8.5 -14t23.5 -4v-12h-198v12q15 1 23.5 4t8.5 14v380q0 11 -8.5 14t-23.5 4v12h198v-12z" />
    <glyph glyph-name="eightroman" unicode="&#x2177;" horiz-adv-x="1555" 
d="M212 440v-12q-6 0 -15.5 -1t-9.5 -9q0 -2 6 -20t15.5 -44t20.5 -56.5t21 -58t17.5 -48.5t9.5 -28h2q13 32 31 74.5t34 81.5t27.5 67.5t11.5 31.5q0 8 -9 9t-14 1v12h167v-12q-8 -1 -13.5 -3.5t-7.5 -10.5q-3 -11 -15.5 -43t-30 -74t-36.5 -88.5t-35.5 -86t-27 -66
t-10.5 -28.5q0 -8 7 -12.5t14 -3.5v-12h-211v12q7 -1 14 3.5t7 12.5q0 1 -9.5 30t-24 72t-32 93.5t-33.5 94t-27.5 73.5t-15.5 32q-6 4 -9.5 4.5t-7.5 0.5v12h189zM822 428q-15 -1 -23.5 -4t-8.5 -14v-380q0 -11 8.5 -14t23.5 -4v-12h-198v12q15 1 23.5 4t8.5 14v380
q0 11 -8.5 14t-23.5 4v12h198v-12zM1155 428q-15 -1 -23.5 -4t-8.5 -14v-380q0 -11 8.5 -14t23.5 -4v-12h-198v12q15 1 23.5 4t8.5 14v380q0 11 -8.5 14t-23.5 4v12h198v-12zM1488 428q-15 -1 -23.5 -4t-8.5 -14v-380q0 -11 8.5 -14t23.5 -4v-12h-198v12q15 1 23.5 4t8.5 14
v380q0 11 -8.5 14t-23.5 4v12h198v-12z" />
    <glyph glyph-name="nineroman" unicode="&#x2178;" horiz-adv-x="944" 
d="M266 428q-15 -1 -23.5 -4t-8.5 -14v-380q0 -11 8.5 -14t23.5 -4v-12h-198v12q15 1 23.5 4t8.5 14v380q0 11 -8.5 14t-23.5 4v12h198v-12zM377 12q11 0 14 5l163 213l-149 189q-5 6 -13 7.5t-12 1.5v12h213v-12q-3 0 -13 -1t-10 -9q0 -6 7 -16t16.5 -21.5t21 -23
t20.5 -21.5q7 10 17 22.5t19.5 24.5t16 21.5t6.5 13.5q0 8 -6.5 9t-13.5 1v12h199v-12q-2 0 -9.5 -1.5t-12.5 -7.5l-139 -181l179 -221q5 -5 16 -5v-12h-208v12q2 0 9 1t7 6q0 8 -11.5 24.5t-26 34t-27.5 32.5t-17 21q-3 -6 -16 -23t-27 -35.5t-25.5 -34t-11.5 -19.5
q0 -5 7.5 -6t11.5 -1v-12h-195v12z" />
    <glyph glyph-name="tenroman" unicode="&#x2179;" 
d="M44 12q11 0 14 5l163 213l-149 189q-5 6 -13 7.5t-12 1.5v12h213v-12q-3 0 -13 -1t-10 -9q0 -6 7 -16t16.5 -21.5t21 -23t20.5 -21.5q7 10 17 22.5t19.5 24.5t16 21.5t6.5 13.5q0 8 -6.5 9t-13.5 1v12h199v-12q-2 0 -9.5 -1.5t-12.5 -7.5l-139 -181l179 -221q5 -5 16 -5
v-12h-208v12q2 0 9 1t7 6q0 8 -11.5 24.5t-26 34t-27.5 32.5t-17 21q-3 -6 -16 -23t-27 -35.5t-25.5 -34t-11.5 -19.5q0 -5 7.5 -6t11.5 -1v-12h-195v12z" />
    <glyph glyph-name="elevenroman" unicode="&#x217a;" horiz-adv-x="944" 
d="M44 12q11 0 14 5l163 213l-149 189q-5 6 -13 7.5t-12 1.5v12h213v-12q-3 0 -13 -1t-10 -9q0 -6 7 -16t16.5 -21.5t21 -23t20.5 -21.5q7 10 17 22.5t19.5 24.5t16 21.5t6.5 13.5q0 8 -6.5 9t-13.5 1v12h199v-12q-2 0 -9.5 -1.5t-12.5 -7.5l-139 -181l179 -221q5 -5 16 -5
v-12h-208v12q2 0 9 1t7 6q0 8 -11.5 24.5t-26 34t-27.5 32.5t-17 21q-3 -6 -16 -23t-27 -35.5t-25.5 -34t-11.5 -19.5q0 -5 7.5 -6t11.5 -1v-12h-195v12zM877 428q-15 -1 -23.5 -4t-8.5 -14v-380q0 -11 8.5 -14t23.5 -4v-12h-198v12q15 1 23.5 4t8.5 14v380q0 11 -8.5 14
t-23.5 4v12h198v-12z" />
    <glyph glyph-name="twelveroman" unicode="&#x217b;" horiz-adv-x="1277" 
d="M44 12q11 0 14 5l163 213l-149 189q-5 6 -13 7.5t-12 1.5v12h213v-12q-3 0 -13 -1t-10 -9q0 -6 7 -16t16.5 -21.5t21 -23t20.5 -21.5q7 10 17 22.5t19.5 24.5t16 21.5t6.5 13.5q0 8 -6.5 9t-13.5 1v12h199v-12q-2 0 -9.5 -1.5t-12.5 -7.5l-139 -181l179 -221q5 -5 16 -5
v-12h-208v12q2 0 9 1t7 6q0 8 -11.5 24.5t-26 34t-27.5 32.5t-17 21q-3 -6 -16 -23t-27 -35.5t-25.5 -34t-11.5 -19.5q0 -5 7.5 -6t11.5 -1v-12h-195v12zM877 428q-15 -1 -23.5 -4t-8.5 -14v-380q0 -11 8.5 -14t23.5 -4v-12h-198v12q15 1 23.5 4t8.5 14v380q0 11 -8.5 14
t-23.5 4v12h198v-12zM1210 428q-15 -1 -23.5 -4t-8.5 -14v-380q0 -11 8.5 -14t23.5 -4v-12h-198v12q15 1 23.5 4t8.5 14v380q0 11 -8.5 14t-23.5 4v12h198v-12z" />
    <glyph glyph-name="uni217C" unicode="&#x217c;" horiz-adv-x="556" 
d="M86 410q0 11 -8 14t-19 4v12h187v-12q-11 -1 -18.5 -4t-7.5 -14v-308h274q6 0 12 4.5t6 20.5h12v-149h-12q0 16 -6 19t-12 3h-435v12q11 1 19 4t8 14v380z" />
    <glyph glyph-name="uni217D" unicode="&#x217d;" 
d="M478 271l-14 7q1 4 2.5 8t1.5 9q0 6 -12.5 14t-32 14.5t-44 11.5t-49.5 5q-28 0 -57 -7t-52 -21.5t-38 -37t-15 -54.5q0 -31 15 -54t38 -37.5t52 -21.5t57 -7q30 0 56.5 7.5t47 18t32 21t11.5 15.5v9q0 6 -1 9l11 7l95 -137l-12 -7q-9 11 -16 11q-4 0 -21.5 -9
t-46.5 -20.5t-68.5 -19.5t-87.5 -8q-55 0 -107.5 11t-93.5 37.5t-66 69.5t-25 105q0 61 25 104t66 70t93.5 39.5t107.5 12.5q33 0 64 -5.5t57 -11.5t45 -11.5t27 -5.5q5 0 9 3t6 6l12 -4z" />
    <glyph glyph-name="uni217E" unicode="&#x217e;" 
d="M293 96q78 0 112 27.5t34 96.5t-34 96.5t-112 27.5h-72v-248h72zM87 410q0 11 -7.5 14t-18.5 4v12h300q56 0 95 -18t64.5 -48t37 -70t11.5 -84t-11.5 -84t-37 -70t-64.5 -48t-95 -18h-300v12q11 1 18.5 4t7.5 14v380z" />
    <glyph glyph-name="thousandroman" unicode="&#x217f;" horiz-adv-x="722" 
d="M206 30q0 -11 8 -14t20 -4v-12h-157v12q8 1 15.5 4t7.5 14v380q0 11 -7.5 14t-15.5 4v12h217v-12q-8 -1 -13.5 -2t-5.5 -6q0 -4 11.5 -29t26.5 -55t28 -56.5t16 -34.5q12 24 27.5 52.5t29 54t22.5 44.5t9 24t-5.5 6t-13.5 2v12h218v-12q-7 -1 -14 -4t-7 -14v-380
q0 -11 7 -14t14 -4v-12h-167v12q11 1 18.5 4t7.5 14v284h-2l-149 -289l-144 289h-2v-284z" />
    <glyph glyph-name="Dcroat" unicode="&#x110;" horiz-adv-x="722" 
d="M259 217v-99h127q79 0 114 40.5t35 104.5t-35 104.5t-114 40.5h-127v-73h123v-118h-123zM109 335v161q0 7 -4.5 11.5t-23.5 6.5v12h332q69 0 120 -20t84 -55.5t49.5 -83.5t16.5 -104q0 -51 -17.5 -98.5t-53 -84t-88 -58.5t-122.5 -22h-321v12q19 2 23.5 6.5t4.5 11.5v187
h-74v118h74z" />
    <glyph glyph-name="Ibreve" unicode="&#x12c;" horiz-adv-x="389" 
d="M92 12q19 2 23.5 6.5t4.5 11.5v466q0 7 -4.5 11.5t-23.5 6.5v12h206v-12q-19 -2 -23.5 -6.5t-4.5 -11.5v-466q0 -7 4.5 -11.5t23.5 -6.5v-12h-206v12zM362 722q-10 -75 -54.5 -110.5t-119.5 -35.5q-69 0 -114 37t-46 109h65q2 -21 11.5 -35t24 -21.5t32 -10.5t35.5 -3
q40 0 66 14t34 56h66z" />
    <glyph glyph-name="ibreve" unicode="&#x12d;" horiz-adv-x="333" 
d="M266 428q-15 -1 -23.5 -4t-8.5 -14v-380q0 -11 8.5 -14t23.5 -4v-12h-198v12q15 1 23.5 4t8.5 14v380q0 11 -8.5 14t-23.5 4v12h198v-12zM334 636q-10 -75 -54.5 -110.5t-119.5 -35.5q-69 0 -114 37t-46 109h65q2 -21 11.5 -35t24 -21.5t32 -10.5t35.5 -3q40 0 66 14
t34 56h66z" />
    <glyph glyph-name="Idotaccent" unicode="&#x130;" horiz-adv-x="389" 
d="M92 12q19 2 23.5 6.5t4.5 11.5v466q0 7 -4.5 11.5t-23.5 6.5v12h206v-12q-19 -2 -23.5 -6.5t-4.5 -11.5v-466q0 -7 4.5 -11.5t23.5 -6.5v-12h-206v12zM131 692h128v-116h-128v116z" />
    <glyph glyph-name="Jcircumflex" unicode="&#x134;" horiz-adv-x="556" 
d="M93 187q-1 -5 -1.5 -9t-0.5 -6q0 -18 17.5 -29.5t40.5 -18.5t46 -9.5t34 -2.5q43 0 56.5 19t13.5 57v308q0 7 -4.5 11.5t-23.5 6.5v12h206v-12q-19 -2 -23.5 -6.5t-4.5 -11.5v-333q0 -53 -17.5 -86t-48 -51t-71.5 -23.5t-88 -5.5q-36 0 -66 4t-52.5 10t-36.5 11t-18 5
q-8 0 -11.5 -3t-11.5 -10l-15 9l68 168zM539 573h-115l-63 83l-64 -83h-110l111 146h125z" />
    <glyph glyph-name="napostrophe" unicode="&#x149;" horiz-adv-x="876" 
d="M48 307q31 12 57.5 33.5t33.5 56.5q-39 0 -66.5 18.5t-27.5 60.5q0 35 25 55t58 20q44 0 64.5 -29.5t20.5 -69.5q0 -36 -14.5 -64t-37.5 -50t-53 -37.5t-60 -25.5v32zM788 30q0 -11 8 -14t20 -4v-12h-185v12q8 0 18.5 2t10.5 11t-22 33.5t-56.5 60.5t-77.5 80.5t-85 94.5
l-2 -2v-262q0 -11 7.5 -14t18.5 -4v-12h-171v12q10 1 17.5 4t7.5 14v380q0 11 -8 14t-19 4v12h238v-12q-7 -1 -14 -4t-7 -14q0 -2 16.5 -20.5t42.5 -46.5t58 -62l64 -68v197q0 11 -8 14t-20 4v12h176v-12q-12 -1 -20 -4t-8 -14v-380z" />
    <glyph glyph-name="clickretroflex" unicode="&#x1c3;" horiz-adv-x="389" 
d="M195 152q32 0 55.5 -23.5t23.5 -55.5t-23.5 -54t-55.5 -22t-55.5 22t-23.5 54t23.5 55.5t55.5 23.5zM302 514q-8 0 -14.5 -5t-9.5 -20l-48 -250q-1 -2 -1.5 -7t0.5 -8q0 -3 4 -9.5t18 -8.5v-12h-112v12q14 2 18 8.5t4 9.5q1 3 0.5 8t-1.5 7l-48 250q-3 15 -9.5 20
t-14.5 5v12h214v-12z" />
    <glyph glyph-name="DZcaron" unicode="&#x1c4;" horiz-adv-x="1333" 
d="M386 118q79 0 114 40.5t35 104.5t-35 104.5t-114 40.5h-127v-290h127zM109 496q0 7 -4.5 11.5t-23.5 6.5v12h332q69 0 120 -20t84 -55.5t49.5 -83.5t16.5 -104q0 -51 -17.5 -98.5t-53 -84t-88 -58.5t-122.5 -22h-321v12q19 2 23.5 6.5t4.5 11.5v466zM1264 118q8 0 12 4.5
t6 17.5h12v-159h-12q-2 13 -6 16t-12 3h-512v12l288 396h-239q-8 0 -12 -4.5t-6 -18.5h-12v169h12q2 -17 6 -22.5t12 -5.5h493v-12l-290 -396h260zM958 604l-111 146h110l64 -82l63 82h115l-116 -146h-125z" />
    <glyph glyph-name="Dzcaron" unicode="&#x1c5;" horiz-adv-x="1278" 
d="M386 118q79 0 114 40.5t35 104.5t-35 104.5t-114 40.5h-127v-290h127zM109 496q0 7 -4.5 11.5t-23.5 6.5v12h332q69 0 120 -20t84 -55.5t49.5 -83.5t16.5 -104q0 -51 -17.5 -98.5t-53 -84t-88 -58.5t-122.5 -22h-321v12q19 2 23.5 6.5t4.5 11.5v466zM812 338
q-9 0 -13.5 -3.5t-4.5 -19.5h-12v148h12q0 -16 4.5 -19.5t13.5 -3.5h402v-12l-231 -326h215q9 0 13.5 4t4.5 22h12v-148h-12q0 16 -4.5 18t-13.5 2h-426v12l233 326h-193zM935 513l-111 146h110l64 -82l63 82h115l-116 -146h-125z" />
    <glyph glyph-name="dzcaron" unicode="&#x1c6;" horiz-adv-x="1167" 
d="M293 96q78 0 112 27.5t34 96.5t-34 96.5t-112 27.5h-72v-248h72zM87 410q0 11 -7.5 14t-18.5 4v12h300q56 0 95 -18t64.5 -48t37 -70t11.5 -84t-11.5 -84t-37 -70t-64.5 -48t-95 -18h-300v12q11 1 18.5 4t7.5 14v380zM701 338q-9 0 -13.5 -3.5t-4.5 -19.5h-12v148h12
q0 -16 4.5 -19.5t13.5 -3.5h402v-12l-231 -326h215q9 0 13.5 4t4.5 22h12v-148h-12q0 16 -4.5 18t-13.5 2h-426v12l233 326h-193zM824 513l-111 146h110l64 -82l63 82h115l-116 -146h-125z" />
    <glyph glyph-name="LJ" unicode="&#x1c7;" horiz-adv-x="1223" 
d="M603 122q8 0 12 5.5t6 22.5h12v-173h-12q-2 16 -6 19.5t-12 3.5h-522v12q19 2 23.5 6.5t4.5 11.5v466q0 7 -4.5 11.5t-23.5 6.5v12h206v-12q-19 -2 -23.5 -6.5t-4.5 -11.5v-374h344zM760 187q-1 -5 -1.5 -9t-0.5 -6q0 -18 17.5 -29.5t40.5 -18.5t46 -9.5t34 -2.5
q43 0 56.5 19t13.5 57v308q0 7 -4.5 11.5t-23.5 6.5v12h206v-12q-19 -2 -23.5 -6.5t-4.5 -11.5v-333q0 -53 -17.5 -86t-48 -51t-71.5 -23.5t-88 -5.5q-36 0 -66 4t-52.5 10t-36.5 11t-18 5q-8 0 -11.5 -3t-11.5 -10l-15 9l68 168z" />
    <glyph glyph-name="Lj" unicode="&#x1c8;" horiz-adv-x="1111" 
d="M603 122q8 0 12 5.5t6 22.5h12v-173h-12q-2 16 -6 19.5t-12 3.5h-522v12q19 2 23.5 6.5t4.5 11.5v466q0 7 -4.5 11.5t-23.5 6.5v12h206v-12q-19 -2 -23.5 -6.5t-4.5 -11.5v-374h344zM731 144v-13q2 -15 25 -25t68 -10q35 0 53 12t18 47v255q0 11 -7 14t-15 4v12h175v-12
q-5 -1 -12 -4t-7 -14v-266q0 -44 -14.5 -73t-40.5 -46t-62 -22.5t-80 -5.5q-20 0 -42 2t-40.5 5.5t-31.5 6.5t-16 3q-5 0 -8.5 -3t-7.5 -7l-9 4l42 140z" />
    <glyph glyph-name="lj" unicode="&#x1c9;" horiz-adv-x="1000" 
d="M86 410q0 11 -8 14t-19 4v12h187v-12q-11 -1 -18.5 -4t-7.5 -14v-308h274q6 0 12 4.5t6 20.5h12v-149h-12q0 16 -6 19t-12 3h-435v12q11 1 19 4t8 14v380zM620 144v-13q2 -15 25 -25t68 -10q35 0 53 12t18 47v255q0 11 -7 14t-15 4v12h175v-12q-5 -1 -12 -4t-7 -14v-266
q0 -44 -14.5 -73t-40.5 -46t-62 -22.5t-80 -5.5q-20 0 -42 2t-40.5 5.5t-31.5 6.5t-16 3q-5 0 -8.5 -3t-7.5 -7l-9 4l42 140z" />
    <glyph glyph-name="NJ" unicode="&#x1ca;" horiz-adv-x="1334" 
d="M109 496q0 7 -4.5 11.5t-23.5 6.5v12h241v-12q-17 -1 -22.5 -4.5t-5.5 -8.5q0 -2 13 -18t34 -40t47.5 -53.5t53.5 -59t52 -56t43 -45.5v267q0 17 -21 18v12h183v-12q-19 -2 -23.5 -6.5t-4.5 -11.5v-466q0 -7 4.5 -11.5t23.5 -6.5v-12h-190v12q14 0 18.5 3t4.5 8
q0 3 -3 7.5t-13 15.5t-29.5 31.5t-51.5 55t-79 86t-113 125.5v-314q0 -7 4.5 -11.5t23.5 -6.5v-12h-190v12q19 2 23.5 6.5t4.5 11.5v466zM871 187q-1 -5 -1.5 -9t-0.5 -6q0 -18 17.5 -29.5t40.5 -18.5t46 -9.5t34 -2.5q43 0 56.5 19t13.5 57v308q0 7 -4.5 11.5t-23.5 6.5v12
h206v-12q-19 -2 -23.5 -6.5t-4.5 -11.5v-333q0 -53 -17.5 -86t-48 -51t-71.5 -23.5t-88 -5.5q-36 0 -66 4t-52.5 10t-36.5 11t-18 5q-8 0 -11.5 -3t-11.5 -10l-15 9l68 168z" />
    <glyph glyph-name="Nj" unicode="&#x1cb;" horiz-adv-x="1222" 
d="M109 496q0 7 -4.5 11.5t-23.5 6.5v12h241v-12q-17 -1 -22.5 -4.5t-5.5 -8.5q0 -2 13 -18t34 -40t47.5 -53.5t53.5 -59t52 -56t43 -45.5v267q0 17 -21 18v12h183v-12q-19 -2 -23.5 -6.5t-4.5 -11.5v-466q0 -7 4.5 -11.5t23.5 -6.5v-12h-190v12q14 0 18.5 3t4.5 8
q0 3 -3 7.5t-13 15.5t-29.5 31.5t-51.5 55t-79 86t-113 125.5v-314q0 -7 4.5 -11.5t23.5 -6.5v-12h-190v12q19 2 23.5 6.5t4.5 11.5v466zM842 144v-13q2 -15 25 -25t68 -10q35 0 53 12t18 47v255q0 11 -7 14t-15 4v12h175v-12q-5 -1 -12 -4t-7 -14v-266q0 -44 -14.5 -73
t-40.5 -46t-62 -22.5t-80 -5.5q-20 0 -42 2t-40.5 5.5t-31.5 6.5t-16 3q-5 0 -8.5 -3t-7.5 -7l-9 4l42 140z" />
    <glyph glyph-name="nj" unicode="&#x1cc;" horiz-adv-x="1111" 
d="M579 30q0 -11 8 -14t20 -4v-12h-185v12q8 0 18.5 2t10.5 11t-22 33.5t-56.5 60.5t-77.5 80.5t-85 94.5l-2 -2v-262q0 -11 7.5 -14t18.5 -4v-12h-171v12q10 1 17.5 4t7.5 14v380q0 11 -8 14t-19 4v12h238v-12q-7 -1 -14 -4t-7 -14q0 -2 16.5 -20.5t42.5 -46.5t58 -62
l64 -68v197q0 11 -8 14t-20 4v12h176v-12q-12 -1 -20 -4t-8 -14v-380zM731 144v-13q2 -15 25 -25t68 -10q35 0 53 12t18 47v255q0 11 -7 14t-15 4v12h175v-12q-5 -1 -12 -4t-7 -14v-266q0 -44 -14.5 -73t-40.5 -46t-62 -22.5t-80 -5.5q-20 0 -42 2t-40.5 5.5t-31.5 6.5
t-16 3q-5 0 -8.5 -3t-7.5 -7l-9 4l42 140z" />
    <glyph glyph-name="Acaron" unicode="&#x1cd;" horiz-adv-x="722" 
d="M200 22q0 -5 3.5 -7.5t14.5 -2.5v-12h-177v12q11 2 16 6.5t10 16.5q2 5 10 27t21 55.5t29 74.5t32 83.5t31.5 83t27.5 72.5l19.5 52t7.5 21q0 5 -6.5 7t-13.5 3v12h261v-12q-8 -1 -13 -3t-5 -10q0 -2 9.5 -26t24.5 -62.5t34.5 -87t40.5 -99t40.5 -98.5t35.5 -86
q8 -18 13.5 -24t14.5 -6v-12h-197v12q19 1 19 12q0 1 -5 13.5t-11 28t-11.5 29.5t-6.5 19h-237q-10 -27 -16 -44t-9.5 -27t-5 -14.5t-1.5 -6.5zM443 194l-97 238l-89 -238h186zM296 576l-111 146h110l64 -82l63 82h115l-116 -146h-125z" />
    <glyph glyph-name="acaron" unicode="&#x1ce;" horiz-adv-x="667" 
d="M454 12q3 0 8 1t5 8q0 4 -3.5 12.5t-8 18.5t-9.5 20t-8 17h-232q-2 -7 -6.5 -17t-9.5 -20t-9 -18.5t-4 -12.5q0 -7 5 -8t8 -1v-12h-150v12q6 0 12 2.5t8 7.5q30 70 61 138.5t55.5 124t40.5 92t16 41.5q0 9 -13 10v12h209v-12q-13 -1 -13 -10q0 -3 10.5 -26.5t27.5 -59
t37.5 -78.5l41 -86t38.5 -81.5t29 -64.5q2 -5 8 -7.5t12 -2.5v-12h-166v12zM320 336l-82 -175h166zM265 490l-111 146h110l64 -82l63 82h115l-116 -146h-125z" />
    <glyph glyph-name="Icaron" unicode="&#x1cf;" horiz-adv-x="389" 
d="M92 12q19 2 23.5 6.5t4.5 11.5v466q0 7 -4.5 11.5t-23.5 6.5v12h206v-12q-19 -2 -23.5 -6.5t-4.5 -11.5v-466q0 -7 4.5 -11.5t23.5 -6.5v-12h-206v12zM130 576l-111 146h110l64 -82l63 82h115l-116 -146h-125z" />
    <glyph glyph-name="icaron" unicode="&#x1d0;" horiz-adv-x="333" 
d="M266 428q-15 -1 -23.5 -4t-8.5 -14v-380q0 -11 8.5 -14t23.5 -4v-12h-198v12q15 1 23.5 4t8.5 14v380q0 11 -8.5 14t-23.5 4v12h198v-12zM102 490l-111 146h110l64 -82l63 82h115l-116 -146h-125z" />
    <glyph glyph-name="Ocaron" unicode="&#x1d1;" horiz-adv-x="722" 
d="M361 532q64 0 120.5 -17.5t99 -51.5t67.5 -84t25 -116t-25 -116t-67.5 -84t-99 -50t-120.5 -16t-120.5 16t-99 50t-67.5 84t-25 116t25 116t67.5 84t99 51.5t120.5 17.5zM361 410q-33 0 -62.5 -10t-52 -28.5t-36 -46t-13.5 -62.5t13.5 -62.5t36 -46t52 -28.5t62.5 -10
t62.5 10t52 28.5t36 46t13.5 62.5t-13.5 62.5t-36 46t-52 28.5t-62.5 10zM296 582l-111 146h110l64 -82l63 82h115l-116 -146h-125z" />
    <glyph glyph-name="ocaron" unicode="&#x1d2;" 
d="M305 340q-28 0 -53 -8.5t-44 -24t-29.5 -37.5t-10.5 -50t10.5 -50t29.5 -37.5t44 -24t53 -8.5q29 0 53.5 8.5t43.5 24t29.5 37.5t10.5 50t-10.5 50t-29.5 37.5t-43.5 24t-53.5 8.5zM305 446q47 0 94.5 -13t86 -40.5t62.5 -70.5t24 -102q0 -60 -24 -102.5t-62.5 -69.5
t-86 -39t-94.5 -12t-94.5 12t-86 39t-62.5 69.5t-24 102.5q0 59 24 102t62.5 70.5t86 40.5t94.5 13zM240 496l-111 146h110l64 -82l63 82h115l-116 -146h-125z" />
    <glyph glyph-name="Ucaron" unicode="&#x1d3;" horiz-adv-x="778" 
d="M515 496q0 7 -4.5 11.5t-23.5 6.5v12h206v-12q-19 -2 -23.5 -6.5t-4.5 -11.5v-268q0 -66 -21.5 -111t-59 -72t-88 -37.5t-107.5 -10.5t-107.5 10.5t-88 37.5t-59 72t-21.5 111v268q0 7 -4.5 11.5t-23.5 6.5v12h206v-12q-19 -2 -23.5 -6.5t-4.5 -11.5v-268q0 -58 33 -83
t93 -25t93 25t33 83v268zM324 576l-111 146h110l64 -82l63 82h115l-116 -146h-125z" />
    <glyph glyph-name="ucaron" unicode="&#x1d4;" horiz-adv-x="667" 
d="M99 410q0 11 -8.5 14t-20.5 4v12h180v-12q-5 -1 -11 -4t-6 -14v-243q0 -38 27.5 -54.5t72.5 -16.5t72.5 16.5t27.5 54.5v243q0 11 -6 14t-11 4v12h180v-12q-12 -1 -20.5 -4t-8.5 -14v-220q0 -40 -12 -75.5t-39 -62t-72 -41t-111 -14.5t-111 14.5t-72 41t-39 62t-12 75.5
v220zM268 490l-111 146h110l64 -82l63 82h115l-116 -146h-125z" />
    <glyph glyph-name="Udieresismacron" unicode="&#x1d5;" horiz-adv-x="778" 
d="M515 496q0 7 -4.5 11.5t-23.5 6.5v12h206v-12q-19 -2 -23.5 -6.5t-4.5 -11.5v-268q0 -66 -21.5 -111t-59 -72t-88 -37.5t-107.5 -10.5t-107.5 10.5t-88 37.5t-59 72t-21.5 111v268q0 7 -4.5 11.5t-23.5 6.5v12h206v-12q-19 -2 -23.5 -6.5t-4.5 -11.5v-268q0 -58 33 -83
t93 -25t93 25t33 83v268zM423 692h128v-116h-128v116zM227 692h128v-116h-128v116zM217 804h344v-74h-344v74z" />
    <glyph glyph-name="udieresismacron" unicode="&#x1d6;" horiz-adv-x="667" 
d="M99 410q0 11 -8.5 14t-20.5 4v12h180v-12q-5 -1 -11 -4t-6 -14v-243q0 -38 27.5 -54.5t72.5 -16.5t72.5 16.5t27.5 54.5v243q0 11 -6 14t-11 4v12h180v-12q-12 -1 -20.5 -4t-8.5 -14v-220q0 -40 -12 -75.5t-39 -62t-72 -41t-111 -14.5t-111 14.5t-72 41t-39 62t-12 75.5
v220zM367 606h128v-116h-128v116zM171 606h128v-116h-128v116zM161 730h344v-74h-344v74z" />
    <glyph glyph-name="Udieresisacute" unicode="&#x1d7;" horiz-adv-x="778" 
d="M515 496q0 7 -4.5 11.5t-23.5 6.5v12h206v-12q-19 -2 -23.5 -6.5t-4.5 -11.5v-268q0 -66 -21.5 -111t-59 -72t-88 -37.5t-107.5 -10.5t-107.5 10.5t-88 37.5t-59 72t-21.5 111v268q0 7 -4.5 11.5t-23.5 6.5v12h206v-12q-19 -2 -23.5 -6.5t-4.5 -11.5v-268q0 -58 33 -83
t93 -25t93 25t33 83v268zM423 662h128v-99h-128v99zM227 662h128v-99h-128v99zM441 694h-103l95 146h155z" />
    <glyph glyph-name="udieresisacute" unicode="&#x1d8;" horiz-adv-x="667" 
d="M99 410q0 11 -8.5 14t-20.5 4v12h180v-12q-5 -1 -11 -4t-6 -14v-243q0 -38 27.5 -54.5t72.5 -16.5t72.5 16.5t27.5 54.5v243q0 11 -6 14t-11 4v12h180v-12q-12 -1 -20.5 -4t-8.5 -14v-220q0 -40 -12 -75.5t-39 -62t-72 -41t-111 -14.5t-111 14.5t-72 41t-39 62t-12 75.5
v220zM366 587h128v-106h-128v106zM171 587h128v-106h-128v106zM385 629h-103l95 133h153z" />
    <glyph glyph-name="Udieresiscaron" unicode="&#x1d9;" horiz-adv-x="778" 
d="M515 496q0 7 -4.5 11.5t-23.5 6.5v12h206v-12q-19 -2 -23.5 -6.5t-4.5 -11.5v-268q0 -66 -21.5 -111t-59 -72t-88 -37.5t-107.5 -10.5t-107.5 10.5t-88 37.5t-59 72t-21.5 111v268q0 7 -4.5 11.5t-23.5 6.5v12h206v-12q-19 -2 -23.5 -6.5t-4.5 -11.5v-268q0 -58 33 -83
t93 -25t93 25t33 83v268zM424 643h128v-90h-128v90zM228 643h128v-90h-128v90zM326 668l-111 146h110l64 -82l63 82h115l-116 -146h-125z" />
    <glyph glyph-name="udieresiscaron" unicode="&#x1da;" horiz-adv-x="667" 
d="M99 410q0 11 -8.5 14t-20.5 4v12h180v-12q-5 -1 -11 -4t-6 -14v-243q0 -38 27.5 -54.5t72.5 -16.5t72.5 16.5t27.5 54.5v243q0 11 -6 14t-11 4v12h180v-12q-12 -1 -20.5 -4t-8.5 -14v-220q0 -40 -12 -75.5t-39 -62t-72 -41t-111 -14.5t-111 14.5t-72 41t-39 62t-12 75.5
v220zM367 606h128v-116h-128v116zM171 606h128v-116h-128v116zM268 656l-111 146h110l64 -82l63 82h115l-116 -146h-125z" />
    <glyph glyph-name="Udieresisgrave" unicode="&#x1db;" horiz-adv-x="778" 
d="M515 496q0 7 -4.5 11.5t-23.5 6.5v12h206v-12q-19 -2 -23.5 -6.5t-4.5 -11.5v-268q0 -66 -21.5 -111t-59 -72t-88 -37.5t-107.5 -10.5t-107.5 10.5t-88 37.5t-59 72t-21.5 111v268q0 7 -4.5 11.5t-23.5 6.5v12h206v-12q-19 -2 -23.5 -6.5t-4.5 -11.5v-268q0 -58 33 -83
t93 -25t93 25t33 83v268zM416 654h127v-97h-127v97zM222 654h127v-97h-127v97zM445 678h-103l-147 146h155z" />
    <glyph glyph-name="udieresisgrave" unicode="&#x1dc;" horiz-adv-x="667" 
d="M99 410q0 11 -8.5 14t-20.5 4v12h180v-12q-5 -1 -11 -4t-6 -14v-243q0 -38 27.5 -54.5t72.5 -16.5t72.5 16.5t27.5 54.5v243q0 11 -6 14t-11 4v12h180v-12q-12 -1 -20.5 -4t-8.5 -14v-220q0 -40 -12 -75.5t-39 -62t-72 -41t-111 -14.5t-111 14.5t-72 41t-39 62t-12 75.5
v220zM367 606h128v-116h-128v116zM171 606h128v-116h-128v116zM394 638h-103l-147 146h155z" />
    <glyph glyph-name="Adieresismacron" unicode="&#x1de;" horiz-adv-x="722" 
d="M200 22q0 -5 3.5 -7.5t14.5 -2.5v-12h-177v12q11 2 16 6.5t10 16.5q2 5 10 27t21 55.5t29 74.5t32 83.5t31.5 83t27.5 72.5l19.5 52t7.5 21q0 5 -6.5 7t-13.5 3v12h261v-12q-8 -1 -13 -3t-5 -10q0 -2 9.5 -26t24.5 -62.5t34.5 -87t40.5 -99t40.5 -98.5t35.5 -86
q8 -18 13.5 -24t14.5 -6v-12h-197v12q19 1 19 12q0 1 -5 13.5t-11 28t-11.5 29.5t-6.5 19h-237q-10 -27 -16 -44t-9.5 -27t-5 -14.5t-1.5 -6.5zM443 194l-97 238l-89 -238h186zM393 679h128v-116h-128v116zM197 679h128v-116h-128v116zM187 800h344v-74h-344v74z" />
    <glyph glyph-name="adieresismacron" unicode="&#x1df;" horiz-adv-x="667" 
d="M454 12q3 0 8 1t5 8q0 4 -3.5 12.5t-8 18.5t-9.5 20t-8 17h-232q-2 -7 -6.5 -17t-9.5 -20t-9 -18.5t-4 -12.5q0 -7 5 -8t8 -1v-12h-150v12q6 0 12 2.5t8 7.5q30 70 61 138.5t55.5 124t40.5 92t16 41.5q0 9 -13 10v12h209v-12q-13 -1 -13 -10q0 -3 10.5 -26.5t27.5 -59
t37.5 -78.5l41 -86t38.5 -81.5t29 -64.5q2 -5 8 -7.5t12 -2.5v-12h-166v12zM320 336l-82 -175h166zM364 606h128v-116h-128v116zM168 606h128v-116h-128v116zM158 730h344v-74h-344v74z" />
    <glyph glyph-name="Adotmacron" unicode="&#x1e0;" horiz-adv-x="722" 
d="M200 22q0 -5 3.5 -7.5t14.5 -2.5v-12h-177v12q11 2 16 6.5t10 16.5q2 5 10 27t21 55.5t29 74.5t32 83.5t31.5 83t27.5 72.5l19.5 52t7.5 21q0 5 -6.5 7t-13.5 3v12h261v-12q-8 -1 -13 -3t-5 -10q0 -2 9.5 -26t24.5 -62.5t34.5 -87t40.5 -99t40.5 -98.5t35.5 -86
q8 -18 13.5 -24t14.5 -6v-12h-197v12q19 1 19 12q0 1 -5 13.5t-11 28t-11.5 29.5t-6.5 19h-237q-10 -27 -16 -44t-9.5 -27t-5 -14.5t-1.5 -6.5zM443 194l-97 238l-89 -238h186zM297 692h128v-116h-128v116zM187 798h344v-74h-344v74z" />
    <glyph glyph-name="adotmacron" unicode="&#x1e1;" horiz-adv-x="667" 
d="M454 12q3 0 8 1t5 8q0 4 -3.5 12.5t-8 18.5t-9.5 20t-8 17h-232q-2 -7 -6.5 -17t-9.5 -20t-9 -18.5t-4 -12.5q0 -7 5 -8t8 -1v-12h-150v12q6 0 12 2.5t8 7.5q30 70 61 138.5t55.5 124t40.5 92t16 41.5q0 9 -13 10v12h209v-12q-13 -1 -13 -10q0 -3 10.5 -26.5t27.5 -59
t37.5 -78.5l41 -86t38.5 -81.5t29 -64.5q2 -5 8 -7.5t12 -2.5v-12h-166v12zM320 336l-82 -175h166zM266 606h128v-116h-128v116zM158 730h344v-74h-344v74z" />
    <glyph glyph-name="AEmacron" unicode="&#x1e2;" horiz-adv-x="1000" 
d="M239 123q-11 -16 -21 -32t-18 -29.5t-12.5 -23.5t-4.5 -13q0 -9 8 -11t15 -2v-12h-183v12q8 0 22 17q2 2 14 23t30.5 53.5t42 73t48 83t47.5 83t41 72.5t29 52t11 21q0 12 -5.5 16.5t-19.5 7.5v12h653q8 0 12 5.5t6 22.5h12v-174h-12q-2 17 -6 22.5t-12 5.5h-321v-83h186
q15 0 21.5 6t8.5 17h12v-156h-12q-2 10 -8.5 16.5t-21.5 6.5h-186v-93h321q8 0 12 5.5t6 24.5h12v-171h-12q-2 13 -6 16t-12 3h-499v12q28 1 28 18v93h-226zM465 203v215q0 36 -18 36q-14 0 -21.5 -7.5t-22.5 -33.5l-120 -210h182zM360 685h344v-74h-344v74z" />
    <glyph glyph-name="aemacron" unicode="&#x1e3;" horiz-adv-x="944" 
d="M555 271h190q6 0 12 4.5t6 18.5h12v-130h-12q0 14 -6 18.5t-12 4.5h-190v-99h286q20 0 26 25h12v-131h-10q-5 14 -10.5 16t-17.5 2h-450v12q11 1 20.5 4t9.5 14v74h-206q-2 -4 -9 -16.5t-15 -27t-14 -26t-6 -13.5q0 -5 4.5 -6t11.5 -3v-12h-169v12q8 0 13 4t10 11
q4 6 23.5 37t46 73t56.5 89.5t55 88.5t41.5 69t16.5 31q0 8 -5 10t-12 3v12h586q6 0 12 4t6 18h12v-134h-12q0 15 -6 19.5t-12 4.5h-294v-81zM421 176v192q0 14 -3.5 22t-19.5 8q-7 0 -11 -5t-9 -12l-122 -205h165zM287 586h344v-74h-344v74z" />
    <glyph glyph-name="Gcaron" unicode="&#x1e6;" horiz-adv-x="722" 
d="M393 191q-8 0 -11 -5.5t-4 -14.5h-12v140h12q2 -18 15 -18h295v-12q-16 -1 -16 -17v-166q0 -7 2 -12t10 -5h5v-12q-136 -72 -322 -72q-63 0 -121.5 15.5t-103.5 48.5t-72.5 83.5t-27.5 118.5t27.5 118.5t72.5 84t103.5 50t121.5 16.5q25 0 44 -1t37 -4t37 -7.5t45 -11.5
q25 -7 46 -16.5t27 -9.5q8 0 14 8l12 -4l-65 -132l-12 7q2 6 2 11q0 7 -17 15.5t-43 15.5t-58.5 12t-63.5 5q-36 0 -68.5 -9.5t-58 -29.5t-40.5 -49.5t-15 -70.5q0 -40 18 -69.5t45.5 -48.5t61.5 -28t67 -9q42 0 75.5 5t64.5 14v66h-129zM300 582l-111 146h110l64 -82l63 82
h115l-116 -146h-125z" />
    <glyph glyph-name="gcaron" unicode="&#x1e7;" 
d="M546 103q0 -10 5 -18t14 -8h9v-12q-24 -12 -55 -24.5t-67 -22.5t-74 -15.5t-76 -5.5q-58 0 -107 12t-83.5 39.5t-54 70t-19.5 101.5t22 101.5t59 70t84.5 41t98.5 13.5q38 0 69.5 -4.5t55.5 -10.5t39.5 -10.5t20.5 -4.5q8 0 10.5 3t6.5 7l12 -2l-52 -132l-12 6v7
q0 9 -13.5 17t-33.5 14.5t-42.5 10t-40.5 3.5q-31 0 -59 -7t-48.5 -23t-32.5 -40.5t-12 -59.5q0 -36 12 -61.5t33 -42t49 -24.5t61 -8q25 0 49 3.5t48 11.5v65h-84q-12 0 -15 -9t-3 -15h-12v124h12q0 -6 3 -15t15 -9h208v-137zM241 496l-111 146h110l64 -82l63 82h115
l-116 -146h-125z" />
    <glyph glyph-name="Kcaron" unicode="&#x1e8;" horiz-adv-x="722" 
d="M476 12q9 0 14 1.5t5 11.5q0 3 -9 18t-23 37t-31 47t-32 48t-27 40t-16 23l-98 -88v-120q0 -7 4.5 -11.5t23.5 -6.5v-12h-206v12q19 2 23.5 6.5t4.5 11.5v466q0 7 -4.5 11.5t-23.5 6.5v12h206v-12q-19 -2 -23.5 -6.5t-4.5 -11.5v-180h7q30 29 64.5 60t63.5 57.5t48.5 45
t19.5 22.5q0 9 -5 10.5t-13 2.5v12h254v-12q-10 -1 -16.5 -3t-12 -6t-12 -9.5t-15.5 -13.5l-173 -149l204 -305q8 -12 15 -14t17 -2v-12h-229v12zM294 576l-111 146h110l64 -82l63 82h115l-116 -146h-125z" />
    <glyph glyph-name="kcaron" unicode="&#x1e9;" 
d="M380 12q7 0 17.5 3t10.5 14q0 3 -7 14.5t-17.5 27.5t-23.5 35.5t-25 37t-21.5 31.5t-13.5 21l-87 -84v-82q0 -11 9 -14t19 -4v-12h-187v12q9 -1 17 3t8 15v380q0 11 -8 15t-17 3v12h187v-12q-10 -1 -19 -4t-9 -14v-184q15 13 35.5 31t43 37.5t44.5 38.5t39.5 35.5
t28 27.5t10.5 14q0 11 -8.5 14t-16.5 4v12h195v-12q-15 -2 -39 -21t-51 -43.5t-53.5 -50t-45.5 -40.5l166 -246q5 -8 10.5 -11t12.5 -4v-12h-204v12zM254 490l-111 146h110l64 -82l63 82h115l-116 -146h-125z" />
    <glyph glyph-name="Oogonek" unicode="&#x1ea;" horiz-adv-x="722" 
d="M361 532q64 0 120.5 -17.5t99 -51.5t67.5 -84t25 -116t-25 -116t-67.5 -84t-99 -50t-120.5 -16t-120.5 16t-99 50t-67.5 84t-25 116t25 116t67.5 84t99 51.5t120.5 17.5zM361 410q-33 0 -62.5 -10t-52 -28.5t-36 -46t-13.5 -62.5t13.5 -62.5t36 -46t52 -28.5t62.5 -10
t62.5 10t52 28.5t36 46t13.5 62.5t-13.5 62.5t-36 46t-52 28.5t-62.5 10zM483 16q-20 -8 -44.5 -17.5t-45.5 -24.5t-35.5 -34.5t-14.5 -45.5q0 -23 14.5 -36t36.5 -13q24 0 50 13.5t46 26.5l20 -34q-34 -23 -71.5 -41.5t-79.5 -18.5q-43 0 -73.5 23.5t-30.5 68.5
q0 40 24.5 66t60 42.5t74.5 24t69 12.5v-12z" />
    <glyph glyph-name="oogonek" unicode="&#x1eb;" 
d="M305 340q-28 0 -53 -8.5t-44 -24t-29.5 -37.5t-10.5 -50t10.5 -50t29.5 -37.5t44 -24t53 -8.5q29 0 53.5 8.5t43.5 24t29.5 37.5t10.5 50t-10.5 50t-29.5 37.5t-43.5 24t-53.5 8.5zM305 446q47 0 94.5 -13t86 -40.5t62.5 -70.5t24 -102q0 -60 -24 -102.5t-62.5 -69.5
t-86 -39t-94.5 -12t-94.5 12t-86 39t-62.5 69.5t-24 102.5q0 59 24 102t62.5 70.5t86 40.5t94.5 13zM417 19q-20 -8 -44.5 -17.5t-45.5 -24.5t-35.5 -34.5t-14.5 -45.5q0 -23 14.5 -36t36.5 -13q24 0 50 13.5t46 26.5l20 -34q-34 -23 -71.5 -41.5t-79.5 -18.5
q-43 0 -73.5 23.5t-30.5 68.5q0 40 24.5 66t60 42.5t74.5 24t69 12.5v-12z" />
    <glyph glyph-name="Oogonekmacron" unicode="&#x1ec;" horiz-adv-x="722" 
d="M361 532q64 0 120.5 -17.5t99 -51.5t67.5 -84t25 -116t-25 -116t-67.5 -84t-99 -50t-120.5 -16t-120.5 16t-99 50t-67.5 84t-25 116t25 116t67.5 84t99 51.5t120.5 17.5zM361 410q-33 0 -62.5 -10t-52 -28.5t-36 -46t-13.5 -62.5t13.5 -62.5t36 -46t52 -28.5t62.5 -10
t62.5 10t52 28.5t36 46t13.5 62.5t-13.5 62.5t-36 46t-52 28.5t-62.5 10zM470 10q-20 -8 -44.5 -17.5t-45.5 -24.5t-35.5 -34.5t-14.5 -45.5q0 -23 14.5 -36t36.5 -13q24 0 50 13.5t46 26.5l20 -34q-34 -23 -71.5 -41.5t-79.5 -18.5q-43 0 -73.5 23.5t-30.5 68.5
q0 40 24.5 66t60 42.5t74.5 24t69 12.5v-12zM189 656h344v-74h-344v74z" />
    <glyph glyph-name="oogonekmacron" unicode="&#x1ed;" 
d="M305 340q-28 0 -53 -8.5t-44 -24t-29.5 -37.5t-10.5 -50t10.5 -50t29.5 -37.5t44 -24t53 -8.5q29 0 53.5 8.5t43.5 24t29.5 37.5t10.5 50t-10.5 50t-29.5 37.5t-43.5 24t-53.5 8.5zM305 446q47 0 94.5 -13t86 -40.5t62.5 -70.5t24 -102q0 -60 -24 -102.5t-62.5 -69.5
t-86 -39t-94.5 -12t-94.5 12t-86 39t-62.5 69.5t-24 102.5q0 59 24 102t62.5 70.5t86 40.5t94.5 13zM409 13q-20 -8 -44.5 -17.5t-45.5 -24.5t-35.5 -34.5t-14.5 -45.5q0 -23 14.5 -36t36.5 -13q24 0 50 13.5t46 26.5l20 -34q-34 -23 -71.5 -41.5t-79.5 -18.5
q-43 0 -73.5 23.5t-30.5 68.5q0 40 24.5 66t60 42.5t74.5 24t69 12.5v-12zM133 570h344v-74h-344v74z" />
    <glyph glyph-name="DZ" unicode="&#x1f1;" horiz-adv-x="1333" 
d="M386 118q79 0 114 40.5t35 104.5t-35 104.5t-114 40.5h-127v-290h127zM109 496q0 7 -4.5 11.5t-23.5 6.5v12h332q69 0 120 -20t84 -55.5t49.5 -83.5t16.5 -104q0 -51 -17.5 -98.5t-53 -84t-88 -58.5t-122.5 -22h-321v12q19 2 23.5 6.5t4.5 11.5v466zM1264 118q8 0 12 4.5
t6 17.5h12v-159h-12q-2 13 -6 16t-12 3h-512v12l288 396h-239q-8 0 -12 -4.5t-6 -18.5h-12v169h12q2 -17 6 -22.5t12 -5.5h493v-12l-290 -396h260z" />
    <glyph glyph-name="Dz" unicode="&#x1f2;" horiz-adv-x="1278" 
d="M386 118q79 0 114 40.5t35 104.5t-35 104.5t-114 40.5h-127v-290h127zM109 496q0 7 -4.5 11.5t-23.5 6.5v12h332q69 0 120 -20t84 -55.5t49.5 -83.5t16.5 -104q0 -51 -17.5 -98.5t-53 -84t-88 -58.5t-122.5 -22h-321v12q19 2 23.5 6.5t4.5 11.5v466zM812 338
q-9 0 -13.5 -3.5t-4.5 -19.5h-12v148h12q0 -16 4.5 -19.5t13.5 -3.5h402v-12l-231 -326h215q9 0 13.5 4t4.5 22h12v-148h-12q0 16 -4.5 18t-13.5 2h-426v12l233 326h-193z" />
    <glyph glyph-name="dz" unicode="&#x1f3;" horiz-adv-x="1167" 
d="M293 96q78 0 112 27.5t34 96.5t-34 96.5t-112 27.5h-72v-248h72zM87 410q0 11 -7.5 14t-18.5 4v12h300q56 0 95 -18t64.5 -48t37 -70t11.5 -84t-11.5 -84t-37 -70t-64.5 -48t-95 -18h-300v12q11 1 18.5 4t7.5 14v380zM701 338q-9 0 -13.5 -3.5t-4.5 -19.5h-12v148h12
q0 -16 4.5 -19.5t13.5 -3.5h402v-12l-231 -326h215q9 0 13.5 4t4.5 22h12v-148h-12q0 16 -4.5 18t-13.5 2h-426v12l233 326h-193z" />
    <glyph glyph-name="Gacute" unicode="&#x1f4;" horiz-adv-x="722" 
d="M393 191q-8 0 -11 -5.5t-4 -14.5h-12v140h12q2 -18 15 -18h295v-12q-16 -1 -16 -17v-166q0 -7 2 -12t10 -5h5v-12q-136 -72 -322 -72q-63 0 -121.5 15.5t-103.5 48.5t-72.5 83.5t-27.5 118.5t27.5 118.5t72.5 84t103.5 50t121.5 16.5q25 0 44 -1t37 -4t37 -7.5t45 -11.5
q25 -7 46 -16.5t27 -9.5q8 0 14 8l12 -4l-65 -132l-12 7q2 6 2 11q0 7 -17 15.5t-43 15.5t-58.5 12t-63.5 5q-36 0 -68.5 -9.5t-58 -29.5t-40.5 -49.5t-15 -70.5q0 -40 18 -69.5t45.5 -48.5t61.5 -28t67 -9q42 0 75.5 5t64.5 14v66h-129zM384 585h-103l95 146h155z" />
    <glyph glyph-name="gacute" unicode="&#x1f5;" 
d="M546 103q0 -10 5 -18t14 -8h9v-12q-24 -12 -55 -24.5t-67 -22.5t-74 -15.5t-76 -5.5q-58 0 -107 12t-83.5 39.5t-54 70t-19.5 101.5t22 101.5t59 70t84.5 41t98.5 13.5q38 0 69.5 -4.5t55.5 -10.5t39.5 -10.5t20.5 -4.5q8 0 10.5 3t6.5 7l12 -2l-52 -132l-12 6v7
q0 9 -13.5 17t-33.5 14.5t-42.5 10t-40.5 3.5q-31 0 -59 -7t-48.5 -23t-32.5 -40.5t-12 -59.5q0 -36 12 -61.5t33 -42t49 -24.5t61 -8q25 0 49 3.5t48 11.5v65h-84q-12 0 -15 -9t-3 -15h-12v124h12q0 -6 3 -15t15 -9h208v-137zM320 496h-103l95 146h155z" />
    <glyph glyph-name="Ngrave" unicode="&#x1f8;" horiz-adv-x="778" 
d="M109 496q0 7 -4.5 11.5t-23.5 6.5v12h241v-12q-17 -1 -22.5 -4.5t-5.5 -8.5q0 -2 13 -18t34 -40t47.5 -53.5t53.5 -59t52 -56t43 -45.5v267q0 17 -21 18v12h183v-12q-19 -2 -23.5 -6.5t-4.5 -11.5v-466q0 -7 4.5 -11.5t23.5 -6.5v-12h-190v12q14 0 18.5 3t4.5 8
q0 3 -3 7.5t-13 15.5t-29.5 31.5t-51.5 55t-79 86t-113 125.5v-314q0 -7 4.5 -11.5t23.5 -6.5v-12h-190v12q19 2 23.5 6.5t4.5 11.5v466zM515 576h-103l-147 146h155z" />
    <glyph glyph-name="ngrave" unicode="&#x1f9;" horiz-adv-x="667" 
d="M579 30q0 -11 8 -14t20 -4v-12h-185v12q8 0 18.5 2t10.5 11t-22 33.5t-56.5 60.5t-77.5 80.5t-85 94.5l-2 -2v-262q0 -11 7.5 -14t18.5 -4v-12h-171v12q10 1 17.5 4t7.5 14v380q0 11 -8 14t-19 4v12h238v-12q-7 -1 -14 -4t-7 -14q0 -2 16.5 -20.5t42.5 -46.5t58 -62
l64 -68v197q0 11 -8 14t-20 4v12h176v-12q-12 -1 -20 -4t-8 -14v-380zM459 490h-103l-147 146h155z" />
    <glyph glyph-name="Aringacute" unicode="&#x1fa;" horiz-adv-x="722" 
d="M200 22q0 -5 3.5 -7.5t14.5 -2.5v-12h-177v12q11 2 16 6.5t10 16.5q2 5 10 27t21 55.5t29 74.5t32 83.5t31.5 83t27.5 72.5l19.5 52t7.5 21q0 5 -6.5 7t-13.5 3v12h261v-12q-8 -1 -13 -3t-5 -10q0 -2 9.5 -26t24.5 -62.5t34.5 -87t40.5 -99t40.5 -98.5t35.5 -86
q8 -18 13.5 -24t14.5 -6v-12h-197v12q19 1 19 12q0 1 -5 13.5t-11 28t-11.5 29.5t-6.5 19h-237q-10 -27 -16 -44t-9.5 -27t-5 -14.5t-1.5 -6.5zM443 194l-97 238l-89 -238h186zM353 707q-23 0 -38 -15t-15 -38t15 -38t38 -15t38 15t15 38t-15 38t-38 15zM353 761
q22 0 41.5 -8.5t34 -23t23 -34t8.5 -41.5t-8.5 -41.5t-23 -34t-34 -23t-41.5 -8.5t-41.5 8.5t-34 23t-23 34t-8.5 41.5t8.5 41.5t23 34t34 23t41.5 8.5zM578 620h-103l95 146h155z" />
    <glyph glyph-name="aringacute" unicode="&#x1fb;" horiz-adv-x="667" 
d="M454 12q3 0 8 1t5 8q0 4 -3.5 12.5t-8 18.5t-9.5 20t-8 17h-232q-2 -7 -6.5 -17t-9.5 -20t-9 -18.5t-4 -12.5q0 -7 5 -8t8 -1v-12h-150v12q6 0 12 2.5t8 7.5q30 70 61 138.5t55.5 124t40.5 92t16 41.5q0 9 -13 10v12h209v-12q-13 -1 -13 -10q0 -3 10.5 -26.5t27.5 -59
t37.5 -78.5l41 -86t38.5 -81.5t29 -64.5q2 -5 8 -7.5t12 -2.5v-12h-166v12zM320 336l-82 -175h166zM325 632q-23 0 -38 -15t-15 -38t15 -38t38 -15t38 15t15 38t-15 38t-38 15zM325 686q22 0 41.5 -8.5t34 -23t23 -34t8.5 -41.5t-8.5 -41.5t-23 -34t-34 -23t-41.5 -8.5
t-41.5 8.5t-34 23t-23 34t-8.5 41.5t8.5 41.5t23 34t34 23t41.5 8.5zM547 600h-103l95 146h155z" />
    <glyph glyph-name="AEacute" unicode="&#x1fc;" horiz-adv-x="1000" 
d="M239 123q-11 -16 -21 -32t-18 -29.5t-12.5 -23.5t-4.5 -13q0 -9 8 -11t15 -2v-12h-183v12q8 0 22 17q2 2 14 23t30.5 53.5t42 73t48 83t47.5 83t41 72.5t29 52t11 21q0 12 -5.5 16.5t-19.5 7.5v12h653q8 0 12 5.5t6 22.5h12v-174h-12q-2 17 -6 22.5t-12 5.5h-321v-83h186
q15 0 21.5 6t8.5 17h12v-156h-12q-2 10 -8.5 16.5t-21.5 6.5h-186v-93h321q8 0 12 5.5t6 24.5h12v-171h-12q-2 13 -6 16t-12 3h-499v12q28 1 28 18v93h-226zM465 203v215q0 36 -18 36q-14 0 -21.5 -7.5t-22.5 -33.5l-120 -210h182zM548 604h-103l95 146h155z" />
    <glyph glyph-name="aeacute" unicode="&#x1fd;" horiz-adv-x="944" 
d="M555 271h190q6 0 12 4.5t6 18.5h12v-130h-12q0 14 -6 18.5t-12 4.5h-190v-99h286q20 0 26 25h12v-131h-10q-5 14 -10.5 16t-17.5 2h-450v12q11 1 20.5 4t9.5 14v74h-206q-2 -4 -9 -16.5t-15 -27t-14 -26t-6 -13.5q0 -5 4.5 -6t11.5 -3v-12h-169v12q8 0 13 4t10 11
q4 6 23.5 37t46 73t56.5 89.5t55 88.5t41.5 69t16.5 31q0 8 -5 10t-12 3v12h586q6 0 12 4t6 18h12v-134h-12q0 15 -6 19.5t-12 4.5h-294v-81zM421 176v192q0 14 -3.5 22t-19.5 8q-7 0 -11 -5t-9 -12l-122 -205h165zM499 515h-103l95 146h155z" />
    <glyph glyph-name="Oslashacute" unicode="&#x1fe;" horiz-adv-x="722" 
d="M660 618l-100 -140q51 -33 82 -86.5t31 -128.5q0 -66 -25 -116t-67.5 -84t-99 -50t-120.5 -16q-36 0 -69.5 4t-64.5 16l-87 -120h-87l109 151q-52 34 -82.5 88t-30.5 127q0 66 25 116t67.5 84t99 51.5t120.5 17.5q74 0 133 -22l78 108h88zM305 125q27 -9 56 -9
q33 0 62.5 10t52 28.5t36 46t13.5 62.5t-12.5 61t-32.5 44zM417 402q-29 8 -56 8q-33 0 -62.5 -10t-52 -28.5t-36 -46t-13.5 -62.5q0 -33 12 -59t33 -45zM417 601h-103l95 146h155z" />
    <glyph glyph-name="oslashacute" unicode="&#x1ff;" 
d="M472 400q45 -26 72.5 -70t27.5 -110q0 -60 -24 -102.5t-62.5 -69.5t-86 -39t-94.5 -12q-30 0 -60 4t-59 15l-78 -103h-70l97 129q-43 27 -70 71t-27 107q0 59 24 102t62.5 70.5t86 40.5t94.5 13q29 0 57.5 -4.5t56.5 -15.5l76 102h72zM255 108q26 -8 50 -8q29 0 53.5 8.5
t43.5 24t29.5 37.5t10.5 50t-10.5 50t-28.5 37zM351 334q-22 6 -46 6q-28 0 -53 -8.5t-44 -24t-29.5 -37.5t-10.5 -50q0 -26 10 -47.5t27 -36.5zM364 506h-103l95 146h155z" />
    <glyph glyph-name="Hcaron" unicode="&#x21e;" horiz-adv-x="778" 
d="M669 30q0 -7 4.5 -11.5t23.5 -6.5v-12h-206v12q19 2 23.5 6.5t4.5 11.5v185h-260v-185q0 -7 4.5 -11.5t23.5 -6.5v-12h-206v12q19 2 23.5 6.5t4.5 11.5v466q0 7 -4.5 11.5t-23.5 6.5v12h206v-12q-19 -2 -23.5 -6.5t-4.5 -11.5v-159h260v159q0 7 -4.5 11.5t-23.5 6.5v12
h206v-12q-19 -2 -23.5 -6.5t-4.5 -11.5v-466zM324 576l-111 146h110l64 -82l63 82h115l-116 -146h-125z" />
    <glyph glyph-name="hcaron" unicode="&#x21f;" horiz-adv-x="667" 
d="M223 30q0 -11 8 -14t20 -4v-12h-190v12q12 1 20 4t8 14v380q0 11 -8 14t-20 4v12h190v-12q-12 -1 -20 -4t-8 -14v-126h221v126q0 11 -8 14t-20 4v12h190v-12q-12 -1 -20 -4t-8 -14v-380q0 -11 8 -14t20 -4v-12h-190v12q12 1 20 4t8 14v152h-221v-152zM268 490l-111 146
h110l64 -82l63 82h115l-116 -146h-125z" />
    <glyph glyph-name="Adotaccent" unicode="&#x226;" horiz-adv-x="722" 
d="M200 22q0 -5 3.5 -7.5t14.5 -2.5v-12h-177v12q11 2 16 6.5t10 16.5q2 5 10 27t21 55.5t29 74.5t32 83.5t31.5 83t27.5 72.5l19.5 52t7.5 21q0 5 -6.5 7t-13.5 3v12h261v-12q-8 -1 -13 -3t-5 -10q0 -2 9.5 -26t24.5 -62.5t34.5 -87t40.5 -99t40.5 -98.5t35.5 -86
q8 -18 13.5 -24t14.5 -6v-12h-197v12q19 1 19 12q0 1 -5 13.5t-11 28t-11.5 29.5t-6.5 19h-237q-10 -27 -16 -44t-9.5 -27t-5 -14.5t-1.5 -6.5zM443 194l-97 238l-89 -238h186zM297 692h128v-116h-128v116z" />
    <glyph glyph-name="adotaccent" unicode="&#x227;" horiz-adv-x="667" 
d="M454 12q3 0 8 1t5 8q0 4 -3.5 12.5t-8 18.5t-9.5 20t-8 17h-232q-2 -7 -6.5 -17t-9.5 -20t-9 -18.5t-4 -12.5q0 -7 5 -8t8 -1v-12h-150v12q6 0 12 2.5t8 7.5q30 70 61 138.5t55.5 124t40.5 92t16 41.5q0 9 -13 10v12h209v-12q-13 -1 -13 -10q0 -3 10.5 -26.5t27.5 -59
t37.5 -78.5l41 -86t38.5 -81.5t29 -64.5q2 -5 8 -7.5t12 -2.5v-12h-166v12zM320 336l-82 -175h166zM266 606h128v-116h-128v116z" />
    <glyph glyph-name="Ecedilla" unicode="&#x228;" horiz-adv-x="667" 
d="M475 192q-2 10 -8.5 16.5t-21.5 6.5h-186v-93h321q8 0 12 5.5t6 24.5h12v-171h-12q-2 13 -6 16t-12 3h-499v12q19 2 23.5 6.5t4.5 11.5v466q0 7 -4.5 11.5t-23.5 6.5v12h499q8 0 12 5.5t6 22.5h12v-174h-12q-2 17 -6 22.5t-12 5.5h-321v-83h186q15 0 21.5 6.5t8.5 16.5
h12v-156h-12zM259 -150q18 -6 37 -11t38 -5q22 0 38 8t16 32q0 14 -12.5 23.5t-26.5 9.5q-12 0 -23 -2.5t-22 -5.5l-21 20l59 87h53l-43 -58l2 -2q6 2 15 4t17 2q18 0 34 -5t28.5 -15t20 -24.5t7.5 -32.5q0 -25 -12 -43t-30.5 -29.5t-41 -17t-43.5 -5.5q-28 0 -55.5 7.5
t-53.5 18.5z" />
    <glyph glyph-name="ecedilla" unicode="&#x229;" 
d="M507 88q20 0 26 25h12v-131h-10q-5 14 -10.5 16t-17.5 2h-446v12q11 1 19.5 4t8.5 14v380q0 11 -8.5 14t-19.5 4v12h454q6 0 12 4t6 18h12v-134h-12q0 15 -6 19.5t-12 4.5h-292v-81h188q6 0 12 4.5t6 18.5h12v-130h-12q0 14 -6 18.5t-12 4.5h-188v-99h284zM222 -150
q18 -6 37 -11t38 -5q22 0 38 8t16 32q0 14 -12.5 23.5t-26.5 9.5q-12 0 -23 -2.5t-22 -5.5l-21 20l59 87h53l-43 -58l2 -2q6 2 15 4t17 2q18 0 34 -5t28.5 -15t20 -24.5t7.5 -32.5q0 -25 -12 -43t-30.5 -29.5t-41 -17t-43.5 -5.5q-28 0 -55.5 7.5t-53.5 18.5z" />
    <glyph glyph-name="Odieresismacron" unicode="&#x22a;" horiz-adv-x="722" 
d="M361 532q64 0 120.5 -17.5t99 -51.5t67.5 -84t25 -116t-25 -116t-67.5 -84t-99 -50t-120.5 -16t-120.5 16t-99 50t-67.5 84t-25 116t25 116t67.5 84t99 51.5t120.5 17.5zM361 410q-33 0 -62.5 -10t-52 -28.5t-36 -46t-13.5 -62.5t13.5 -62.5t36 -46t52 -28.5t62.5 -10
t62.5 10t52 28.5t36 46t13.5 62.5t-13.5 62.5t-36 46t-52 28.5t-62.5 10zM395 698h128v-116h-128v116zM199 698h128v-116h-128v116zM189 822h344v-74h-344v74z" />
    <glyph glyph-name="odieresismacron" unicode="&#x22b;" 
d="M305 340q-28 0 -53 -8.5t-44 -24t-29.5 -37.5t-10.5 -50t10.5 -50t29.5 -37.5t44 -24t53 -8.5q29 0 53.5 8.5t43.5 24t29.5 37.5t10.5 50t-10.5 50t-29.5 37.5t-43.5 24t-53.5 8.5zM305 446q47 0 94.5 -13t86 -40.5t62.5 -70.5t24 -102q0 -60 -24 -102.5t-62.5 -69.5
t-86 -39t-94.5 -12t-94.5 12t-86 39t-62.5 69.5t-24 102.5q0 59 24 102t62.5 70.5t86 40.5t94.5 13zM339 612h128v-116h-128v116zM143 612h128v-116h-128v116zM133 736h344v-74h-344v74z" />
    <glyph glyph-name="Otildemacron" unicode="&#x22c;" horiz-adv-x="722" 
d="M361 532q64 0 120.5 -17.5t99 -51.5t67.5 -84t25 -116t-25 -116t-67.5 -84t-99 -50t-120.5 -16t-120.5 16t-99 50t-67.5 84t-25 116t25 116t67.5 84t99 51.5t120.5 17.5zM361 410q-33 0 -62.5 -10t-52 -28.5t-36 -46t-13.5 -62.5t13.5 -62.5t36 -46t52 -28.5t62.5 -10
t62.5 10t52 28.5t36 46t13.5 62.5t-13.5 62.5t-36 46t-52 28.5t-62.5 10zM543 695q-5 -22 -13 -44t-21 -39t-31.5 -27.5t-45.5 -10.5q-19 0 -39 5.5t-39.5 12t-37 12t-32.5 5.5q-18 0 -29.5 -13t-15.5 -29h-59q3 23 10 45t21 39.5t34 28t46 10.5q21 0 40 -5.5t36.5 -12.5
t33.5 -12.5t30 -5.5q20 0 31 12t16 29h65zM189 808h344v-74h-344v74z" />
    <glyph glyph-name="otildemacron" unicode="&#x22d;" 
d="M305 340q-28 0 -53 -8.5t-44 -24t-29.5 -37.5t-10.5 -50t10.5 -50t29.5 -37.5t44 -24t53 -8.5q29 0 53.5 8.5t43.5 24t29.5 37.5t10.5 50t-10.5 50t-29.5 37.5t-43.5 24t-53.5 8.5zM305 446q47 0 94.5 -13t86 -40.5t62.5 -70.5t24 -102q0 -60 -24 -102.5t-62.5 -69.5
t-86 -39t-94.5 -12t-94.5 12t-86 39t-62.5 69.5t-24 102.5q0 59 24 102t62.5 70.5t86 40.5t94.5 13zM487 608q-5 -22 -13 -44t-21 -39t-31.5 -27.5t-45.5 -10.5q-19 0 -39 5.5t-39.5 12t-37 12t-32.5 5.5q-18 0 -29.5 -13t-15.5 -29h-59q3 23 10 45t21 39.5t34 28t46 10.5
q21 0 40 -5.5t36.5 -12.5t33.5 -12.5t30 -5.5q20 0 31 12t16 29h65zM133 737h344v-74h-344v74z" />
    <glyph glyph-name="Odotaccent" unicode="&#x22e;" horiz-adv-x="722" 
d="M361 532q64 0 120.5 -17.5t99 -51.5t67.5 -84t25 -116t-25 -116t-67.5 -84t-99 -50t-120.5 -16t-120.5 16t-99 50t-67.5 84t-25 116t25 116t67.5 84t99 51.5t120.5 17.5zM361 410q-33 0 -62.5 -10t-52 -28.5t-36 -46t-13.5 -62.5t13.5 -62.5t36 -46t52 -28.5t62.5 -10
t62.5 10t52 28.5t36 46t13.5 62.5t-13.5 62.5t-36 46t-52 28.5t-62.5 10zM297 698h128v-116h-128v116z" />
    <glyph glyph-name="odotaccent" unicode="&#x22f;" 
d="M305 340q-28 0 -53 -8.5t-44 -24t-29.5 -37.5t-10.5 -50t10.5 -50t29.5 -37.5t44 -24t53 -8.5q29 0 53.5 8.5t43.5 24t29.5 37.5t10.5 50t-10.5 50t-29.5 37.5t-43.5 24t-53.5 8.5zM305 446q47 0 94.5 -13t86 -40.5t62.5 -70.5t24 -102q0 -60 -24 -102.5t-62.5 -69.5
t-86 -39t-94.5 -12t-94.5 12t-86 39t-62.5 69.5t-24 102.5q0 59 24 102t62.5 70.5t86 40.5t94.5 13zM241 612h128v-116h-128v116z" />
    <glyph glyph-name="Odotaccentmacron" unicode="&#x230;" horiz-adv-x="722" 
d="M361 532q64 0 120.5 -17.5t99 -51.5t67.5 -84t25 -116t-25 -116t-67.5 -84t-99 -50t-120.5 -16t-120.5 16t-99 50t-67.5 84t-25 116t25 116t67.5 84t99 51.5t120.5 17.5zM361 410q-33 0 -62.5 -10t-52 -28.5t-36 -46t-13.5 -62.5t13.5 -62.5t36 -46t52 -28.5t62.5 -10
t62.5 10t52 28.5t36 46t13.5 62.5t-13.5 62.5t-36 46t-52 28.5t-62.5 10zM297 688h128v-116h-128v116zM191 804h344v-74h-344v74z" />
    <glyph glyph-name="odotaccentmacron" unicode="&#x231;" 
d="M305 340q-28 0 -53 -8.5t-44 -24t-29.5 -37.5t-10.5 -50t10.5 -50t29.5 -37.5t44 -24t53 -8.5q29 0 53.5 8.5t43.5 24t29.5 37.5t10.5 50t-10.5 50t-29.5 37.5t-43.5 24t-53.5 8.5zM305 446q47 0 94.5 -13t86 -40.5t62.5 -70.5t24 -102q0 -60 -24 -102.5t-62.5 -69.5
t-86 -39t-94.5 -12t-94.5 12t-86 39t-62.5 69.5t-24 102.5q0 59 24 102t62.5 70.5t86 40.5t94.5 13zM241 612h128v-116h-128v116zM133 736h344v-74h-344v74z" />
    <glyph glyph-name="Ymacron" unicode="&#x232;" horiz-adv-x="667" 
d="M629 526v-12q-8 0 -13.5 -5.5t-10.5 -12.5l-192 -271v-195q0 -7 4.5 -11.5t23.5 -6.5v-12h-206v12q19 2 23.5 6.5t4.5 11.5v176l-191 274q-16 23 -21 28.5t-12 5.5v12h220v-12q-9 0 -17 -2t-8 -10q0 -4 13 -24t30.5 -46t36.5 -53t31 -46q3 5 13 18.5t22.5 31.5t27 38
t26 37t19.5 29.5t8 14.5q0 8 -7.5 10t-14.5 2v12h190zM162 650h344v-74h-344v74z" />
    <glyph glyph-name="ymacron" unicode="&#x233;" 
d="M377 30q0 -11 7 -14t14 -4v-12h-176v12q7 1 14 4t7 14v129l-191 259q-4 6 -13.5 8t-15.5 2v12h215v-12q-6 0 -14.5 -1.5t-8.5 -9.5q0 -5 9.5 -18.5t23.5 -32.5t31 -40.5t32 -41.5q4 8 18 28t29.5 42t27.5 40t12 23q0 8 -8 9.5t-13 1.5v12h198v-12q-5 0 -14 -2t-13 -8
l-171 -255v-133zM127 564h344v-74h-344v74z" />
    <glyph glyph-name="commaturnedmod" unicode="&#x2bb;" horiz-adv-x="278" 
d="M233 526q-31 -12 -57.5 -33.5t-33.5 -56.5q39 0 66.5 -18.5t27.5 -60.5q0 -35 -25 -55t-58 -20q-44 0 -64.5 29.5t-20.5 69.5q0 36 14.5 64t37.5 50t53 37.5t60 25.5v-32z" />
    <glyph glyph-name="afii57929" unicode="&#x2bc;" horiz-adv-x="278" 
d="M45 306q31 12 57.5 33.5t33.5 56.5q-39 0 -66.5 18.5t-27.5 60.5q0 35 25 55t58 20q44 0 64.5 -29.5t20.5 -69.5q0 -36 -14.5 -64t-37.5 -50t-53 -37.5t-60 -25.5v32z" />
    <glyph glyph-name="uni02EE" unicode="&#x2ee;" horiz-adv-x="500" 
d="M281 306q31 12 57.5 33.5t33.5 56.5q-39 0 -66.5 18.5t-27.5 60.5q0 35 25 55t58 20q44 0 64.5 -29.5t20.5 -69.5q0 -36 -14.5 -64t-37.5 -50t-53 -37.5t-60 -25.5v32zM58 306q31 12 57.5 33.5t33.5 56.5q-39 0 -66.5 18.5t-27.5 60.5q0 35 25 55t58 20q44 0 64.5 -29.5
t20.5 -69.5q0 -36 -14.5 -64t-37.5 -50t-53 -37.5t-60 -25.5v32z" />
    <glyph glyph-name="palochkacyrillic" unicode="&#x4c0;" horiz-adv-x="389" 
d="M92 12q19 2 23.5 6.5t4.5 11.5v466q0 7 -4.5 11.5t-23.5 6.5v12h206v-12q-19 -2 -23.5 -6.5t-4.5 -11.5v-466q0 -7 4.5 -11.5t23.5 -6.5v-12h-206v12z" />
    <glyph glyph-name="Aringbelow" unicode="&#x1e00;" horiz-adv-x="722" 
d="M200 22q0 -5 3.5 -7.5t14.5 -2.5v-12h-177v12q11 2 16 6.5t10 16.5q2 5 10 27t21 55.5t29 74.5t32 83.5t31.5 83t27.5 72.5l19.5 52t7.5 21q0 5 -6.5 7t-13.5 3v12h261v-12q-8 -1 -13 -3t-5 -10q0 -2 9.5 -26t24.5 -62.5t34.5 -87t40.5 -99t40.5 -98.5t35.5 -86
q8 -18 13.5 -24t14.5 -6v-12h-197v12q19 1 19 12q0 1 -5 13.5t-11 28t-11.5 29.5t-6.5 19h-237q-10 -27 -16 -44t-9.5 -27t-5 -14.5t-1.5 -6.5zM443 194l-97 238l-89 -238h186zM361 -75q-23 0 -38 -15t-15 -38t15 -38t38 -15t38 15t15 38t-15 38t-38 15zM361 -21
q22 0 41.5 -8.5t34 -23t23 -34t8.5 -41.5t-8.5 -41.5t-23 -34t-34 -23t-41.5 -8.5t-41.5 8.5t-34 23t-23 34t-8.5 41.5t8.5 41.5t23 34t34 23t41.5 8.5z" />
    <glyph glyph-name="aringbelow" unicode="&#x1e01;" horiz-adv-x="667" 
d="M454 12q3 0 8 1t5 8q0 4 -3.5 12.5t-8 18.5t-9.5 20t-8 17h-232q-2 -7 -6.5 -17t-9.5 -20t-9 -18.5t-4 -12.5q0 -7 5 -8t8 -1v-12h-150v12q6 0 12 2.5t8 7.5q30 70 61 138.5t55.5 124t40.5 92t16 41.5q0 9 -13 10v12h209v-12q-13 -1 -13 -10q0 -3 10.5 -26.5t27.5 -59
t37.5 -78.5l41 -86t38.5 -81.5t29 -64.5q2 -5 8 -7.5t12 -2.5v-12h-166v12zM320 336l-82 -175h166zM330 -83q-23 0 -38 -15t-15 -38t15 -38t38 -15t38 15t15 38t-15 38t-38 15zM330 -29q22 0 41.5 -8.5t34 -23t23 -34t8.5 -41.5t-8.5 -41.5t-23 -34t-34 -23t-41.5 -8.5
t-41.5 8.5t-34 23t-23 34t-8.5 41.5t8.5 41.5t23 34t34 23t41.5 8.5z" />
    <glyph glyph-name="Bdotaccent" unicode="&#x1e02;" horiz-adv-x="722" 
d="M425 106q54 0 76 13.5t22 46.5t-22 46.5t-76 13.5h-170v-120h170zM391 328q32 0 53 1.5t33 6.5t17 14t5 24t-5 24t-17 14t-33 6.5t-53 1.5h-136v-92h136zM105 496q0 7 -4.5 11.5t-23.5 6.5v12h381q41 0 75 -8t59 -24.5t39 -43t14 -63.5q0 -45 -27 -72.5t-69 -36.5v-2
q51 -14 83.5 -43t32.5 -85q0 -30 -11.5 -57t-36 -47t-63 -32t-91.5 -12h-386v12q19 2 23.5 6.5t4.5 11.5v466zM307 692h128v-116h-128v116z" />
    <glyph glyph-name="bdotaccent" unicode="&#x1e03;" 
d="M348 84q35 0 59 12t24 42q0 20 -7.5 31t-19.5 16t-26.5 6t-29.5 1h-109v-108h109zM358 260q39 0 52.5 14t13.5 34q0 30 -16.5 39t-49.5 9h-119v-96h119zM105 410q0 11 -8.5 14t-23.5 4v12h301q45 0 77 -4.5t52 -16.5t29.5 -33.5t9.5 -54.5q0 -32 -19.5 -57.5t-46.5 -38.5
q40 -13 60.5 -37.5t20.5 -69.5q0 -59 -42 -93.5t-137 -34.5h-305v12q15 1 23.5 4t8.5 14v380zM251 606h128v-116h-128v116z" />
    <glyph glyph-name="Bdotbelow" unicode="&#x1e04;" horiz-adv-x="722" 
d="M425 106q54 0 76 13.5t22 46.5t-22 46.5t-76 13.5h-170v-120h170zM391 328q32 0 53 1.5t33 6.5t17 14t5 24t-5 24t-17 14t-33 6.5t-53 1.5h-136v-92h136zM105 496q0 7 -4.5 11.5t-23.5 6.5v12h381q41 0 75 -8t59 -24.5t39 -43t14 -63.5q0 -45 -27 -72.5t-69 -36.5v-2
q51 -14 83.5 -43t32.5 -85q0 -30 -11.5 -57t-36 -47t-63 -32t-91.5 -12h-386v12q19 2 23.5 6.5t4.5 11.5v466zM307 -50h128v-116h-128v116z" />
    <glyph glyph-name="bdotbelow" unicode="&#x1e05;" 
d="M348 84q35 0 59 12t24 42q0 20 -7.5 31t-19.5 16t-26.5 6t-29.5 1h-109v-108h109zM358 260q39 0 52.5 14t13.5 34q0 30 -16.5 39t-49.5 9h-119v-96h119zM105 410q0 11 -8.5 14t-23.5 4v12h301q45 0 77 -4.5t52 -16.5t29.5 -33.5t9.5 -54.5q0 -32 -19.5 -57.5t-46.5 -38.5
q40 -13 60.5 -37.5t20.5 -69.5q0 -59 -42 -93.5t-137 -34.5h-305v12q15 1 23.5 4t8.5 14v380zM251 -50h128v-116h-128v116z" />
    <glyph glyph-name="Blinebelow" unicode="&#x1e06;" horiz-adv-x="722" 
d="M425 106q54 0 76 13.5t22 46.5t-22 46.5t-76 13.5h-170v-120h170zM391 328q32 0 53 1.5t33 6.5t17 14t5 24t-5 24t-17 14t-33 6.5t-53 1.5h-136v-92h136zM105 496q0 7 -4.5 11.5t-23.5 6.5v12h381q41 0 75 -8t59 -24.5t39 -43t14 -63.5q0 -45 -27 -72.5t-69 -36.5v-2
q51 -14 83.5 -43t32.5 -85q0 -30 -11.5 -57t-36 -47t-63 -32t-91.5 -12h-386v12q19 2 23.5 6.5t4.5 11.5v466zM199 -50h344v-74h-344v74z" />
    <glyph glyph-name="blinebelow" unicode="&#x1e07;" 
d="M348 84q35 0 59 12t24 42q0 20 -7.5 31t-19.5 16t-26.5 6t-29.5 1h-109v-108h109zM358 260q39 0 52.5 14t13.5 34q0 30 -16.5 39t-49.5 9h-119v-96h119zM105 410q0 11 -8.5 14t-23.5 4v12h301q45 0 77 -4.5t52 -16.5t29.5 -33.5t9.5 -54.5q0 -32 -19.5 -57.5t-46.5 -38.5
q40 -13 60.5 -37.5t20.5 -69.5q0 -59 -42 -93.5t-137 -34.5h-305v12q15 1 23.5 4t8.5 14v380zM143 -50h344v-74h-344v74z" />
    <glyph glyph-name="Ccedillaacute" unicode="&#x1e08;" horiz-adv-x="722" 
d="M560 339q1 3 1.5 6.5t0.5 8.5q0 8 -13.5 16t-36 14.5t-51.5 11t-61 4.5q-30 0 -63 -7t-60.5 -23t-45 -42.5t-17.5 -64.5t17.5 -64.5t45 -42.5t60.5 -23t63 -7q13 0 41 4.5t56 12.5t49.5 18t21.5 21q0 5 -2 8t-4 7l11 7l103 -157l-12 -7q-2 5 -5.5 6.5t-8.5 1.5
q-7 0 -27.5 -8t-52.5 -17.5t-76 -17t-98 -8.5l-33 -46l2 -2q6 2 15 4t17 2q18 0 34 -5t28.5 -15t20 -24.5t7.5 -32.5q0 -25 -12 -43t-30.5 -29.5t-41 -17t-43.5 -5.5q-28 0 -55.5 7.5t-53.5 18.5l19 44q18 -6 37 -11t38 -5q22 0 38 8t16 32q0 14 -12.5 23.5t-26.5 9.5
q-12 0 -23 -2.5t-22 -5.5l-21 20l51 78q-55 2 -107 21t-92 52.5t-64 81t-24 108.5q0 67 29 117.5t76 84t106 50.5t119 17t103.5 -6.5t73.5 -14.5q29 -8 45 -13.5t24 -5.5q9 0 15 8l11 -3l-90 -165zM345 582h-103l95 146h155z" />
    <glyph glyph-name="ccedillaacute" unicode="&#x1e09;" 
d="M478 271l-14 7q1 4 2.5 8t1.5 9q0 6 -12.5 14t-32 14.5t-44 11.5t-49.5 5q-28 0 -57 -7t-52 -21.5t-38 -37t-15 -54.5q0 -31 15 -54t38 -37.5t52 -21.5t57 -7q30 0 56.5 7.5t47 18t32 21t11.5 15.5v9q0 6 -1 9l11 7l95 -137l-12 -7q-9 11 -16 11q-4 0 -20.5 -8.5
t-43.5 -19t-63.5 -19t-81.5 -9.5l-33 -47l2 -2q6 2 15 4t17 2q18 0 34 -5t28.5 -15t20 -24.5t7.5 -32.5q0 -25 -12 -43t-30.5 -29.5t-41 -17t-43.5 -5.5q-28 0 -55.5 7.5t-53.5 18.5l19 44q18 -6 37 -11t38 -5q22 0 38 8t16 32q0 14 -12.5 23.5t-26.5 9.5q-12 0 -23 -2.5
t-22 -5.5l-21 20l51 77q-49 1 -95.5 15t-82 41t-57 68t-21.5 97q0 61 25 104t66 70t93.5 39.5t107.5 12.5q33 0 64 -5.5t57 -11.5t45 -11.5t27 -5.5q5 0 9 3t6 6l12 -4zM288 496h-103l95 146h155z" />
    <glyph glyph-name="Ddotaccent" unicode="&#x1e0a;" horiz-adv-x="722" 
d="M386 118q79 0 114 40.5t35 104.5t-35 104.5t-114 40.5h-127v-290h127zM109 496q0 7 -4.5 11.5t-23.5 6.5v12h332q69 0 120 -20t84 -55.5t49.5 -83.5t16.5 -104q0 -51 -17.5 -98.5t-53 -84t-88 -58.5t-122.5 -22h-321v12q19 2 23.5 6.5t4.5 11.5v466zM318 692h128v-116
h-128v116z" />
    <glyph glyph-name="ddotaccent" unicode="&#x1e0b;" 
d="M293 96q78 0 112 27.5t34 96.5t-34 96.5t-112 27.5h-72v-248h72zM87 410q0 11 -7.5 14t-18.5 4v12h300q56 0 95 -18t64.5 -48t37 -70t11.5 -84t-11.5 -84t-37 -70t-64.5 -48t-95 -18h-300v12q11 1 18.5 4t7.5 14v380zM251 606h128v-116h-128v116z" />
    <glyph glyph-name="Ddotbelow" unicode="&#x1e0c;" horiz-adv-x="722" 
d="M386 118q79 0 114 40.5t35 104.5t-35 104.5t-114 40.5h-127v-290h127zM109 496q0 7 -4.5 11.5t-23.5 6.5v12h332q69 0 120 -20t84 -55.5t49.5 -83.5t16.5 -104q0 -51 -17.5 -98.5t-53 -84t-88 -58.5t-122.5 -22h-321v12q19 2 23.5 6.5t4.5 11.5v466zM318 -50h128v-116
h-128v116z" />
    <glyph glyph-name="ddotbelow" unicode="&#x1e0d;" 
d="M293 96q78 0 112 27.5t34 96.5t-34 96.5t-112 27.5h-72v-248h72zM87 410q0 11 -7.5 14t-18.5 4v12h300q56 0 95 -18t64.5 -48t37 -70t11.5 -84t-11.5 -84t-37 -70t-64.5 -48t-95 -18h-300v12q11 1 18.5 4t7.5 14v380zM251 -50h128v-116h-128v116z" />
    <glyph glyph-name="Dlinebelow" unicode="&#x1e0e;" horiz-adv-x="722" 
d="M386 118q79 0 114 40.5t35 104.5t-35 104.5t-114 40.5h-127v-290h127zM109 496q0 7 -4.5 11.5t-23.5 6.5v12h332q69 0 120 -20t84 -55.5t49.5 -83.5t16.5 -104q0 -51 -17.5 -98.5t-53 -84t-88 -58.5t-122.5 -22h-321v12q19 2 23.5 6.5t4.5 11.5v466zM210 -50h344v-74
h-344v74z" />
    <glyph glyph-name="dlinebelow" unicode="&#x1e0f;" 
d="M293 96q78 0 112 27.5t34 96.5t-34 96.5t-112 27.5h-72v-248h72zM87 410q0 11 -7.5 14t-18.5 4v12h300q56 0 95 -18t64.5 -48t37 -70t11.5 -84t-11.5 -84t-37 -70t-64.5 -48t-95 -18h-300v12q11 1 18.5 4t7.5 14v380zM143 -50h344v-74h-344v74z" />
    <glyph glyph-name="Dcircumflexbelow" unicode="&#x1e12;" horiz-adv-x="722" 
d="M386 118q79 0 114 40.5t35 104.5t-35 104.5t-114 40.5h-127v-290h127zM109 496q0 7 -4.5 11.5t-23.5 6.5v12h332q69 0 120 -20t84 -55.5t49.5 -83.5t16.5 -104q0 -51 -17.5 -98.5t-53 -84t-88 -58.5t-122.5 -22h-321v12q19 2 23.5 6.5t4.5 11.5v466zM558 -196h-115
l-63 83l-64 -83h-110l111 146h125z" />
    <glyph glyph-name="dcircumflexbelow" unicode="&#x1e13;" 
d="M293 96q78 0 112 27.5t34 96.5t-34 96.5t-112 27.5h-72v-248h72zM87 410q0 11 -7.5 14t-18.5 4v12h300q56 0 95 -18t64.5 -48t37 -70t11.5 -84t-11.5 -84t-37 -70t-64.5 -48t-95 -18h-300v12q11 1 18.5 4t7.5 14v380zM491 -196h-115l-63 83l-64 -83h-110l111 146h125z
" />
    <glyph glyph-name="Emacrongrave" unicode="&#x1e14;" horiz-adv-x="667" 
d="M475 192q-2 10 -8.5 16.5t-21.5 6.5h-186v-93h321q8 0 12 5.5t6 24.5h12v-171h-12q-2 13 -6 16t-12 3h-499v12q19 2 23.5 6.5t4.5 11.5v466q0 7 -4.5 11.5t-23.5 6.5v12h499q8 0 12 5.5t6 22.5h12v-174h-12q-2 17 -6 22.5t-12 5.5h-321v-83h186q15 0 21.5 6.5t8.5 16.5
h12v-156h-12zM175 655h344v-74h-344v74zM423 684h-103l-147 146h155z" />
    <glyph glyph-name="emacrongrave" unicode="&#x1e15;" 
d="M507 88q20 0 26 25h12v-131h-10q-5 14 -10.5 16t-17.5 2h-446v12q11 1 19.5 4t8.5 14v380q0 11 -8.5 14t-19.5 4v12h454q6 0 12 4t6 18h12v-134h-12q0 15 -6 19.5t-12 4.5h-292v-81h188q6 0 12 4.5t6 18.5h12v-130h-12q0 14 -6 18.5t-12 4.5h-188v-99h284zM131 575h344
v-74h-344v74zM384 623h-103l-147 146h155z" />
    <glyph glyph-name="Emacronacute" unicode="&#x1e16;" horiz-adv-x="667" 
d="M475 192q-2 10 -8.5 16.5t-21.5 6.5h-186v-93h321q8 0 12 5.5t6 24.5h12v-171h-12q-2 13 -6 16t-12 3h-499v12q19 2 23.5 6.5t4.5 11.5v466q0 7 -4.5 11.5t-23.5 6.5v12h499q8 0 12 5.5t6 22.5h12v-174h-12q-2 17 -6 22.5t-12 5.5h-321v-83h186q15 0 21.5 6.5t8.5 16.5
h12v-156h-12zM170 660h344v-74h-344v74zM383 692h-103l95 146h155z" />
    <glyph glyph-name="emacronacute" unicode="&#x1e17;" 
d="M507 88q20 0 26 25h12v-131h-10q-5 14 -10.5 16t-17.5 2h-446v12q11 1 19.5 4t8.5 14v380q0 11 -8.5 14t-19.5 4v12h454q6 0 12 4t6 18h12v-134h-12q0 15 -6 19.5t-12 4.5h-292v-81h188q6 0 12 4.5t6 18.5h12v-130h-12q0 14 -6 18.5t-12 4.5h-188v-99h284zM131 586h344
v-74h-344v74zM343 631h-103l95 146h155z" />
    <glyph glyph-name="Ecircumflexbelow" unicode="&#x1e18;" horiz-adv-x="667" 
d="M475 192q-2 10 -8.5 16.5t-21.5 6.5h-186v-93h321q8 0 12 5.5t6 24.5h12v-171h-12q-2 13 -6 16t-12 3h-499v12q19 2 23.5 6.5t4.5 11.5v466q0 7 -4.5 11.5t-23.5 6.5v12h499q8 0 12 5.5t6 22.5h12v-174h-12q-2 17 -6 22.5t-12 5.5h-321v-83h186q15 0 21.5 6.5t8.5 16.5
h12v-156h-12zM521 -215h-115l-63 83l-64 -83h-110l111 146h125z" />
    <glyph glyph-name="ecircumflexbelow" unicode="&#x1e19;" 
d="M507 88q20 0 26 25h12v-131h-10q-5 14 -10.5 16t-17.5 2h-446v12q11 1 19.5 4t8.5 14v380q0 11 -8.5 14t-19.5 4v12h454q6 0 12 4t6 18h12v-134h-12q0 15 -6 19.5t-12 4.5h-292v-81h188q6 0 12 4.5t6 18.5h12v-130h-12q0 14 -6 18.5t-12 4.5h-188v-99h284zM479 -214h-115
l-63 83l-64 -83h-110l111 146h125z" />
    <glyph glyph-name="Etildebelow" unicode="&#x1e1a;" horiz-adv-x="667" 
d="M475 192q-2 10 -8.5 16.5t-21.5 6.5h-186v-93h321q8 0 12 5.5t6 24.5h12v-171h-12q-2 13 -6 16t-12 3h-499v12q19 2 23.5 6.5t4.5 11.5v466q0 7 -4.5 11.5t-23.5 6.5v12h499q8 0 12 5.5t6 22.5h12v-174h-12q-2 17 -6 22.5t-12 5.5h-321v-83h186q15 0 21.5 6.5t8.5 16.5
h12v-156h-12zM527 -69q-5 -22 -13 -44t-21 -39t-31.5 -27.5t-45.5 -10.5q-19 0 -39 5.5t-39.5 12t-37 12t-32.5 5.5q-18 0 -29.5 -13t-15.5 -29h-59q3 23 10 45t21 39.5t34 28t46 10.5q21 0 40 -5.5t36.5 -12.5t33.5 -12.5t30 -5.5q20 0 31 12t16 29h65z" />
    <glyph glyph-name="etildebelow" unicode="&#x1e1b;" 
d="M507 88q20 0 26 25h12v-131h-10q-5 14 -10.5 16t-17.5 2h-446v12q11 1 19.5 4t8.5 14v380q0 11 -8.5 14t-19.5 4v12h454q6 0 12 4t6 18h12v-134h-12q0 15 -6 19.5t-12 4.5h-292v-81h188q6 0 12 4.5t6 18.5h12v-130h-12q0 14 -6 18.5t-12 4.5h-188v-99h284zM485 -68
q-5 -22 -13 -44t-21 -39t-31.5 -27.5t-45.5 -10.5q-19 0 -39 5.5t-39.5 12t-37 12t-32.5 5.5q-18 0 -29.5 -13t-15.5 -29h-59q3 23 10 45t21 39.5t34 28t46 10.5q21 0 40 -5.5t36.5 -12.5t33.5 -12.5t30 -5.5q20 0 31 12t16 29h65z" />
    <glyph glyph-name="Ecedillabreve" unicode="&#x1e1c;" horiz-adv-x="667" 
d="M475 192q-2 10 -8.5 16.5t-21.5 6.5h-186v-93h321q8 0 12 5.5t6 24.5h12v-171h-12q-2 13 -6 16t-12 3h-499v12q19 2 23.5 6.5t4.5 11.5v466q0 7 -4.5 11.5t-23.5 6.5v12h499q8 0 12 5.5t6 22.5h12v-174h-12q-2 17 -6 22.5t-12 5.5h-321v-83h186q15 0 21.5 6.5t8.5 16.5
h12v-156h-12zM512 750q-10 -75 -54.5 -110.5t-119.5 -35.5q-69 0 -114 37t-46 109h65q2 -21 11.5 -35t24 -21.5t32 -10.5t35.5 -3q40 0 66 14t34 56h66zM267 -154q18 -6 37 -11t38 -5q22 0 38 8t16 32q0 14 -12.5 23.5t-26.5 9.5q-12 0 -23 -2.5t-22 -5.5l-21 20l59 87h53
l-43 -58l2 -2q6 2 15 4t17 2q18 0 34 -5t28.5 -15t20 -24.5t7.5 -32.5q0 -25 -12 -43t-30.5 -29.5t-41 -17t-43.5 -5.5q-28 0 -55.5 7.5t-53.5 18.5z" />
    <glyph glyph-name="ecedillabreve" unicode="&#x1e1d;" 
d="M507 88q20 0 26 25h12v-131h-10q-5 14 -10.5 16t-17.5 2h-446v12q11 1 19.5 4t8.5 14v380q0 11 -8.5 14t-19.5 4v12h454q6 0 12 4t6 18h12v-134h-12q0 15 -6 19.5t-12 4.5h-292v-81h188q6 0 12 4.5t6 18.5h12v-130h-12q0 14 -6 18.5t-12 4.5h-188v-99h284zM470 658
q-10 -75 -54.5 -110.5t-119.5 -35.5q-69 0 -114 37t-46 109h65q2 -21 11.5 -35t24 -21.5t32 -10.5t35.5 -3q40 0 66 14t34 56h66zM220 -154q18 -6 37 -11t38 -5q22 0 38 8t16 32q0 14 -12.5 23.5t-26.5 9.5q-12 0 -23 -2.5t-22 -5.5l-21 20l59 87h53l-43 -58l2 -2q6 2 15 4
t17 2q18 0 34 -5t28.5 -15t20 -24.5t7.5 -32.5q0 -25 -12 -43t-30.5 -29.5t-41 -17t-43.5 -5.5q-28 0 -55.5 7.5t-53.5 18.5z" />
    <glyph glyph-name="Fdotaccent" unicode="&#x1e1e;" horiz-adv-x="667" 
d="M611 380q-2 14 -6 19t-12 5h-330v-89h222q8 0 12 4.5t6 18.5h12v-168h-12q-2 17 -6 22t-12 5h-222v-167q0 -7 4.5 -11.5t23.5 -6.5v-12h-210v12q19 2 23.5 6.5t4.5 11.5v466q0 7 -4.5 11.5t-23.5 6.5v12h512q8 0 12 5.5t6 22.5h12v-174h-12zM288 720h128v-116h-128v116z
" />
    <glyph glyph-name="fdotaccent" unicode="&#x1e1f;" horiz-adv-x="556" 
d="M91 410q0 11 -8 14t-22 4v12h435q6 0 12 4t6 18h12v-138h-12q0 15 -6 19.5t-12 4.5h-271v-93h183q6 0 12 4t6 18h12v-134h-12q0 15 -6 19.5t-12 4.5h-183v-137q0 -11 8 -14t20 -4v-12h-190v12q12 1 20 4t8 14v380zM229 628h128v-116h-128v116z" />
    <glyph glyph-name="Gmacron" unicode="&#x1e20;" horiz-adv-x="722" 
d="M393 191q-8 0 -11 -5.5t-4 -14.5h-12v140h12q2 -18 15 -18h295v-12q-16 -1 -16 -17v-166q0 -7 2 -12t10 -5h5v-12q-136 -72 -322 -72q-63 0 -121.5 15.5t-103.5 48.5t-72.5 83.5t-27.5 118.5t27.5 118.5t72.5 84t103.5 50t121.5 16.5q25 0 44 -1t37 -4t37 -7.5t45 -11.5
q25 -7 46 -16.5t27 -9.5q8 0 14 8l12 -4l-65 -132l-12 7q2 6 2 11q0 7 -17 15.5t-43 15.5t-58.5 12t-63.5 5q-36 0 -68.5 -9.5t-58 -29.5t-40.5 -49.5t-15 -70.5q0 -40 18 -69.5t45.5 -48.5t61.5 -28t67 -9q42 0 75.5 5t64.5 14v66h-129zM193 656h344v-74h-344v74z" />
    <glyph glyph-name="gmacron" unicode="&#x1e21;" 
d="M546 103q0 -10 5 -18t14 -8h9v-12q-24 -12 -55 -24.5t-67 -22.5t-74 -15.5t-76 -5.5q-58 0 -107 12t-83.5 39.5t-54 70t-19.5 101.5t22 101.5t59 70t84.5 41t98.5 13.5q38 0 69.5 -4.5t55.5 -10.5t39.5 -10.5t20.5 -4.5q8 0 10.5 3t6.5 7l12 -2l-52 -132l-12 6v7
q0 9 -13.5 17t-33.5 14.5t-42.5 10t-40.5 3.5q-31 0 -59 -7t-48.5 -23t-32.5 -40.5t-12 -59.5q0 -36 12 -61.5t33 -42t49 -24.5t61 -8q25 0 49 3.5t48 11.5v65h-84q-12 0 -15 -9t-3 -15h-12v124h12q0 -6 3 -15t15 -9h208v-137zM134 570h344v-74h-344v74z" />
    <glyph glyph-name="Hdotaccent" unicode="&#x1e22;" horiz-adv-x="778" 
d="M669 30q0 -7 4.5 -11.5t23.5 -6.5v-12h-206v12q19 2 23.5 6.5t4.5 11.5v185h-260v-185q0 -7 4.5 -11.5t23.5 -6.5v-12h-206v12q19 2 23.5 6.5t4.5 11.5v466q0 7 -4.5 11.5t-23.5 6.5v12h206v-12q-19 -2 -23.5 -6.5t-4.5 -11.5v-159h260v159q0 7 -4.5 11.5t-23.5 6.5v12
h206v-12q-19 -2 -23.5 -6.5t-4.5 -11.5v-466zM325 692h128v-116h-128v116z" />
    <glyph glyph-name="hdotaccent" unicode="&#x1e23;" horiz-adv-x="667" 
d="M223 30q0 -11 8 -14t20 -4v-12h-190v12q12 1 20 4t8 14v380q0 11 -8 14t-20 4v12h190v-12q-12 -1 -20 -4t-8 -14v-126h221v126q0 11 -8 14t-20 4v12h190v-12q-12 -1 -20 -4t-8 -14v-380q0 -11 8 -14t20 -4v-12h-190v12q12 1 20 4t8 14v152h-221v-152zM269 606h128v-116
h-128v116z" />
    <glyph glyph-name="Hdotbelow" unicode="&#x1e24;" horiz-adv-x="778" 
d="M669 30q0 -7 4.5 -11.5t23.5 -6.5v-12h-206v12q19 2 23.5 6.5t4.5 11.5v185h-260v-185q0 -7 4.5 -11.5t23.5 -6.5v-12h-206v12q19 2 23.5 6.5t4.5 11.5v466q0 7 -4.5 11.5t-23.5 6.5v12h206v-12q-19 -2 -23.5 -6.5t-4.5 -11.5v-159h260v159q0 7 -4.5 11.5t-23.5 6.5v12
h206v-12q-19 -2 -23.5 -6.5t-4.5 -11.5v-466zM325 -50h128v-116h-128v116z" />
    <glyph glyph-name="hdotbelow" unicode="&#x1e25;" horiz-adv-x="667" 
d="M223 30q0 -11 8 -14t20 -4v-12h-190v12q12 1 20 4t8 14v380q0 11 -8 14t-20 4v12h190v-12q-12 -1 -20 -4t-8 -14v-126h221v126q0 11 -8 14t-20 4v12h190v-12q-12 -1 -20 -4t-8 -14v-380q0 -11 8 -14t20 -4v-12h-190v12q12 1 20 4t8 14v152h-221v-152zM269 -50h128v-116
h-128v116z" />
    <glyph glyph-name="Hdieresis" unicode="&#x1e26;" horiz-adv-x="778" 
d="M669 30q0 -7 4.5 -11.5t23.5 -6.5v-12h-206v12q19 2 23.5 6.5t4.5 11.5v185h-260v-185q0 -7 4.5 -11.5t23.5 -6.5v-12h-206v12q19 2 23.5 6.5t4.5 11.5v466q0 7 -4.5 11.5t-23.5 6.5v12h206v-12q-19 -2 -23.5 -6.5t-4.5 -11.5v-159h260v159q0 7 -4.5 11.5t-23.5 6.5v12
h206v-12q-19 -2 -23.5 -6.5t-4.5 -11.5v-466zM423 692h128v-116h-128v116zM227 692h128v-116h-128v116z" />
    <glyph glyph-name="hdieresis" unicode="&#x1e27;" horiz-adv-x="667" 
d="M223 30q0 -11 8 -14t20 -4v-12h-190v12q12 1 20 4t8 14v380q0 11 -8 14t-20 4v12h190v-12q-12 -1 -20 -4t-8 -14v-126h221v126q0 11 -8 14t-20 4v12h190v-12q-12 -1 -20 -4t-8 -14v-380q0 -11 8 -14t20 -4v-12h-190v12q12 1 20 4t8 14v152h-221v-152zM367 606h128v-116
h-128v116zM171 606h128v-116h-128v116z" />
    <glyph glyph-name="Hcedilla" unicode="&#x1e28;" horiz-adv-x="778" 
d="M669 30q0 -7 4.5 -11.5t23.5 -6.5v-12h-206v12q19 2 23.5 6.5t4.5 11.5v185h-260v-185q0 -7 4.5 -11.5t23.5 -6.5v-12h-206v12q19 2 23.5 6.5t4.5 11.5v466q0 7 -4.5 11.5t-23.5 6.5v12h206v-12q-19 -2 -23.5 -6.5t-4.5 -11.5v-159h260v159q0 7 -4.5 11.5t-23.5 6.5v12
h206v-12q-19 -2 -23.5 -6.5t-4.5 -11.5v-466zM100 -156q18 -6 37 -11t38 -5q22 0 38 8t16 32q0 14 -12.5 23.5t-26.5 9.5q-12 0 -23 -2.5t-22 -5.5l-21 20l59 87h53l-43 -58l2 -2q6 2 15 4t17 2q18 0 34 -5t28.5 -15t20 -24.5t7.5 -32.5q0 -25 -12 -43t-30.5 -29.5t-41 -17
t-43.5 -5.5q-28 0 -55.5 7.5t-53.5 18.5z" />
    <glyph glyph-name="hcedilla" unicode="&#x1e29;" horiz-adv-x="667" 
d="M223 30q0 -11 8 -14t20 -4v-12h-190v12q12 1 20 4t8 14v380q0 11 -8 14t-20 4v12h190v-12q-12 -1 -20 -4t-8 -14v-126h221v126q0 11 -8 14t-20 4v12h190v-12q-12 -1 -20 -4t-8 -14v-380q0 -11 8 -14t20 -4v-12h-190v12q12 1 20 4t8 14v152h-221v-152zM80 -156
q18 -6 37 -11t38 -5q22 0 38 8t16 32q0 14 -12.5 23.5t-26.5 9.5q-12 0 -23 -2.5t-22 -5.5l-21 20l59 87h53l-43 -58l2 -2q6 2 15 4t17 2q18 0 34 -5t28.5 -15t20 -24.5t7.5 -32.5q0 -25 -12 -43t-30.5 -29.5t-41 -17t-43.5 -5.5q-28 0 -55.5 7.5t-53.5 18.5z" />
    <glyph glyph-name="Hbrevebelow" unicode="&#x1e2a;" horiz-adv-x="778" 
d="M669 30q0 -7 4.5 -11.5t23.5 -6.5v-12h-206v12q19 2 23.5 6.5t4.5 11.5v185h-260v-185q0 -7 4.5 -11.5t23.5 -6.5v-12h-206v12q19 2 23.5 6.5t4.5 11.5v466q0 7 -4.5 11.5t-23.5 6.5v12h206v-12q-19 -2 -23.5 -6.5t-4.5 -11.5v-159h260v159q0 7 -4.5 11.5t-23.5 6.5v12
h206v-12q-19 -2 -23.5 -6.5t-4.5 -11.5v-466zM556 -50q-10 -75 -54.5 -110.5t-119.5 -35.5q-69 0 -114 37t-46 109h65q2 -21 11.5 -35t24 -21.5t32 -10.5t35.5 -3q40 0 66 14t34 56h66z" />
    <glyph glyph-name="hbrevebelow" unicode="&#x1e2b;" horiz-adv-x="667" 
d="M223 30q0 -11 8 -14t20 -4v-12h-190v12q12 1 20 4t8 14v380q0 11 -8 14t-20 4v12h190v-12q-12 -1 -20 -4t-8 -14v-126h221v126q0 11 -8 14t-20 4v12h190v-12q-12 -1 -20 -4t-8 -14v-380q0 -11 8 -14t20 -4v-12h-190v12q12 1 20 4t8 14v152h-221v-152zM500 -50
q-10 -75 -54.5 -110.5t-119.5 -35.5q-69 0 -114 37t-46 109h65q2 -21 11.5 -35t24 -21.5t32 -10.5t35.5 -3q40 0 66 14t34 56h66z" />
    <glyph glyph-name="Itildebelow" unicode="&#x1e2c;" horiz-adv-x="389" 
d="M92 12q19 2 23.5 6.5t4.5 11.5v466q0 7 -4.5 11.5t-23.5 6.5v12h206v-12q-19 -2 -23.5 -6.5t-4.5 -11.5v-466q0 -7 4.5 -11.5t23.5 -6.5v-12h-206v12zM377 -50q-5 -22 -13 -44t-21 -39t-31.5 -27.5t-45.5 -10.5q-19 0 -39 5.5t-39.5 12t-37 12t-32.5 5.5q-18 0 -29.5 -13
t-15.5 -29h-59q3 23 10 45t21 39.5t34 28t46 10.5q21 0 40 -5.5t36.5 -12.5t33.5 -12.5t30 -5.5q20 0 31 12t16 29h65z" />
    <glyph glyph-name="itildebelow" unicode="&#x1e2d;" horiz-adv-x="333" 
d="M266 428q-15 -1 -23.5 -4t-8.5 -14v-380q0 -11 8.5 -14t23.5 -4v-12h-198v12q15 1 23.5 4t8.5 14v380q0 11 -8.5 14t-23.5 4v12h198v-12zM349 -50q-5 -22 -13 -44t-21 -39t-31.5 -27.5t-45.5 -10.5q-19 0 -39 5.5t-39.5 12t-37 12t-32.5 5.5q-18 0 -29.5 -13t-15.5 -29
h-59q3 23 10 45t21 39.5t34 28t46 10.5q21 0 40 -5.5t36.5 -12.5t33.5 -12.5t30 -5.5q20 0 31 12t16 29h65z" />
    <glyph glyph-name="Idieresisacute" unicode="&#x1e2e;" horiz-adv-x="389" 
d="M92 12q19 2 23.5 6.5t4.5 11.5v466q0 7 -4.5 11.5t-23.5 6.5v12h206v-12q-19 -2 -23.5 -6.5t-4.5 -11.5v-466q0 -7 4.5 -11.5t23.5 -6.5v-12h-206v12zM228 678h128v-102h-128v102zM33 678h128v-102h-128v102zM236 703h-103l95 146h155z" />
    <glyph glyph-name="idieresisacute" unicode="&#x1e2f;" horiz-adv-x="333" 
d="M266 428q-15 -1 -23.5 -4t-8.5 -14v-380q0 -11 8.5 -14t23.5 -4v-12h-198v12q15 1 23.5 4t8.5 14v380q0 11 -8.5 14t-23.5 4v12h198v-12zM201 606h128v-116h-128v116zM5 606h128v-116h-128v116zM210 641h-103l95 146h155z" />
    <glyph glyph-name="Kacute" unicode="&#x1e30;" horiz-adv-x="722" 
d="M476 12q9 0 14 1.5t5 11.5q0 3 -9 18t-23 37t-31 47t-32 48t-27 40t-16 23l-98 -88v-120q0 -7 4.5 -11.5t23.5 -6.5v-12h-206v12q19 2 23.5 6.5t4.5 11.5v466q0 7 -4.5 11.5t-23.5 6.5v12h206v-12q-19 -2 -23.5 -6.5t-4.5 -11.5v-180h7q30 29 64.5 60t63.5 57.5t48.5 45
t19.5 22.5q0 9 -5 10.5t-13 2.5v12h254v-12q-10 -1 -16.5 -3t-12 -6t-12 -9.5t-15.5 -13.5l-173 -149l204 -305q8 -12 15 -14t17 -2v-12h-229v12zM416 576h-103l95 146h155z" />
    <glyph glyph-name="kacute" unicode="&#x1e31;" 
d="M380 12q7 0 17.5 3t10.5 14q0 3 -7 14.5t-17.5 27.5t-23.5 35.5t-25 37t-21.5 31.5t-13.5 21l-87 -84v-82q0 -11 9 -14t19 -4v-12h-187v12q9 -1 17 3t8 15v380q0 11 -8 15t-17 3v12h187v-12q-10 -1 -19 -4t-9 -14v-184q15 13 35.5 31t43 37.5t44.5 38.5t39.5 35.5
t28 27.5t10.5 14q0 11 -8.5 14t-16.5 4v12h195v-12q-15 -2 -39 -21t-51 -43.5t-53.5 -50t-45.5 -40.5l166 -246q5 -8 10.5 -11t12.5 -4v-12h-204v12zM336 488h-103l95 146h155z" />
    <glyph glyph-name="Kdotbelow" unicode="&#x1e32;" horiz-adv-x="722" 
d="M476 12q9 0 14 1.5t5 11.5q0 3 -9 18t-23 37t-31 47t-32 48t-27 40t-16 23l-98 -88v-120q0 -7 4.5 -11.5t23.5 -6.5v-12h-206v12q19 2 23.5 6.5t4.5 11.5v466q0 7 -4.5 11.5t-23.5 6.5v12h206v-12q-19 -2 -23.5 -6.5t-4.5 -11.5v-180h7q30 29 64.5 60t63.5 57.5t48.5 45
t19.5 22.5q0 9 -5 10.5t-13 2.5v12h254v-12q-10 -1 -16.5 -3t-12 -6t-12 -9.5t-15.5 -13.5l-173 -149l204 -305q8 -12 15 -14t17 -2v-12h-229v12zM314 -53h128v-116h-128v116z" />
    <glyph glyph-name="kdotbelow" unicode="&#x1e33;" 
d="M380 12q7 0 17.5 3t10.5 14q0 3 -7 14.5t-17.5 27.5t-23.5 35.5t-25 37t-21.5 31.5t-13.5 21l-87 -84v-82q0 -11 9 -14t19 -4v-12h-187v12q9 -1 17 3t8 15v380q0 11 -8 15t-17 3v12h187v-12q-10 -1 -19 -4t-9 -14v-184q15 13 35.5 31t43 37.5t44.5 38.5t39.5 35.5
t28 27.5t10.5 14q0 11 -8.5 14t-16.5 4v12h195v-12q-15 -2 -39 -21t-51 -43.5t-53.5 -50t-45.5 -40.5l166 -246q5 -8 10.5 -11t12.5 -4v-12h-204v12zM255 -50h128v-116h-128v116z" />
    <glyph glyph-name="Klinebelow" unicode="&#x1e34;" horiz-adv-x="722" 
d="M476 12q9 0 14 1.5t5 11.5q0 3 -9 18t-23 37t-31 47t-32 48t-27 40t-16 23l-98 -88v-120q0 -7 4.5 -11.5t23.5 -6.5v-12h-206v12q19 2 23.5 6.5t4.5 11.5v466q0 7 -4.5 11.5t-23.5 6.5v12h206v-12q-19 -2 -23.5 -6.5t-4.5 -11.5v-180h7q30 29 64.5 60t63.5 57.5t48.5 45
t19.5 22.5q0 9 -5 10.5t-13 2.5v12h254v-12q-10 -1 -16.5 -3t-12 -6t-12 -9.5t-15.5 -13.5l-173 -149l204 -305q8 -12 15 -14t17 -2v-12h-229v12zM221 -50h344v-74h-344v74z" />
    <glyph glyph-name="klinebelow" unicode="&#x1e35;" 
d="M380 12q7 0 17.5 3t10.5 14q0 3 -7 14.5t-17.5 27.5t-23.5 35.5t-25 37t-21.5 31.5t-13.5 21l-87 -84v-82q0 -11 9 -14t19 -4v-12h-187v12q9 -1 17 3t8 15v380q0 11 -8 15t-17 3v12h187v-12q-10 -1 -19 -4t-9 -14v-184q15 13 35.5 31t43 37.5t44.5 38.5t39.5 35.5
t28 27.5t10.5 14q0 11 -8.5 14t-16.5 4v12h195v-12q-15 -2 -39 -21t-51 -43.5t-53.5 -50t-45.5 -40.5l166 -246q5 -8 10.5 -11t12.5 -4v-12h-204v12zM147 -50h344v-74h-344v74z" />
    <glyph glyph-name="Ldotbelow" unicode="&#x1e36;" horiz-adv-x="667" 
d="M603 122q8 0 12 5.5t6 22.5h12v-173h-12q-2 16 -6 19.5t-12 3.5h-522v12q19 2 23.5 6.5t4.5 11.5v466q0 7 -4.5 11.5t-23.5 6.5v12h206v-12q-19 -2 -23.5 -6.5t-4.5 -11.5v-374h344zM293 -73h128v-116h-128v116z" />
    <glyph glyph-name="ldotbelow" unicode="&#x1e37;" horiz-adv-x="556" 
d="M86 410q0 11 -8 14t-19 4v12h187v-12q-11 -1 -18.5 -4t-7.5 -14v-308h274q6 0 12 4.5t6 20.5h12v-149h-12q0 16 -6 19t-12 3h-435v12q11 1 19 4t8 14v380zM227 -72h128v-116h-128v116z" />
    <glyph glyph-name="Ldotbelowmacron" unicode="&#x1e38;" horiz-adv-x="667" 
d="M603 122q8 0 12 5.5t6 22.5h12v-173h-12q-2 16 -6 19.5t-12 3.5h-522v12q19 2 23.5 6.5t4.5 11.5v466q0 7 -4.5 11.5t-23.5 6.5v12h206v-12q-19 -2 -23.5 -6.5t-4.5 -11.5v-374h344zM293 -73h128v-116h-128v116zM185 650h344v-74h-344v74z" />
    <glyph glyph-name="ldotbelowmacron" unicode="&#x1e39;" horiz-adv-x="556" 
d="M86 410q0 11 -8 14t-19 4v12h187v-12q-11 -1 -18.5 -4t-7.5 -14v-308h274q6 0 12 4.5t6 20.5h12v-149h-12q0 16 -6 19t-12 3h-435v12q11 1 19 4t8 14v380zM227 -72h128v-116h-128v116zM119 564h344v-74h-344v74z" />
    <glyph glyph-name="Llinebelow" unicode="&#x1e3a;" horiz-adv-x="667" 
d="M603 122q8 0 12 5.5t6 22.5h12v-173h-12q-2 16 -6 19.5t-12 3.5h-522v12q19 2 23.5 6.5t4.5 11.5v466q0 7 -4.5 11.5t-23.5 6.5v12h206v-12q-19 -2 -23.5 -6.5t-4.5 -11.5v-374h344zM185 -73h344v-74h-344v74z" />
    <glyph glyph-name="llinebelow" unicode="&#x1e3b;" horiz-adv-x="556" 
d="M86 410q0 11 -8 14t-19 4v12h187v-12q-11 -1 -18.5 -4t-7.5 -14v-308h274q6 0 12 4.5t6 20.5h12v-149h-12q0 16 -6 19t-12 3h-435v12q11 1 19 4t8 14v380zM119 -72h344v-74h-344v74z" />
    <glyph glyph-name="Lcircumflexbelow" unicode="&#x1e3c;" horiz-adv-x="667" 
d="M603 122q8 0 12 5.5t6 22.5h12v-173h-12q-2 16 -6 19.5t-12 3.5h-522v12q19 2 23.5 6.5t4.5 11.5v466q0 7 -4.5 11.5t-23.5 6.5v12h206v-12q-19 -2 -23.5 -6.5t-4.5 -11.5v-374h344zM533 -219h-115l-63 83l-64 -83h-110l111 146h125z" />
    <glyph glyph-name="lcircumflexbelow" unicode="&#x1e3d;" horiz-adv-x="556" 
d="M86 410q0 11 -8 14t-19 4v12h187v-12q-11 -1 -18.5 -4t-7.5 -14v-308h274q6 0 12 4.5t6 20.5h12v-149h-12q0 16 -6 19t-12 3h-435v12q11 1 19 4t8 14v380zM467 -218h-115l-63 83l-64 -83h-110l111 146h125z" />
    <glyph glyph-name="Macute" unicode="&#x1e3e;" horiz-adv-x="833" 
d="M555 12q19 2 23.5 6.5t4.5 11.5v368l-2 2l-178 -388l-176 392h-2v-374q0 -7 4.5 -11.5t23.5 -6.5v-12h-176v12q19 2 23.5 6.5t4.5 11.5v466q0 7 -4.5 11.5t-23.5 6.5v12h261v-12q-24 -1 -24 -18q0 -1 6 -16t15.5 -37t21 -47.5t22 -49t18.5 -41.5t11 -24q17 38 35 74
t32.5 66t23.5 50t9 25q0 17 -24 18v12h271v-12q-19 -2 -23.5 -6.5t-4.5 -11.5v-466q0 -7 4.5 -11.5t23.5 -6.5v-12h-200v12zM459 579h-103l95 146h155z" />
    <glyph glyph-name="macute" unicode="&#x1e3f;" horiz-adv-x="722" 
d="M206 30q0 -11 8 -14t20 -4v-12h-157v12q8 1 15.5 4t7.5 14v380q0 11 -7.5 14t-15.5 4v12h217v-12q-8 -1 -13.5 -2t-5.5 -6q0 -4 11.5 -29t26.5 -55t28 -56.5t16 -34.5q12 24 27.5 52.5t29 54t22.5 44.5t9 24t-5.5 6t-13.5 2v12h218v-12q-7 -1 -14 -4t-7 -14v-380
q0 -11 7 -14t14 -4v-12h-167v12q11 1 18.5 4t7.5 14v284h-2l-149 -289l-144 289h-2v-284zM388 490h-103l95 146h155z" />
    <glyph glyph-name="Mdotaccent" unicode="&#x1e40;" horiz-adv-x="833" 
d="M555 12q19 2 23.5 6.5t4.5 11.5v368l-2 2l-178 -388l-176 392h-2v-374q0 -7 4.5 -11.5t23.5 -6.5v-12h-176v12q19 2 23.5 6.5t4.5 11.5v466q0 7 -4.5 11.5t-23.5 6.5v12h261v-12q-24 -1 -24 -18q0 -1 6 -16t15.5 -37t21 -47.5t22 -49t18.5 -41.5t11 -24q17 38 35 74
t32.5 66t23.5 50t9 25q0 17 -24 18v12h271v-12q-19 -2 -23.5 -6.5t-4.5 -11.5v-466q0 -7 4.5 -11.5t23.5 -6.5v-12h-200v12zM352 692h128v-116h-128v116z" />
    <glyph glyph-name="mdotaccent" unicode="&#x1e41;" horiz-adv-x="722" 
d="M206 30q0 -11 8 -14t20 -4v-12h-157v12q8 1 15.5 4t7.5 14v380q0 11 -7.5 14t-15.5 4v12h217v-12q-8 -1 -13.5 -2t-5.5 -6q0 -4 11.5 -29t26.5 -55t28 -56.5t16 -34.5q12 24 27.5 52.5t29 54t22.5 44.5t9 24t-5.5 6t-13.5 2v12h218v-12q-7 -1 -14 -4t-7 -14v-380
q0 -11 7 -14t14 -4v-12h-167v12q11 1 18.5 4t7.5 14v284h-2l-149 -289l-144 289h-2v-284zM296 606h128v-116h-128v116z" />
    <glyph glyph-name="Mdotbelow" unicode="&#x1e42;" horiz-adv-x="833" 
d="M555 12q19 2 23.5 6.5t4.5 11.5v368l-2 2l-178 -388l-176 392h-2v-374q0 -7 4.5 -11.5t23.5 -6.5v-12h-176v12q19 2 23.5 6.5t4.5 11.5v466q0 7 -4.5 11.5t-23.5 6.5v12h261v-12q-24 -1 -24 -18q0 -1 6 -16t15.5 -37t21 -47.5t22 -49t18.5 -41.5t11 -24q17 38 35 74
t32.5 66t23.5 50t9 25q0 17 -24 18v12h271v-12q-19 -2 -23.5 -6.5t-4.5 -11.5v-466q0 -7 4.5 -11.5t23.5 -6.5v-12h-200v12zM352 -50h128v-116h-128v116z" />
    <glyph glyph-name="mdotbelow" unicode="&#x1e43;" horiz-adv-x="722" 
d="M206 30q0 -11 8 -14t20 -4v-12h-157v12q8 1 15.5 4t7.5 14v380q0 11 -7.5 14t-15.5 4v12h217v-12q-8 -1 -13.5 -2t-5.5 -6q0 -4 11.5 -29t26.5 -55t28 -56.5t16 -34.5q12 24 27.5 52.5t29 54t22.5 44.5t9 24t-5.5 6t-13.5 2v12h218v-12q-7 -1 -14 -4t-7 -14v-380
q0 -11 7 -14t14 -4v-12h-167v12q11 1 18.5 4t7.5 14v284h-2l-149 -289l-144 289h-2v-284zM296 -50h128v-116h-128v116z" />
    <glyph glyph-name="Ndotaccent" unicode="&#x1e44;" horiz-adv-x="778" 
d="M109 496q0 7 -4.5 11.5t-23.5 6.5v12h241v-12q-17 -1 -22.5 -4.5t-5.5 -8.5q0 -2 13 -18t34 -40t47.5 -53.5t53.5 -59t52 -56t43 -45.5v267q0 17 -21 18v12h183v-12q-19 -2 -23.5 -6.5t-4.5 -11.5v-466q0 -7 4.5 -11.5t23.5 -6.5v-12h-190v12q14 0 18.5 3t4.5 8
q0 3 -3 7.5t-13 15.5t-29.5 31.5t-51.5 55t-79 86t-113 125.5v-314q0 -7 4.5 -11.5t23.5 -6.5v-12h-190v12q19 2 23.5 6.5t4.5 11.5v466zM373 695h128v-116h-128v116z" />
    <glyph glyph-name="ndotaccent" unicode="&#x1e45;" horiz-adv-x="667" 
d="M579 30q0 -11 8 -14t20 -4v-12h-185v12q8 0 18.5 2t10.5 11t-22 33.5t-56.5 60.5t-77.5 80.5t-85 94.5l-2 -2v-262q0 -11 7.5 -14t18.5 -4v-12h-171v12q10 1 17.5 4t7.5 14v380q0 11 -8 14t-19 4v12h238v-12q-7 -1 -14 -4t-7 -14q0 -2 16.5 -20.5t42.5 -46.5t58 -62
l64 -68v197q0 11 -8 14t-20 4v12h176v-12q-12 -1 -20 -4t-8 -14v-380zM304 609h128v-116h-128v116z" />
    <glyph glyph-name="Ndotbelow" unicode="&#x1e46;" horiz-adv-x="778" 
d="M109 496q0 7 -4.5 11.5t-23.5 6.5v12h241v-12q-17 -1 -22.5 -4.5t-5.5 -8.5q0 -2 13 -18t34 -40t47.5 -53.5t53.5 -59t52 -56t43 -45.5v267q0 17 -21 18v12h183v-12q-19 -2 -23.5 -6.5t-4.5 -11.5v-466q0 -7 4.5 -11.5t23.5 -6.5v-12h-190v12q14 0 18.5 3t4.5 8
q0 3 -3 7.5t-13 15.5t-29.5 31.5t-51.5 55t-79 86t-113 125.5v-314q0 -7 4.5 -11.5t23.5 -6.5v-12h-190v12q19 2 23.5 6.5t4.5 11.5v466zM326 -50h128v-116h-128v116z" />
    <glyph glyph-name="ndotbelow" unicode="&#x1e47;" horiz-adv-x="667" 
d="M579 30q0 -11 8 -14t20 -4v-12h-185v12q8 0 18.5 2t10.5 11t-22 33.5t-56.5 60.5t-77.5 80.5t-85 94.5l-2 -2v-262q0 -11 7.5 -14t18.5 -4v-12h-171v12q10 1 17.5 4t7.5 14v380q0 11 -8 14t-19 4v12h238v-12q-7 -1 -14 -4t-7 -14q0 -2 16.5 -20.5t42.5 -46.5t58 -62
l64 -68v197q0 11 -8 14t-20 4v12h176v-12q-12 -1 -20 -4t-8 -14v-380zM270 -50h128v-116h-128v116z" />
    <glyph glyph-name="Nlinebelow" unicode="&#x1e48;" horiz-adv-x="778" 
d="M109 496q0 7 -4.5 11.5t-23.5 6.5v12h241v-12q-17 -1 -22.5 -4.5t-5.5 -8.5q0 -2 13 -18t34 -40t47.5 -53.5t53.5 -59t52 -56t43 -45.5v267q0 17 -21 18v12h183v-12q-19 -2 -23.5 -6.5t-4.5 -11.5v-466q0 -7 4.5 -11.5t23.5 -6.5v-12h-190v12q14 0 18.5 3t4.5 8
q0 3 -3 7.5t-13 15.5t-29.5 31.5t-51.5 55t-79 86t-113 125.5v-314q0 -7 4.5 -11.5t23.5 -6.5v-12h-190v12q19 2 23.5 6.5t4.5 11.5v466zM218 -50h344v-74h-344v74z" />
    <glyph glyph-name="nlinebelow" unicode="&#x1e49;" horiz-adv-x="667" 
d="M579 30q0 -11 8 -14t20 -4v-12h-185v12q8 0 18.5 2t10.5 11t-22 33.5t-56.5 60.5t-77.5 80.5t-85 94.5l-2 -2v-262q0 -11 7.5 -14t18.5 -4v-12h-171v12q10 1 17.5 4t7.5 14v380q0 11 -8 14t-19 4v12h238v-12q-7 -1 -14 -4t-7 -14q0 -2 16.5 -20.5t42.5 -46.5t58 -62
l64 -68v197q0 11 -8 14t-20 4v12h176v-12q-12 -1 -20 -4t-8 -14v-380zM162 -50h344v-74h-344v74z" />
    <glyph glyph-name="Ncircumflexbelow" unicode="&#x1e4a;" horiz-adv-x="778" 
d="M109 496q0 7 -4.5 11.5t-23.5 6.5v12h241v-12q-17 -1 -22.5 -4.5t-5.5 -8.5q0 -2 13 -18t34 -40t47.5 -53.5t53.5 -59t52 -56t43 -45.5v267q0 17 -21 18v12h183v-12q-19 -2 -23.5 -6.5t-4.5 -11.5v-466q0 -7 4.5 -11.5t23.5 -6.5v-12h-190v12q14 0 18.5 3t4.5 8
q0 3 -3 7.5t-13 15.5t-29.5 31.5t-51.5 55t-79 86t-113 125.5v-314q0 -7 4.5 -11.5t23.5 -6.5v-12h-190v12q19 2 23.5 6.5t4.5 11.5v466zM566 -196h-115l-63 83l-64 -83h-110l111 146h125z" />
    <glyph glyph-name="ncircumflexbelow" unicode="&#x1e4b;" horiz-adv-x="667" 
d="M579 30q0 -11 8 -14t20 -4v-12h-185v12q8 0 18.5 2t10.5 11t-22 33.5t-56.5 60.5t-77.5 80.5t-85 94.5l-2 -2v-262q0 -11 7.5 -14t18.5 -4v-12h-171v12q10 1 17.5 4t7.5 14v380q0 11 -8 14t-19 4v12h238v-12q-7 -1 -14 -4t-7 -14q0 -2 16.5 -20.5t42.5 -46.5t58 -62
l64 -68v197q0 11 -8 14t-20 4v12h176v-12q-12 -1 -20 -4t-8 -14v-380zM510 -196h-115l-63 83l-64 -83h-110l111 146h125z" />
    <glyph glyph-name="Otildeacute" unicode="&#x1e4c;" horiz-adv-x="722" 
d="M361 532q64 0 120.5 -17.5t99 -51.5t67.5 -84t25 -116t-25 -116t-67.5 -84t-99 -50t-120.5 -16t-120.5 16t-99 50t-67.5 84t-25 116t25 116t67.5 84t99 51.5t120.5 17.5zM361 410q-33 0 -62.5 -10t-52 -28.5t-36 -46t-13.5 -62.5t13.5 -62.5t36 -46t52 -28.5t62.5 -10
t62.5 10t52 28.5t36 46t13.5 62.5t-13.5 62.5t-36 46t-52 28.5t-62.5 10zM541 677q-5 -22 -13 -44t-21 -39t-31.5 -27.5t-45.5 -10.5q-19 0 -39 5.5t-39.5 12t-37 12t-32.5 5.5q-18 0 -29.5 -13t-15.5 -29h-59q3 23 10 45t21 39.5t34 28t46 10.5q21 0 40 -5.5t36.5 -12.5
t33.5 -12.5t30 -5.5q20 0 31 12t16 29h65zM419 692h-103l95 146h155z" />
    <glyph glyph-name="otildeacute" unicode="&#x1e4d;" 
d="M305 340q-28 0 -53 -8.5t-44 -24t-29.5 -37.5t-10.5 -50t10.5 -50t29.5 -37.5t44 -24t53 -8.5q29 0 53.5 8.5t43.5 24t29.5 37.5t10.5 50t-10.5 50t-29.5 37.5t-43.5 24t-53.5 8.5zM305 446q47 0 94.5 -13t86 -40.5t62.5 -70.5t24 -102q0 -60 -24 -102.5t-62.5 -69.5
t-86 -39t-94.5 -12t-94.5 12t-86 39t-62.5 69.5t-24 102.5q0 59 24 102t62.5 70.5t86 40.5t94.5 13zM487 606q-5 -22 -13 -44t-21 -39t-31.5 -27.5t-45.5 -10.5q-19 0 -39 5.5t-39.5 12t-37 12t-32.5 5.5q-18 0 -29.5 -13t-15.5 -29h-59q3 23 10 45t21 39.5t34 28t46 10.5
q21 0 40 -5.5t36.5 -12.5t33.5 -12.5t30 -5.5q20 0 31 12t16 29h65zM364 630h-103l95 146h155z" />
    <glyph glyph-name="Otildedieresis" unicode="&#x1e4e;" horiz-adv-x="722" 
d="M361 532q64 0 120.5 -17.5t99 -51.5t67.5 -84t25 -116t-25 -116t-67.5 -84t-99 -50t-120.5 -16t-120.5 16t-99 50t-67.5 84t-25 116t25 116t67.5 84t99 51.5t120.5 17.5zM361 410q-33 0 -62.5 -10t-52 -28.5t-36 -46t-13.5 -62.5t13.5 -62.5t36 -46t52 -28.5t62.5 -10
t62.5 10t52 28.5t36 46t13.5 62.5t-13.5 62.5t-36 46t-52 28.5t-62.5 10zM548 670q-5 -19 -13 -38t-21 -33.5t-31.5 -24t-45.5 -9.5q-19 0 -39 5t-39.5 10.5t-37 10.5t-32.5 5q-18 0 -29.5 -11.5t-15.5 -25.5h-59q3 20 10 39t21 34.5t34 24.5t46 9q21 0 40 -5t36.5 -11
t33.5 -10.5t30 -4.5q20 0 31 10.5t16 24.5h65zM398 824h128v-116h-128v116zM202 824h128v-116h-128v116z" />
    <glyph glyph-name="otildedieresis" unicode="&#x1e4f;" 
d="M305 340q-28 0 -53 -8.5t-44 -24t-29.5 -37.5t-10.5 -50t10.5 -50t29.5 -37.5t44 -24t53 -8.5q29 0 53.5 8.5t43.5 24t29.5 37.5t10.5 50t-10.5 50t-29.5 37.5t-43.5 24t-53.5 8.5zM305 446q47 0 94.5 -13t86 -40.5t62.5 -70.5t24 -102q0 -60 -24 -102.5t-62.5 -69.5
t-86 -39t-94.5 -12t-94.5 12t-86 39t-62.5 69.5t-24 102.5q0 59 24 102t62.5 70.5t86 40.5t94.5 13zM481 605q-5 -18 -12.5 -37t-20.5 -33.5t-31 -23.5t-45 -9q-19 0 -38.5 5t-38.5 10.5t-36.5 10t-32.5 4.5q-17 0 -28.5 -11t-15.5 -25h-58q3 20 10 39t20.5 33.5t33.5 23.5
t45 9q21 0 39.5 -4.5t36 -10.5t33 -10.5t29.5 -4.5q20 0 30.5 10t15.5 24h64zM339 769h128v-116h-128v116zM143 769h128v-116h-128v116z" />
    <glyph glyph-name="Omacrongrave" unicode="&#x1e50;" horiz-adv-x="722" 
d="M361 532q64 0 120.5 -17.5t99 -51.5t67.5 -84t25 -116t-25 -116t-67.5 -84t-99 -50t-120.5 -16t-120.5 16t-99 50t-67.5 84t-25 116t25 116t67.5 84t99 51.5t120.5 17.5zM361 410q-33 0 -62.5 -10t-52 -28.5t-36 -46t-13.5 -62.5t13.5 -62.5t36 -46t52 -28.5t62.5 -10
t62.5 10t52 28.5t36 46t13.5 62.5t-13.5 62.5t-36 46t-52 28.5t-62.5 10zM189 656h344v-74h-344v74zM481 685h-103l-147 146h155z" />
    <glyph glyph-name="omacrongrave" unicode="&#x1e51;" 
d="M305 340q-28 0 -53 -8.5t-44 -24t-29.5 -37.5t-10.5 -50t10.5 -50t29.5 -37.5t44 -24t53 -8.5q29 0 53.5 8.5t43.5 24t29.5 37.5t10.5 50t-10.5 50t-29.5 37.5t-43.5 24t-53.5 8.5zM305 446q47 0 94.5 -13t86 -40.5t62.5 -70.5t24 -102q0 -60 -24 -102.5t-62.5 -69.5
t-86 -39t-94.5 -12t-94.5 12t-86 39t-62.5 69.5t-24 102.5q0 59 24 102t62.5 70.5t86 40.5t94.5 13zM133 570h344v-74h-344v74zM430 620h-103l-147 146h155z" />
    <glyph glyph-name="Omacronacute" unicode="&#x1e52;" horiz-adv-x="722" 
d="M361 532q64 0 120.5 -17.5t99 -51.5t67.5 -84t25 -116t-25 -116t-67.5 -84t-99 -50t-120.5 -16t-120.5 16t-99 50t-67.5 84t-25 116t25 116t67.5 84t99 51.5t120.5 17.5zM361 410q-33 0 -62.5 -10t-52 -28.5t-36 -46t-13.5 -62.5t13.5 -62.5t36 -46t52 -28.5t62.5 -10
t62.5 10t52 28.5t36 46t13.5 62.5t-13.5 62.5t-36 46t-52 28.5t-62.5 10zM189 656h344v-74h-344v74zM406 683h-103l95 146h155z" />
    <glyph glyph-name="omacronacute" unicode="&#x1e53;" 
d="M305 340q-28 0 -53 -8.5t-44 -24t-29.5 -37.5t-10.5 -50t10.5 -50t29.5 -37.5t44 -24t53 -8.5q29 0 53.5 8.5t43.5 24t29.5 37.5t10.5 50t-10.5 50t-29.5 37.5t-43.5 24t-53.5 8.5zM305 446q47 0 94.5 -13t86 -40.5t62.5 -70.5t24 -102q0 -60 -24 -102.5t-62.5 -69.5
t-86 -39t-94.5 -12t-94.5 12t-86 39t-62.5 69.5t-24 102.5q0 59 24 102t62.5 70.5t86 40.5t94.5 13zM133 570h344v-74h-344v74zM371 607h-103l95 146h155z" />
    <glyph glyph-name="Pacute" unicode="&#x1e54;" horiz-adv-x="667" 
d="M411 299q42 0 61.5 14t19.5 46q0 29 -19.5 42t-61.5 13h-152v-115h152zM259 30q0 -7 4.5 -11.5t23.5 -6.5v-12h-206v12q19 2 23.5 6.5t4.5 11.5v466q0 7 -4.5 11.5t-23.5 6.5v12h358q47 0 83 -13.5t60 -36.5t36 -53.5t12 -63.5t-12 -63.5t-36 -53t-60 -36t-83 -13.5h-180
v-163zM361 576h-103l95 146h155z" />
    <glyph glyph-name="pacute" unicode="&#x1e55;" horiz-adv-x="556" 
d="M313 238q42 0 60 13.5t18 45.5q0 31 -16 45t-54 14h-103v-118h95zM84 410q0 11 -6.5 14t-9.5 4v12h263q37 0 71.5 -6t60.5 -22t42 -43.5t16 -71.5q0 -43 -16 -71t-42 -44t-60.5 -22t-71.5 -6h-113v-124q0 -11 7.5 -14t15.5 -4v-12h-173v12q3 1 9.5 4t6.5 14v380zM314 475
h-103l95 146h155z" />
    <glyph glyph-name="Pdotaccent" unicode="&#x1e56;" horiz-adv-x="667" 
d="M411 299q42 0 61.5 14t19.5 46q0 29 -19.5 42t-61.5 13h-152v-115h152zM259 30q0 -7 4.5 -11.5t23.5 -6.5v-12h-206v12q19 2 23.5 6.5t4.5 11.5v466q0 7 -4.5 11.5t-23.5 6.5v12h358q47 0 83 -13.5t60 -36.5t36 -53.5t12 -63.5t-12 -63.5t-36 -53t-60 -36t-83 -13.5h-180
v-163zM291 692h128v-116h-128v116z" />
    <glyph glyph-name="pdotaccent" unicode="&#x1e57;" horiz-adv-x="556" 
d="M313 238q42 0 60 13.5t18 45.5q0 31 -16 45t-54 14h-103v-118h95zM84 410q0 11 -6.5 14t-9.5 4v12h263q37 0 71.5 -6t60.5 -22t42 -43.5t16 -71.5q0 -43 -16 -71t-42 -44t-60.5 -22t-71.5 -6h-113v-124q0 -11 7.5 -14t15.5 -4v-12h-173v12q3 1 9.5 4t6.5 14v380zM230 606
h128v-116h-128v116z" />
    <glyph glyph-name="Rdotaccent" unicode="&#x1e58;" horiz-adv-x="722" 
d="M427 304q44 0 60.5 16.5t16.5 38.5t-16.5 38.5t-60.5 16.5h-168v-110h168zM259 30q0 -7 4.5 -11.5t23.5 -6.5v-12h-206v12q19 2 23.5 6.5t4.5 11.5v466q0 7 -4.5 11.5t-23.5 6.5v12h366q111 0 161 -40.5t50 -125.5q0 -69 -40.5 -108t-102.5 -56l118 -166q12 -18 29 -18
v-12h-208v12q22 1 22 18q0 2 -8 14t-20 29t-26.5 36.5t-28 37.5t-23.5 32t-13 19h-98v-168zM307 692h128v-116h-128v116z" />
    <glyph glyph-name="rdotaccent" unicode="&#x1e59;" 
d="M361 248q32 0 50.5 13.5t18.5 40.5q0 23 -15.5 38.5t-60.5 15.5h-135v-108h142zM93 410q0 11 -7 14t-15 4v12h321q75 0 119.5 -35t44.5 -104q0 -54 -31.5 -85.5t-79.5 -49.5l89 -134q5 -8 14.5 -14t20.5 -6v-12h-202v12q7 0 15.5 2.5t8.5 10.5q0 5 -10.5 25t-24 43
t-26 44t-15.5 27h-96v-134q0 -11 7.5 -14t18.5 -4v-12h-172v12q6 1 13 4t7 14v380zM256 606h128v-116h-128v116z" />
    <glyph glyph-name="Rdotbelow" unicode="&#x1e5a;" horiz-adv-x="722" 
d="M427 304q44 0 60.5 16.5t16.5 38.5t-16.5 38.5t-60.5 16.5h-168v-110h168zM259 30q0 -7 4.5 -11.5t23.5 -6.5v-12h-206v12q19 2 23.5 6.5t4.5 11.5v466q0 7 -4.5 11.5t-23.5 6.5v12h366q111 0 161 -40.5t50 -125.5q0 -69 -40.5 -108t-102.5 -56l118 -166q12 -18 29 -18
v-12h-208v12q22 1 22 18q0 2 -8 14t-20 29t-26.5 36.5t-28 37.5t-23.5 32t-13 19h-98v-168zM307 -50h128v-116h-128v116z" />
    <glyph glyph-name="rdotbelow" unicode="&#x1e5b;" 
d="M361 248q32 0 50.5 13.5t18.5 40.5q0 23 -15.5 38.5t-60.5 15.5h-135v-108h142zM93 410q0 11 -7 14t-15 4v12h321q75 0 119.5 -35t44.5 -104q0 -54 -31.5 -85.5t-79.5 -49.5l89 -134q5 -8 14.5 -14t20.5 -6v-12h-202v12q7 0 15.5 2.5t8.5 10.5q0 5 -10.5 25t-24 43
t-26 44t-15.5 27h-96v-134q0 -11 7.5 -14t18.5 -4v-12h-172v12q6 1 13 4t7 14v380zM256 -50h128v-116h-128v116z" />
    <glyph glyph-name="Rdotbelowmacron" unicode="&#x1e5c;" horiz-adv-x="722" 
d="M427 304q44 0 60.5 16.5t16.5 38.5t-16.5 38.5t-60.5 16.5h-168v-110h168zM259 30q0 -7 4.5 -11.5t23.5 -6.5v-12h-206v12q19 2 23.5 6.5t4.5 11.5v466q0 7 -4.5 11.5t-23.5 6.5v12h366q111 0 161 -40.5t50 -125.5q0 -69 -40.5 -108t-102.5 -56l118 -166q12 -18 29 -18
v-12h-208v12q22 1 22 18q0 2 -8 14t-20 29t-26.5 36.5t-28 37.5t-23.5 32t-13 19h-98v-168zM199 650h344v-74h-344v74zM307 -50h128v-116h-128v116z" />
    <glyph glyph-name="rdotbelowmacron" unicode="&#x1e5d;" 
d="M361 248q32 0 50.5 13.5t18.5 40.5q0 23 -15.5 38.5t-60.5 15.5h-135v-108h142zM93 410q0 11 -7 14t-15 4v12h321q75 0 119.5 -35t44.5 -104q0 -54 -31.5 -85.5t-79.5 -49.5l89 -134q5 -8 14.5 -14t20.5 -6v-12h-202v12q7 0 15.5 2.5t8.5 10.5q0 5 -10.5 25t-24 43
t-26 44t-15.5 27h-96v-134q0 -11 7.5 -14t18.5 -4v-12h-172v12q6 1 13 4t7 14v380zM148 564h344v-74h-344v74zM256 -50h128v-116h-128v116z" />
    <glyph glyph-name="Rlinebelow" unicode="&#x1e5e;" horiz-adv-x="722" 
d="M427 304q44 0 60.5 16.5t16.5 38.5t-16.5 38.5t-60.5 16.5h-168v-110h168zM259 30q0 -7 4.5 -11.5t23.5 -6.5v-12h-206v12q19 2 23.5 6.5t4.5 11.5v466q0 7 -4.5 11.5t-23.5 6.5v12h366q111 0 161 -40.5t50 -125.5q0 -69 -40.5 -108t-102.5 -56l118 -166q12 -18 29 -18
v-12h-208v12q22 1 22 18q0 2 -8 14t-20 29t-26.5 36.5t-28 37.5t-23.5 32t-13 19h-98v-168zM199 -50h344v-74h-344v74z" />
    <glyph glyph-name="rlinebelow" unicode="&#x1e5f;" 
d="M361 248q32 0 50.5 13.5t18.5 40.5q0 23 -15.5 38.5t-60.5 15.5h-135v-108h142zM93 410q0 11 -7 14t-15 4v12h321q75 0 119.5 -35t44.5 -104q0 -54 -31.5 -85.5t-79.5 -49.5l89 -134q5 -8 14.5 -14t20.5 -6v-12h-202v12q7 0 15.5 2.5t8.5 10.5q0 5 -10.5 25t-24 43
t-26 44t-15.5 27h-96v-134q0 -11 7.5 -14t18.5 -4v-12h-172v12q6 1 13 4t7 14v380zM148 -50h344v-74h-344v74z" />
    <glyph glyph-name="Sdotaccent" unicode="&#x1e60;" horiz-adv-x="667" 
d="M125 203q-2 -6 -2 -21q0 -10 18.5 -22.5t48 -23.5t67.5 -18.5t77 -7.5q75 0 110 17.5t35 50.5q0 18 -30.5 25.5t-76.5 12t-99 10t-99 20t-76.5 42t-30.5 75.5q0 38 17.5 69t49 53t76.5 34.5t100 12.5q51 0 95 -6.5t78 -14.5t57 -14.5t33 -6.5t16 4.5t11 10.5l11 -4
l-69 -139l-12 6v11q0 9 -19.5 18.5t-49.5 17t-67 12.5t-72 5q-65 0 -91 -15t-26 -32t18 -25.5t47 -12.5t66 -6.5t76 -7.5t76 -14t66 -26.5t47 -46t18 -71.5q0 -33 -13.5 -65t-46 -57.5t-87 -40.5t-135.5 -15q-63 0 -108.5 6t-77.5 14.5t-50.5 15.5t-27.5 7q-6 0 -10.5 -4
t-9.5 -9l-12 3l74 178zM266 698h128v-116h-128v116z" />
    <glyph glyph-name="sdotaccent" unicode="&#x1e61;" horiz-adv-x="556" 
d="M92 147q0 -2 -0.5 -4.5t-0.5 -6.5q0 -10 19 -19t48.5 -16.5t64 -12t64.5 -4.5q9 0 24.5 1t30.5 5.5t25.5 13t10.5 23.5q0 20 -24 28.5t-60.5 13t-79 9.5t-79 17.5t-60.5 36t-24 65.5q0 23 12 49.5t38 48.5t68.5 36.5t103.5 14.5q36 0 68.5 -4t59 -9t45 -9t26.5 -4t13 4.5
t9 7.5l11 -4l-60 -126l-13 6q0 2 0.5 5t0.5 6q0 4 -12 10t-31.5 12t-44 10.5t-50.5 4.5q-9 0 -28 -0.5t-38 -5t-33.5 -13t-14.5 -25.5q0 -18 24 -25.5t60.5 -12t79 -10t79 -18.5t60.5 -37.5t24 -68.5q0 -29 -13 -55.5t-40 -46.5t-68.5 -30.5t-98.5 -10.5q-36 0 -73 4.5
t-68 11t-51.5 12t-23.5 5.5q-7 0 -12.5 -4.5t-10.5 -9.5l-11 3l41 134zM209 612h128v-116h-128v116z" />
    <glyph glyph-name="Sdotbelow" unicode="&#x1e62;" horiz-adv-x="667" 
d="M125 203q-2 -6 -2 -21q0 -10 18.5 -22.5t48 -23.5t67.5 -18.5t77 -7.5q75 0 110 17.5t35 50.5q0 18 -30.5 25.5t-76.5 12t-99 10t-99 20t-76.5 42t-30.5 75.5q0 38 17.5 69t49 53t76.5 34.5t100 12.5q51 0 95 -6.5t78 -14.5t57 -14.5t33 -6.5t16 4.5t11 10.5l11 -4
l-69 -139l-12 6v11q0 9 -19.5 18.5t-49.5 17t-67 12.5t-72 5q-65 0 -91 -15t-26 -32t18 -25.5t47 -12.5t66 -6.5t76 -7.5t76 -14t66 -26.5t47 -46t18 -71.5q0 -33 -13.5 -65t-46 -57.5t-87 -40.5t-135.5 -15q-63 0 -108.5 6t-77.5 14.5t-50.5 15.5t-27.5 7q-6 0 -10.5 -4
t-9.5 -9l-12 3l74 178zM266 -53h128v-116h-128v116z" />
    </font>
</defs>
</svg>
