<?xml version="1.0" standalone="no"?>
<!DOCTYPE svg PUBLIC "-//W3C//DTD SVG 1.1//EN" "http://www.w3.org/Graphics/SVG/1.1/DTD/svg11.dtd" >
<svg xmlns="http://www.w3.org/2000/svg" xmlns:xlink="http://www.w3.org/1999/xlink" version="1.1">
<metadata>
Created by FontForge 20161116 at Fri Jul 22 22:41:08 2016
 By Jimmy Wärting
C1999 House IndustriesBrand Design Co., Inc.
</metadata>
<defs>
<font id="SignPainter-HouseScript" horiz-adv-x="537" >
  <font-face 
    font-family="SignPainter"
    font-weight="400"
    font-stretch="normal"
    units-per-em="1000"
    panose-1="2 0 0 6 7 0 0 2 0 4"
    ascent="800"
    descent="-200"
    x-height="392"
    cap-height="617"
    bbox="-500 -486.33 1092 902.088"
    underline-thickness="20"
    underline-position="-133"
    stemh="30"
    stemv="72"
    unicode-range="U+000D-FB02"
  />
<missing-glyph horiz-adv-x="604" 
d="M49 0v702h501v-702h-501zM99 658v-618h403v618h-403z" />
    <glyph glyph-name="a_r" unicode="ar" horiz-adv-x="733" 
d="M540 280c-49 -138 -140 -285 -248 -293c-52 -3 -84 22 -92 62c-31 -33 -71 -60 -114 -60c-58 0 -90 42 -90 103c0 43 16 95 52 147c80 115 161 160 214 160c34 0 55 -17 64 -42c8 13 15 23 19 29c13 16 27 21 40 7c11 -12 18 -30 18 -52c0 -18 -4 -39 -15 -62
c-12 -27 -28 -51 -43 -79c-18 -32 -38 -64 -49 -91c-8 -22 -15 -43 -15 -57c0 -16 5 -25 15 -24c58 6 139 120 185 261c-22 11 -30 27 -30 47c0 51 62 124 94 126c21 1 31 -13 31 -35c0 -23 -7 -52 -17 -85c28 7 60 22 89 42c19 13 29 16 43 1s29 -41 29 -67
c0 -12 -5 -26 -15 -40c-44 -50 -94 -119 -110 -168c-5 -15 -7 -31 -7 -44c0 -25 8 -41 23 -42c35 -3 91 63 123 136c7 16 24 15 32 -5c6 -12 9 -39 -3 -67c-27 -62 -99 -106 -158 -104c-64 2 -99 46 -99 104c0 16 3 35 8 53c15 50 60 111 99 157c-27 -12 -51 -17 -73 -18z
M282 319c0 13 -2 19 -6 19c-27 0 -93 -60 -146 -144c-30 -48 -45 -97 -45 -131c0 -17 3 -30 11 -30c33 0 81 58 130 144c38 67 56 116 56 142z" />
    <glyph glyph-name="a_r_r" unicode="arr" horiz-adv-x="1051" 
d="M98 31c33 0 81 61 129 144c39 68 56 117 56 143c0 12 -2 17 -5 18c-28 2 -94 -59 -146 -143c-30 -47 -46 -98 -46 -131c0 -19 4 -31 12 -31zM707 276c-43 -49 -92 -116 -110 -167c-5 -15 -8 -31 -8 -46c0 -24 8 -38 23 -39c51 -3 130 128 180 266c-21 10 -28 26 -28 46
c0 52 62 124 94 125c22 0 31 -15 31 -38c0 -20 -6 -50 -15 -81c26 7 55 20 87 43c17 11 32 16 44 1c13 -16 29 -41 29 -68c0 -12 -6 -26 -17 -40c-42 -49 -90 -117 -108 -168c-5 -15 -8 -30 -8 -45c0 -25 8 -40 22 -41c35 -3 98 60 129 130c4 11 10 16 17 16
c11 0 23 -17 23 -44c0 -12 -2 -21 -9 -38c-27 -61 -108 -105 -165 -104c-64 2 -99 44 -99 103c0 44 48 140 107 212c-27 -11 -53 -17 -76 -18c-51 -129 -138 -291 -246 -298c-59 1 -98 45 -98 101s56 147 109 213c-28 -12 -54 -17 -76 -18c-52 -128 -136 -283 -247 -294
c-54 -5 -85 20 -91 64c-32 -33 -70 -60 -115 -60c-57 0 -89 41 -89 101c0 42 17 96 52 148c78 116 160 159 213 159c33 0 55 -17 65 -41l19 29c11 17 27 20 40 6c10 -11 18 -30 18 -52c0 -19 -4 -40 -16 -63c-10 -19 -23 -44 -38 -70c-19 -34 -40 -70 -54 -100v1
c-9 -22 -14 -42 -14 -56c0 -17 6 -25 15 -24c57 6 133 125 185 262c-23 10 -29 26 -29 46c0 52 61 123 93 125c22 1 32 -14 32 -38c0 -20 -6 -50 -16 -81c26 7 56 20 88 42c16 11 30 17 44 2c17 -20 29 -45 29 -70c0 -12 -5 -26 -16 -39z" />
    <glyph glyph-name="a_x" unicode="ax" horiz-adv-x="695" 
d="M466 151c-10 120 -16 188 -23 225c-4 19 11 26 32 21c36 -8 65 -36 72 -100c3 -25 4 -31 6 -60c49 51 95 106 128 152c16 20 42 23 40 -9c-1 -24 -21 -55 -42 -84c-21 -30 -65 -81 -121 -133c3 -33 5 -63 9 -85c5 -31 11 -48 18 -48c33 0 88 70 113 127c9 20 33 19 37 -2
c3 -14 1 -44 -13 -70c-34 -63 -102 -99 -156 -100c-55 -1 -84 29 -95 102c-70 -57 -143 -102 -197 -102c-45 0 -73 21 -80 59c-30 -30 -69 -54 -111 -54c-57 0 -89 41 -89 101c0 43 17 96 52 149c77 117 161 160 214 160c35 0 57 -17 65 -44l19 30c13 20 27 25 42 7
c14 -16 16 -29 16 -51c0 -19 -4 -40 -16 -64c-21 -40 -71 -116 -100 -177c-10 -21 -16 -41 -16 -56c0 -12 3 -19 9 -19c37 1 111 56 187 125zM94 33c33 0 82 59 130 144c38 68 56 115 56 141c0 12 -2 19 -6 19c-26 0 -94 -62 -146 -142c-28 -47 -46 -99 -46 -132
c0 -18 4 -30 12 -30z" />
    <glyph glyph-name="c_r" unicode="cr" horiz-adv-x="642" 
d="M678 155c5 -11 7 -37 -5 -67c-25 -62 -100 -104 -156 -104c-64 0 -99 44 -99 103c0 52 53 147 108 212c-27 -11 -55 -17 -78 -18c-72 -160 -184 -296 -311 -296c-92 0 -142 60 -142 138c0 35 10 75 30 115c53 102 132 158 190 158c13 0 25 -2 35 -8c30 -18 48 -36 59 -57
c15 -32 -1 -68 -20 -107c-7 -15 -15 -30 -18 -41c-7 -21 -11 -26 -36 -13c-20 10 -35 31 -35 58c0 15 13 48 23 71c10 21 20 41 15 45c-13 10 -77 -51 -119 -136c-20 -41 -30 -81 -30 -111c0 -42 17 -70 46 -72c98 -4 205 142 257 265c-21 10 -28 25 -28 44
c0 53 66 126 100 127c21 0 29 -13 29 -35c0 -21 -8 -51 -19 -84c28 7 55 20 87 43c15 11 31 15 44 1c16 -18 28 -42 28 -68c0 -12 -5 -27 -17 -40c-43 -50 -92 -115 -108 -168c-5 -15 -8 -30 -8 -45c0 -25 8 -40 23 -41c34 -3 91 61 121 130c9 21 24 23 34 1z" />
    <glyph glyph-name="e_r" unicode="er" horiz-adv-x="645" 
d="M123 216c-5 -9 -7 -13 -9 -18c8 -4 15 -6 22 -6c26 0 53 29 73 56c28 36 51 85 41 93c-18 14 -86 -44 -127 -125zM681 157c5 -11 8 -39 -5 -67c-25 -62 -99 -105 -158 -105c-63 0 -98 44 -98 103c0 16 3 34 10 55c17 54 56 109 96 156c-27 -12 -52 -16 -74 -17
c-82 -171 -189 -293 -311 -295c-92 -1 -143 59 -143 138c0 35 10 75 30 115c52 102 134 158 191 158c13 0 24 -2 34 -8c27 -17 46 -32 62 -52c5 -9 9 -21 9 -33c0 -29 -15 -70 -42 -105c-29 -36 -67 -61 -111 -61c-24 0 -48 6 -71 22c-6 -20 -9 -41 -9 -59
c0 -46 18 -76 46 -76c100 0 204 144 257 266c-18 11 -28 26 -28 44c0 53 67 126 101 127c21 0 29 -13 29 -35c0 -21 -8 -51 -19 -84c28 7 54 21 87 42c16 10 30 17 42 1c13 -17 30 -44 30 -69c0 -12 -5 -25 -17 -38c-43 -50 -92 -118 -110 -169c-4 -13 -7 -31 -7 -43
c0 -26 8 -43 22 -43c36 0 93 61 123 131c9 19 24 23 34 1z" />
    <glyph glyph-name="e_r_r" unicode="err" horiz-adv-x="964" 
d="M137 189c27 0 51 29 73 56c29 38 50 85 41 93c-2 2 -4 2 -7 2c-25 0 -80 -57 -119 -127c-5 -9 -7 -12 -9 -19c8 -4 15 -5 21 -5zM618 276c-43 -49 -84 -109 -108 -168c-6 -16 -8 -31 -8 -43c0 -26 7 -42 21 -42c53 0 132 129 184 267c-21 10 -29 26 -29 45
c0 51 62 124 93 126c23 1 34 -14 34 -37c0 -21 -7 -51 -18 -83c28 6 57 21 90 43c18 11 30 14 41 2c14 -17 31 -44 31 -69c0 -12 -6 -26 -16 -40c-42 -48 -93 -118 -110 -167c-5 -15 -8 -31 -8 -44c0 -26 8 -42 23 -43c35 -2 98 60 128 131c8 19 28 17 35 1
c6 -12 8 -37 -4 -67c-26 -61 -106 -105 -165 -104c-63 2 -99 45 -99 102c0 16 1 34 10 54c16 39 60 112 99 159c-28 -11 -55 -18 -76 -19c-54 -131 -138 -298 -248 -298c-64 0 -98 44 -98 103c0 16 3 35 10 56c10 32 56 109 95 155c-27 -12 -50 -16 -73 -17
c-82 -171 -188 -293 -310 -294c-92 -1 -142 59 -142 137c0 35 10 75 30 115c51 102 132 158 190 158c13 0 24 -2 34 -8c27 -17 48 -32 61 -52c6 -9 9 -22 9 -33c0 -29 -14 -70 -41 -105c-29 -36 -67 -61 -111 -61c-25 0 -48 7 -71 22c-6 -20 -9 -40 -9 -58
c0 -45 18 -75 46 -75c100 0 203 142 256 264c-20 11 -27 25 -27 44c0 53 66 126 99 127c21 0 30 -13 30 -35c0 -21 -8 -51 -19 -84c26 7 55 22 85 42c18 12 31 16 42 1c12 -18 31 -45 31 -68c0 -12 -6 -26 -17 -40z" />
    <glyph glyph-name="e_x" unicode="ex" horiz-adv-x="599" 
d="M119 212l-7 -14c9 -4 17 -6 24 -6c27 0 51 30 72 57c29 38 51 84 41 93c-18 13 -87 -44 -130 -130zM90 103c0 -45 27 -75 63 -75c67 0 148 58 220 120c-5 75 -15 179 -25 227c-4 17 10 25 32 21c37 -9 63 -38 72 -102c2 -14 4 -32 6 -63c48 52 98 115 132 158
c15 20 43 23 39 -10c-3 -24 -23 -55 -44 -85c-20 -26 -64 -78 -121 -134c3 -51 6 -67 7 -82c4 -35 12 -48 20 -48c29 0 84 72 111 131c8 18 30 12 36 -5c7 -20 3 -40 -14 -71c-35 -64 -99 -100 -153 -100c-53 0 -83 30 -92 101c-71 -54 -150 -99 -229 -99
c-98 0 -152 58 -152 141c0 35 10 74 29 112c52 100 134 158 191 158c12 0 25 -2 35 -8c26 -15 47 -31 60 -51c6 -10 10 -22 10 -34c0 -29 -15 -71 -42 -105c-28 -37 -67 -62 -111 -62c-24 0 -48 7 -72 22c-5 -19 -8 -39 -8 -57z" />
    <glyph glyph-name="f_j" unicode="fj" horiz-adv-x="428" 
d="M432 158c12 16 25 15 32 1c7 -12 3 -39 -12 -65c-40 -67 -118 -114 -206 -152c-53 -129 -129 -284 -209 -319c-22 -10 -46 -8 -68 22c-15 21 -31 48 -31 81c0 79 103 191 222 232c20 50 33 82 55 132c-19 -7 -42 -9 -60 -9c-26 0 -56 18 -74 34
c-41 -85 -86 -188 -124 -288c-7 -20 -20 -25 -35 -6c-10 13 -18 30 -18 55c0 13 4 34 11 59c54 162 223 541 359 660c20 18 37 21 54 5c22 -20 32 -42 32 -70c0 -13 -2 -27 -6 -43c-31 -117 -150 -263 -246 -331c10 -21 28 -33 48 -33c45 -1 98 50 129 112
c25 56 56 108 80 142c13 20 26 22 40 7c9 -11 15 -27 15 -47c0 -35 -21 -77 -58 -152c-32 -63 -61 -120 -88 -181c71 44 121 100 158 154zM304 506c-6 4 -72 -104 -136 -223c-6 -12 -16 -35 -12 -35s50 65 87 131c36 62 67 124 61 127zM488 426c0 -16 -5 -29 -14 -38
c-19 -21 -53 -16 -72 15c-8 13 -12 26 -12 38c0 16 7 30 19 41c21 21 58 10 72 -23c5 -12 7 -23 7 -33zM131 -107c-40 -29 -70 -63 -91 -96c-33 -51 -49 -111 -34 -111c9 0 32 28 65 86c19 34 40 75 60 121z" />
    <glyph glyph-name="f_p" unicode="fp" horiz-adv-x="652" 
d="M411 234l-34 -56c-10 -31 -18 -60 -18 -86c0 -21 5 -37 15 -45c25 -21 80 49 122 136c23 47 36 96 36 129c0 18 -2 32 -13 32c-13 0 -63 -37 -108 -110zM98 152c-6 0 -13 -49 -13 -73c0 -19 3 -34 9 -43c4 20 6 38 7 57c2 31 1 59 -3 59zM-27 -214c0 -14 2 -22 5 -26
c17 -19 76 108 107 232c-20 3 -35 11 -46 23c-38 -92 -66 -181 -66 -229zM137 -233c-17 25 -12 59 3 114c8 26 26 75 52 130l-31 -14c-16 -98 -60 -204 -108 -264c-19 -23 -40 -38 -60 -38c-17 0 -29 7 -42 18c-23 19 -48 52 -48 111c0 10 0 25 2 36c32 218 252 593 362 754
c17 25 31 22 42 -1c5 -10 8 -23 8 -37c0 -26 -16 -70 -39 -115c-35 -67 -110 -174 -160 -272c35 -16 50 -54 50 -116c0 -9 0 -17 -1 -26c38 25 78 73 102 120c41 78 101 179 129 220c16 22 34 19 43 -3c3 -8 6 -17 7 -26c23 17 52 30 80 30c21 0 41 -7 58 -25
c22 -23 31 -50 31 -80c0 -44 -17 -94 -39 -141c-26 -55 -54 -96 -87 -122c70 17 136 78 163 135c12 24 30 21 36 0c2 -8 5 -38 -11 -69c-38 -69 -122 -107 -195 -107c-92 0 -153 21 -174 79c-46 -86 -94 -186 -138 -286c-7 -18 -23 -22 -35 -5z" />
    <glyph glyph-name="f_r" unicode="fr" horiz-adv-x="566" 
d="M275 462c-70 -115 -118 -196 -157 -274c53 -19 63 -103 61 -133c51 44 101 134 137 234c-21 11 -29 27 -29 47c0 52 62 125 94 125c21 0 31 -14 31 -38c0 -21 -5 -51 -16 -83c28 5 55 19 88 43c18 13 30 17 43 2c14 -17 31 -44 31 -69c0 -12 -5 -25 -17 -39
c-45 -48 -92 -116 -109 -167c-5 -15 -8 -29 -8 -44c0 -25 9 -43 23 -43c33 0 90 60 122 131c8 21 22 23 34 0c5 -11 7 -37 -5 -67c-25 -61 -99 -103 -158 -103c-63 0 -98 45 -98 102c0 16 3 33 10 54c16 51 59 111 97 157c-20 -7 -56 -16 -74 -17
c-41 -117 -113 -236 -202 -276c-18 -101 -66 -214 -115 -275c-21 -26 -41 -36 -61 -36c-19 0 -34 10 -49 22c-23 19 -47 49 -47 108c0 11 1 25 3 37c33 216 253 594 363 755c15 23 33 20 42 -2c4 -12 7 -25 7 -37c0 -27 -12 -67 -41 -114zM98 151c-6 0 -13 -49 -13 -72
c0 -20 2 -37 8 -45c4 21 6 41 7 60c2 30 1 57 -2 57zM-27 -216c0 -19 3 -27 9 -27c19 0 74 122 101 235c-19 3 -34 11 -45 22c-38 -95 -65 -183 -65 -230z" />
    <glyph glyph-name="g_j" unicode="gj" horiz-adv-x="604" 
d="M661 425c0 -14 -5 -28 -15 -39c-16 -19 -54 -12 -71 15c-7 12 -12 27 -12 36c0 16 7 32 18 42c21 22 58 12 73 -23c5 -12 7 -22 7 -31zM606 154c12 18 28 19 36 -1c3 -7 0 -36 -15 -62c-38 -68 -114 -102 -201 -137c-60 -136 -121 -283 -199 -327c-24 -14 -54 -8 -72 20
c-7 10 -27 45 -27 79c0 10 3 28 10 51c-38 -60 -79 -109 -123 -125c-24 -7 -47 -4 -66 25c-14 20 -29 47 -29 76c0 14 3 31 11 50c34 83 120 145 216 178l14 31c-23 -15 -48 -25 -75 -25c-57 0 -88 43 -88 102c0 42 16 95 51 147c79 117 162 160 214 160c32 0 55 -18 65 -42
c6 11 12 20 18 29c14 20 27 21 40 7c10 -11 17 -29 17 -49s-5 -42 -18 -66c-29 -58 -78 -159 -120 -249c71 38 119 83 155 133c53 105 84 166 117 215c16 22 24 22 40 7c9 -10 14 -26 14 -46c0 -19 -4 -42 -15 -67c-10 -23 -29 -61 -49 -101c-25 -48 -53 -103 -75 -151
c73 42 118 86 154 138zM99 30c31 0 79 60 128 144c39 68 57 117 57 143c0 12 -2 18 -5 18c-29 0 -94 -60 -147 -144c-30 -47 -46 -97 -46 -130c0 -19 4 -31 13 -31zM360 23c-36 -21 -79 -40 -123 -56c-18 -37 -36 -76 -56 -114c34 43 85 81 154 112c7 18 16 40 25 58z
M113 -84c-41 -30 -72 -65 -93 -99c-32 -50 -43 -109 -32 -109c10 0 30 24 61 79c20 35 42 80 64 129zM306 -104c-35 -28 -61 -63 -80 -96c-33 -59 -43 -112 -33 -112c6 0 28 32 55 85c18 33 38 75 58 123z" />
    <glyph glyph-name="g_r" unicode="gr" horiz-adv-x="718" 
d="M91 32c32 0 79 60 129 144c39 65 55 115 55 143c0 12 -3 18 -9 18c-24 0 -88 -60 -141 -144c-30 -47 -46 -97 -46 -131c0 -18 4 -30 12 -30zM-78 -252c0 12 3 29 9 47c28 84 112 147 211 187l12 33c-22 -16 -48 -27 -76 -27c-56 0 -89 43 -89 102c0 44 18 97 54 148
c79 115 159 160 212 160c34 0 56 -17 64 -42c6 10 13 21 19 29c13 18 28 23 42 6c8 -10 15 -27 15 -47s-5 -42 -18 -68c-17 -34 -73 -142 -119 -244c86 51 156 135 204 257c-16 10 -24 26 -24 43c0 52 65 128 98 129c23 0 31 -14 31 -35c0 -22 -7 -52 -19 -85
c26 8 57 22 86 42c19 13 28 16 42 1c14 -17 31 -43 31 -68c0 -11 -5 -25 -17 -39c-45 -51 -93 -116 -110 -168c-5 -14 -7 -28 -7 -43c0 -26 8 -43 23 -43c34 0 92 60 123 131c9 19 25 23 34 0c5 -12 8 -38 -5 -67c-25 -62 -100 -104 -158 -104c-64 0 -99 46 -99 103
c0 15 4 34 10 54c17 53 60 112 99 158c-28 -12 -55 -18 -77 -19c-61 -135 -130 -242 -292 -310c-55 -130 -126 -286 -211 -323c-22 -9 -48 -7 -69 23c-14 21 -29 48 -29 79zM113 -84c-41 -30 -71 -65 -92 -98c-32 -51 -43 -110 -33 -110c7 0 29 24 60 77c20 36 43 81 65 131
z" />
    <glyph glyph-name="i_r" unicode="ir" horiz-adv-x="539" 
d="M165 479c22 24 59 11 75 -22c13 -27 4 -57 -8 -71c-17 -21 -55 -19 -73 15c-7 13 -10 26 -10 37c0 16 6 30 16 41zM362 460c21 0 29 -12 29 -33c0 -22 -8 -54 -21 -87c29 7 52 19 87 43c18 12 33 17 45 2c16 -21 29 -41 29 -67c0 -12 -6 -26 -17 -40
c-44 -50 -92 -118 -108 -169c-5 -15 -8 -30 -8 -45c0 -25 8 -42 22 -42c35 0 91 62 122 132c8 20 24 21 34 0c5 -11 7 -37 -5 -67c-25 -61 -99 -103 -158 -103c-63 0 -98 43 -98 101c0 16 3 34 10 55c23 59 59 112 99 159c-28 -13 -55 -18 -78 -19
c-72 -164 -174 -295 -284 -295c-54 0 -79 38 -79 87c0 18 4 40 11 64c30 92 107 211 127 239c14 19 26 21 40 6c10 -11 16 -27 16 -49c0 -33 -23 -85 -49 -129c-30 -51 -64 -119 -64 -154c0 -15 7 -23 14 -23c43 0 157 117 210 263c-20 10 -27 26 -27 44
c0 51 66 127 101 127z" />
    <glyph glyph-name="i_r_r" unicode="irr" horiz-adv-x="862" 
d="M166 477c22 23 59 10 74 -23c14 -27 4 -57 -7 -71c-17 -21 -55 -19 -74 15c-6 13 -9 26 -9 38c0 15 6 29 16 41zM670 459c23 0 33 -17 33 -44c0 -20 -4 -47 -14 -76c26 7 54 21 85 43c17 12 29 16 43 1c13 -15 30 -42 30 -68c0 -12 -5 -26 -17 -40
c-46 -50 -91 -115 -109 -168c-5 -14 -7 -29 -7 -44c0 -25 8 -42 23 -42c33 0 95 60 126 131c9 21 22 23 34 0c5 -11 9 -38 -4 -67c-26 -62 -103 -103 -162 -103c-65 0 -99 43 -99 102c0 15 3 34 9 54c16 51 58 111 98 158c-30 -12 -55 -17 -78 -18
c-55 -124 -135 -297 -247 -297c-63 0 -98 43 -98 101c0 16 2 34 9 55c16 44 60 112 100 159c-28 -13 -56 -18 -78 -19c-73 -164 -177 -295 -289 -295c-51 0 -75 38 -75 87c0 18 3 40 11 64c33 91 108 211 128 239c14 19 24 23 40 6c10 -11 16 -27 16 -49
c0 -17 -5 -40 -15 -64c-10 -25 -21 -42 -33 -63c-18 -31 -38 -65 -51 -98c-7 -22 -13 -43 -13 -58c0 -16 4 -23 13 -23c53 0 157 115 210 263c-18 10 -27 26 -27 43c0 51 66 127 101 128c21 0 29 -12 29 -33s-9 -54 -21 -86c27 7 56 20 88 42c19 12 30 16 42 1
c13 -16 31 -42 31 -68c0 -12 -6 -26 -17 -40c-44 -48 -95 -116 -110 -167c-4 -13 -6 -27 -6 -41c0 -27 8 -44 23 -44c52 0 140 125 185 266c-23 10 -31 26 -31 46c0 51 63 126 94 126z" />
    <glyph glyph-name="i_x" unicode="ix" horiz-adv-x="484" 
d="M167 479c25 17 59 9 72 -23c5 -12 7 -22 7 -30c0 -17 -6 -30 -15 -40c-18 -21 -53 -18 -72 15c-7 12 -11 27 -11 38c0 15 5 31 19 40zM270 376c35 -7 60 -23 68 -86c2 -18 4 -38 5 -59c49 51 94 107 127 153c17 23 41 23 39 -8c-1 -25 -17 -52 -38 -82
c-21 -27 -68 -80 -122 -134c2 -31 4 -62 6 -84c5 -36 12 -47 20 -47c27 0 84 70 110 127c11 23 28 18 35 -2c5 -14 6 -40 -13 -70c-35 -57 -99 -100 -153 -100c-53 0 -82 30 -91 98c-66 -54 -139 -98 -192 -98c-61 0 -89 36 -89 87c0 20 4 41 11 64c25 76 107 212 128 240
c14 20 25 23 41 6c12 -14 17 -28 17 -51c0 -18 -4 -40 -15 -62c-16 -38 -67 -116 -87 -162c-9 -22 -14 -42 -14 -56c0 -17 5 -26 16 -25c36 2 107 54 179 121c-5 70 -12 159 -21 208c-4 19 13 25 33 22z" />
    <glyph glyph-name="j_r" unicode="jr" horiz-adv-x="512" 
d="M156 479c21 22 56 9 73 -22c6 -11 8 -21 8 -31c0 -15 -7 -30 -16 -41c-17 -20 -53 -16 -72 15c-8 13 -12 26 -12 37c0 16 7 31 19 42zM151 268c-10 -22 -27 -55 -45 -91c-25 -50 -56 -110 -79 -162c97 50 179 142 232 275c-19 10 -25 24 -25 42c0 51 66 127 98 128
c23 0 32 -13 32 -34c0 -20 -8 -52 -20 -85c27 8 57 22 85 42c19 13 29 17 43 2c14 -17 30 -43 30 -68c0 -12 -5 -27 -16 -40c-43 -50 -92 -116 -110 -169c-5 -14 -6 -28 -6 -43c0 -25 7 -43 22 -43c34 0 90 62 120 132c9 21 24 23 35 0c5 -11 8 -38 -4 -67
c-27 -61 -99 -103 -157 -103c-64 0 -98 43 -98 102c0 16 1 34 8 54c12 38 58 111 98 158c-27 -12 -52 -17 -74 -18c-61 -136 -132 -249 -319 -325c-53 -129 -130 -284 -209 -320c-24 -10 -48 -9 -69 21c-15 22 -32 50 -32 82c0 11 3 29 9 45c30 84 115 152 213 187
c64 156 145 324 198 404c12 19 25 22 41 7c10 -10 15 -27 15 -47c0 -19 -4 -42 -16 -66zM-114 -95c-42 -34 -72 -74 -91 -110c-24 -46 -28 -98 -22 -98s22 24 48 73c20 35 42 82 65 135z" />
    <glyph glyph-name="k_r" unicode="kr" horiz-adv-x="687" 
d="M690 154c8 18 25 21 34 0c6 -12 8 -37 -5 -67c-25 -62 -101 -104 -159 -104c-64 0 -99 46 -99 103c0 15 4 34 10 54c16 51 60 113 99 158c-28 -11 -54 -17 -77 -18c-51 -133 -147 -290 -249 -290c-73 0 -134 59 -134 203c-27 -47 -54 -108 -87 -187
c-8 -18 -21 -22 -35 -6c-8 12 -14 26 -14 47c0 17 4 39 12 66c26 90 189 410 276 532c12 16 33 19 44 0c6 -11 10 -24 10 -39c0 -26 -9 -59 -37 -108c-29 -51 -56 -99 -65 -114c18 12 32 19 50 24c45 13 72 -2 94 -47c7 -15 11 -31 11 -48c0 -24 -10 -49 -34 -72
c-33 -31 -73 -58 -133 -79c4 -76 29 -131 53 -131c44 0 132 123 181 257c-23 11 -30 27 -30 47c0 52 63 124 94 126c24 1 32 -15 32 -39c0 -20 -5 -51 -15 -82c27 7 56 20 88 43c17 12 29 16 42 0c12 -15 29 -41 29 -66c0 -12 -5 -26 -16 -40c-44 -50 -94 -119 -110 -168
c-4 -14 -7 -31 -7 -43c0 -26 8 -43 23 -43c35 0 93 60 124 131zM303 359c-8 12 -42 0 -90 -36c-36 -27 -64 -62 -95 -114c51 16 93 39 125 63c47 35 70 72 60 87z" />
    <glyph glyph-name="o_i" unicode="oi" horiz-adv-x="563" 
d="M601 425c0 -35 -20 -54 -43 -54c-26 0 -54 37 -54 67c0 26 19 52 43 52c18 0 38 -14 47 -36c5 -12 7 -22 7 -29zM564 154c9 20 27 21 36 0c8 -17 6 -40 -7 -66c-31 -61 -108 -106 -168 -105s-86 36 -86 85c0 39 11 74 42 142c-18 -8 -38 -10 -60 -10
c-21 -83 -84 -182 -161 -207c-10 -3 -24 -6 -39 -6c-32 0 -69 12 -96 49c-19 26 -27 56 -27 88c0 45 15 93 42 139c46 76 108 131 174 131c29 0 48 -9 67 -37c26 -25 55 -54 48 -120c50 10 101 70 147 136c13 20 29 22 41 7c10 -11 17 -27 17 -49c0 -19 -4 -41 -16 -64
c-12 -18 -23 -45 -37 -71c-17 -31 -36 -65 -45 -87c-10 -24 -15 -45 -15 -61s4 -26 14 -25c39 2 101 65 129 131zM252 251c10 23 14 47 14 60c0 15 -8 21 -15 21c-6 0 -15 -8 -15 -24c0 -18 5 -44 16 -57zM76 79c0 -31 10 -42 24 -42c25 0 66 40 102 104c15 29 28 57 36 78
c-28 17 -54 50 -63 78c-20 -20 -41 -47 -57 -77c-27 -48 -42 -103 -42 -141z" />
    <glyph glyph-name="o_j" unicode="oj" horiz-adv-x="541" 
d="M598 463v1c6 -11 8 -22 8 -31c0 -15 -7 -29 -16 -39c-17 -20 -54 -18 -72 15c-7 12 -10 25 -10 36c0 16 6 30 17 41c21 24 58 11 73 -23zM150 -386c-22 -9 -47 -8 -69 22c-14 21 -32 58 -32 91c0 11 3 26 9 44c29 87 115 149 213 187c34 83 75 173 114 252
c-24 -8 -64 -10 -64 -10c-21 -83 -84 -182 -161 -207c-10 -3 -24 -6 -39 -6c-32 0 -69 12 -96 49c-19 26 -27 56 -27 88c0 45 15 93 42 139c46 76 108 131 174 131c29 0 48 -9 67 -37c26 -25 55 -54 48 -120c28 5 72 25 125 102c8 14 16 27 23 38c13 20 26 21 40 7
c10 -11 15 -27 15 -47c0 -19 -4 -42 -16 -66c-11 -24 -29 -62 -51 -105c-26 -52 -55 -110 -78 -161c72 43 120 99 157 153c11 17 28 20 35 -2c3 -10 0 -35 -15 -62c-37 -67 -117 -114 -204 -152c-55 -128 -130 -292 -210 -328zM252 251c10 23 14 47 14 60c0 15 -8 21 -15 21
c-6 0 -15 -8 -15 -24c0 -18 5 -44 16 -57zM76 79c0 -31 10 -42 24 -42c25 0 66 40 102 104c15 29 28 57 36 78c-28 17 -54 50 -63 78c-20 -20 -41 -47 -57 -77c-27 -48 -42 -103 -42 -141zM252 -97c-46 -31 -81 -70 -105 -107c-37 -56 -50 -107 -39 -121c9 -12 36 28 75 98
c20 36 43 81 69 130z" />
    <glyph glyph-name="o_l" unicode="ol" horiz-adv-x="574" 
d="M622 508c-7 0 -36 -41 -70 -100c-21 -36 -50 -74 -66 -122c-2 -6 -2 -8 -1 -8c7 0 49 59 65 80c40 59 83 150 72 150zM252 251c10 23 14 47 14 60c0 15 -8 21 -15 21c-6 0 -15 -8 -15 -24c0 -18 5 -44 16 -57zM75 80c0 -36 12 -44 25 -44c27 1 66 40 102 105
c14 26 24 50 31 70c-32 23 -53 53 -59 84c-21 -19 -41 -44 -58 -75c-26 -47 -41 -102 -41 -140zM673 490c-15 -52 -57 -126 -94 -173c-38 -46 -80 -88 -132 -114c-21 -53 -33 -100 -33 -136c0 -24 6 -41 19 -41c41 0 107 66 143 138c12 25 33 27 39 0c5 -20 2 -40 -8 -64
c-16 -39 -94 -112 -174 -112c-60 0 -98 34 -98 103c0 17 2 36 7 56c2 11 4 22 7 31c-14 -1 -26 0 -34 1c-25 -77 -86 -161 -155 -186c-11 -4 -24 -6 -40 -6c-33 0 -69 14 -95 49c-18 25 -28 57 -28 87c0 45 17 94 43 140c46 78 111 131 174 131c26 0 47 -11 65 -36
c34 -39 52 -57 48 -111c-1 -12 -2 -21 -4 -33c16 -3 23 -2 37 0c47 147 143 292 231 384c18 19 40 22 58 5c20 -21 30 -44 30 -72c0 -12 -2 -27 -6 -41z" />
    <glyph glyph-name="o_m" unicode="om" horiz-adv-x="923" 
d="M252 251c10 23 14 47 14 60c0 15 -8 21 -15 21c-6 0 -15 -8 -15 -24c0 -18 5 -44 16 -57zM925 156c11 20 25 15 35 0c6 -8 7 -42 -6 -67c-28 -56 -109 -108 -169 -107c-67 1 -104 38 -104 91c0 19 4 41 15 64c17 38 47 87 72 126c10 15 41 61 38 62c-5 1 -32 -13 -89 -71
c-77 -76 -125 -174 -167 -262c-7 -16 -26 -22 -40 -8c-11 11 -20 28 -20 54c0 17 5 44 17 74c14 37 47 90 74 133c28 44 52 79 46 82c-7 3 -47 -23 -107 -89c-54 -59 -101 -149 -140 -242c-7 -15 -18 -18 -35 -5c-15 12 -23 30 -23 53c0 16 3 33 9 53c8 25 27 68 51 114
c-18 -7 -38 -12 -59 -11c-25 -99 -99 -214 -199 -214c-32 0 -69 12 -97 50c-18 25 -27 55 -27 86c0 45 16 95 43 141c38 67 100 130 164 130c36 0 53 -7 75 -36c34 -38 49 -58 49 -120c53 8 108 78 154 149c11 16 28 17 39 0c8 -14 13 -30 13 -45c0 -9 -1 -17 -3 -28
c45 44 97 80 130 80s53 -37 53 -78c43 37 99 72 128 71s44 -29 44 -61c0 -16 -3 -35 -11 -53c-9 -21 -29 -53 -48 -85c-14 -20 -27 -42 -41 -72c-9 -18 -14 -37 -14 -53c0 -23 10 -38 26 -38c36 0 88 64 124 132zM79 81c0 -29 7 -44 21 -44c24 0 68 37 105 104
c15 27 26 54 33 80c-28 17 -52 45 -60 75c-22 -22 -40 -46 -58 -77c-27 -46 -41 -100 -41 -138z" />
    <glyph glyph-name="o_n" unicode="on" horiz-adv-x="749" 
d="M781 157c6 -12 11 -35 -5 -67c-27 -57 -101 -107 -164 -107c-66 0 -96 34 -96 86c0 18 4 40 13 66c18 50 51 102 74 142c8 14 28 55 25 55c-9 0 -53 -26 -109 -88c-51 -56 -101 -157 -140 -245c-6 -13 -20 -23 -36 -5c-13 14 -21 31 -21 54c0 14 4 33 11 52
c9 26 27 69 48 110c-21 -10 -33 -10 -58 -10c-26 -98 -100 -213 -200 -213c-32 0 -69 12 -96 49c-18 26 -27 56 -27 88c0 45 15 93 42 139c38 66 101 125 164 130c30 3 57 -12 75 -35c8 -10 13 -15 17 -19c19 -20 32 -40 32 -103c49 14 112 83 157 149c13 17 27 17 38 2
c9 -15 14 -33 14 -49c0 -5 0 -12 -1 -18c42 39 95 73 125 73c27 0 56 -35 56 -73c0 -11 -2 -25 -9 -40c-10 -19 -24 -46 -40 -71c-17 -27 -41 -72 -51 -93c-10 -22 -15 -42 -15 -58c0 -20 7 -33 22 -33c31 0 87 67 124 132c8 14 23 14 31 0zM252 251c10 23 14 47 14 60
c0 15 -8 21 -15 21c-6 0 -15 -8 -15 -24c0 -18 5 -44 16 -57zM77 81c0 -29 9 -44 23 -44c26 1 69 37 104 104c15 28 27 57 35 78c-27 17 -53 50 -62 78c-21 -21 -41 -49 -58 -77c-26 -45 -42 -101 -42 -139z" />
    <glyph glyph-name="o_o" unicode="oo" horiz-adv-x="691" 
d="M414 311c41 42 81 82 142 82c29 0 47 -11 66 -37c28 -33 56 -40 47 -125c26 0 28 -9 20 -19c-7 -8 -15 -12 -26 -14c-21 -83 -85 -181 -161 -207c-9 -3 -21 -6 -36 -6c-33 0 -70 14 -98 51c-19 25 -28 55 -28 87c0 28 5 51 16 81c-11 -3 -24 -5 -35 -6
c-21 -83 -85 -181 -161 -207c-9 -3 -21 -6 -36 -6c-33 0 -70 14 -98 51c-19 25 -28 55 -28 87c0 44 16 93 42 140c45 80 108 130 174 130c29 0 47 -11 66 -37c28 -33 53 -41 48 -115c31 10 63 40 86 70zM594 251c10 23 14 47 14 60c0 15 -8 21 -15 21c-6 0 -15 -8 -15 -24
c0 -18 5 -44 16 -57zM252 251c10 23 14 47 14 60c0 15 -8 21 -15 21c-6 0 -15 -8 -15 -24c0 -18 5 -44 16 -57zM418 78c0 -30 9 -42 24 -42c26 0 66 37 103 105c15 26 27 51 33 72c-32 20 -53 46 -61 81c-21 -20 -40 -45 -57 -75c-26 -48 -42 -104 -42 -141zM76 78
c0 -30 9 -42 24 -42c26 0 66 37 103 105c15 26 27 51 33 72c-32 20 -53 46 -61 81c-21 -20 -40 -45 -57 -75c-26 -48 -42 -104 -42 -141z" />
    <glyph glyph-name="o_p" unicode="op" horiz-adv-x="741" 
d="M446 90c0 -29 9 -49 25 -49c28 1 76 64 113 140c23 48 36 97 36 131c0 18 -2 32 -9 32c-19 0 -68 -38 -112 -111l-35 -57c-11 -30 -18 -60 -18 -86zM253 251c10 23 14 47 14 60c0 15 -8 21 -15 21c-6 0 -15 -8 -15 -24c0 -18 5 -44 16 -57zM77 78c0 -28 8 -39 24 -39
c27 0 68 39 102 102c14 27 27 54 36 80c-28 17 -55 47 -64 75c-49 -52 -98 -140 -98 -218zM778 153c4 -21 2 -42 -14 -69c-39 -65 -119 -106 -193 -106c-81 0 -144 20 -173 78c-48 -89 -97 -189 -140 -285c-8 -19 -22 -24 -35 -4c-7 11 -14 26 -14 47c0 17 4 39 11 65
c18 57 92 207 160 331c-18 -8 -36 -11 -58 -10c-26 -99 -106 -214 -199 -214c-33 0 -68 13 -97 50c-19 25 -27 55 -27 86c0 45 15 94 42 141c45 79 107 130 174 130c29 0 47 -10 66 -36c33 -39 55 -53 48 -120c53 10 107 76 155 148c15 23 33 19 42 -3c3 -8 6 -18 8 -28
c25 20 53 34 83 34c21 0 42 -8 57 -26c21 -22 29 -49 29 -79c0 -43 -17 -96 -39 -142c-24 -47 -56 -97 -85 -121c70 16 138 82 164 137c10 21 31 16 35 -4z" />
    <glyph glyph-name="o_r" unicode="or" horiz-adv-x="633" 
d="M675 125c0 -12 -3 -26 -9 -38c-27 -61 -101 -105 -159 -105c-64 0 -99 45 -99 104c0 51 52 143 109 212c-30 -13 -56 -18 -79 -19c-27 -42 -66 -72 -119 -78c-23 -96 -117 -214 -198 -214c-33 0 -69 13 -97 50c-18 26 -27 55 -27 87c0 44 16 94 41 140
c38 69 104 125 166 130c35 2 53 -8 75 -37c5 -6 10 -10 16 -16c20 -21 32 -47 32 -100c18 7 35 22 52 49c-18 10 -25 24 -25 42c0 53 67 126 100 127c22 0 30 -14 30 -35c0 -22 -8 -54 -19 -84c27 7 56 23 86 43c17 12 30 15 44 1c17 -19 28 -42 28 -68
c0 -12 -5 -27 -17 -40c-42 -49 -90 -116 -108 -168c-5 -15 -8 -30 -8 -45c0 -25 8 -41 23 -41c35 0 92 62 122 130c9 20 23 22 34 2c5 -9 6 -16 6 -29zM251 251c10 23 14 47 14 60c0 15 -8 21 -15 21c-6 0 -15 -8 -15 -24c0 -18 5 -44 16 -57zM75 80c0 -25 6 -42 18 -42
c24 0 72 41 109 104c14 24 26 51 32 76c-34 20 -52 49 -59 78c-20 -20 -40 -46 -58 -76c-25 -47 -42 -104 -42 -140z" />
    <glyph glyph-name="o_r_r" unicode="orr" horiz-adv-x="956" 
d="M254 251c10 23 14 47 14 60c0 15 -8 21 -15 21c-6 0 -15 -8 -15 -24c0 -18 5 -44 16 -57zM610 277c-46 -51 -93 -117 -110 -168c-5 -15 -8 -32 -8 -47c0 -23 8 -39 24 -39c51 0 131 128 183 266c-21 10 -29 26 -29 46c0 52 62 124 95 125c22 0 31 -15 31 -38
c0 -21 -6 -49 -17 -81c27 7 56 20 88 43c18 12 29 16 43 1c14 -17 30 -43 30 -68c0 -12 -4 -27 -16 -40c-43 -50 -92 -118 -110 -168c-4 -15 -7 -29 -7 -44c0 -25 8 -42 23 -42c33 0 97 60 128 130c9 21 25 23 35 1c5 -12 8 -39 -4 -67c-27 -62 -107 -104 -166 -104
c-64 0 -97 45 -97 103c0 76 50 146 106 212c-27 -12 -54 -17 -75 -18c-52 -129 -142 -298 -247 -298c-60 0 -100 46 -100 102c0 67 53 149 108 213c-30 -12 -56 -16 -79 -17c-26 -44 -66 -74 -117 -80c-21 -83 -105 -186 -159 -207c-11 -4 -24 -6 -41 -6
c-34 0 -68 12 -96 49c-18 25 -27 56 -27 87c0 45 17 94 43 140c40 67 101 126 164 130c36 2 55 -6 76 -36c26 -24 49 -49 49 -116c19 6 36 22 51 49c-16 10 -26 25 -26 42c0 52 68 127 101 127c21 0 30 -14 30 -35c0 -23 -10 -56 -19 -83c27 7 54 20 86 41c18 12 28 17 42 2
c13 -17 30 -44 30 -69c0 -11 -4 -24 -16 -38zM78 81c0 -28 6 -42 21 -42c26 1 69 37 105 102c15 27 27 55 34 77c-30 18 -54 50 -62 79c-20 -21 -37 -46 -56 -77c-25 -46 -42 -103 -42 -139z" />
    <glyph glyph-name="o_u" unicode="ou" horiz-adv-x="765" 
d="M802 157c6 -10 6 -37 -9 -66c-29 -58 -100 -108 -162 -108c-57 0 -86 31 -92 73c-33 -36 -79 -69 -129 -69c-52 0 -71 38 -71 81c0 21 4 45 12 69c7 20 17 45 29 68c-20 -7 -40 -11 -61 -11c-27 -96 -110 -207 -194 -207c-33 0 -71 13 -99 51c-19 25 -27 56 -27 88
c0 42 15 94 41 139c37 64 103 124 165 129c34 2 54 -8 76 -37c5 -6 10 -10 15 -15c20 -21 36 -47 32 -108c45 8 91 52 122 97l37 54c12 18 25 19 39 3c12 -14 18 -34 18 -48c0 -24 -12 -54 -33 -91c-34 -55 -56 -95 -76 -142c-7 -19 -11 -37 -11 -52c0 -14 3 -24 12 -24
c28 0 79 63 130 146c61 96 82 156 119 209c12 18 28 21 41 6c10 -12 17 -30 17 -52c0 -19 -4 -40 -16 -64c-19 -41 -67 -107 -91 -165c-10 -21 -16 -42 -16 -59c0 -18 6 -28 19 -28c34 0 93 65 129 132c9 19 23 20 34 1zM253 251c10 23 14 47 14 60c0 15 -8 21 -15 21
c-6 0 -15 -8 -15 -24c0 -18 5 -44 16 -57zM77 81c0 -28 5 -42 21 -42c25 0 68 36 106 104c16 28 25 51 33 74c-26 17 -52 52 -61 80c-21 -20 -39 -45 -58 -77c-26 -47 -41 -102 -41 -139z" />
    <glyph glyph-name="o_v" unicode="ov" horiz-adv-x="649" 
d="M664 295c-93 -113 -160 -191 -229 -301c-7 -12 -14 -21 -34 -12c-41 21 -56 41 -54 94c2 35 10 87 20 143c-14 -8 -32 -14 -47 -17c-24 -93 -104 -214 -200 -214c-31 0 -66 14 -94 50c-19 25 -29 57 -29 87c0 42 17 96 42 140c37 65 104 124 165 129c35 2 53 -6 76 -37
c4 -6 9 -10 15 -16c19 -19 33 -42 33 -95c40 21 65 76 81 139c7 24 24 23 39 11c23 -20 35 -44 35 -74c0 -25 -24 -107 -52 -241c72 110 180 249 239 310c23 22 36 18 36 -7c0 -24 -9 -50 -42 -89zM252 251c10 23 14 47 14 60c0 15 -8 21 -15 21c-6 0 -15 -8 -15 -24
c0 -18 5 -44 16 -57zM74 81c0 -31 11 -42 24 -42c26 0 67 37 103 104c16 27 28 53 35 75c-26 16 -52 49 -62 78c-19 -20 -40 -46 -57 -76c-26 -45 -43 -103 -43 -139z" />
    <glyph glyph-name="o_w" unicode="ow" horiz-adv-x="863" 
d="M743 179c21 167 88 219 117 219c17 0 27 -15 22 -42c-7 -38 -21 -81 -86 -185c-68 -111 -139 -186 -208 -186c-39 0 -65 26 -71 61c-30 -32 -66 -56 -110 -56c-47 0 -68 35 -68 79c0 19 4 42 13 68c8 23 16 44 27 68c-20 -7 -40 -10 -59 -10c-26 -93 -106 -207 -198 -207
c-31 0 -67 14 -95 50c-19 25 -29 57 -29 87c0 42 17 96 42 140c37 65 104 125 165 129c36 3 54 -6 77 -37c4 -6 9 -11 14 -16c20 -20 37 -52 32 -107c46 9 94 50 124 98c10 16 24 38 35 53c12 18 31 16 42 1c10 -14 15 -30 15 -46c0 -25 -11 -56 -33 -91
c-33 -55 -57 -99 -77 -146c-9 -22 -13 -41 -13 -55c0 -12 3 -18 12 -18c22 0 57 54 101 128c42 69 66 113 85 147c15 30 30 56 47 80c15 21 29 25 42 7c10 -15 16 -29 16 -50c0 -20 -4 -41 -17 -66c-19 -39 -61 -100 -92 -169c-11 -23 -18 -46 -18 -60c0 -13 4 -21 11 -21
c31 0 85 64 135 153zM253 251c10 23 14 47 14 60c0 15 -8 21 -15 21c-6 0 -15 -8 -15 -24c0 -18 5 -44 16 -57zM77 80c0 -30 9 -41 22 -41c26 0 68 36 103 104c16 28 28 53 36 75c-30 16 -56 46 -62 79c-20 -21 -41 -47 -57 -77c-27 -48 -42 -103 -42 -140z" />
    <glyph glyph-name="o_x" unicode="ox" horiz-adv-x="624" 
d="M347 215c-7 -8 -15 -12 -26 -14c-21 -83 -85 -181 -161 -207c-9 -3 -21 -6 -36 -6c-33 0 -70 14 -98 51c-19 25 -28 55 -28 87c0 44 16 93 42 140c45 80 108 130 174 130c29 0 47 -11 66 -37c28 -33 56 -40 47 -125c26 0 28 -9 20 -19zM252 254c10 23 14 47 14 60
c0 15 -8 21 -15 21c-6 0 -15 -8 -15 -24c0 -18 5 -44 16 -57zM76 81c0 -30 9 -42 24 -42c26 0 66 37 103 105c15 26 27 51 33 72c-32 20 -53 46 -61 81c-21 -20 -40 -45 -57 -75c-26 -48 -42 -104 -42 -141zM626 155c11 23 28 18 35 0c5 -11 5 -37 -10 -66
c-31 -61 -94 -104 -148 -104c-59 0 -96 38 -102 127c-43 -37 -85 -77 -119 -119c-7 -8 -18 -16 -26 -16s-14 6 -13 22c2 32 27 65 63 105c22 23 53 51 85 77c-11 73 -27 165 -38 192c-7 20 6 23 29 23c41 0 68 -36 79 -79c5 -22 8 -40 13 -70c45 39 90 83 129 135
c19 24 41 25 41 -8c0 -31 -22 -62 -56 -102c-17 -20 -44 -45 -107 -90l18 -105c6 -32 14 -49 26 -49c25 0 73 67 101 127z" />
    <glyph glyph-name="o_y" unicode="oy" horiz-adv-x="748" 
d="M356 -359c-23 -9 -44 -9 -68 23c-15 21 -30 51 -30 83c0 12 3 29 9 47c31 86 112 147 209 186l15 35c-26 -19 -52 -28 -82 -28c-50 0 -72 38 -72 80c0 21 4 45 13 70c8 21 18 46 31 73c-16 -5 -44 -13 -59 -9c-21 -83 -85 -181 -161 -207c-9 -3 -21 -6 -36 -6
c-33 0 -70 14 -98 51c-19 25 -28 55 -28 87c0 44 16 93 42 140c45 80 108 130 174 130c29 0 47 -11 66 -37c28 -33 52 -64 48 -121c60 16 94 64 122 100c12 15 22 32 33 48c13 17 28 18 39 2c10 -14 19 -32 19 -48c0 -25 -12 -54 -35 -91c-34 -54 -55 -95 -74 -142
c-14 -36 -23 -76 3 -76s71 59 120 142c67 113 94 174 118 210c14 18 27 20 38 9c15 -15 19 -30 19 -51c0 -20 -5 -42 -18 -67c-29 -56 -81 -153 -122 -248c61 37 126 93 158 138c13 18 28 20 32 7c5 -16 3 -42 -14 -68c-40 -61 -119 -103 -201 -137
c-55 -132 -123 -292 -210 -325zM253 254c10 23 14 47 14 60c0 15 -8 21 -15 21c-6 0 -15 -8 -15 -24c0 -18 5 -44 16 -57zM77 81c0 -30 9 -42 24 -42c26 0 66 37 103 105c15 26 27 51 33 72c-32 20 -53 46 -61 81c-21 -20 -40 -45 -57 -75c-26 -48 -42 -104 -42 -141z
M450 -85c-48 -33 -82 -76 -103 -115c-25 -47 -32 -88 -22 -97c7 -6 28 23 56 72c21 37 45 86 69 140z" />
    <glyph glyph-name="r_r" unicode="rr" horiz-adv-x="671" 
d="M708 154c5 -11 9 -37 -4 -67c-26 -61 -101 -103 -158 -103c-65 0 -99 44 -99 103c0 79 52 146 107 211c-29 -12 -53 -16 -76 -17c-51 -130 -141 -298 -249 -298c-59 0 -96 46 -96 102c0 18 3 36 8 55c15 52 61 112 100 158c-29 -13 -53 -16 -77 -17
c-10 -19 -25 -42 -41 -68c-43 -73 -98 -169 -112 -239c-4 -17 -19 -27 -37 -8c-17 17 -26 37 -26 60s8 51 23 78c15 28 58 90 95 144l33 48c-12 10 -20 24 -20 38c0 53 67 127 100 127c22 0 31 -14 31 -37c0 -21 -7 -51 -20 -82c26 7 57 22 85 42c20 12 30 14 43 1
c14 -15 31 -42 31 -68c0 -12 -4 -25 -16 -39c-46 -51 -94 -116 -110 -168c-5 -14 -7 -29 -7 -44c0 -25 8 -42 20 -42c54 0 133 128 185 265c-23 11 -29 27 -29 47c0 51 60 125 93 125c24 0 33 -15 33 -39c0 -21 -6 -49 -17 -81c27 7 57 20 88 43c10 8 29 15 43 1
c13 -15 29 -43 29 -68c0 -12 -4 -26 -16 -39c-43 -50 -91 -117 -109 -168c-5 -15 -8 -29 -8 -44c0 -25 9 -42 24 -42c33 0 91 60 122 130c9 21 23 23 34 0z" />
    <glyph glyph-name="s_r" unicode="sr" horiz-adv-x="603" 
d="M641 154c5 -11 7 -36 -5 -67c-26 -61 -100 -103 -159 -103c-64 0 -98 45 -98 102c0 16 2 35 8 54c17 50 62 113 100 159c-27 -11 -54 -17 -76 -18c-56 -140 -133 -298 -277 -298c-58 0 -108 27 -136 79c-11 19 -17 42 -17 65c0 29 13 60 33 75c21 16 35 14 37 -9
c38 50 90 135 93 140c4 35 17 58 37 77c27 24 55 27 68 15c13 -14 8 -27 -6 -50l-9 -15c-1 -13 -1 -27 -1 -40c0 -33 2 -64 5 -93c3 -34 5 -70 4 -98c-1 -18 -3 -41 -10 -59c45 47 86 129 121 219c-22 11 -29 27 -29 47c0 52 62 125 95 125c22 0 31 -16 31 -39
c0 -20 -6 -50 -16 -81c29 7 56 21 88 42c19 12 34 15 44 2c18 -23 28 -41 28 -67c0 -12 -5 -26 -16 -40c-42 -49 -92 -116 -110 -168c-4 -15 -7 -31 -7 -44c0 -26 7 -43 22 -43c35 0 93 60 123 131c9 20 25 21 35 0zM147 146c0 29 0 46 -4 88c-24 -40 -52 -81 -81 -121
c13 -46 35 -82 57 -82c19 0 28 48 28 115z" />
    <glyph glyph-name="t_r" unicode="tr" horiz-adv-x="557" 
d="M592 154c5 -12 8 -38 -4 -67c-26 -62 -96 -104 -156 -104c-63 0 -99 46 -99 103c0 16 3 33 10 54c17 51 61 112 99 158c-28 -12 -56 -17 -78 -18c-66 -148 -169 -295 -277 -295c-53 0 -99 42 -99 112c0 23 5 51 18 83c21 48 61 129 100 199c-27 5 -50 17 -58 29
c-12 19 -4 30 21 29c26 -2 46 -1 62 1c22 28 56 80 82 120c16 24 34 22 42 -1c5 -13 8 -25 8 -37c0 -20 -5 -44 -17 -73c29 -5 38 -21 47 -36s-6 -23 -24 -23c-17 0 -38 1 -54 0l-21 -35c-35 -59 -78 -135 -110 -205c-11 -27 -17 -52 -17 -74c0 -30 11 -50 28 -50
c54 0 151 117 210 265c-17 10 -25 26 -25 43c0 51 64 129 98 129c24 0 33 -13 33 -35c0 -23 -6 -51 -21 -85c26 6 57 21 86 42c19 13 31 15 42 1c14 -17 31 -43 31 -68c0 -11 -5 -25 -16 -39c-46 -51 -94 -116 -111 -168c-5 -14 -6 -28 -6 -43c0 -26 7 -43 22 -43
c35 0 89 60 120 131c9 19 26 23 34 0z" />
    <glyph glyph-name="t_t" unicode="tt" horiz-adv-x="444" 
d="M-1 96c0 23 5 52 19 84c20 49 60 129 99 199c-30 6 -49 18 -58 30c-15 20 -2 28 21 28s41 0 70 1c25 44 54 88 73 115c17 22 33 22 42 -1c5 -13 8 -26 8 -38c0 -20 -4 -42 -18 -72c27 1 51 4 119 7c30 50 54 91 71 113c17 23 33 19 42 -2c5 -12 8 -25 8 -39
c0 -19 -5 -41 -18 -70c31 -6 48 -20 56 -33c10 -18 2 -27 -21 -27c-19 0 -36 1 -65 1c-46 -75 -97 -167 -132 -243c-12 -27 -18 -53 -18 -75c0 -30 10 -51 27 -51c39 0 90 66 126 138c12 24 34 26 41 -1c5 -23 0 -36 -10 -59c-14 -30 -76 -116 -167 -116
c-38 0 -74 26 -89 65c-28 -32 -74 -65 -128 -65s-98 42 -98 111zM340 387c-71 -5 -93 -7 -119 -8c-27 -40 -90 -151 -125 -230c-12 -27 -18 -52 -18 -74c0 -31 10 -52 29 -52c38 0 91 73 122 142c23 54 69 145 111 222z" />
    <glyph glyph-name="u_r" unicode="ur" horiz-adv-x="716" 
d="M752 155c5 -11 7 -36 -5 -67c-26 -61 -101 -103 -157 -103c-65 0 -100 45 -100 102c0 79 55 150 108 212c-27 -11 -54 -17 -76 -18c-51 -127 -139 -294 -246 -294c-54 0 -90 21 -94 68c-33 -37 -79 -67 -127 -67c-41 0 -72 38 -72 80c0 21 5 44 13 69
c23 65 73 165 136 249c13 17 28 17 40 0c11 -17 17 -30 17 -47c0 -24 -11 -53 -33 -90c-36 -62 -60 -100 -76 -142c-8 -19 -12 -37 -12 -52c0 -14 3 -24 8 -24c31 0 86 68 134 146c28 46 52 90 69 122c18 34 35 64 51 87c13 16 27 19 41 6c9 -11 16 -28 16 -50
c0 -19 -4 -41 -16 -65c-9 -19 -26 -46 -41 -73c-19 -30 -38 -63 -50 -93c-10 -22 -15 -43 -15 -58c0 -17 5 -25 15 -25c55 0 133 127 184 261c-22 11 -29 27 -29 47c0 52 62 126 94 126c23 0 32 -15 32 -39c0 -20 -6 -50 -16 -81c29 7 57 20 88 42c13 9 31 18 44 2
s28 -41 28 -68c0 -12 -5 -26 -16 -40c-43 -49 -91 -118 -109 -167c-4 -15 -7 -30 -7 -45c0 -25 7 -42 22 -42c34 0 92 60 122 131c9 20 25 21 35 0z" />
    <glyph glyph-name="u_r_r" unicode="urr" horiz-adv-x="1040" 
d="M691 277c-58 -67 -117 -140 -117 -210c0 -26 8 -44 22 -44c55 0 134 128 186 266c-22 11 -30 27 -30 46c0 52 63 125 95 125c21 0 30 -15 30 -38c0 -20 -6 -50 -15 -81c26 7 55 20 88 43c17 12 29 16 43 1c13 -17 30 -43 30 -68c0 -12 -5 -26 -17 -40
c-46 -51 -93 -116 -109 -168c-5 -15 -7 -29 -7 -44c0 -25 8 -42 22 -42c35 0 99 60 130 130c9 19 24 23 34 1c6 -12 9 -39 -4 -67c-26 -62 -108 -104 -166 -104c-60 0 -99 46 -99 105c0 17 3 33 8 51c14 52 58 112 97 158c-26 -11 -51 -16 -72 -17
c-54 -132 -143 -297 -250 -297c-63 0 -98 44 -98 102c0 16 3 37 8 54c16 53 59 112 99 159c-27 -12 -54 -17 -75 -18c-64 -154 -161 -296 -255 -296c-52 0 -81 27 -85 71c-34 -37 -77 -68 -127 -68c-54 0 -73 38 -73 81c0 22 4 46 11 69c20 63 73 157 137 247
c15 19 30 17 42 0c12 -18 16 -29 16 -45c0 -25 -12 -54 -34 -90c-35 -54 -55 -97 -75 -144c-6 -18 -10 -37 -10 -53c0 -13 2 -23 6 -23c32 0 83 68 134 148c30 47 52 90 71 123c17 32 34 62 49 84c12 17 25 22 41 6c11 -11 17 -29 17 -50c0 -19 -4 -41 -16 -65
s-25 -48 -45 -79c-26 -42 -61 -116 -61 -145c0 -15 7 -25 14 -25c50 0 134 128 184 263c-21 11 -29 27 -29 46c0 51 61 125 94 125c23 0 32 -14 32 -38c0 -21 -6 -50 -17 -82c29 6 58 20 89 44c10 7 30 13 42 1c14 -17 30 -44 30 -69c0 -12 -4 -25 -15 -39z" />
    <glyph glyph-name="u_x" unicode="ux" horiz-adv-x="672" 
d="M465 150c-10 121 -15 189 -23 226c-4 18 10 24 31 21c33 -6 65 -37 73 -101c3 -24 4 -32 6 -60c49 51 95 106 128 152c16 21 41 25 39 -9c-1 -24 -21 -54 -42 -83c-20 -29 -67 -82 -120 -133c1 -37 4 -65 7 -86c5 -36 13 -48 20 -48c30 0 75 73 102 131c9 19 32 15 36 -6
c3 -14 3 -40 -14 -70c-35 -63 -90 -99 -143 -99c-56 0 -85 28 -95 101c-71 -56 -144 -101 -198 -101c-46 0 -77 27 -85 65c-32 -36 -76 -63 -123 -63c-45 0 -72 38 -72 81c0 20 4 44 13 69c23 64 72 161 136 249c13 17 28 15 42 -1c12 -14 15 -31 15 -45
c0 -24 -12 -54 -34 -91c-33 -55 -55 -95 -75 -142c-8 -19 -12 -37 -12 -52c0 -14 3 -24 8 -24c33 0 84 63 135 146c30 49 52 91 70 125c18 33 31 58 49 84c12 17 28 21 41 6c10 -12 17 -30 17 -52c0 -19 -4 -40 -16 -64c-22 -45 -80 -135 -98 -182c-8 -20 -14 -38 -14 -52
c0 -10 3 -16 9 -16c35 0 110 55 187 124z" />
    <glyph glyph-name="y_r" unicode="yr" horiz-adv-x="692" 
d="M227 26c86 52 160 142 209 264c-15 10 -24 26 -24 43c0 53 65 128 98 128c22 0 31 -14 31 -36c0 -20 -8 -53 -19 -84c27 7 56 22 85 42c20 13 31 15 43 2c15 -17 30 -44 30 -69c0 -12 -4 -25 -15 -39c-46 -50 -94 -116 -111 -167c-4 -14 -6 -29 -6 -44
c0 -26 7 -43 22 -43c35 0 92 60 124 131c8 18 27 22 36 0c3 -11 7 -37 -5 -67c-26 -61 -102 -103 -161 -103c-64 0 -99 46 -99 104c0 16 2 34 7 52c15 48 61 113 98 157c-26 -10 -51 -15 -72 -17c-61 -135 -131 -244 -296 -314c-55 -132 -123 -292 -210 -325
c-23 -9 -44 -9 -68 23c-15 21 -30 51 -30 83c0 12 3 29 9 47c31 86 112 147 209 186l15 35c-26 -19 -52 -28 -82 -28c-50 0 -72 38 -72 80c0 21 4 45 13 70c23 63 72 164 134 249c13 17 28 18 39 2c10 -14 19 -32 19 -48c0 -25 -12 -54 -35 -91c-34 -54 -55 -95 -74 -142
c-14 -36 -23 -76 3 -76s71 59 120 142c67 113 94 174 118 210c14 18 27 20 38 9c15 -15 19 -30 19 -51c0 -20 -5 -42 -18 -67c-29 -56 -81 -153 -122 -248zM86 -85c-48 -33 -82 -76 -103 -115c-25 -47 -32 -88 -22 -97c7 -6 28 23 56 72c21 37 45 86 69 140z" />
    <glyph glyph-name="alphagreek_taugreek" unicode="&#x3b1;&#x3c4;" horiz-adv-x="616" 
d="M95 30c34 0 82 61 131 145c39 68 56 117 56 143c0 12 -2 19 -9 19c-22 0 -91 -63 -143 -145c-29 -47 -47 -100 -47 -132c0 -18 4 -30 12 -30zM479 -15c-45 0 -72 19 -82 50c-32 -32 -74 -53 -112 -53c-49 0 -79 26 -87 63c-29 -28 -74 -59 -114 -59c-58 0 -91 43 -91 102
c0 43 19 99 54 149c80 115 162 162 214 162c35 0 58 -18 66 -44l20 31c13 20 28 21 41 7c9 -11 16 -30 16 -52c0 -19 -4 -40 -16 -64c-21 -41 -66 -103 -94 -169c-11 -24 -16 -46 -16 -62c0 -15 3 -24 13 -24c36 0 101 96 122 138c26 52 60 111 91 157c-39 0 -90 19 -90 66
c0 7 4 13 20 13c10 0 31 -3 43 -3c38 0 68 6 114 6c41 0 105 -15 105 -66c0 -8 -5 -15 -20 -15c-17 0 -39 5 -56 5c-14 0 -26 0 -37 -1c0 -15 -2 -34 -13 -54c-19 -43 -65 -118 -82 -158c-9 -23 -14 -44 -14 -60c0 -13 3 -25 14 -25c39 0 97 67 129 131c3 6 7 10 15 10
c15 0 22 -19 22 -33c0 -13 -1 -27 -9 -43c-30 -63 -107 -105 -166 -105z" />
    <glyph glyph-name="alphagreek_taugreek_zetagreek" unicode="&#x3b1;&#x3c4;&#x3b6;" horiz-adv-x="879" 
d="M570 -300c-16 0 -31 7 -46 25c-16 19 -34 43 -34 76c0 12 2 27 10 44c35 78 116 130 188 162c-5 20 -17 40 -29 59c-4 7 -9 15 -13 22c-30 -62 -107 -103 -165 -103c-45 0 -72 19 -82 50c-32 -32 -74 -53 -112 -53c-49 0 -79 26 -87 63c-29 -28 -74 -59 -114 -59
c-58 0 -91 43 -91 102c0 43 19 99 54 149c80 115 162 162 214 162c35 0 58 -18 66 -44l20 31c13 20 28 21 41 7c9 -11 16 -30 16 -52c0 -19 -4 -40 -16 -64c-21 -41 -66 -103 -94 -169c-11 -24 -16 -46 -16 -62c0 -15 3 -24 13 -24c36 0 101 96 122 138c26 52 60 113 91 159
c-39 0 -90 19 -90 66c0 7 4 13 20 13c10 0 31 -3 43 -3c38 0 53 6 91 6s91 -28 91 -71c0 -7 -6 -10 -12 -10c-15 0 -39 7 -64 4c0 -15 -2 -36 -13 -56c-19 -43 -65 -118 -82 -158c-9 -23 -14 -44 -14 -60c0 -13 3 -25 14 -25c39 0 97 67 128 129c-2 8 -3 16 -3 25
c0 159 187 281 303 352c-43 -7 -79 -10 -120 -10c-67 0 -91 39 -91 61c0 9 8 13 23 13c50 0 110 7 152 12c50 7 57 7 63 7c14 0 30 -1 38 -19l21 -46c4 -8 6 -15 6 -20c0 -11 -7 -21 -27 -33c-100 -59 -271 -195 -271 -340c0 -29 15 -54 28 -81c5 -12 11 -24 16 -37
c44 25 94 59 124 119c3 6 7 10 12 10c9 0 22 -14 22 -30c0 -8 -5 -26 -16 -45c-24 -45 -81 -74 -131 -96c1 -4 1 -8 1 -13c0 -93 -138 -283 -198 -283zM97 30c34 0 82 61 131 145c39 68 56 117 56 143c0 12 -2 19 -9 19c-22 0 -91 -63 -143 -145c-29 -47 -47 -100 -47 -132
c0 -18 4 -30 12 -30zM640 -134c26 40 43 67 49 95c-38 -23 -67 -53 -89 -83c-29 -41 -49 -105 -43 -111s51 49 83 99z" />
    <glyph glyph-name="gammagreek_gammagreek" unicode="&#x3b3;&#x3b3;" horiz-adv-x="713" 
d="M521 117c68 101 148 202 198 266c8 10 21 17 32 17s20 -6 20 -21c0 -42 -43 -83 -83 -136c-37 -47 -116 -123 -199 -269c-23 -40 -60 -120 -86 -182c-5 -12 -13 -13 -20 -13s-16 3 -24 13c-7 8 -21 13 -21 37c0 16 11 48 22 73c77 172 96 294 96 402c0 19 -3 28 -7 28
c-10 0 -34 -26 -80 -85c-39 -49 -111 -138 -192 -273c-24 -40 -60 -120 -86 -182c-5 -12 -13 -13 -20 -13s-16 3 -24 13c-7 8 -21 13 -21 37c0 16 11 48 23 73c76 172 95 294 95 402c0 20 0 38 -7 38c-15 0 -39 -36 -69 -97c-4 -8 -12 -12 -18 -12c-16 0 -20 14 -20 27
c0 62 71 132 131 132c43 0 77 -21 77 -87c0 -46 -10 -116 -29 -188c45 69 93 137 137 193c29 37 70 82 119 82c47 0 85 -21 85 -87c0 -46 -10 -117 -29 -188z" />
    <glyph glyph-name="epsilongreek_taugreek" unicode="&#x3b5;&#x3c4;" horiz-adv-x="520" 
d="M550 90c-30 -63 -105 -105 -164 -105c-54 0 -82 28 -87 69c-47 -40 -117 -69 -185 -69c-60 0 -129 30 -129 102c0 55 44 102 104 123c-21 10 -42 28 -42 61c0 71 107 125 183 125c11 0 22 -3 30 -8c29 -18 48 -34 58 -57c5 -10 7 -18 7 -25c0 -10 -8 -33 -20 -67
c-4 -10 -8 -15 -20 -15c-32 0 -49 38 -49 62c0 11 1 22 8 40c5 13 3 19 -4 19c-52 0 -100 -54 -100 -81c0 -18 9 -31 23 -31c6 0 11 1 13 1c22 0 49 -29 49 -38c0 -5 -5 -7 -13 -9c-97 -23 -133 -64 -133 -110c0 -35 19 -53 47 -53c76 0 159 73 191 133c21 39 58 108 92 159
c-33 0 -95 14 -95 66c0 7 4 13 19 13c10 0 31 -3 43 -3c57 0 83 7 121 7c41 0 105 -15 105 -66c0 -8 -6 -15 -20 -15c-16 0 -32 5 -56 5c-14 0 -25 -1 -36 -1c0 -31 -19 -69 -46 -117c-18 -32 -39 -72 -49 -95c-9 -23 -14 -44 -14 -60c0 -13 3 -25 14 -25
c38 0 96 67 127 131c3 6 6 9 14 9c19 0 24 -17 24 -31c0 -13 -2 -28 -10 -44z" />
    <glyph glyph-name="iotagreek_taugreek" unicode="&#x3b9;&#x3c4;" horiz-adv-x="400" 
d="M267 -15c-45 0 -71 19 -82 48c-33 -30 -76 -48 -115 -48c-61 0 -88 35 -88 85c0 19 4 40 12 66c25 70 89 186 126 238c15 20 27 22 40 7c19 -20 27 -63 1 -113c-19 -43 -65 -118 -82 -158c-9 -23 -14 -44 -14 -60s4 -25 15 -25c35 0 80 52 111 110c20 55 64 128 99 181
c-51 4 -88 30 -88 67c0 7 4 13 19 13c10 0 31 -3 43 -3c57 0 77 6 115 6c41 0 105 -15 105 -66c0 -8 -6 -15 -20 -15c-16 0 -32 5 -56 5c-14 0 -26 -1 -37 -1c0 -31 -19 -69 -46 -117c-18 -32 -39 -72 -49 -95c-9 -23 -14 -44 -14 -60c0 -13 3 -25 14 -25
c38 0 94 67 125 131c3 6 6 9 14 9c19 0 24 -17 24 -31c0 -13 -2 -28 -10 -44c-30 -63 -103 -105 -162 -105z" />
    <glyph glyph-name="kappagreek_taugreek" unicode="&#x3ba;&#x3c4;" horiz-adv-x="609" 
d="M462 -15c-49 0 -76 23 -85 57c-36 -35 -82 -60 -124 -60c-74 0 -143 63 -143 195c-24 -40 -56 -95 -92 -178c-3 -7 -10 -13 -20 -13c-8 0 -11 1 -20 10c-10 11 -18 28 -18 52c0 15 3 32 9 52c18 56 95 196 158 289c4 6 12 10 19 10c26 0 32 -45 32 -58
c0 -15 -3 -32 -9 -50c-8 -23 -19 -45 -32 -68c66 58 119 97 208 149c12 8 24 11 32 11c16 0 23 -9 23 -20c0 -19 -22 -54 -52 -76c-61 -45 -104 -76 -146 -123c5 -77 32 -139 66 -139c36 0 111 96 132 142c22 50 58 108 88 152c-37 3 -80 22 -80 66c0 7 4 12 20 12
c10 0 31 -2 43 -2c55 0 78 4 113 4c41 0 105 -15 105 -66c0 -8 -5 -15 -20 -15c-6 0 -11 1 -17 2c-24 4 -57 3 -86 1c0 -17 -3 -34 -12 -53c-22 -43 -67 -118 -82 -158c-10 -23 -15 -44 -15 -60c0 -13 3 -25 15 -25c38 0 107 67 137 128c4 9 8 12 15 12c13 0 27 -20 27 -34
c0 -13 -4 -25 -12 -41c-30 -63 -118 -105 -177 -105z" />
    <glyph glyph-name="pigreek_pigreek" unicode="&#x3c0;&#x3c0;" horiz-adv-x="768" 
d="M328 402c41 0 105 -15 105 -66c0 -8 -5 -15 -20 -15c-6 0 -11 1 -18 2c-11 1 -28 3 -38 3c0 -37 -16 -68 -46 -121c-36 -64 -63 -123 -63 -155c0 -13 3 -25 14 -25c38 0 96 67 128 131c7 13 60 104 101 169c-31 8 -60 28 -60 64c0 7 3 12 19 12c10 0 23 -3 33 -3
c76 0 156 6 240 6c41 0 105 -15 105 -66c0 -8 -6 -15 -20 -15c-18 0 -39 5 -56 5h-21c2 -22 0 -37 -11 -60c-9 -18 -21 -40 -34 -63c-18 -32 -39 -72 -48 -95c-10 -23 -15 -44 -15 -60c0 -13 3 -25 15 -25c38 0 100 67 131 131c3 6 8 9 15 9c17 0 18 -17 18 -31
c0 -13 -4 -28 -12 -44c-30 -63 -103 -105 -162 -105c-61 0 -88 35 -88 85c0 19 4 40 13 66c20 59 69 136 106 190c-31 -2 -59 -4 -88 -4c-2 -11 -6 -22 -11 -32l-151 -292v1c-3 -7 -10 -13 -19 -13c-18 0 -28 18 -34 35c-32 -23 -71 -36 -103 -36c-61 0 -88 35 -88 85
c0 19 4 40 12 66c21 58 68 134 105 187c-31 -2 -61 -7 -87 -7c-2 -9 -6 -18 -10 -26l-151 -292c-5 -9 -10 -12 -20 -12c-25 0 -36 38 -36 56c0 14 4 35 12 58c16 47 67 134 117 212c-38 2 -86 21 -86 67c0 7 4 13 20 13c10 0 19 -3 33 -3c38 0 85 4 132 7c49 4 79 6 122 6z
" />
    <glyph glyph-name="pigreek_taugreek" unicode="&#x3c0;&#x3c4;" horiz-adv-x="700" 
d="M657 90c-30 -63 -95 -105 -154 -105c-61 0 -88 35 -88 85c0 19 4 40 12 66c20 55 64 125 99 178c-27 0 -89 14 -89 68c0 7 4 13 19 13c20 0 39 -3 58 -3c36 0 110 12 140 12c41 0 105 -15 105 -66c0 -8 -6 -15 -20 -15c-16 0 -32 5 -56 5c-14 0 -65 -6 -76 -6
c0 -31 -19 -69 -46 -117c-18 -32 -39 -72 -49 -95c-9 -23 -14 -44 -14 -60c0 -13 3 -25 14 -25c38 0 86 67 117 131c3 6 9 9 14 9c19 0 24 -17 24 -31c0 -13 -2 -28 -10 -44zM392 90c-30 -63 -80 -105 -139 -105c-61 0 -88 35 -88 85c0 19 4 40 12 66c21 58 68 134 105 187
c-31 -2 -61 -7 -87 -7c-2 -9 -6 -18 -10 -26l-151 -292c-5 -9 -10 -12 -20 -12c-25 0 -36 38 -36 56c0 14 4 35 12 58c16 47 67 134 117 212c-38 2 -86 21 -86 67c0 7 4 13 20 13c10 0 19 -3 33 -3c38 0 85 4 132 7c49 4 78 8 121 8c41 0 106 -15 106 -66
c0 -8 -8 -15 -19 -15c-24 0 -24 5 -58 5c1 -4 1 -7 1 -10c0 -27 -19 -65 -46 -113c-36 -64 -63 -123 -63 -155c0 -13 3 -25 14 -25c38 0 71 67 102 131c3 6 6 9 13 9c19 0 25 -18 25 -32c0 -13 -2 -27 -10 -43z" />
    <glyph glyph-name="rhogreek_lambda" unicode="&#x3c1;&#x3bb;" horiz-adv-x="776" 
d="M270 347c-37 0 -113 -93 -145 -166c-12 -30 -21 -67 -21 -93c0 -18 5 -47 24 -47c30 0 78 63 117 142c23 47 36 98 36 131c0 12 -1 33 -11 33zM130 -212c-102 0 -166 64 -166 162c0 162 87 324 187 404c27 21 66 39 104 39c63 0 110 -42 110 -103
c0 -147 -131 -303 -224 -303c-32 0 -65 15 -82 44c-7 -39 -9 -77 -9 -105c0 -42 25 -98 75 -98c74 0 130 66 161 121c31 57 64 130 99 221c61 163 157 226 234 226c33 0 60 -18 72 -42c36 67 57 102 77 139c8 15 11 28 11 39c0 18 -10 35 -27 35c-22 0 -56 -33 -84 -62
c-18 -20 -42 -27 -66 -27c-17 0 -49 0 -49 15c0 2 1 5 4 9c39 52 115 116 178 116s123 -42 123 -109c0 -30 -19 -72 -32 -97c-71 -124 -117 -208 -223 -418c-5 -9 -10 -13 -20 -13c-4 0 -54 15 -72 23c-3 1 -3 4 -1 8c10 20 45 86 111 209c12 23 27 53 27 84
c0 21 -9 32 -21 32c-28 0 -92 -47 -149 -189c-60 -150 -148 -360 -348 -360z" />
    <glyph glyph-name="rhogreek_xigreek" unicode="&#x3c1;&#x3be;" horiz-adv-x="618" 
d="M269 347c-37 0 -113 -93 -145 -166c-12 -30 -21 -67 -21 -93c0 -18 5 -47 24 -47c30 0 78 63 117 142c23 47 36 98 36 131c0 12 -1 33 -11 33zM346 -290c-8 -5 -23 -10 -32 -10c-16 0 -31 7 -46 25c-16 19 -34 43 -34 76v4c-28 -18 -61 -34 -104 -34
c-102 0 -167 81 -167 179c0 162 87 324 187 404c27 21 66 39 104 39c63 0 110 -42 110 -103c0 -147 -131 -303 -224 -303c-32 0 -65 15 -82 44c-7 -39 -9 -77 -9 -105c0 -42 28 -117 78 -117c69 0 119 61 160 99c40 44 94 77 145 99c-6 15 -15 30 -26 46
c-20 30 -42 62 -42 108c0 79 55 134 130 161c-54 16 -78 52 -78 89c0 98 122 205 234 205c13 0 26 -3 36 -9c30 -17 48 -34 58 -55c5 -9 7 -19 7 -29c0 -38 -33 -87 -45 -122c-4 -10 -6 -15 -15 -15c-6 0 -14 2 -18 4c-21 10 -37 30 -37 57c0 19 10 53 22 74
c7 13 13 26 13 34c0 5 -1 8 -4 8c-43 0 -157 -90 -157 -165c0 -31 22 -40 56 -40c22 0 58 -43 58 -56c0 -7 -6 -10 -12 -12c-96 -31 -154 -71 -154 -145c0 -28 12 -51 41 -107c44 25 86 60 117 119c3 6 9 9 16 9c13 0 20 -12 20 -28c0 -19 -2 -28 -12 -47
c-24 -45 -79 -73 -129 -95c1 -4 1 -8 1 -13c0 -79 -89 -224 -166 -273zM384 -134c26 40 43 67 49 95c-35 -21 -64 -49 -85 -78c-31 -43 -47 -89 -47 -116c15 5 51 49 83 99z" />
    <glyph glyph-name="rhogreek_zetagreek" unicode="&#x3c1;&#x3b6;" horiz-adv-x="618" 
d="M269 347c-37 0 -113 -93 -145 -166c-12 -30 -21 -67 -21 -93c0 -18 5 -47 24 -47c30 0 78 63 117 142c23 47 36 98 36 131c0 12 -1 33 -11 33zM514 -17c0 -93 -138 -283 -198 -283c-16 0 -31 7 -46 25c-16 20 -34 46 -34 80c-36 -19 -75 -34 -107 -34
c-102 0 -166 81 -166 179c0 162 87 324 187 404c27 21 66 39 104 39c63 0 110 -42 110 -103c0 -147 -131 -303 -224 -303c-32 0 -65 15 -82 44c-7 -39 -9 -77 -9 -105c0 -42 27 -117 77 -117c54 0 105 47 146 80c41 54 104 92 162 118c-5 20 -17 40 -29 59
c-20 35 -44 72 -44 113c0 159 187 281 303 352c-43 -7 -79 -10 -120 -10c-67 0 -91 39 -91 61c0 9 8 13 23 13c50 0 110 7 152 12c50 7 57 7 63 7c14 0 30 -1 38 -19l21 -46c4 -8 6 -15 6 -20c0 -11 -7 -21 -27 -33c-100 -59 -271 -195 -271 -340c0 -29 15 -54 28 -81
c5 -12 11 -24 16 -37c44 25 84 59 114 119c3 6 7 10 12 10c9 0 22 -14 22 -30c0 -8 -5 -26 -16 -45c-24 -45 -71 -74 -121 -96c1 -4 1 -8 1 -13zM386 -134c26 40 43 67 49 95c-38 -23 -67 -53 -89 -83c-29 -41 -49 -105 -43 -111s51 49 83 99z" />
    <glyph glyph-name="sigmagreek_taugreek" unicode="&#x3c3;&#x3c4;" horiz-adv-x="582" 
d="M467 313c-9 -1 -19 -1 -29 -1c-27 0 -56 4 -83 8c-28 4 -57 9 -82 9c-22 0 -44 -3 -66 -13c-90 -38 -131 -167 -131 -238c0 -28 7 -43 22 -43c27 0 67 35 105 106c7 11 12 20 19 37c-26 11 -45 34 -45 62c0 33 37 50 68 50c47 0 75 -40 75 -79c0 -5 0 -10 -1 -14
c16 0 22 -5 22 -10c0 -9 -18 -20 -31 -23c-30 -87 -105 -179 -186 -179c-48 0 -126 43 -126 138c0 124 110 272 249 272c17 0 37 -3 61 -6c25 -4 52 -8 73 -8c41 0 74 6 103 11c25 4 47 7 74 7c41 0 105 -15 105 -66c0 -8 -6 -15 -20 -15c-36 0 -79 6 -93 4
c0 -18 -3 -35 -13 -54c-9 -18 -20 -40 -33 -63c-19 -32 -39 -72 -49 -95s-15 -44 -15 -60c0 -13 3 -25 15 -25c38 0 98 67 128 128c4 9 8 12 16 12c16 0 24 -17 24 -31c0 -13 -4 -28 -11 -44c-31 -63 -107 -105 -167 -105s-88 35 -88 85c0 19 4 40 13 66
c20 54 61 125 97 177zM237 209c7 19 12 31 12 38c0 5 -3 7 -8 7c-8 0 -13 -9 -13 -19c0 -9 2 -19 9 -26z" />
    <glyph glyph-name="taugreek_taugreek" unicode="&#x3c4;&#x3c4;" horiz-adv-x="447" 
d="M115 25c46 0 102 87 133 135c31 70 103 177 142 234c-11 -1 -22 -1 -35 -1c-39 0 -91 18 -91 66c0 7 4 13 20 13c10 0 31 -3 43 -3c55 0 107 8 144 8c41 0 106 -16 106 -67c0 -8 -6 -14 -21 -14c-18 0 -41 4 -55 4c-17 0 -31 -1 -44 -2c1 -7 2 -14 2 -18
c0 -14 -4 -24 -14 -44c-9 -19 -27 -54 -49 -90c-58 -102 -88 -163 -88 -196c0 -13 3 -25 15 -25c38 0 96 67 127 131c3 6 8 9 16 9c16 0 23 -20 23 -34c0 -13 -3 -25 -11 -41c-30 -63 -105 -105 -165 -105c-45 0 -72 20 -83 51c-36 -32 -85 -51 -125 -51
c-61 0 -88 35 -88 85c0 19 4 40 12 66c20 55 64 127 99 180c-8 -1 -17 -1 -27 -1c-39 0 -91 19 -91 67c0 7 4 13 19 13c10 0 31 -3 43 -3c57 0 107 7 145 7c41 0 105 -15 105 -66c0 -8 -6 -15 -20 -15c-16 0 -32 5 -56 5c-14 0 -26 -1 -37 -1c0 -31 -19 -69 -46 -117
c-18 -32 -39 -72 -49 -95c-9 -23 -14 -44 -14 -60c0 -13 4 -25 15 -25z" />
    <glyph glyph-name="taugreek_zetagreek" unicode="&#x3c4;&#x3b6;" horiz-adv-x="497" 
d="M226 -290c-7 -4 -22 -10 -32 -10c-15 0 -30 7 -46 25c-15 19 -34 43 -34 76c0 12 3 27 11 44c35 78 115 130 187 162c-6 28 -25 56 -42 83c-33 -56 -106 -105 -165 -105c-60 0 -88 35 -88 85c0 19 4 40 13 66c20 56 66 129 101 182c-9 0 -19 -1 -30 -1
c-39 0 -90 19 -90 67c0 7 4 12 19 12c19 0 67 -2 94 0c28 2 47 5 64 5c41 0 96 -12 96 -63c0 -8 -6 -15 -21 -15c-22 0 -41 -1 -53 -1c0 -24 -2 -32 -13 -54c-22 -43 -65 -119 -82 -158c-10 -23 -15 -44 -15 -60c0 -13 3 -25 15 -25c38 0 93 70 129 133c-1 7 -2 14 -2 21
c0 159 185 281 301 352c-48 -7 -77 -10 -120 -10c-67 0 -91 41 -91 61c0 9 8 13 22 13c110 0 188 19 215 19c15 0 30 -2 38 -19l22 -46c4 -8 6 -15 6 -20c0 -11 -7 -21 -28 -33c-99 -59 -268 -195 -268 -340c0 -29 12 -54 25 -81c6 -12 12 -24 17 -37c44 25 88 60 118 119
c3 6 6 9 14 9c12 0 23 -17 23 -29c0 -14 -3 -27 -13 -46c-25 -45 -82 -73 -131 -95v-13c0 -79 -89 -223 -166 -273zM264 -134c26 40 43 67 49 95c-38 -23 -67 -53 -89 -83c-29 -41 -49 -105 -43 -111s51 49 83 99z" />
    <glyph glyph-name="chigreek_lambda" unicode="&#x3c7;&#x3bb;" horiz-adv-x="786" 
d="M495 148c-114 -280 -208 -391 -292 -391c-18 0 -40 6 -40 23c0 5 7 12 21 16c32 9 65 43 91 92c16 28 35 66 56 113c-18 -11 -38 -17 -57 -17c-69 0 -95 47 -102 128c-43 -36 -84 -76 -120 -120c-14 -16 -45 -24 -41 8c3 33 24 63 62 104c23 26 54 51 88 80
c-11 70 -25 158 -32 158c-9 0 -34 -36 -63 -97c-8 -17 -28 -19 -35 -2c-6 15 -1 38 6 57c17 46 71 93 122 93c40 0 63 -21 74 -75c5 -23 8 -36 12 -67c46 39 91 81 129 130c19 25 39 26 39 -6c0 -33 -20 -64 -56 -103c-20 -23 -60 -56 -102 -90c10 -73 12 -90 15 -104
c8 -36 15 -49 25 -49c28 0 67 71 92 125c4 8 8 12 13 14l1 2c63 162 157 226 234 226c33 0 60 -18 72 -42c36 67 57 102 77 139c8 15 11 28 11 39c0 18 -10 35 -27 35c-22 0 -56 -33 -84 -62c-18 -20 -42 -27 -66 -27c-17 0 -49 0 -49 15c0 2 1 5 4 9c39 52 115 116 178 116
s123 -42 123 -109c0 -30 -19 -72 -32 -97c-71 -124 -117 -208 -223 -418c-5 -9 -10 -13 -20 -13c-4 0 -54 15 -72 23c-3 1 -3 4 -1 8c10 20 45 86 111 209c12 23 27 53 27 84c0 21 -9 32 -21 32c-28 0 -91 -47 -148 -189z" />
    <glyph glyph-name="alphatonosgreek_taugreek" unicode="&#x3ac;&#x3c4;" horiz-adv-x="616" 
d="M356 556c17 26 47 29 68 29c6 0 29 -2 29 -14c0 -3 -3 -9 -6 -13c-23 -30 -69 -94 -90 -112c-19 -16 -39 -22 -52 -22c-10 0 -22 1 -22 10c0 4 2 8 4 11c17 26 30 54 69 111zM95 30c34 0 82 61 131 145c39 68 56 117 56 143c0 12 -2 19 -9 19c-22 0 -91 -63 -143 -145
c-29 -47 -47 -100 -47 -132c0 -18 4 -30 12 -30zM479 -15c-45 0 -72 19 -82 50c-32 -32 -74 -53 -112 -53c-49 0 -79 26 -87 63c-29 -28 -74 -59 -114 -59c-58 0 -91 43 -91 102c0 43 19 99 54 149c80 115 162 162 214 162c35 0 58 -18 66 -44l20 31c13 20 28 21 41 7
c9 -11 16 -30 16 -52c0 -19 -4 -40 -16 -64c-21 -41 -66 -103 -94 -169c-11 -24 -16 -46 -16 -62c0 -15 3 -24 13 -24c36 0 101 96 122 138c26 52 60 111 91 157c-39 0 -90 19 -90 66c0 7 4 13 20 13c10 0 31 -3 43 -3c38 0 68 6 114 6c41 0 105 -15 105 -66
c0 -8 -5 -15 -20 -15c-17 0 -39 5 -56 5c-14 0 -26 0 -37 -1c0 -15 -2 -34 -13 -54c-19 -43 -65 -118 -82 -158c-9 -23 -14 -44 -14 -60c0 -13 3 -25 14 -25c39 0 97 67 129 131c3 6 7 10 15 10c15 0 22 -19 22 -33c0 -13 -1 -27 -9 -43c-30 -63 -107 -105 -166 -105z" />
    <glyph glyph-name="alphatonosgreek_taugreek_zetagreek" unicode="&#x3ac;&#x3c4;&#x3b6;" horiz-adv-x="879" 
d="M356 556c17 26 47 29 68 29c6 0 29 -2 29 -14c0 -3 -3 -9 -6 -13c-23 -30 -69 -94 -90 -112c-19 -16 -39 -22 -52 -22c-10 0 -22 1 -22 10c0 4 2 8 4 11c17 26 30 54 69 111zM570 -300c-16 0 -31 7 -46 25c-16 19 -34 43 -34 76c0 12 2 27 10 44c35 78 116 130 188 162
c-5 20 -17 40 -29 59c-4 7 -9 15 -13 22c-30 -62 -107 -103 -165 -103c-45 0 -72 19 -82 50c-32 -32 -74 -53 -112 -53c-49 0 -79 26 -87 63c-29 -28 -74 -59 -114 -59c-58 0 -91 43 -91 102c0 43 19 99 54 149c80 115 162 162 214 162c35 0 58 -18 66 -44l20 31
c13 20 28 21 41 7c9 -11 16 -30 16 -52c0 -19 -4 -40 -16 -64c-21 -41 -66 -103 -94 -169c-11 -24 -16 -46 -16 -62c0 -15 3 -24 13 -24c36 0 101 96 122 138c26 52 60 113 91 159c-39 0 -90 19 -90 66c0 7 4 13 20 13c10 0 31 -3 43 -3c38 0 53 6 91 6s91 -28 91 -71
c0 -7 -6 -10 -12 -10c-15 0 -39 7 -64 4c0 -15 -2 -36 -13 -56c-19 -43 -65 -118 -82 -158c-9 -23 -14 -44 -14 -60c0 -13 3 -25 14 -25c39 0 97 67 128 129c-2 8 -3 16 -3 25c0 159 187 281 303 352c-43 -7 -79 -10 -120 -10c-67 0 -91 39 -91 61c0 9 8 13 23 13
c50 0 110 7 152 12c50 7 57 7 63 7c14 0 30 -1 38 -19l21 -46c4 -8 6 -15 6 -20c0 -11 -7 -21 -27 -33c-100 -59 -271 -195 -271 -340c0 -29 15 -54 28 -81c5 -12 11 -24 16 -37c44 25 94 59 124 119c3 6 7 10 12 10c9 0 22 -14 22 -30c0 -8 -5 -26 -16 -45
c-24 -45 -81 -74 -131 -96c1 -4 1 -8 1 -13c0 -93 -138 -283 -198 -283zM97 30c34 0 82 61 131 145c39 68 56 117 56 143c0 12 -2 19 -9 19c-22 0 -91 -63 -143 -145c-29 -47 -47 -100 -47 -132c0 -18 4 -30 12 -30zM640 -134c26 40 43 67 49 95c-38 -23 -67 -53 -89 -83
c-29 -41 -49 -105 -43 -111s51 49 83 99z" />
    <glyph glyph-name="epsilontonosgreek_taugreek" unicode="&#x3ad;&#x3c4;" horiz-adv-x="520" 
d="M286 556c17 26 47 29 68 29c6 0 29 -2 29 -14c0 -3 -3 -9 -6 -13c-23 -30 -69 -94 -90 -112c-19 -16 -39 -22 -52 -22c-10 0 -22 1 -22 10c0 4 2 8 4 11c17 26 30 54 69 111zM550 90c-30 -63 -105 -105 -164 -105c-54 0 -82 28 -87 69c-47 -40 -117 -69 -185 -69
c-60 0 -129 30 -129 102c0 55 44 102 104 123c-21 10 -42 28 -42 61c0 71 107 125 183 125c11 0 22 -3 30 -8c29 -18 48 -34 58 -57c5 -10 7 -18 7 -25c0 -10 -8 -33 -20 -67c-4 -10 -8 -15 -20 -15c-32 0 -49 38 -49 62c0 11 1 22 8 40c5 13 3 19 -4 19
c-52 0 -100 -54 -100 -81c0 -18 9 -31 23 -31c6 0 11 1 13 1c22 0 49 -29 49 -38c0 -5 -5 -7 -13 -9c-97 -23 -133 -64 -133 -110c0 -35 19 -53 47 -53c76 0 159 73 191 133c21 39 58 108 92 159c-33 0 -95 14 -95 66c0 7 4 13 19 13c10 0 31 -3 43 -3c57 0 83 7 121 7
c41 0 105 -15 105 -66c0 -8 -6 -15 -20 -15c-16 0 -32 5 -56 5c-14 0 -25 -1 -36 -1c0 -31 -19 -69 -46 -117c-18 -32 -39 -72 -49 -95c-9 -23 -14 -44 -14 -60c0 -13 3 -25 14 -25c38 0 96 67 127 131c3 6 6 9 14 9c19 0 24 -17 24 -31c0 -13 -2 -28 -10 -44z" />
    <glyph glyph-name="iotadieresistonosgreek_taugreek" unicode="&#x390;&#x3c4;" horiz-adv-x="400" 
d="M226 556c20 22 47 29 67 29c6 0 22 -2 22 -14c0 -5 -3 -9 -6 -13c-23 -30 -69 -94 -89 -112c-20 -16 -32 -23 -45 -23c-9 0 -22 4 -22 13c0 3 1 5 4 9c8 11 17 30 28 49c14 22 18 37 41 62zM285 417c-21 0 -34 15 -34 33c0 24 19 55 50 55c20 0 36 -16 36 -34
c0 -24 -23 -54 -52 -54zM108 417c-21 0 -34 15 -34 33c0 24 19 55 50 55c20 0 36 -16 36 -34c0 -24 -23 -54 -52 -54zM267 -15c-45 0 -71 19 -82 48c-33 -30 -76 -48 -115 -48c-61 0 -88 35 -88 85c0 19 4 40 12 66c25 70 89 186 126 238c15 20 27 22 40 7
c19 -20 27 -63 1 -113c-19 -43 -65 -118 -82 -158c-9 -23 -14 -44 -14 -60s4 -25 15 -25c35 0 80 52 111 110c20 55 64 128 99 181c-51 4 -88 30 -88 67c0 7 4 13 19 13c10 0 31 -3 43 -3c57 0 77 6 115 6c41 0 105 -15 105 -66c0 -8 -6 -15 -20 -15c-16 0 -32 5 -56 5
c-14 0 -26 -1 -37 -1c0 -31 -19 -69 -46 -117c-18 -32 -39 -72 -49 -95c-9 -23 -14 -44 -14 -60c0 -13 3 -25 14 -25c38 0 94 67 125 131c3 6 6 9 14 9c19 0 24 -17 24 -31c0 -13 -2 -28 -10 -44c-30 -63 -103 -105 -162 -105z" />
    <glyph glyph-name="iotatonosgreek_taugreek" unicode="&#x3af;&#x3c4;" horiz-adv-x="400" 
d="M231 556c17 26 47 29 68 29c6 0 29 -2 29 -14c0 -3 -3 -9 -6 -13c-23 -30 -69 -94 -90 -112c-19 -16 -39 -22 -52 -22c-10 0 -22 1 -22 10c0 4 2 8 4 11c17 26 30 54 69 111zM267 -15c-45 0 -71 19 -82 48c-33 -30 -76 -48 -115 -48c-61 0 -88 35 -88 85c0 19 4 40 12 66
c25 70 89 186 126 238c15 20 27 22 40 7c19 -20 27 -63 1 -113c-19 -43 -65 -118 -82 -158c-9 -23 -14 -44 -14 -60s4 -25 15 -25c35 0 80 52 111 110c20 55 64 128 99 181c-51 4 -88 30 -88 67c0 7 4 13 19 13c10 0 31 -3 43 -3c57 0 77 6 115 6c41 0 105 -15 105 -66
c0 -8 -6 -15 -20 -15c-16 0 -32 5 -56 5c-14 0 -26 -1 -37 -1c0 -31 -19 -69 -46 -117c-18 -32 -39 -72 -49 -95c-9 -23 -14 -44 -14 -60c0 -13 3 -25 14 -25c38 0 94 67 125 131c3 6 6 9 14 9c19 0 24 -17 24 -31c0 -13 -2 -28 -10 -44c-30 -63 -103 -105 -162 -105z" />
    <glyph glyph-name="iotadieresisgreek_taugreek" unicode="&#x3ca;&#x3c4;" horiz-adv-x="400" 
d="M223 419c-20 11 -28 33 -17 55c12 24 38 39 59 30c22 -10 26 -32 17 -54c-11 -24 -38 -41 -59 -31zM117 418c-18 8 -28 32 -18 55c11 24 36 39 58 29c18 -8 28 -30 17 -54c-11 -23 -37 -36 -57 -30zM267 -15c-45 0 -71 19 -82 48c-33 -30 -76 -48 -115 -48
c-61 0 -88 35 -88 85c0 19 4 40 12 66c25 70 89 186 126 238c15 20 27 22 40 7c19 -20 27 -63 1 -113c-19 -43 -65 -118 -82 -158c-9 -23 -14 -44 -14 -60s4 -25 15 -25c35 0 80 52 111 110c20 55 64 128 99 181c-51 4 -88 30 -88 67c0 7 4 13 19 13c10 0 31 -3 43 -3
c57 0 77 6 115 6c41 0 105 -15 105 -66c0 -8 -6 -15 -20 -15c-16 0 -32 5 -56 5c-14 0 -26 -1 -37 -1c0 -31 -19 -69 -46 -117c-18 -32 -39 -72 -49 -95c-9 -23 -14 -44 -14 -60c0 -13 3 -25 14 -25c38 0 94 67 125 131c3 6 6 9 14 9c19 0 24 -17 24 -31
c0 -13 -2 -28 -10 -44c-30 -63 -103 -105 -162 -105z" />
    <glyph glyph-name="acyrillic_checyrillic" unicode="&#x430;&#x447;" horiz-adv-x="733" 
d="M540 280c-49 -138 -140 -285 -248 -293c-52 -3 -84 22 -92 62c-31 -33 -71 -60 -114 -60c-58 0 -90 42 -90 103c0 43 16 95 52 147c80 115 161 160 214 160c34 0 55 -17 64 -42c8 13 15 23 19 29c13 16 27 21 40 7c11 -12 18 -30 18 -52c0 -18 -4 -39 -15 -62
c-12 -27 -28 -51 -43 -79c-18 -32 -38 -64 -49 -91c-8 -22 -15 -43 -15 -57c0 -16 5 -25 15 -24c58 6 139 120 185 261c-22 11 -30 27 -30 47c0 51 62 124 94 126c21 1 31 -13 31 -35c0 -23 -7 -52 -17 -85c28 7 60 22 89 42c19 13 29 16 43 1s29 -41 29 -67
c0 -12 -5 -26 -15 -40c-44 -50 -94 -119 -110 -168c-5 -15 -7 -31 -7 -44c0 -25 8 -41 23 -42c35 -3 91 63 123 136c7 16 24 15 32 -5c6 -12 9 -39 -3 -67c-27 -62 -99 -106 -158 -104c-64 2 -99 46 -99 104c0 16 3 35 8 53c15 50 60 111 99 157c-27 -12 -51 -17 -73 -18z
M282 319c0 13 -2 19 -6 19c-27 0 -93 -60 -146 -144c-30 -48 -45 -97 -45 -131c0 -17 3 -30 11 -30c33 0 81 58 130 144c38 67 56 116 56 142z" />
    <glyph glyph-name="acyrillic_gecyrillic" unicode="&#x430;&#x433;" horiz-adv-x="770" 
d="M566 277c-12 -18 -27 -40 -93 -140c-61 -93 -113 -150 -189 -150c-45 0 -75 20 -84 62c-30 -31 -71 -60 -114 -60c-58 0 -90 42 -90 103c0 43 17 95 53 147c79 115 160 160 214 160c33 0 54 -17 63 -42c19 32 26 42 43 42c27 0 34 -27 34 -58c0 -39 -29 -90 -57 -141
c-32 -58 -64 -116 -64 -148c0 -15 3 -24 13 -24c53 0 136 127 196 223c75 121 115 144 170 144c49 0 86 -44 86 -83c0 -25 -15 -52 -55 -108c-20 -29 -43 -59 -54 -89c-9 -22 -15 -41 -15 -57c0 -20 6 -34 18 -34c37 0 94 66 131 132c4 7 8 10 16 10c14 0 22 -15 22 -28
s-4 -30 -14 -48c-28 -54 -105 -108 -164 -108c-67 0 -99 34 -99 86c0 20 6 43 18 68c17 40 44 77 65 108c22 30 39 55 39 74c0 14 -6 24 -15 24c-16 0 -39 -12 -74 -65zM282 319c0 12 -2 19 -9 19c-25 0 -91 -61 -142 -144c-31 -48 -46 -97 -46 -131c0 -18 4 -30 12 -30
c33 0 82 63 129 144c37 64 56 117 56 142z" />
    <glyph glyph-name="acyrillic_hacyrillic" unicode="&#x430;&#x445;" horiz-adv-x="695" 
d="M466 151c-10 120 -16 188 -23 225c-4 19 11 26 32 21c36 -8 65 -36 72 -100c3 -25 4 -31 6 -60c49 51 95 106 128 152c16 20 42 23 40 -9c-1 -24 -21 -55 -42 -84c-21 -30 -65 -81 -121 -133c3 -33 5 -63 9 -85c5 -31 11 -48 18 -48c33 0 88 70 113 127c9 20 33 19 37 -2
c3 -14 1 -44 -13 -70c-34 -63 -102 -99 -156 -100c-55 -1 -84 29 -95 102c-70 -57 -143 -102 -197 -102c-45 0 -73 21 -80 59c-30 -30 -69 -54 -111 -54c-57 0 -89 41 -89 101c0 43 17 96 52 149c77 117 161 160 214 160c35 0 57 -17 65 -44l19 30c13 20 27 25 42 7
c14 -16 16 -29 16 -51c0 -19 -4 -40 -16 -64c-21 -40 -71 -116 -100 -177c-10 -21 -16 -41 -16 -56c0 -12 3 -19 9 -19c37 1 111 56 187 125zM94 33c33 0 82 59 130 144c38 68 56 115 56 141c0 12 -2 19 -6 19c-26 0 -94 -62 -146 -142c-28 -47 -46 -99 -46 -132
c0 -18 4 -30 12 -30z" />
    <glyph glyph-name="acyrillic_zecyrillic" unicode="&#x430;&#x437;" horiz-adv-x="770" 
d="M543 235c-27 -35 -56 -72 -93 -125c-57 -84 -105 -123 -168 -123c-43 0 -73 20 -82 62c-30 -31 -71 -60 -114 -60c-58 0 -90 42 -90 103c0 43 17 95 53 147c79 115 160 160 214 160c33 0 54 -17 63 -42c8 13 16 23 20 29c6 9 13 13 23 13c23 0 34 -27 34 -58
c0 -40 -30 -90 -57 -141c-31 -58 -64 -116 -64 -148c0 -15 2 -24 11 -24c27 0 62 43 106 109c60 91 102 147 140 190c47 54 98 71 133 71c62 0 103 -42 103 -99c0 -55 -69 -139 -157 -199c29 -6 55 -29 65 -60c35 23 72 65 99 117c3 5 7 9 15 9c14 0 21 -14 21 -28
c0 -12 -2 -28 -12 -47c-23 -39 -78 -74 -119 -93c-1 -105 -105 -253 -168 -288c-10 -6 -21 -10 -33 -10c-15 0 -30 7 -46 25c-15 19 -34 43 -34 76c0 12 3 27 11 44c38 81 117 133 200 167c4 39 -3 50 -16 50c-23 0 -46 -6 -77 -27c-12 -9 -25 -12 -33 5c-4 9 -5 20 -5 26
c0 31 12 50 43 68c121 69 181 139 181 191c0 10 -7 21 -19 21c-34 0 -81 -24 -148 -111zM282 319c0 12 -2 19 -10 19c-24 0 -89 -61 -141 -144c-30 -48 -46 -97 -46 -131c0 -18 4 -30 13 -30c32 0 82 63 129 144c37 64 55 117 55 142zM607 -41c-47 -29 -85 -70 -105 -98
c-37 -52 -33 -96 -14 -96c12 0 37 31 62 71c22 36 42 80 57 123z" />
    <glyph glyph-name="vecyrillic_checyrillic" unicode="&#x432;&#x447;" horiz-adv-x="679" 
d="M114 -15c-64 0 -117 58 -117 144c0 57 25 123 80 233c-59 0 -75 19 -75 28c0 6 8 12 22 12c33 0 57 1 81 4c76 153 145 245 213 283c9 5 15 6 21 6c18 0 39 -11 51 -29c18 -26 22 -45 22 -76c0 -55 -53 -144 -212 -200l-11 -20c20 12 41 17 59 17c47 0 85 -55 85 -118
c0 -51 -31 -127 -44 -147c15 14 31 30 43 47c24 30 51 72 65 105c-13 11 -28 26 -28 39c0 51 66 120 99 121c21 0 31 -13 31 -36c0 -19 -8 -49 -17 -76c38 4 79 20 113 43c15 10 33 8 41 0c17 -17 28 -40 28 -64c0 -12 -4 -27 -15 -39c-53 -63 -112 -141 -112 -200
c0 -25 5 -40 19 -40c34 0 96 76 126 134c3 6 9 10 16 10c18 0 24 -18 24 -27c0 -11 -2 -25 -9 -41c-22 -56 -106 -117 -161 -117c-64 0 -100 43 -100 97c0 61 58 141 111 204c-33 -12 -75 -19 -104 -20c-23 -40 -39 -67 -79 -116c-69 -86 -186 -161 -266 -161zM232 454
c42 29 74 59 94 87c21 28 31 54 31 77c0 5 -1 9 -4 9c-9 0 -30 -25 -57 -65c-19 -29 -41 -66 -64 -108zM247 295c0 25 -5 42 -16 42c-29 0 -66 -35 -101 -89c-32 -50 -54 -114 -54 -161c0 -32 7 -50 19 -50c66 0 152 157 152 258z" />
    <glyph glyph-name="vecyrillic_gecyrillic" unicode="&#x432;&#x433;" horiz-adv-x="680" 
d="M114 -15c-64 0 -117 58 -117 144c0 57 26 123 83 233c-43 0 -67 11 -74 19c-3 4 -4 7 -4 9c0 6 8 12 22 12c33 0 57 1 81 4l13 26c69 124 132 219 200 257c9 5 15 6 21 6c18 0 39 -11 51 -29c18 -26 22 -45 22 -76c0 -47 -25 -127 -175 -186l-38 -15l-10 -19
c20 12 41 17 59 17c47 0 85 -55 85 -118c0 -58 -13 -92 -42 -145c46 41 71 86 118 145c51 65 100 126 164 126c48 0 85 -44 85 -83c0 -12 -1 -24 -8 -38c-8 -15 -26 -41 -46 -70c-21 -29 -43 -59 -55 -89c-9 -22 -15 -41 -15 -57c0 -20 6 -34 19 -34c36 0 92 66 128 132
c4 7 11 10 19 10c16 0 22 -18 22 -28c0 -13 -4 -30 -13 -48c-29 -54 -106 -108 -166 -108c-66 0 -98 34 -98 86c0 20 5 43 17 68c18 40 44 77 66 108c21 30 39 55 39 74c0 14 -6 22 -13 22c-17 0 -37 -18 -75 -68c-36 -49 -65 -85 -95 -121c-72 -84 -176 -166 -270 -166z
M232 454c42 29 74 59 94 87c21 28 31 54 31 77c0 5 -1 9 -4 9c-9 0 -30 -25 -57 -65c-19 -29 -41 -66 -64 -108zM247 295c0 25 -5 42 -16 42c-29 0 -66 -35 -101 -89c-32 -50 -55 -114 -55 -161c0 -32 8 -50 20 -50c66 0 152 157 152 258z" />
    <glyph glyph-name="vecyrillic_hardsigncyrillic" unicode="&#x432;&#x44a;" horiz-adv-x="748" 
d="M114 -15c-64 0 -117 58 -117 144c0 57 26 123 83 233c-43 0 -67 11 -74 19c-3 4 -4 7 -4 9c0 6 8 12 22 12c33 0 57 1 81 4l13 26c69 124 133 219 200 257c9 5 15 6 21 6c18 0 39 -11 51 -29c17 -26 22 -45 22 -76c0 -13 -2 -28 -9 -48c-28 -64 -62 -96 -204 -153
l-10 -19c20 12 41 17 59 17c47 0 85 -55 85 -118c0 -14 -1 -31 -4 -45c17 22 33 45 41 61c-13 10 -24 24 -24 38c0 51 65 111 99 111c21 0 29 -13 29 -36c0 -18 -6 -40 -15 -64c28 0 67 23 115 57c7 5 15 7 23 7s16 -2 22 -8c13 -14 32 -42 32 -66c0 -26 -29 -48 -56 -88
c9 2 17 3 25 3c44 0 86 -39 86 -77c0 -94 -79 -181 -183 -181c-57 0 -102 30 -102 97c0 62 59 149 114 217c-33 -16 -67 -23 -100 -24c-26 -36 -172 -209 -216 -243c-35 -27 -69 -43 -105 -43zM232 454c42 29 74 59 94 87c21 28 31 54 31 77c0 5 -1 9 -4 9
c-9 0 -30 -25 -57 -65c-19 -29 -41 -66 -64 -108zM247 295c0 25 -5 42 -16 42c-29 0 -66 -35 -101 -89c-32 -50 -55 -114 -55 -161c0 -32 8 -50 20 -50c66 0 152 157 152 258zM617 159c0 25 -11 33 -20 33c-14 0 -29 -4 -40 -10c-25 -35 -48 -86 -48 -121
c0 -28 9 -37 21 -37c25 0 87 59 87 135z" />
    <glyph glyph-name="decyrillic_checyrillic" unicode="&#x434;&#x447;" horiz-adv-x="718" 
d="M91 32c32 0 79 60 129 144c39 65 55 115 55 143c0 12 -3 18 -9 18c-24 0 -88 -60 -141 -144c-30 -47 -46 -97 -46 -131c0 -18 4 -30 12 -30zM-78 -252c0 12 3 29 9 47c28 84 112 147 211 187l12 33c-22 -16 -48 -27 -76 -27c-56 0 -89 43 -89 102c0 44 18 97 54 148
c79 115 159 160 212 160c34 0 56 -17 64 -42c6 10 13 21 19 29c13 18 28 23 42 6c8 -10 15 -27 15 -47s-5 -42 -18 -68c-17 -34 -73 -142 -119 -244c86 51 156 135 204 257c-16 10 -24 26 -24 43c0 52 65 128 98 129c23 0 31 -14 31 -35c0 -22 -7 -52 -19 -85
c26 8 57 22 86 42c19 13 28 16 42 1c14 -17 31 -43 31 -68c0 -11 -5 -25 -17 -39c-45 -51 -93 -116 -110 -168c-5 -14 -7 -28 -7 -43c0 -26 8 -43 23 -43c34 0 92 60 123 131c9 19 25 23 34 0c5 -12 8 -38 -5 -67c-25 -62 -100 -104 -158 -104c-64 0 -99 46 -99 103
c0 15 4 34 10 54c17 53 60 112 99 158c-28 -12 -55 -18 -77 -19c-61 -135 -130 -242 -292 -310c-55 -130 -126 -286 -211 -323c-22 -9 -48 -7 -69 23c-14 21 -29 48 -29 79zM113 -84c-41 -30 -71 -65 -92 -98c-32 -51 -43 -110 -33 -110c7 0 29 24 60 77c20 36 43 81 65 131
z" />
    <glyph glyph-name="decyrillic_gecyrillic" unicode="&#x434;&#x433;" horiz-adv-x="730" 
d="M-90 -252c0 12 3 29 9 47c28 84 112 147 211 187l13 33c-23 -16 -48 -27 -77 -27c-56 0 -88 43 -88 102c0 44 17 97 53 148c79 115 159 160 212 160c34 0 56 -17 65 -42c6 10 12 21 18 29c13 18 29 23 42 6c8 -10 15 -27 15 -47s-4 -43 -18 -68
c-25 -46 -80 -156 -119 -243c82 50 145 131 192 205c44 69 103 157 183 157c49 0 86 -44 86 -83c0 -25 -15 -52 -55 -108c-35 -51 -69 -108 -69 -146c0 -20 6 -34 19 -34c36 0 95 66 131 132c4 7 9 10 16 10c17 0 23 -18 23 -28c0 -13 -4 -30 -14 -48
c-28 -54 -107 -108 -166 -108c-67 0 -99 34 -99 86c0 20 6 43 18 68c18 39 43 76 64 106c22 30 38 55 38 74c0 14 -3 24 -11 24c-33 0 -78 -66 -111 -114c-43 -65 -132 -198 -272 -257c-55 -130 -126 -286 -211 -323c-22 -9 -48 -7 -68 23c-15 21 -30 48 -30 79zM79 32
c32 0 79 60 129 144c39 65 56 115 56 143c0 12 -2 18 -9 18c-24 0 -89 -60 -142 -144c-30 -47 -46 -97 -46 -131c0 -18 4 -30 12 -30zM101 -87c-42 -30 -73 -66 -94 -101c-29 -49 -42 -96 -32 -105c9 -7 34 23 65 77c20 35 42 79 61 129z" />
    <glyph glyph-name="decyrillic_hardsigncyrillic" unicode="&#x434;&#x44a;" horiz-adv-x="843" 
d="M79 32c33 0 80 60 129 144c39 65 56 115 56 143c0 12 -2 18 -8 18c-24 0 -90 -60 -142 -144c-31 -47 -46 -97 -46 -131c0 -18 4 -30 11 -30zM567 398c0 -18 -4 -41 -16 -66c38 5 67 24 116 59c7 5 15 7 23 7s15 -1 22 -8c19 -19 31 -42 31 -66c0 -26 -26 -54 -55 -88
c9 2 16 3 25 3c44 0 86 -39 86 -77c0 -94 -79 -181 -183 -181c-57 0 -102 30 -102 97c0 62 60 150 115 218c-33 -15 -71 -24 -107 -25c-51 -78 -135 -231 -303 -302c-55 -130 -126 -286 -211 -323c-21 -9 -48 -7 -68 23c-15 21 -30 48 -30 79c0 98 101 185 220 234l13 32
c-23 -16 -49 -26 -76 -26c-57 0 -89 43 -89 102c0 44 17 97 54 148c79 115 159 160 211 160c35 0 56 -17 65 -42c6 10 13 21 18 29c13 18 29 23 42 6c8 -10 15 -27 15 -47s-11 -55 -17 -67c-36 -77 -81 -157 -120 -244c93 59 165 172 220 250c-14 11 -27 26 -27 40
c0 51 65 111 98 111c22 0 30 -13 30 -36zM710 159c0 25 -11 33 -20 33c-14 0 -30 -4 -40 -10c-25 -35 -48 -86 -48 -121c0 -28 9 -37 20 -37c26 0 88 59 88 135zM101 -84c-41 -30 -71 -65 -92 -98c-32 -51 -43 -110 -33 -110c7 0 29 24 60 77c20 36 43 81 65 131z" />
    <glyph glyph-name="iecyrillic_checyrillic" unicode="&#x435;&#x447;" horiz-adv-x="645" 
d="M123 216c-5 -9 -7 -13 -9 -18c8 -4 15 -6 22 -6c26 0 53 29 73 56c28 36 51 85 41 93c-18 14 -86 -44 -127 -125zM681 157c5 -11 8 -39 -5 -67c-25 -62 -99 -105 -158 -105c-63 0 -98 44 -98 103c0 16 3 34 10 55c17 54 56 109 96 156c-27 -12 -52 -16 -74 -17
c-82 -171 -189 -293 -311 -295c-92 -1 -143 59 -143 138c0 35 10 75 30 115c52 102 134 158 191 158c13 0 24 -2 34 -8c27 -17 46 -32 62 -52c5 -9 9 -21 9 -33c0 -29 -15 -70 -42 -105c-29 -36 -67 -61 -111 -61c-24 0 -48 6 -71 22c-6 -20 -9 -41 -9 -59
c0 -46 18 -76 46 -76c100 0 204 144 257 266c-18 11 -28 26 -28 44c0 53 67 126 101 127c21 0 29 -13 29 -35c0 -21 -8 -51 -19 -84c28 7 54 21 87 42c16 10 30 17 42 1c13 -17 30 -44 30 -69c0 -12 -5 -25 -17 -38c-43 -50 -92 -118 -110 -169c-4 -13 -7 -31 -7 -43
c0 -26 8 -43 22 -43c36 0 93 61 123 131c9 19 24 23 34 1z" />
    <glyph glyph-name="iecyrillic_gecyrillic" unicode="&#x435;&#x433;" horiz-adv-x="670" 
d="M131 216l-9 -18c8 -4 15 -6 22 -6c26 0 52 30 73 56c24 30 41 67 41 86c0 5 -2 9 -6 9c-27 0 -84 -54 -121 -127zM468 273c-53 -74 -71 -102 -93 -131c-65 -89 -141 -155 -228 -155c-93 0 -141 60 -141 138c0 35 10 75 30 115c52 102 134 158 191 158c13 0 24 -2 34 -8
c27 -17 47 -31 62 -52c6 -8 9 -21 9 -33c0 -29 -15 -70 -42 -105c-29 -36 -67 -61 -111 -61c-24 0 -48 6 -71 22c-6 -20 -9 -41 -9 -59c0 -45 17 -76 50 -76c59 0 125 65 177 137c26 35 63 87 96 136c44 61 88 96 141 96c49 0 86 -44 86 -83c0 -25 -15 -52 -55 -108
c-20 -29 -43 -59 -55 -89c-8 -22 -14 -41 -14 -57c0 -20 6 -34 18 -34c36 0 92 66 128 132c4 7 8 11 16 11c13 0 21 -19 21 -29c0 -13 -3 -30 -13 -48c-29 -54 -102 -108 -162 -108c-66 0 -98 34 -98 86c0 20 6 43 17 68c18 40 44 77 66 108c21 30 39 55 39 74
c0 14 -6 22 -15 22c-14 0 -40 -20 -74 -67z" />
    <glyph glyph-name="iecyrillic_hacyrillic" unicode="&#x435;&#x445;" horiz-adv-x="599" 
d="M119 212l-7 -14c9 -4 17 -6 24 -6c27 0 51 30 72 57c29 38 51 84 41 93c-18 13 -87 -44 -130 -130zM90 103c0 -45 27 -75 63 -75c67 0 148 58 220 120c-5 75 -15 179 -25 227c-4 17 10 25 32 21c37 -9 63 -38 72 -102c2 -14 4 -32 6 -63c48 52 98 115 132 158
c15 20 43 23 39 -10c-3 -24 -23 -55 -44 -85c-20 -26 -64 -78 -121 -134c3 -51 6 -67 7 -82c4 -35 12 -48 20 -48c29 0 84 72 111 131c8 18 30 12 36 -5c7 -20 3 -40 -14 -71c-35 -64 -99 -100 -153 -100c-53 0 -83 30 -92 101c-71 -54 -150 -99 -229 -99
c-98 0 -152 58 -152 141c0 35 10 74 29 112c52 100 134 158 191 158c12 0 25 -2 35 -8c26 -15 47 -31 60 -51c6 -10 10 -22 10 -34c0 -29 -15 -71 -42 -105c-28 -37 -67 -62 -111 -62c-24 0 -48 7 -72 22c-5 -19 -8 -39 -8 -57z" />
    <glyph glyph-name="iecyrillic_zecyrillic" unicode="&#x435;&#x437;" horiz-adv-x="690" 
d="M322 416c-20 11 -28 33 -17 55c12 24 38 39 59 30c22 -10 26 -32 17 -54c-11 -24 -38 -41 -59 -31zM216 415c-18 8 -28 32 -18 55c11 24 36 39 58 29c18 -8 28 -30 17 -54c-11 -23 -37 -36 -57 -30zM177 286c-22 -25 -45 -64 -54 -88c7 -4 14 -6 21 -6c26 0 52 30 73 56
c24 30 41 67 41 86c0 5 -2 9 -6 9c-15 0 -46 -22 -75 -57zM459 245c-17 -20 -30 -39 -82 -106c-67 -86 -132 -152 -230 -152c-93 0 -141 60 -141 138c0 35 10 75 31 115c51 102 133 158 190 158c13 0 24 -2 34 -8c28 -17 47 -32 62 -52c7 -9 9 -21 9 -33
c0 -29 -15 -70 -42 -105c-29 -36 -67 -61 -111 -61c-24 0 -48 6 -71 22c-6 -20 -9 -41 -9 -59c0 -45 18 -76 50 -76c66 0 122 61 178 134c35 49 69 111 126 171c45 49 90 67 130 67c32 0 60 -9 82 -39c12 -18 18 -39 18 -60c0 -69 -70 -140 -157 -199c26 -5 53 -27 64 -60
c35 23 73 65 100 117c3 5 9 9 18 9c13 0 21 -6 21 -20c0 -12 -5 -36 -16 -55c-22 -39 -77 -74 -118 -93c-1 -105 -105 -253 -169 -288c-10 -6 -20 -10 -32 -10c-16 0 -30 7 -46 25c-16 19 -34 43 -34 76c0 12 3 27 11 44c38 81 117 133 200 167c8 30 -2 50 -17 50
c-26 0 -52 -32 -92 -32c-7 0 -15 2 -17 10s-5 20 -5 37c0 20 12 39 43 57c121 69 181 139 181 191c0 10 -4 21 -16 21c-35 0 -86 -35 -143 -101zM509 -41c-47 -35 -79 -70 -99 -98c-37 -52 -39 -96 -20 -96c12 0 37 31 62 71c22 36 42 80 57 123z" />
    <glyph glyph-name="zecyrillic_gecyrillic" unicode="&#x437;&#x433;" horiz-adv-x="731" 
d="M-8 48c-10 0 -15 12 -15 25c0 24 7 44 35 85c31 46 61 113 120 173c42 43 96 67 143 67c31 0 56 -9 77 -39c13 -18 21 -39 21 -60c0 -22 -9 -48 -25 -75c-24 -38 -67 -88 -123 -124c22 -4 38 -18 52 -34c70 45 137 132 199 225c51 74 86 107 137 107c49 0 95 -38 95 -86
c0 -47 -74 -110 -109 -197c-9 -22 -15 -41 -15 -57c0 -20 6 -34 19 -34c36 0 92 55 130 132c4 7 11 10 19 10c16 0 22 -18 22 -28c0 -13 -4 -30 -13 -48c-29 -54 -108 -108 -168 -108c-66 0 -100 34 -100 86c0 20 6 43 17 68c41 87 110 154 110 191c0 14 -3 23 -17 23
c-19 0 -38 -22 -73 -74c-29 -42 -53 -74 -89 -119c-44 -54 -92 -95 -146 -132c1 -7 2 -20 2 -30c0 -122 -110 -261 -171 -295c-9 -6 -20 -10 -32 -10c-15 0 -30 7 -46 25c-15 19 -34 43 -34 76c0 12 4 37 11 54c38 80 128 151 200 194c-3 14 -10 23 -22 23
c-22 1 -43 -7 -72 -27c-4 -2 -9 -5 -15 -5c-8 0 -15 3 -17 11s-5 19 -6 25c-5 29 12 50 43 68c121 69 171 149 171 191c0 10 -4 19 -13 19c-88 0 -179 -122 -229 -210c-16 -27 -27 -49 -50 -77c-7 -8 -15 -9 -23 -9zM80 -230c0 -3 1 -14 6 -14c8 1 31 33 58 77
c26 43 53 97 71 146c-42 -35 -76 -74 -99 -111c-23 -36 -36 -71 -36 -98z" />
    <glyph glyph-name="zecyrillic_hardsigncyrillic" unicode="&#x437;&#x44a;" horiz-adv-x="819" 
d="M505 271c-22 -45 -48 -92 -83 -133c-31 -37 -71 -76 -127 -113c1 -7 2 -20 2 -30c0 -122 -110 -261 -171 -295c-9 -6 -20 -10 -32 -10c-15 0 -30 7 -46 25c-15 19 -34 43 -34 76c0 12 4 37 11 54c38 80 128 151 200 194c-3 14 -10 23 -22 23c-22 1 -43 -7 -72 -27
c-4 -2 -9 -5 -15 -5c-8 0 -15 3 -17 11s-5 19 -6 25c-5 29 12 50 43 68c121 69 171 149 171 191c0 10 -4 19 -13 19c-88 0 -179 -122 -229 -210c-16 -27 -27 -49 -50 -77c-7 -8 -15 -9 -23 -9c-10 0 -15 12 -15 25c0 24 7 44 35 85c31 46 61 113 120 173c42 43 96 67 143 67
c31 0 56 -9 77 -39c13 -18 21 -39 21 -60c0 -22 -9 -48 -25 -75c-24 -38 -67 -88 -123 -124c22 -4 38 -18 52 -34c37 27 65 53 96 92c33 45 46 65 70 125c-14 11 -27 26 -27 40c0 51 65 111 98 111c22 0 30 -13 30 -36c0 -18 -4 -41 -16 -66c38 5 67 24 116 59
c7 5 15 7 23 7s15 -1 22 -8c19 -19 31 -42 31 -66c0 -26 -26 -54 -55 -88c9 2 16 3 25 3c44 0 86 -39 86 -77c0 -94 -79 -181 -183 -181c-57 0 -102 30 -102 97c0 62 60 150 115 218c-33 -15 -65 -24 -101 -25zM687 159c0 25 -11 33 -20 33c-14 0 -30 -4 -40 -10
c-25 -35 -48 -86 -48 -121c0 -28 9 -37 20 -37c26 0 88 59 88 135zM80 -230c0 -3 1 -14 6 -14c8 1 31 33 58 77c26 43 53 97 71 146c-42 -35 -76 -74 -99 -111c-23 -36 -36 -71 -36 -98z" />
    <glyph glyph-name="iicyrillic_checyrillic" unicode="&#x438;&#x447;" horiz-adv-x="716" 
d="M752 155c5 -11 7 -36 -5 -67c-26 -61 -101 -103 -157 -103c-65 0 -100 45 -100 102c0 79 55 150 108 212c-27 -11 -54 -17 -76 -18c-51 -127 -139 -294 -246 -294c-54 0 -90 21 -94 68c-33 -37 -79 -67 -127 -67c-41 0 -72 38 -72 80c0 21 5 44 13 69
c23 65 73 165 136 249c13 17 28 17 40 0c11 -17 17 -30 17 -47c0 -24 -11 -53 -33 -90c-36 -62 -60 -100 -76 -142c-8 -19 -12 -37 -12 -52c0 -14 3 -24 8 -24c31 0 86 68 134 146c28 46 52 90 69 122c18 34 35 64 51 87c13 16 27 19 41 6c9 -11 16 -28 16 -50
c0 -19 -4 -41 -16 -65c-9 -19 -26 -46 -41 -73c-19 -30 -38 -63 -50 -93c-10 -22 -15 -43 -15 -58c0 -17 5 -25 15 -25c55 0 133 127 184 261c-22 11 -29 27 -29 47c0 52 62 126 94 126c23 0 32 -15 32 -39c0 -20 -6 -50 -16 -81c29 7 57 20 88 42c13 9 31 18 44 2
s28 -41 28 -68c0 -12 -5 -26 -16 -40c-43 -49 -91 -118 -109 -167c-4 -15 -7 -30 -7 -45c0 -25 7 -42 22 -42c34 0 92 60 122 131c9 20 25 21 35 0z" />
    <glyph glyph-name="iicyrillic_gecyrillic" unicode="&#x438;&#x433;" horiz-adv-x="740" 
d="M444 127c-59 -88 -108 -145 -180 -145c-51 0 -78 30 -81 75c-33 -37 -75 -70 -123 -70c-58 0 -78 38 -78 81c0 22 4 45 13 69c22 63 72 163 135 250c5 7 13 10 22 10c25 0 36 -36 36 -54c0 -29 -11 -58 -33 -93c-33 -55 -54 -96 -75 -143c-9 -20 -13 -39 -13 -53
s3 -24 10 -24c31 0 86 74 134 148c59 96 86 163 121 210c6 8 11 13 23 13c22 0 34 -38 34 -55c0 -53 -23 -82 -56 -140c-29 -46 -67 -115 -67 -154c0 -17 2 -28 14 -28c48 0 112 109 168 203c14 24 31 52 45 74c46 70 84 94 138 94c49 0 86 -44 86 -83
c0 -25 -16 -53 -54 -108c-21 -29 -43 -59 -55 -89c-9 -22 -15 -41 -15 -57c0 -20 6 -34 19 -34c36 0 94 66 130 132c4 7 9 10 17 10c13 0 22 -21 22 -31c0 -13 -4 -27 -14 -45c-28 -54 -105 -108 -165 -108c-66 0 -99 34 -99 86c0 20 6 43 18 68c18 40 44 77 65 108
c22 30 40 55 40 74c0 14 -6 24 -16 24c-16 0 -38 -12 -73 -65c-25 -34 -55 -94 -93 -150z" />
    <glyph glyph-name="iicyrillic_hacyrillic" unicode="&#x438;&#x445;" horiz-adv-x="672" 
d="M465 150c-10 121 -15 189 -23 226c-4 18 10 24 31 21c33 -6 65 -37 73 -101c3 -24 4 -32 6 -60c49 51 95 106 128 152c16 21 41 25 39 -9c-1 -24 -21 -54 -42 -83c-20 -29 -67 -82 -120 -133c1 -37 4 -65 7 -86c5 -36 13 -48 20 -48c30 0 75 73 102 131c9 19 32 15 36 -6
c3 -14 3 -40 -14 -70c-35 -63 -90 -99 -143 -99c-56 0 -85 28 -95 101c-71 -56 -144 -101 -198 -101c-46 0 -77 27 -85 65c-32 -36 -76 -63 -123 -63c-45 0 -72 38 -72 81c0 20 4 44 13 69c23 64 72 161 136 249c13 17 28 15 42 -1c12 -14 15 -31 15 -45
c0 -24 -12 -54 -34 -91c-33 -55 -55 -95 -75 -142c-8 -19 -12 -37 -12 -52c0 -14 3 -24 8 -24c33 0 84 63 135 146c30 49 52 91 70 125c18 33 31 58 49 84c12 17 28 21 41 6c10 -12 17 -30 17 -52c0 -19 -4 -40 -16 -64c-22 -45 -80 -135 -98 -182c-8 -20 -14 -38 -14 -52
c0 -10 3 -16 9 -16c35 0 110 55 187 124z" />
    <glyph glyph-name="iicyrillic_zecyrillic" unicode="&#x438;&#x437;" horiz-adv-x="750" 
d="M523 235c-27 -35 -55 -72 -93 -125c-56 -83 -103 -128 -166 -128c-50 0 -78 30 -81 75c-33 -37 -75 -70 -123 -70c-58 0 -78 38 -78 81c0 22 4 45 13 69c22 63 72 163 133 247c8 10 15 13 24 13c25 0 36 -36 36 -54c0 -29 -11 -58 -33 -93c-33 -55 -54 -96 -75 -143
c-9 -20 -13 -39 -13 -53s3 -24 10 -24c31 0 86 74 134 148c60 97 86 163 121 210c7 8 12 13 23 13c23 0 34 -38 34 -55c0 -53 -23 -82 -56 -140c-17 -27 -37 -63 -52 -96c-13 -31 -17 -44 -17 -60c0 -17 3 -26 9 -26c27 0 71 48 145 159c30 45 63 101 101 144
c47 54 98 71 133 71c30 0 64 -9 85 -39c13 -18 19 -39 19 -60c0 -22 -18 -58 -35 -81c-25 -35 -70 -82 -123 -118c29 -6 55 -29 65 -60c35 23 72 65 99 117c3 5 5 9 15 9c13 0 22 -14 22 -28c0 -12 -2 -28 -13 -47c-23 -39 -77 -74 -118 -93c-1 -105 -106 -253 -169 -288
c-10 -6 -21 -10 -32 -10c-16 0 -31 7 -46 25c-16 19 -35 43 -35 76c0 12 3 27 11 44c38 81 117 133 200 167c0 22 -4 50 -21 50c-32 0 -73 -32 -87 -32c-13 0 -22 20 -22 36c0 31 11 50 43 68c121 69 180 139 180 191c0 10 -5 21 -16 21c-35 0 -83 -24 -151 -111zM459 -222
c0 -7 2 -12 7 -12c9 0 31 28 55 66c24 37 49 84 66 126c-43 -28 -74 -61 -95 -93c-23 -35 -33 -67 -33 -87z" />
    <glyph glyph-name="ocyrillic_checyrillic" unicode="&#x43e;&#x447;" horiz-adv-x="805" 
d="M186 331c0 -19 -5 -40 -16 -62c-9 -17 -17 -34 -25 -50c22 5 43 10 62 15c24 61 98 161 190 161c31 0 45 -12 65 -37l16 -18c15 -17 34 -38 34 -77c0 -11 0 -13 -3 -23c17 7 36 23 53 50c-18 10 -25 24 -25 42c0 53 67 126 100 127c21 0 30 -14 30 -35
c0 -22 -9 -54 -20 -84c28 7 56 21 86 43c8 6 17 9 25 9s14 -2 19 -8c12 -15 29 -42 29 -68c0 -12 -5 -27 -17 -40c-42 -49 -91 -116 -108 -168c-5 -15 -8 -30 -8 -45c0 -24 8 -41 25 -41c34 0 82 64 112 130c3 6 10 12 17 12c19 0 20 -28 20 -39c0 -12 -2 -25 -9 -39
c-35 -75 -86 -104 -143 -104c-69 0 -104 46 -104 104c0 16 2 32 9 54c8 24 60 111 99 158c-29 -13 -55 -18 -79 -19c-26 -42 -65 -72 -118 -78c-25 -97 -96 -214 -198 -214c-74 0 -124 67 -124 137c0 16 1 33 5 50c-24 -7 -48 -11 -74 -16c-27 -54 -52 -106 -76 -158
c-3 -6 -9 -12 -16 -12c-6 0 -12 3 -17 8c-10 10 -19 27 -19 53c0 14 3 36 13 61l15 36c-8 3 -10 9 -10 15c0 13 11 28 30 36c33 73 72 142 98 178c6 8 14 13 23 13c24 0 34 -40 34 -57zM433 251c10 23 14 47 14 60c0 15 -8 21 -15 21c-6 0 -15 -8 -15 -24
c0 -18 5 -44 16 -57zM258 80c0 -17 3 -44 20 -44c55 0 120 116 139 182c-31 19 -53 49 -60 78c-19 -20 -40 -46 -57 -76c-26 -47 -42 -104 -42 -140z" />
    <glyph glyph-name="ocyrillic_ercyrillic" unicode="&#x43e;&#x440;" horiz-adv-x="741" 
d="M446 90c0 -29 9 -49 25 -49c28 1 76 64 113 140c23 48 36 97 36 131c0 18 -2 32 -9 32c-19 0 -68 -38 -112 -111l-35 -57c-11 -30 -18 -60 -18 -86zM253 251c10 23 14 47 14 60c0 15 -8 21 -15 21c-6 0 -15 -8 -15 -24c0 -18 5 -44 16 -57zM77 78c0 -28 8 -39 24 -39
c27 0 68 39 102 102c14 27 27 54 36 80c-28 17 -55 47 -64 75c-49 -52 -98 -140 -98 -218zM778 153c4 -21 2 -42 -14 -69c-39 -65 -119 -106 -193 -106c-81 0 -144 20 -173 78c-48 -89 -97 -189 -140 -285c-8 -19 -22 -24 -35 -4c-7 11 -14 26 -14 47c0 17 4 39 11 65
c18 57 92 207 160 331c-18 -8 -36 -11 -58 -10c-26 -99 -106 -214 -199 -214c-33 0 -68 13 -97 50c-19 25 -27 55 -27 86c0 45 15 94 42 141c45 79 107 130 174 130c29 0 47 -10 66 -36c33 -39 55 -53 48 -120c53 10 107 76 155 148c15 23 33 19 42 -3c3 -8 6 -18 8 -28
c25 20 53 34 83 34c21 0 42 -8 57 -26c21 -22 29 -49 29 -79c0 -43 -17 -96 -39 -142c-24 -47 -56 -97 -85 -121c70 16 138 82 164 137c10 21 31 16 35 -4z" />
    <glyph glyph-name="ocyrillic_gecyrillic" unicode="&#x43e;&#x433;" horiz-adv-x="633" 
d="M325 239c20 8 43 31 65 59c55 70 82 97 134 97c49 0 88 -44 88 -83c0 -25 -16 -53 -54 -108c-21 -29 -43 -59 -55 -89c-9 -22 -15 -41 -15 -57c0 -20 6 -34 19 -34c36 0 92 66 128 132c4 7 11 10 19 10c16 0 22 -18 22 -28c0 -13 -4 -30 -14 -48
c-28 -54 -105 -108 -165 -108c-66 0 -99 34 -99 86c0 20 6 43 18 68c18 40 44 77 65 108c22 30 40 55 40 74c0 14 -3 22 -13 22s-29 -14 -67 -59c-35 -40 -62 -78 -123 -81c-24 -98 -91 -213 -198 -213c-33 0 -69 13 -97 50c-18 26 -27 55 -27 87c0 44 16 94 41 140
c33 58 101 131 177 131c30 0 45 -12 64 -37l16 -18c16 -17 34 -38 34 -77c0 -11 0 -15 -3 -24zM246 251c10 23 14 47 14 60c0 15 -8 21 -15 21c-6 0 -15 -8 -15 -24c0 -18 5 -44 16 -57zM95 36c24 0 71 46 106 106c14 24 26 51 32 76c-31 19 -52 49 -59 78
c-20 -20 -40 -46 -58 -76c-25 -47 -42 -104 -42 -140c0 -17 3 -44 21 -44z" />
    <glyph glyph-name="ocyrillic_hacyrillic" unicode="&#x43e;&#x445;" horiz-adv-x="624" 
d="M347 215c-7 -8 -15 -12 -26 -14c-21 -83 -85 -181 -161 -207c-9 -3 -21 -6 -36 -6c-33 0 -70 14 -98 51c-19 25 -28 55 -28 87c0 44 16 93 42 140c45 80 108 130 174 130c29 0 47 -11 66 -37c28 -33 56 -40 47 -125c26 0 28 -9 20 -19zM252 254c10 23 14 47 14 60
c0 15 -8 21 -15 21c-6 0 -15 -8 -15 -24c0 -18 5 -44 16 -57zM76 81c0 -30 9 -42 24 -42c26 0 66 37 103 105c15 26 27 51 33 72c-32 20 -53 46 -61 81c-21 -20 -40 -45 -57 -75c-26 -48 -42 -104 -42 -141zM626 155c11 23 28 18 35 0c5 -11 5 -37 -10 -66
c-31 -61 -94 -104 -148 -104c-59 0 -96 38 -102 127c-43 -37 -85 -77 -119 -119c-7 -8 -18 -16 -26 -16s-14 6 -13 22c2 32 27 65 63 105c22 23 53 51 85 77c-11 73 -27 165 -38 192c-7 20 6 23 29 23c41 0 68 -36 79 -79c5 -22 8 -40 13 -70c45 39 90 83 129 135
c19 24 41 25 41 -8c0 -31 -22 -62 -56 -102c-17 -20 -44 -45 -107 -90l18 -105c6 -32 14 -49 26 -49c25 0 73 67 101 127z" />
    <glyph glyph-name="ocyrillic_iicyrillic" unicode="&#x43e;&#x438;" horiz-adv-x="765" 
d="M802 157c6 -10 6 -37 -9 -66c-29 -58 -100 -108 -162 -108c-57 0 -86 31 -92 73c-33 -36 -79 -69 -129 -69c-52 0 -71 38 -71 81c0 21 4 45 12 69c7 20 17 45 29 68c-20 -7 -40 -11 -61 -11c-27 -96 -110 -207 -194 -207c-33 0 -71 13 -99 51c-19 25 -27 56 -27 88
c0 42 15 94 41 139c37 64 103 124 165 129c34 2 54 -8 76 -37c5 -6 10 -10 15 -15c20 -21 36 -47 32 -108c45 8 91 52 122 97l37 54c12 18 25 19 39 3c12 -14 18 -34 18 -48c0 -24 -12 -54 -33 -91c-34 -55 -56 -95 -76 -142c-7 -19 -11 -37 -11 -52c0 -14 3 -24 12 -24
c28 0 79 63 130 146c61 96 82 156 119 209c12 18 28 21 41 6c10 -12 17 -30 17 -52c0 -19 -4 -40 -16 -64c-19 -41 -67 -107 -91 -165c-10 -21 -16 -42 -16 -59c0 -18 6 -28 19 -28c34 0 93 65 129 132c9 19 23 20 34 1zM253 251c10 23 14 47 14 60c0 15 -8 21 -15 21
c-6 0 -15 -8 -15 -24c0 -18 5 -44 16 -57zM77 81c0 -28 5 -42 21 -42c25 0 68 36 106 104c16 28 25 51 33 74c-26 17 -52 52 -61 80c-21 -20 -39 -45 -58 -77c-26 -47 -41 -102 -41 -139z" />
    <glyph glyph-name="ocyrillic_pecyrillic" unicode="&#x43e;&#x43f;" horiz-adv-x="749" 
d="M781 157c6 -12 11 -35 -5 -67c-27 -57 -101 -107 -164 -107c-66 0 -96 34 -96 86c0 18 4 40 13 66c18 50 51 102 74 142c8 14 28 55 25 55c-9 0 -53 -26 -109 -88c-51 -56 -101 -157 -140 -245c-6 -13 -20 -23 -36 -5c-13 14 -21 31 -21 54c0 14 4 33 11 52
c9 26 27 69 48 110c-21 -10 -33 -10 -58 -10c-26 -98 -100 -213 -200 -213c-32 0 -69 12 -96 49c-18 26 -27 56 -27 88c0 45 15 93 42 139c38 66 101 125 164 130c30 3 57 -12 75 -35c8 -10 13 -15 17 -19c19 -20 32 -40 32 -103c49 14 112 83 157 149c13 17 27 17 38 2
c9 -15 14 -33 14 -49c0 -5 0 -12 -1 -18c42 39 95 73 125 73c27 0 56 -35 56 -73c0 -11 -2 -25 -9 -40c-10 -19 -24 -46 -40 -71c-17 -27 -41 -72 -51 -93c-10 -22 -15 -42 -15 -58c0 -20 7 -33 22 -33c31 0 87 67 124 132c8 14 23 14 31 0zM252 251c10 23 14 47 14 60
c0 15 -8 21 -15 21c-6 0 -15 -8 -15 -24c0 -18 5 -44 16 -57zM77 81c0 -29 9 -44 23 -44c26 1 69 37 104 104c15 28 27 57 35 78c-27 17 -53 50 -62 78c-21 -21 -41 -49 -58 -77c-26 -45 -42 -101 -42 -139z" />
    <glyph glyph-name="ocyrillic_tecyrillic" unicode="&#x43e;&#x442;" horiz-adv-x="923" 
d="M252 251c10 23 14 47 14 60c0 15 -8 21 -15 21c-6 0 -15 -8 -15 -24c0 -18 5 -44 16 -57zM925 156c11 20 25 15 35 0c6 -8 7 -42 -6 -67c-28 -56 -109 -108 -169 -107c-67 1 -104 38 -104 91c0 19 4 41 15 64c17 38 47 87 72 126c10 15 41 61 38 62c-5 1 -32 -13 -89 -71
c-77 -76 -125 -174 -167 -262c-7 -16 -26 -22 -40 -8c-11 11 -20 28 -20 54c0 17 5 44 17 74c14 37 47 90 74 133c28 44 52 79 46 82c-7 3 -47 -23 -107 -89c-54 -59 -101 -149 -140 -242c-7 -15 -18 -18 -35 -5c-15 12 -23 30 -23 53c0 16 3 33 9 53c8 25 27 68 51 114
c-18 -7 -38 -12 -59 -11c-25 -99 -99 -214 -199 -214c-32 0 -69 12 -97 50c-18 25 -27 55 -27 86c0 45 16 95 43 141c38 67 100 130 164 130c36 0 53 -7 75 -36c34 -38 49 -58 49 -120c53 8 108 78 154 149c11 16 28 17 39 0c8 -14 13 -30 13 -45c0 -9 -1 -17 -3 -28
c45 44 97 80 130 80s53 -37 53 -78c43 37 99 72 128 71s44 -29 44 -61c0 -16 -3 -35 -11 -53c-9 -21 -29 -53 -48 -85c-14 -20 -27 -42 -41 -72c-9 -18 -14 -37 -14 -53c0 -23 10 -38 26 -38c36 0 88 64 124 132zM79 81c0 -29 7 -44 21 -44c24 0 68 37 105 104
c15 27 26 54 33 80c-28 17 -52 45 -60 75c-22 -22 -40 -46 -58 -77c-27 -46 -41 -100 -41 -138z" />
    <glyph glyph-name="ocyrillic_ucyrillic" unicode="&#x43e;&#x443;" horiz-adv-x="748" 
d="M356 -359c-23 -9 -44 -9 -68 23c-15 21 -30 51 -30 83c0 12 3 29 9 47c31 86 112 147 209 186l15 35c-26 -19 -52 -28 -82 -28c-50 0 -72 38 -72 80c0 21 4 45 13 70c8 21 18 46 31 73c-16 -5 -44 -13 -59 -9c-21 -83 -85 -181 -161 -207c-9 -3 -21 -6 -36 -6
c-33 0 -70 14 -98 51c-19 25 -28 55 -28 87c0 44 16 93 42 140c45 80 108 130 174 130c29 0 47 -11 66 -37c28 -33 52 -64 48 -121c60 16 94 64 122 100c12 15 22 32 33 48c13 17 28 18 39 2c10 -14 19 -32 19 -48c0 -25 -12 -54 -35 -91c-34 -54 -55 -95 -74 -142
c-14 -36 -23 -76 3 -76s71 59 120 142c67 113 94 174 118 210c14 18 27 20 38 9c15 -15 19 -30 19 -51c0 -20 -5 -42 -18 -67c-29 -56 -81 -153 -122 -248c61 37 126 93 158 138c13 18 28 20 32 7c5 -16 3 -42 -14 -68c-40 -61 -119 -103 -201 -137
c-55 -132 -123 -292 -210 -325zM253 254c10 23 14 47 14 60c0 15 -8 21 -15 21c-6 0 -15 -8 -15 -24c0 -18 5 -44 16 -57zM77 81c0 -30 9 -42 24 -42c26 0 66 37 103 105c15 26 27 51 33 72c-32 20 -53 46 -61 81c-21 -20 -40 -45 -57 -75c-26 -48 -42 -104 -42 -141z
M450 -85c-48 -33 -82 -76 -103 -115c-25 -47 -32 -88 -22 -97c7 -6 28 23 56 72c21 37 45 86 69 140z" />
    <glyph glyph-name="ocyrillic_zecyrillic" unicode="&#x43e;&#x437;" horiz-adv-x="664" 
d="M575 346c-22 0 -51 -11 -106 -65c-58 -54 -113 -77 -149 -81c-21 -83 -83 -181 -160 -207c-10 -4 -23 -6 -39 -6c-33 0 -69 13 -96 50c-19 26 -28 55 -28 87c0 44 16 94 41 140c34 58 101 131 177 131c30 0 45 -12 65 -37l15 -18c16 -17 34 -38 34 -77
c0 -11 -1 -15 -3 -24c47 19 85 76 100 92c47 53 86 67 128 67c30 0 63 -9 85 -39c13 -18 18 -39 18 -60c0 -22 -17 -58 -34 -81c-25 -35 -70 -82 -123 -118c33 -7 56 -32 65 -60c35 23 75 65 102 117c3 5 7 9 14 9c12 0 19 -9 19 -26c0 -9 -4 -30 -14 -49
c-23 -39 -75 -74 -116 -93c-1 -105 -106 -253 -169 -288c-10 -6 -21 -10 -33 -10c-15 0 -30 7 -45 25c-16 19 -35 43 -35 76c0 12 3 27 11 44c38 81 117 133 200 167c6 34 -3 50 -16 50c-23 0 -46 -6 -77 -27c-5 -3 -11 -5 -17 -5c-16 0 -21 24 -21 36c0 31 12 50 43 68
c121 69 181 139 181 191c0 10 -5 21 -17 21zM247 251c10 23 14 47 14 60c0 15 -8 21 -15 21c-6 0 -15 -8 -15 -24c0 -18 5 -44 16 -57zM96 36c24 0 70 46 106 106c13 24 26 51 33 76c-32 19 -53 49 -60 78c-19 -20 -40 -46 -58 -76c-25 -47 -42 -104 -42 -140
c0 -17 3 -44 21 -44zM361 -222c0 -7 2 -12 5 -12c13 0 39 35 66 80c21 35 42 75 57 112c-40 -26 -70 -57 -91 -87c-26 -37 -37 -72 -37 -93z" />
    <glyph glyph-name="escyrillic_checyrillic" unicode="&#x441;&#x447;" horiz-adv-x="642" 
d="M678 155c5 -11 7 -37 -5 -67c-25 -62 -100 -104 -156 -104c-64 0 -99 44 -99 103c0 52 53 147 108 212c-27 -11 -55 -17 -78 -18c-72 -160 -184 -296 -311 -296c-92 0 -142 60 -142 138c0 35 10 75 30 115c53 102 132 158 190 158c13 0 25 -2 35 -8c30 -18 48 -36 59 -57
c15 -32 -1 -68 -20 -107c-7 -15 -15 -30 -18 -41c-7 -21 -11 -26 -36 -13c-20 10 -35 31 -35 58c0 15 13 48 23 71c10 21 20 41 15 45c-13 10 -77 -51 -119 -136c-20 -41 -30 -81 -30 -111c0 -42 17 -70 46 -72c98 -4 205 142 257 265c-21 10 -28 25 -28 44
c0 53 66 126 100 127c21 0 29 -13 29 -35c0 -21 -8 -51 -19 -84c28 7 55 20 87 43c15 11 31 15 44 1c16 -18 28 -42 28 -68c0 -12 -5 -27 -17 -40c-43 -50 -92 -115 -108 -168c-5 -15 -8 -30 -8 -45c0 -25 8 -40 23 -41c34 -3 91 61 121 130c9 21 24 23 34 1z" />
    <glyph glyph-name="ucyrillic_checyrillic" unicode="&#x443;&#x447;" horiz-adv-x="692" 
d="M227 26c86 52 160 142 209 264c-15 10 -24 26 -24 43c0 53 65 128 98 128c22 0 31 -14 31 -36c0 -20 -8 -53 -19 -84c27 7 56 22 85 42c20 13 31 15 43 2c15 -17 30 -44 30 -69c0 -12 -4 -25 -15 -39c-46 -50 -94 -116 -111 -167c-4 -14 -6 -29 -6 -44
c0 -26 7 -43 22 -43c35 0 92 60 124 131c8 18 27 22 36 0c3 -11 7 -37 -5 -67c-26 -61 -102 -103 -161 -103c-64 0 -99 46 -99 104c0 16 2 34 7 52c15 48 61 113 98 157c-26 -10 -51 -15 -72 -17c-61 -135 -131 -244 -296 -314c-55 -132 -123 -292 -210 -325
c-23 -9 -44 -9 -68 23c-15 21 -30 51 -30 83c0 12 3 29 9 47c31 86 112 147 209 186l15 35c-26 -19 -52 -28 -82 -28c-50 0 -72 38 -72 80c0 21 4 45 13 70c23 63 72 164 134 249c13 17 28 18 39 2c10 -14 19 -32 19 -48c0 -25 -12 -54 -35 -91c-34 -54 -55 -95 -74 -142
c-14 -36 -23 -76 3 -76s71 59 120 142c67 113 94 174 118 210c14 18 27 20 38 9c15 -15 19 -30 19 -51c0 -20 -5 -42 -18 -67c-29 -56 -81 -153 -122 -248zM86 -85c-48 -33 -82 -76 -103 -115c-25 -47 -32 -88 -22 -97c7 -6 28 23 56 72c21 37 45 86 69 140z" />
    <glyph glyph-name="ucyrillic_gecyrillic" unicode="&#x443;&#x433;" horiz-adv-x="710" 
d="M350 275c-41 -84 -85 -167 -118 -241c75 51 147 133 227 257c43 67 79 104 142 104c49 0 86 -44 86 -83c0 -25 -16 -53 -54 -108c-21 -29 -43 -59 -55 -89c-9 -22 -15 -41 -15 -57c0 -20 6 -34 19 -34c36 0 96 66 132 132c4 7 8 10 16 10c16 0 24 -18 24 -32
c0 -17 -5 -31 -16 -50c-27 -47 -106 -102 -166 -102c-66 0 -99 34 -99 86c0 20 6 43 18 68c18 39 45 77 67 108c23 30 39 57 39 76c0 13 -4 22 -15 22c-16 0 -38 -12 -81 -81c-78 -123 -156 -228 -297 -293c-55 -131 -126 -289 -211 -323c-8 -3 -15 -4 -23 -4
c-17 0 -35 8 -48 25c-17 21 -35 48 -35 80c0 15 2 29 12 48c42 80 117 135 214 185l15 35c-24 -17 -47 -27 -75 -27c-60 0 -80 37 -80 79c0 21 5 45 14 70c23 64 69 160 134 249c6 8 14 10 21 10c23 0 37 -39 37 -55c0 -28 -13 -56 -34 -92c-41 -71 -88 -148 -88 -195
c0 -13 4 -23 11 -23c31 0 76 61 125 142c40 66 76 150 118 210c7 10 15 14 25 14c21 0 32 -39 32 -54c0 -20 -6 -42 -18 -67zM-48 -281c0 -5 3 -11 8 -11c9 0 28 27 56 72c21 35 46 80 69 131c-43 -31 -75 -66 -97 -99c-24 -37 -36 -72 -36 -93z" />
    <glyph glyph-name="ucyrillic_zecyrillic" unicode="&#x443;&#x437;" horiz-adv-x="744" 
d="M429 -222c0 -3 0 -11 -2 -12c22 2 95 106 130 192c-91 -59 -128 -142 -128 -180zM-48 -280c0 -5 1 -12 4 -12c17 0 79 93 133 213c-90 -67 -137 -162 -137 -201zM495 228c-23 -28 -47 -55 -78 -89c-60 -67 -115 -116 -209 -161c-55 -131 -130 -298 -215 -333l1 1
c-8 -4 -15 -5 -24 -5c-17 0 -34 8 -48 25c-17 21 -35 48 -35 80c0 13 5 28 12 47c42 96 122 144 218 194l3 9c7 18 -2 -2 7 18c-22 -16 -48 -27 -74 -27c-60 0 -79 37 -79 79c0 21 5 45 13 70c23 64 69 160 134 249c5 7 14 10 22 10c22 0 36 -39 36 -55
c0 -28 -12 -57 -33 -92c-43 -70 -88 -148 -88 -195c0 -13 4 -23 10 -23c32 0 77 61 125 142c41 67 76 150 119 210c6 10 14 14 24 14c21 0 32 -39 32 -54c0 -28 -13 -54 -37 -105c-30 -59 -63 -120 -96 -195c47 30 80 61 130 115c15 18 33 41 51 65c25 33 51 67 91 109
c48 50 88 67 129 67c31 0 59 -9 81 -39c13 -18 18 -39 18 -60c0 -22 -17 -58 -34 -81c-25 -35 -70 -82 -123 -118c15 -3 28 -9 39 -20h-1c15 -13 22 -25 27 -40c35 23 77 65 104 117c3 5 9 9 19 9c12 0 20 -6 20 -20c0 -12 -5 -36 -15 -55c-23 -39 -82 -74 -123 -93
c-1 -105 -106 -253 -169 -288c-10 -6 -21 -10 -33 -10c-15 0 -30 7 -46 25c-15 19 -34 43 -34 76c0 12 3 27 11 44c38 81 117 133 200 167c0 8 1 12 1 17c0 23 -6 33 -17 33c-23 0 -46 -6 -77 -27c-3 -4 -9 -5 -15 -5c-8 0 -16 2 -18 10c-3 10 -5 20 -5 26c0 31 12 50 43 68
c121 69 181 139 181 191c0 10 -4 21 -13 21c-38 0 -91 -35 -147 -101z" />
    <glyph glyph-name="hacyrillic_gecyrillic" unicode="&#x445;&#x433;" horiz-adv-x="740" 
d="M13 -2c0 30 24 65 62 106c23 26 54 51 88 80c-11 70 -23 158 -26 158c-8 1 -42 -35 -69 -97c-4 -6 -13 -11 -18 -11c-8 0 -16 2 -18 10c-2 5 -2 10 -2 16c0 10 4 27 9 40c19 44 72 93 122 93c48 0 64 -30 74 -75c5 -24 8 -36 12 -67c46 39 91 81 129 130c6 7 13 12 22 12
c11 0 17 -6 17 -18c0 -33 -21 -63 -56 -103c-23 -25 -50 -47 -77 -69l-25 -21l7 -52c3 -21 5 -38 8 -52c7 -35 14 -50 20 -50c36 0 100 106 153 195c17 28 33 55 48 78c46 70 84 94 139 94c48 0 86 -44 86 -83c0 -12 -2 -24 -9 -38c-8 -15 -26 -41 -46 -70
c-21 -29 -43 -59 -55 -89c-9 -22 -14 -41 -14 -57c0 -20 5 -34 18 -34c36 0 81 66 117 132c4 7 11 10 19 10c16 0 22 -18 22 -28c0 -13 -4 -30 -13 -48c-29 -54 -95 -108 -155 -108c-66 0 -98 34 -98 86c0 20 6 43 17 68c18 40 44 77 66 108c21 30 39 55 39 74
c0 14 -6 24 -13 24c-18 0 -36 -13 -74 -66c-18 -22 -32 -48 -50 -78c-10 -17 -29 -48 -43 -71c-58 -93 -105 -148 -170 -148c-51 0 -89 36 -101 122c0 3 0 4 -1 11c-41 -35 -82 -75 -119 -120c-4 -6 -15 -11 -24 -11c-10 0 -18 3 -18 17z" />
    <glyph glyph-name="yericyrillic_checyrillic" unicode="&#x44b;&#x447;" horiz-adv-x="836" 
d="M635 281c-68 -166 -142 -298 -249 -298c-59 0 -88 38 -88 87c0 19 6 40 15 66c9 30 31 67 54 106c-30 -24 -61 -45 -97 -64c1 -9 1 -23 1 -30c0 -77 -81 -167 -187 -167c-66 0 -101 41 -101 93c0 18 4 37 13 62c17 47 42 93 71 140c20 35 41 70 59 108v-1
c2 7 13 15 25 15c14 0 38 -39 38 -65c0 -31 -36 -92 -61 -138h-1c-12 -19 -14 -24 -16 -26c-15 -27 -41 -74 -41 -108c0 -22 9 -37 22 -37c36 0 90 59 90 119c0 9 0 19 -1 24c-17 3 -36 13 -36 31c0 9 7 32 23 50c17 19 41 33 62 33s31 -23 36 -51c57 31 117 97 147 135
c4 5 23 24 44 24c27 0 39 -52 39 -78c0 -13 -6 -25 -13 -39c-28 -48 -65 -116 -83 -162c-9 -22 -17 -44 -17 -60c0 -15 4 -25 11 -25c55 0 137 132 184 265c-20 10 -27 25 -27 44c0 53 65 126 99 127c22 0 30 -13 30 -35c0 -21 -8 -51 -20 -84c29 7 56 20 87 43h-1
c7 5 16 9 26 9c7 0 15 -2 19 -8c14 -11 28 -42 28 -68c0 -12 -5 -26 -16 -40c-44 -49 -92 -115 -109 -168c-4 -15 -7 -30 -7 -45c0 -24 7 -41 25 -41c34 0 78 63 107 130c3 6 11 11 18 11c20 0 21 -24 21 -34s-4 -29 -9 -43c-26 -57 -85 -104 -140 -104
c-69 0 -104 45 -104 103c0 15 2 34 8 54h-1c17 52 62 112 101 158c-27 -11 -56 -17 -78 -18z" />
    <glyph glyph-name="yericyrillic_gecyrillic" unicode="&#x44b;&#x433;" horiz-adv-x="856" 
d="M530 81c-43 -61 -93 -98 -144 -98c-59 0 -90 38 -90 87c0 20 8 41 17 66c12 34 32 70 53 106c-29 -24 -61 -45 -96 -64c1 -9 1 -23 1 -30c0 -77 -81 -167 -187 -167c-66 0 -101 41 -101 93c0 18 5 37 13 62c17 47 42 93 71 140c20 35 41 70 59 108v-1c2 7 13 15 26 15
s37 -39 37 -65c0 -31 -35 -92 -61 -138h-1c-12 -19 -13 -24 -15 -26c-16 -27 -41 -74 -41 -108c0 -22 8 -37 21 -37c36 0 90 59 90 119c0 9 0 19 -1 24c-17 3 -36 13 -36 31c0 9 8 32 23 50c17 19 41 33 62 33s31 -23 36 -51c57 31 117 97 147 135c4 5 23 24 44 24
c28 0 39 -52 39 -78c0 -13 -6 -25 -13 -39c-29 -51 -64 -115 -83 -162c-10 -23 -19 -46 -19 -60c0 -15 3 -25 9 -25c27 0 58 28 100 86c37 50 61 94 86 136c7 11 13 22 19 32c43 73 86 116 148 116c49 0 88 -44 88 -83c0 -12 -2 -24 -8 -38c-8 -15 -26 -41 -46 -70
c-21 -29 -43 -59 -55 -89c-9 -22 -15 -41 -15 -57c0 -20 6 -34 19 -34c36 0 81 66 117 132c4 7 11 10 19 10c16 0 22 -18 22 -28c0 -13 -4 -30 -14 -48c-28 -54 -94 -108 -154 -108c-66 0 -99 34 -99 86c0 20 6 43 18 68c18 40 44 77 65 108c22 30 40 55 40 74
c0 14 -6 22 -13 22c-25 0 -49 -26 -84 -81l-35 -56c-27 -42 -52 -85 -78 -122z" />
    <glyph glyph-name="yericyrillic_zecyrillic" unicode="&#x44b;&#x437;" horiz-adv-x="884" 
d="M584 -300c-15 0 -30 7 -45 25c-16 19 -35 43 -35 76c0 12 3 27 11 44c38 81 117 133 200 167v2c1 6 1 10 1 15c0 23 -6 33 -17 33c-23 0 -46 -6 -76 -27h1c-5 -4 -11 -5 -17 -5c-8 0 -16 2 -18 10l1 -1c-4 11 -6 21 -6 27c0 31 12 50 43 68c122 69 181 139 181 191
c0 10 -5 21 -17 21c-38 0 -88 -22 -154 -107c-25 -34 -50 -70 -84 -121c-48 -71 -100 -135 -169 -135c-54 0 -88 38 -88 87c0 20 8 41 17 66c13 34 32 70 54 106c-30 -24 -62 -45 -97 -64c1 -9 1 -23 1 -30c0 -77 -81 -167 -187 -167c-66 0 -101 41 -101 93c0 18 5 37 14 62
c16 47 42 93 70 140c20 35 41 70 59 108v-1c2 7 13 15 26 15s37 -39 37 -65c0 -31 -35 -92 -61 -138h-1c-11 -19 -13 -24 -15 -26c-16 -27 -41 -74 -41 -108c0 -22 9 -37 21 -37c36 0 90 59 90 119c0 9 0 19 -1 24c-16 3 -36 13 -36 31c0 9 8 32 23 50c17 19 41 33 62 33
s31 -23 36 -51c58 31 117 97 148 135c3 5 22 24 43 24c28 0 40 -52 40 -78c0 -13 -6 -25 -14 -39c-28 -51 -64 -115 -83 -162c-11 -24 -19 -47 -19 -62s3 -23 9 -23c33 0 77 59 117 118l32 50c25 41 58 94 94 138c47 53 98 67 137 67c30 0 63 -9 85 -39
c13 -18 19 -39 19 -60c0 -22 -18 -58 -35 -81c-25 -35 -70 -82 -123 -118c15 -3 28 -9 39 -20h-1c15 -13 22 -25 27 -40c35 23 72 65 99 117c3 5 9 9 19 9c13 0 20 -6 20 -20c0 -12 -4 -36 -15 -55c-23 -39 -77 -74 -118 -93c-1 -105 -106 -253 -169 -288
c-10 -6 -21 -10 -33 -10zM577 -222c0 -3 0 -11 -2 -12c22 2 94 106 130 192c-91 -59 -128 -142 -128 -180z" />
    <glyph glyph-name="iucyrillic_checyrillic" unicode="&#x44e;&#x447;" horiz-adv-x="833" 
d="M199 331c0 -19 -6 -45 -15 -62c-8 -17 -17 -34 -26 -50c23 5 43 10 63 15c4 10 8 20 15 30c22 45 98 131 175 131c31 0 45 -12 65 -37l15 -18c16 -17 35 -38 35 -77c0 -11 -1 -14 -3 -23c17 7 36 23 52 50c-17 10 -24 24 -24 42c0 53 66 126 100 127c21 0 30 -14 30 -35
c0 -22 -9 -54 -20 -84c28 7 56 21 86 43c8 6 17 9 25 9l19 -8c19 -13 29 -42 29 -68c0 -12 -6 -26 -17 -40c-43 -48 -91 -116 -108 -168c-5 -15 -8 -30 -8 -45c0 -24 8 -41 25 -41c34 0 78 64 108 130c2 6 10 12 17 12c19 0 23 -28 23 -39c0 -12 -2 -25 -9 -39v1
c-27 -59 -85 -105 -142 -105c-69 0 -104 46 -104 104c0 16 2 32 8 54h-1c16 50 62 111 101 158c-29 -13 -56 -18 -79 -19c-26 -42 -65 -72 -118 -78c-21 -83 -83 -182 -159 -208c-11 -4 -24 -6 -39 -6c-75 0 -124 67 -124 137c0 16 1 33 4 50c-23 -7 -47 -11 -73 -16
c-27 -54 -53 -106 -76 -158c-3 -6 -9 -12 -17 -12c-5 0 -11 3 -16 8c-10 10 -19 27 -19 53c0 14 4 36 13 61l15 36c-8 3 -10 9 -10 15c0 13 11 28 30 36c32 73 71 142 98 178v-1c6 9 13 14 23 14c24 0 33 -40 33 -57zM444 330c-5 0 -7 -18 -7 -27c0 -13 3 -24 8 -33
c1 10 1 20 1 29c0 8 0 31 -2 31zM272 80c0 -17 3 -44 20 -44c55 0 120 116 139 182c-31 19 -53 49 -60 78c-19 -20 -40 -46 -57 -76c-26 -47 -42 -104 -42 -140z" />
    <glyph glyph-name="iucyrillic_gecyrillic" unicode="&#x44e;&#x433;" horiz-adv-x="834" 
d="M199 331c0 -19 -7 -49 -15 -62c-8 -17 -17 -34 -26 -50c23 5 43 10 63 15c4 10 8 20 15 30h-1c33 58 99 131 176 131c31 0 45 -12 65 -37h-1l16 -18c16 -17 35 -38 35 -77c0 -7 -1 -13 -2 -20c-1 -4 -1 1 -1 -4c19 8 43 31 64 59c56 70 82 97 135 97c49 0 88 -44 88 -83
c0 -12 -2 -24 -9 -38c-8 -15 -25 -41 -46 -70c-20 -29 -43 -59 -55 -89c-8 -22 -14 -41 -14 -57c0 -20 6 -34 18 -34c36 0 81 66 118 132c3 7 10 10 18 10c17 0 23 -18 23 -28c0 -13 -4 -30 -14 -48c-28 -54 -95 -108 -154 -108c-67 0 -99 34 -99 86c0 20 6 43 17 68
c18 40 44 77 66 108c21 30 39 55 39 74c0 14 -3 22 -9 22c-13 0 -32 -14 -70 -59c-35 -40 -63 -78 -123 -81c-21 -83 -83 -181 -159 -207c-8 -4 -24 -6 -39 -6c-75 0 -124 67 -124 137c0 16 1 33 4 50c-23 -7 -47 -11 -73 -16c-27 -54 -53 -106 -76 -158
c-3 -6 -9 -12 -17 -12c-5 0 -11 3 -16 8c-10 10 -19 27 -19 53c0 14 4 36 13 61l15 36c-8 3 -10 9 -10 15c0 13 11 28 30 36c32 73 71 142 98 178v-1c6 9 13 14 23 14c24 0 33 -40 33 -57zM444 330c-5 0 -7 -18 -7 -27c0 -13 3 -24 8 -33c1 10 2 20 2 29c0 8 0 31 -3 31z
M272 80c0 -17 3 -44 20 -44c55 0 120 116 139 182c-31 19 -53 49 -60 78c-19 -20 -40 -46 -57 -76c-26 -47 -42 -104 -42 -140z" />
    <glyph glyph-name="iacyrillic_checyrillic" unicode="&#x44f;&#x447;" horiz-adv-x="743" 
d="M189 197c25 0 58 25 86 81c10 20 12 33 12 49c0 13 -5 23 -12 23c-24 0 -53 -15 -83 -56c-23 -30 -27 -55 -27 -72c0 -14 7 -25 24 -25zM771 131c0 -12 -2 -26 -10 -43c-24 -59 -84 -104 -139 -104c-70 0 -105 45 -105 103c0 15 2 34 9 54h-1c17 52 61 112 101 158
c-28 -11 -56 -17 -79 -18c-68 -170 -153 -299 -254 -299c-56 0 -84 30 -84 82c0 14 4 30 10 47c-33 -42 -67 -75 -102 -100c-26 -19 -53 -27 -76 -27c-25 0 -66 17 -66 60c0 49 16 78 25 97c16 34 43 40 60 40c23 0 30 -10 30 -16c0 -2 -1 -5 -5 -11
c-7 -18 -32 -64 -32 -103c0 -10 0 -17 1 -17c4 0 23 13 42 28c25 20 47 40 90 91c-8 -1 -15 0 -20 0c-64 0 -89 53 -89 92c0 24 10 66 39 96c43 45 85 65 147 65c32 0 62 -18 74 -44c8 14 14 21 22 29c6 5 16 8 21 8c24 0 33 -44 33 -59c0 -25 -10 -47 -30 -84l-12 -26
c-17 -32 -36 -65 -47 -95c-10 -23 -26 -61 -26 -83c0 -16 3 -24 9 -24c56 0 138 132 184 262c-21 10 -28 25 -28 44c0 53 66 126 100 127c21 0 29 -13 29 -35c0 -21 -8 -51 -19 -84c28 7 55 20 87 43c9 4 14 9 24 9c8 0 16 -2 20 -8c9 -12 28 -42 28 -68
c0 -12 -6 -26 -17 -40c-44 -49 -91 -115 -108 -168c-5 -15 -8 -30 -8 -45c0 -24 8 -41 26 -41c34 0 78 63 107 130c3 6 11 11 18 11c19 0 21 -24 21 -34z" />
    <glyph glyph-name="iacyrillic_gecyrillic" unicode="&#x44f;&#x433;" horiz-adv-x="761" 
d="M189 197c25 0 58 25 86 81c10 20 12 33 12 49c0 13 -5 23 -12 23c-24 0 -53 -15 -83 -56c-22 -30 -27 -55 -27 -72c0 -14 8 -25 24 -25zM472 131c-53 -92 -96 -149 -173 -149c-67 0 -88 32 -88 84c0 14 3 31 10 47c-34 -42 -69 -76 -104 -102c-26 -19 -53 -27 -76 -27
c-25 0 -66 17 -66 60c0 49 16 78 25 97c16 34 43 40 60 40c23 0 30 -10 30 -16c0 -2 -1 -5 -4 -11c-3 -22 -33 -64 -33 -103c0 -10 0 -17 1 -17c4 0 23 13 42 28c25 20 47 40 90 91c-8 -1 -14 0 -20 0c-64 0 -89 53 -89 92c0 24 11 66 39 96c43 45 85 65 147 65
c33 0 62 -18 75 -44c7 14 13 21 21 29c6 5 16 8 22 8c23 0 32 -44 32 -59c0 -25 -10 -47 -30 -84l-12 -26c-17 -32 -35 -65 -47 -95c-10 -23 -24 -58 -24 -79c0 -20 3 -30 8 -30c49 0 108 106 158 199l45 76c47 74 82 94 137 94c49 0 90 -44 90 -83c0 -12 -2 -24 -9 -38
c-8 -15 -25 -41 -46 -70c-20 -29 -43 -59 -54 -89c-9 -22 -15 -41 -15 -57c0 -20 6 -34 18 -34c37 0 82 66 118 132c4 7 10 10 18 10c17 0 23 -18 23 -28c0 -13 -4 -30 -14 -48c-28 -54 -95 -108 -154 -108c-67 0 -99 34 -99 86c0 20 6 43 18 68c17 40 44 77 65 108
c22 30 39 55 39 74c0 14 -9 24 -16 24c-18 0 -39 -15 -73 -63c-10 -14 -25 -43 -44 -77z" />
    <glyph glyph-name="iacyrillic_zecyrillic" unicode="&#x44f;&#x437;" horiz-adv-x="780" 
d="M189 197c26 0 58 25 86 81c10 20 12 33 12 49c0 13 -5 23 -12 23c-24 0 -52 -15 -83 -56c-22 -30 -27 -55 -27 -72c0 -14 8 -25 24 -25zM496 -300c-16 0 -30 7 -46 25c-16 19 -34 43 -34 76c0 12 3 27 11 44c38 81 117 133 200 167c1 5 1 12 1 17c0 23 -6 33 -18 33
c-22 0 -46 -6 -76 -27h1c-5 -4 -11 -5 -17 -5c-7 0 -15 2 -17 10l1 -1c-4 11 -6 21 -6 27c0 31 12 50 43 68c121 69 181 139 181 191c0 10 -5 21 -17 21c-34 0 -83 -22 -150 -111c-28 -35 -56 -72 -93 -125c-58 -84 -99 -128 -162 -128c-62 0 -87 32 -87 84c0 14 4 31 11 47
c-35 -42 -70 -76 -105 -102c-25 -19 -53 -27 -76 -27c-25 0 -66 17 -66 60c0 49 16 78 25 97c16 34 43 40 60 40c23 0 31 -10 31 -16c0 -2 -1 -5 -5 -11h1c-14 -23 -33 -64 -33 -103c0 -10 0 -17 1 -17c3 0 22 13 42 28c24 20 46 40 89 91c-7 -1 -14 0 -20 0
c-64 0 -89 53 -89 92c0 24 11 66 39 96c43 45 85 65 148 65c32 0 61 -18 74 -44c8 14 13 21 21 29c6 5 16 8 22 8c23 0 32 -44 32 -59c0 -25 -10 -47 -29 -84l-13 -26c-17 -32 -35 -65 -47 -95c-10 -23 -23 -58 -23 -79c0 -20 4 -30 8 -30c27 0 64 46 108 111l30 46
c29 45 65 100 102 144c48 53 95 71 129 71c41 0 67 -9 88 -39c13 -18 19 -39 19 -60c0 -22 -18 -58 -34 -81c-26 -35 -70 -82 -123 -118c14 -3 27 -9 39 -20h-1c15 -13 21 -25 26 -40c35 23 73 65 100 117c3 5 9 9 18 9c13 0 21 -6 21 -20c0 -12 -5 -36 -16 -55
c-22 -39 -77 -74 -118 -93c-1 -105 -105 -253 -169 -288c-10 -6 -20 -10 -32 -10zM487 -222c0 -3 -1 -9 -1 -12c23 2 95 106 130 192c-91 -59 -123 -140 -129 -180z" />
    <glyph glyph-name="ecyrillic_checyrillic" unicode="&#x454;&#x447;" horiz-adv-x="649" 
d="M529 -16c-69 0 -104 45 -104 103c0 15 2 34 9 54h-1c16 52 61 112 100 158c-27 -11 -55 -17 -78 -18c-66 -154 -198 -264 -307 -291c-2 0 -5 -1 -7 -2c-8 -2 -17 -3 -27 -3c-32 0 -70 14 -98 51c-13 17 -19 36 -19 54c0 20 7 42 16 64c3 9 10 13 21 13
c18 0 48 -21 48 -56c0 -10 -2 -19 -4 -29s-5 -21 -5 -30c0 -11 6 -17 15 -17c26 0 69 39 105 106c0 1 3 4 10 18c-11 -1 -26 -2 -43 -2c-24 0 -46 7 -58 18c-18 15 -25 35 -25 45c0 9 6 12 22 12c11 0 15 -1 19 -1c33 0 74 2 101 7c5 1 9 2 14 2v3c5 25 9 44 9 59
c0 25 -12 34 -36 34c-39 0 -69 -22 -100 -46c-16 -13 -31 -18 -41 -18c-18 0 -25 10 -25 22c0 8 3 18 9 27c16 27 91 72 150 72c36 0 51 -8 72 -37c4 -6 9 -12 15 -17c18 -19 33 -33 33 -75c0 -13 -1 -37 -6 -62c-7 -28 -18 -56 -34 -86c49 48 94 111 120 174
c-21 10 -28 25 -28 44c0 53 66 126 100 127c21 0 29 -13 29 -35c0 -21 -8 -51 -19 -84c28 7 55 20 86 43c6 5 15 9 25 9c8 0 16 -2 19 -8h-1c13 -15 30 -42 30 -68c0 -12 -6 -26 -17 -40c-44 -49 -92 -115 -108 -168c-5 -15 -8 -30 -8 -45c0 -24 8 -41 25 -41
c35 0 78 63 108 130c3 6 10 11 17 11c20 0 22 -24 22 -34s-5 -29 -10 -43c-25 -57 -85 -104 -140 -104z" />
    <glyph glyph-name="ecyrillic_vecyrillic" unicode="&#x454;&#x432;" horiz-adv-x="707" 
d="M706 618c0 2 0 8 1 9c-24 -2 -104 -131 -171 -263c94 88 170 192 170 254zM599 295c0 25 -4 42 -14 42c-22 0 -65 -41 -103 -95c-34 -48 -55 -108 -55 -155c0 -32 8 -50 20 -50c66 0 152 157 152 258zM204 159c-12 -1 -27 -2 -43 -2c-25 0 -46 7 -59 18
c-17 15 -24 35 -24 45c0 9 6 12 21 12h9c3 0 7 -1 11 -1c33 0 73 4 100 7c9 1 11 1 15 2c5 19 9 47 9 62c0 25 -13 34 -36 34c-39 0 -70 -22 -101 -46c-16 -13 -30 -18 -41 -18c-18 0 -24 10 -24 22c0 8 3 18 8 27c16 27 91 72 151 72c36 0 51 -8 71 -37c5 -6 10 -12 16 -17
c17 -19 33 -33 33 -75c0 -14 -1 -38 -7 -63c-5 -16 -11 -35 -18 -53l70 64c18 55 54 125 105 220c69 124 132 220 200 257h-1c5 4 16 6 22 6c18 0 39 -11 51 -29c17 -26 22 -45 22 -76c0 -68 -79 -149 -144 -206c38 -11 65 -64 65 -115c0 -43 -12 -85 -35 -130
c-59 -113 -122 -154 -185 -154s-116 58 -116 144v11c-67 -63 -142 -120 -171 -136c-8 -5 -19 -10 -27 -13c-10 -3 -21 -6 -36 -6c-32 0 -70 14 -99 51c-12 17 -18 36 -18 54c0 20 7 42 15 64c3 9 10 13 22 13c17 0 48 -21 48 -56c0 -10 -2 -19 -4 -29s-5 -21 -5 -30
c0 -11 6 -17 14 -17c27 0 70 39 106 106c0 1 3 4 10 18z" />
    <glyph glyph-name="icyrillic_checyrillic" unicode="&#x456;&#x447;" horiz-adv-x="539" 
d="M165 479c22 24 59 11 75 -22c13 -27 4 -57 -8 -71c-17 -21 -55 -19 -73 15c-7 13 -10 26 -10 37c0 16 6 30 16 41zM362 460c21 0 29 -12 29 -33c0 -22 -8 -54 -21 -87c29 7 52 19 87 43c18 12 33 17 45 2c16 -21 29 -41 29 -67c0 -12 -6 -26 -17 -40
c-44 -50 -92 -118 -108 -169c-5 -15 -8 -30 -8 -45c0 -25 8 -42 22 -42c35 0 91 62 122 132c8 20 24 21 34 0c5 -11 7 -37 -5 -67c-25 -61 -99 -103 -158 -103c-63 0 -98 43 -98 101c0 16 3 34 10 55c23 59 59 112 99 159c-28 -13 -55 -18 -78 -19
c-72 -164 -174 -295 -284 -295c-54 0 -79 38 -79 87c0 18 4 40 11 64c30 92 107 211 127 239c14 19 26 21 40 6c10 -11 16 -27 16 -49c0 -33 -23 -85 -49 -129c-30 -51 -64 -119 -64 -154c0 -15 7 -23 14 -23c43 0 157 117 210 263c-20 10 -27 26 -27 44
c0 51 66 127 101 127z" />
    <glyph glyph-name="icyrillic_hacyrillic" unicode="&#x456;&#x445;" horiz-adv-x="484" 
d="M167 479c25 17 59 9 72 -23c5 -12 7 -22 7 -30c0 -17 -6 -30 -15 -40c-18 -21 -53 -18 -72 15c-7 12 -11 27 -11 38c0 15 5 31 19 40zM270 376c35 -7 60 -23 68 -86c2 -18 4 -38 5 -59c49 51 94 107 127 153c17 23 41 23 39 -8c-1 -25 -17 -52 -38 -82
c-21 -27 -68 -80 -122 -134c2 -31 4 -62 6 -84c5 -36 12 -47 20 -47c27 0 84 70 110 127c11 23 28 18 35 -2c5 -14 6 -40 -13 -70c-35 -57 -99 -100 -153 -100c-53 0 -82 30 -91 98c-66 -54 -139 -98 -192 -98c-61 0 -89 36 -89 87c0 20 4 41 11 64c25 76 107 212 128 240
c14 20 25 23 41 6c12 -14 17 -28 17 -51c0 -18 -4 -40 -15 -62c-16 -38 -67 -116 -87 -162c-9 -22 -14 -42 -14 -56c0 -17 5 -26 16 -25c36 2 107 54 179 121c-5 70 -12 159 -21 208c-4 19 13 25 33 22z" />
    <glyph glyph-name=".notdef" horiz-adv-x="604" 
d="M49 0v702h501v-702h-501zM99 658v-618h403v618h-403z" />
    <glyph glyph-name="Eth" unicode="&#xd0;" horiz-adv-x="483" 
d="M106 -14c-32 0 -51 17 -76 49c-18 24 -26 38 -26 54c0 17 5 36 14 64c11 34 30 77 52 122c-41 6 -60 28 -67 56c-2 11 7 21 22 21c25 -1 57 0 87 3c27 49 56 97 83 139c-36 5 -54 29 -60 44c-5 15 -3 23 18 26c32 4 62 16 93 30c29 13 57 23 91 29c68 11 117 -21 158 -89
c15 -25 23 -65 23 -100c0 -161 -159 -368 -379 -442c-12 -4 -22 -6 -33 -6zM83 65c0 -9 5 -11 15 -7c221 84 344 293 344 412c0 24 -4 42 -12 55c-10 16 -25 22 -37 22c-31 0 -89 -31 -120 -42c3 -25 -5 -62 -28 -103c-9 -15 -18 -30 -26 -44c38 -6 54 -29 60 -54
c2 -13 -2 -23 -22 -21c-30 3 -57 1 -82 -2c-42 -75 -73 -138 -87 -187c-4 -14 -5 -22 -5 -29z" />
    <glyph glyph-name="eth" unicode="&#xf0;" horiz-adv-x="351" 
d="M399 589c18 0 32 -4 42 -11c14 -9 13 -21 0 -28c-11 -6 -30 -16 -65 -37c4 -20 6 -40 6 -64c0 -93 -43 -250 -105 -350c-36 -61 -93 -114 -154 -114c-33 0 -71 14 -99 51c-18 25 -27 55 -27 87c0 44 15 93 42 140c38 68 101 130 164 130c41 0 66 -21 78 -39
c11 42 16 83 17 119c-16 -7 -30 -11 -44 -11c-11 0 -22 1 -29 5c-13 7 -15 14 -1 26c16 13 39 29 67 47c-9 36 -26 64 -51 80c-12 8 -6 16 7 20c14 5 36 5 52 -4c25 -16 42 -34 55 -59c14 7 29 12 45 12zM75 78c0 -30 9 -42 22 -42c26 0 68 37 105 106c33 62 49 122 49 158
c0 14 -2 26 -10 30c-21 11 -81 -34 -124 -111c-26 -48 -42 -104 -42 -141z" />
    <glyph glyph-name="Lslash" unicode="&#x141;" horiz-adv-x="353" 
d="M70 -15c-29 -7 -42 -7 -56 13c-10 14 -23 32 -27 43c-7 18 -7 34 3 61c13 34 35 81 62 133c-14 -5 -25 -6 -36 -6c-31 0 -52 14 -64 35c-6 10 -9 19 13 26c42 12 94 34 145 57c59 109 122 216 155 261c16 22 28 15 38 -3c5 -10 9 -25 9 -41c0 -25 -9 -60 -34 -104
c-10 -19 -21 -38 -31 -56c21 8 32 10 47 10c32 0 52 -14 63 -35c5 -10 4 -22 -15 -26c-39 -9 -100 -34 -156 -60c-44 -80 -81 -150 -115 -221c49 12 97 19 133 22c55 4 84 -17 97 -48c5 -12 3 -22 -20 -22c-47 1 -154 -24 -211 -39z" />
    <glyph glyph-name="lslash" unicode="&#x142;" horiz-adv-x="230" 
d="M94 -13c-61 0 -99 35 -99 104c0 17 2 37 7 57c1 2 1 5 2 7c-9 -2 -18 -3 -27 -3c-31 0 -52 14 -63 35c-5 9 -6 21 12 26c33 9 70 24 110 41c52 134 139 267 216 348c19 19 37 25 56 7c22 -19 33 -47 33 -73c0 -14 -1 -25 -6 -42c-14 -55 -45 -109 -83 -158
c33 0 52 -14 64 -35c7 -11 4 -22 -15 -26c-53 -11 -161 -64 -194 -77c-20 -51 -33 -96 -33 -131c0 -24 6 -41 19 -41c46 0 104 67 142 139c13 25 35 25 42 -1c4 -15 3 -38 -10 -65c-15 -30 -89 -112 -173 -112zM221 415c-18 -31 -45 -76 -62 -107c7 3 14 6 20 8
c27 31 49 62 65 90c34 57 47 101 41 105c-4 2 -30 -37 -64 -96z" />
    <glyph glyph-name="Scaron" unicode="&#x160;" horiz-adv-x="444" 
d="M401 740c23 5 43 -2 61 -21c5 -6 10 -12 14 -17c17 11 36 23 51 30c22 11 46 13 58 9c16 -5 18 -15 7 -23c-56 -40 -126 -88 -142 -88c-11 0 -20 11 -24 18c-11 19 -29 54 -38 68c-8 12 -3 20 13 24zM-40 111c-14 17 -7 28 7 33c8 2 19 3 31 3c29 0 57 -8 78 -25
c39 -32 105 -82 163 -82c22 0 42 5 53 16c15 15 10 33 -1 42c-72 56 -211 110 -211 212c0 136 156 255 246 293c33 14 54 17 77 17c24 0 44 -7 61 -21c28 -26 46 -59 53 -86c10 -41 -15 -81 -30 -103c-24 -32 -53 -84 -67 -108c-9 -16 -20 -24 -39 -4c-14 14 -24 31 -24 54
c0 22 13 60 46 104c25 37 52 81 38 91c-37 27 -256 -120 -261 -235c-3 -66 134 -123 173 -151c19 -14 30 -32 30 -51c0 -23 -13 -49 -39 -80c-26 -30 -75 -51 -135 -51c-73 0 -170 41 -249 132z" />
    <glyph glyph-name="scaron" unicode="&#x161;" horiz-adv-x="302" 
d="M190 569c23 5 43 -2 61 -21c5 -6 10 -12 14 -17c17 11 36 23 51 30c22 11 46 13 58 9c16 -5 18 -15 7 -23c-56 -40 -126 -88 -142 -88c-11 0 -20 11 -24 18c-11 19 -29 54 -38 68c-8 12 -3 20 13 24zM115 31c21 0 30 50 30 115c0 32 -1 64 -3 91
c-24 -38 -52 -81 -82 -124c12 -47 33 -82 55 -82zM-22 127c0 30 10 59 32 78c20 17 35 12 38 -12c33 47 68 99 94 142c4 36 16 59 39 78c16 14 34 21 49 21c27 0 33 -22 2 -73c-1 -12 -2 -29 -2 -42c0 -71 13 -136 11 -190c-1 -25 -6 -53 -17 -75c41 28 69 61 87 110
c9 23 24 16 31 0c5 -10 8 -38 -10 -69c-38 -70 -108 -108 -183 -111c-60 -2 -120 14 -154 77c-11 19 -17 43 -17 66z" />
    <glyph glyph-name="Yacute" unicode="&#xdd;" horiz-adv-x="379" 
d="M391 736c18 0 34 -5 45 -11c13 -8 15 -17 -1 -25l-38 -19c-29 -15 -60 -30 -77 -35c-23 -7 -46 -6 -59 0c-14 7 -16 14 0 25c25 18 67 45 95 57c13 6 25 8 35 8zM181 196c-37 -73 -71 -145 -91 -202c-7 -19 -17 -24 -32 -11c-13 11 -24 36 -24 61c0 15 2 32 7 49
c11 33 33 85 61 142c2 118 9 272 28 364c5 24 15 26 31 17c24 -15 48 -56 46 -121c-2 -55 -10 -96 -14 -168c90 97 212 215 289 285c18 17 32 14 36 -2c7 -30 0 -81 -60 -140c-115 -109 -187 -177 -277 -274z" />
    <glyph glyph-name="yacute" unicode="&#xfd;" horiz-adv-x="375" 
d="M329 517c18 0 34 -5 45 -11c13 -8 15 -17 -1 -25l-38 -19c-29 -15 -60 -30 -77 -35c-23 -7 -46 -6 -59 0c-14 7 -16 14 0 25c25 18 67 45 95 57c13 6 25 8 35 8zM402 166c5 -16 3 -42 -14 -68c-40 -61 -106 -98 -188 -132c-55 -132 -123 -292 -210 -325
c-23 -9 -44 -9 -68 23c-15 21 -30 51 -30 83c0 12 3 29 9 47c31 86 112 147 209 186l15 35c-26 -19 -52 -28 -82 -28c-50 0 -72 38 -72 80c0 21 4 45 13 70c23 63 72 164 134 249c13 17 28 18 39 2c10 -14 19 -32 19 -48c0 -25 -12 -54 -35 -91c-34 -54 -55 -95 -74 -142
c-14 -36 -23 -76 3 -76s71 59 120 142c67 113 94 174 118 210c14 18 27 20 38 9c15 -15 19 -30 19 -51c0 -20 -5 -42 -18 -67c-29 -56 -81 -153 -122 -248c61 37 113 88 145 133c13 18 28 20 32 7zM84 -85c-48 -33 -82 -76 -103 -115c-25 -47 -32 -88 -22 -97
c7 -6 28 23 56 72c21 37 45 86 69 140z" />
    <glyph glyph-name="Thorn" unicode="&#xde;" horiz-adv-x="459" 
d="M372 454c-26 0 -70 -13 -116 -30c-31 -54 -63 -113 -103 -185c170 16 273 134 251 196c-4 11 -19 19 -32 19zM185 493c29 50 58 93 80 126c16 23 33 20 43 -1c6 -10 8 -23 8 -39c0 -14 -1 -29 -8 -50c9 2 20 4 30 4c55 3 102 -19 128 -86c6 -16 10 -36 10 -52
c0 -122 -158 -223 -320 -239c-14 -1 -32 0 -44 4c-27 -54 -55 -109 -78 -160c-7 -15 -20 -20 -34 -4c-10 11 -18 28 -18 52c0 15 4 39 13 63c29 78 87 199 144 302c-22 8 -34 22 -42 39c-7 15 -1 25 19 26s37 6 69 15z" />
    <glyph glyph-name="thorn" unicode="&#xfe;" horiz-adv-x="389" 
d="M149 235l-32 -54c-12 -32 -20 -62 -20 -89c0 -20 5 -41 15 -47c24 -14 83 55 124 138c24 47 36 98 36 131c0 18 -2 33 -11 33c-16 0 -69 -39 -112 -112zM-118 -100c48 141 271 543 383 710c16 23 32 20 42 -1c5 -10 9 -24 9 -40c0 -28 -10 -66 -38 -115
c-15 -26 -21 -36 -44 -70c12 4 23 6 35 6c22 0 41 -9 58 -26c21 -23 30 -51 30 -80c0 -43 -16 -94 -39 -142c-24 -55 -54 -97 -86 -123c71 17 129 79 157 136c12 25 35 18 39 -2c2 -10 3 -38 -14 -68c-45 -81 -140 -108 -216 -108c-52 0 -89 10 -119 39
c-16 14 -25 25 -30 41c-44 -82 -87 -168 -129 -266c-8 -18 -20 -29 -35 -4c-8 14 -15 27 -15 48c0 16 4 41 12 65z" />
    <glyph glyph-name="CR" unicode="&#xd;" horiz-adv-x="220" 
 />
    <glyph glyph-name="Zcaron" unicode="&#x17d;" horiz-adv-x="441" 
d="M339 740c23 5 43 -2 61 -21c5 -6 10 -12 14 -17c17 11 36 23 51 30c22 11 46 13 58 9c16 -5 18 -15 7 -23c-56 -40 -126 -88 -142 -88c-11 0 -20 11 -24 18c-11 19 -29 54 -38 68c-8 12 -3 20 13 24zM544 531c7 -21 -3 -35 -27 -52c-137 -100 -324 -277 -440 -412
c47 11 108 23 151 27c52 4 84 -16 98 -46c5 -13 2 -22 -20 -22c-60 0 -160 -22 -243 -45c-29 -8 -43 5 -72 57c-10 19 -10 34 6 58c75 112 302 330 450 440c-40 -7 -92 -20 -125 -24c-72 -8 -103 19 -115 54c-5 14 -4 23 15 23c92 -2 195 28 239 28c21 0 39 -5 50 -20
c13 -18 25 -43 33 -66z" />
    <glyph glyph-name="zcaron" unicode="&#x17e;" horiz-adv-x="353" 
d="M185 529c23 5 43 -2 61 -21c5 -6 10 -12 14 -17c17 11 36 23 51 30c22 11 46 13 58 9c16 -5 18 -15 7 -23c-56 -40 -126 -88 -142 -88c-11 0 -20 11 -24 18c-11 19 -29 54 -38 68c-8 12 -3 20 13 24zM-18 -199c0 12 3 27 10 44c38 82 118 133 200 167c6 29 0 50 -26 50
c-22 0 -55 -11 -86 -31c-12 -9 -26 -11 -32 4c-15 43 11 78 47 99c138 81 204 173 179 204c-22 27 -145 -44 -217 -130c-14 -16 -29 -12 -34 6c-9 34 5 73 43 110c45 43 114 75 172 75c34 0 63 -11 83 -40c12 -17 20 -40 20 -60c0 -22 -8 -49 -24 -75
c-24 -39 -76 -87 -131 -123c37 -4 62 -32 72 -61c35 23 72 65 100 117c8 15 27 18 35 4c8 -13 2 -44 -12 -70c-22 -39 -77 -74 -118 -93c-1 -105 -105 -253 -169 -288c-10 -6 -20 -10 -32 -10c-16 0 -30 7 -46 25c-16 19 -34 43 -34 76zM179 -41c-47 -29 -85 -70 -105 -98
c-37 -52 -33 -96 -14 -96c12 0 37 31 62 71c22 36 42 80 57 123z" />
    <glyph glyph-name="onehalf" unicode="&#xbd;" horiz-adv-x="530" 
d="M71 100c56 90 284 356 407 485c14 15 25 22 32 22c8 0 12 -8 14 -21c5 -35 -18 -73 -54 -114c-106 -124 -292 -334 -388 -468c-13 -18 -27 -20 -35 3c-7 21 -1 52 24 93zM90 294c0 9 2 22 7 35c10 30 55 118 95 185c-37 0 -29 16 -19 24c12 10 28 26 59 59
c10 10 20 12 30 1c16 -16 24 -34 24 -51c0 -13 -4 -26 -11 -39c-9 -17 -22 -38 -35 -61c-32 -54 -70 -121 -100 -195c-4 -11 -16 -14 -28 -5c-14 11 -22 27 -22 47zM461 298c-7 0 -15 -12 -38 -51c-17 -27 -43 -37 -64 -37c-22 0 -35 12 -30 24c12 31 42 70 68 92
c15 12 38 22 60 22c18 0 35 -7 48 -17c19 -16 28 -37 28 -56c0 -18 -5 -37 -15 -55c-23 -44 -88 -107 -164 -155c9 1 18 1 26 1c34 0 51 -12 60 -38c4 -12 -2 -16 -15 -16c-34 0 -99 -9 -138 -20c-19 -6 -28 -4 -37 6c-7 6 -19 26 -21 34c-2 12 1 22 14 29
c137 77 223 175 223 229c0 5 -1 8 -5 8z" />
    <glyph glyph-name="onequarter" unicode="&#xbc;" horiz-adv-x="540" 
d="M71 100c56 90 284 356 407 485c14 15 25 22 32 22c8 0 12 -8 14 -21c5 -35 -18 -73 -54 -114c-106 -124 -292 -334 -388 -468c-13 -18 -27 -20 -35 3c-7 21 -1 52 24 93zM90 294c0 9 2 22 7 35c10 30 55 118 95 185c-37 0 -29 16 -19 24c12 10 28 26 59 59
c10 10 20 12 30 1c16 -16 24 -34 24 -51c0 -13 -4 -26 -11 -39c-9 -17 -22 -38 -35 -61c-32 -54 -70 -121 -100 -195c-4 -11 -16 -14 -28 -5c-14 11 -22 27 -22 47zM401 169c19 39 21 48 48 86c-40 -30 -82 -64 -117 -97c22 5 47 9 69 11zM399 -5c-4 -11 -17 -15 -29 -5
c-13 11 -21 27 -21 45c0 21 2 30 22 74c-19 -3 -37 -7 -70 -13c-13 -3 -26 -4 -36 10c-5 7 -10 16 -15 26c-3 7 -2 14 4 23c44 52 156 143 225 187c24 14 32 9 41 -3c7 -9 16 -29 19 -38c5 -14 7 -26 -6 -45c-18 -30 -41 -67 -63 -109c7 -8 10 -15 11 -19
c2 -14 -5 -16 -27 -13c-21 -41 -42 -86 -55 -120z" />
    <glyph glyph-name="onesuperior" unicode="&#xb9;" horiz-adv-x="156" 
d="M65 294c0 9 2 22 7 35c10 30 55 118 95 185c-37 0 -29 16 -19 24c12 10 28 26 59 59c10 10 20 12 30 1c16 -16 24 -34 24 -51c0 -13 -4 -26 -11 -39c-9 -17 -22 -38 -35 -61c-32 -54 -70 -121 -100 -195c-4 -11 -16 -14 -28 -5c-14 11 -22 27 -22 47z" />
    <glyph glyph-name="threequarters" unicode="&#xbe;" horiz-adv-x="620" 
d="M150 100c56 90 284 356 407 485c14 15 25 22 32 22c8 0 12 -8 14 -21c5 -35 -18 -73 -54 -114c-106 -124 -292 -334 -388 -468c-13 -18 -27 -20 -35 3c-7 21 -1 52 24 93zM327 589c16 -16 24 -32 24 -49c0 -35 -30 -76 -81 -99c20 -10 30 -28 30 -50
c0 -23 -17 -62 -41 -92c-31 -37 -73 -53 -111 -53c-19 0 -38 5 -51 13c-22 14 -36 38 -36 62c0 7 3 20 7 30c9 23 31 43 64 43c20 0 24 -10 17 -19c-26 -35 -32 -71 -18 -78c10 -6 37 2 67 42c16 22 25 47 25 63c0 10 -2 14 -5 14c-2 0 -10 -3 -23 -3c-16 0 -31 5 -39 21
c-5 9 -1 16 12 20c70 23 117 67 117 99c0 6 -2 8 -4 8c-4 0 -12 -7 -32 -34c-25 -31 -60 -34 -81 -26c-10 4 -14 11 -9 21c17 32 45 62 77 77c12 6 25 9 39 9c21 0 40 -7 52 -19zM480 169c19 39 21 48 48 86c-40 -30 -82 -64 -117 -97c22 5 47 9 69 11zM478 -5
c-4 -11 -17 -15 -29 -5c-13 11 -21 27 -21 45c0 21 2 30 22 74c-19 -3 -37 -7 -70 -13c-13 -3 -26 -4 -36 10c-5 7 -10 16 -15 26c-3 7 -2 14 4 23c44 52 156 143 225 187c24 14 32 9 41 -3c7 -9 16 -29 19 -38c5 -14 7 -26 -6 -45c-18 -30 -41 -67 -63 -109
c7 -8 10 -15 11 -19c2 -14 -5 -16 -27 -13c-21 -41 -42 -86 -55 -120z" />
    <glyph glyph-name="threesuperior" unicode="&#xb3;" horiz-adv-x="238" 
d="M321 589c16 -16 24 -32 24 -49c0 -35 -30 -76 -81 -99c20 -10 30 -28 30 -50c0 -23 -17 -62 -41 -92c-31 -37 -73 -53 -111 -53c-19 0 -38 5 -51 13c-22 14 -36 38 -36 62c0 7 3 20 7 30c9 23 31 43 64 43c20 0 24 -10 17 -19c-26 -35 -32 -71 -18 -78c10 -6 37 2 67 42
c16 22 25 47 25 63c0 10 -2 14 -5 14c-2 0 -10 -3 -23 -3c-16 0 -31 5 -39 21c-5 9 -1 16 12 20c70 23 117 67 117 99c0 6 -2 8 -4 8c-4 0 -12 -7 -32 -34c-25 -31 -60 -34 -81 -26c-10 4 -14 11 -9 21c17 32 45 62 77 77c12 6 25 9 39 9c21 0 40 -7 52 -19z" />
    <glyph glyph-name="twosuperior" unicode="&#xb2;" horiz-adv-x="260" 
d="M284 558c-7 0 -15 -12 -38 -51c-17 -27 -43 -37 -64 -37c-22 0 -35 12 -30 24c12 31 42 70 68 92c15 12 38 22 60 22c18 0 35 -7 48 -17c19 -16 28 -37 28 -56c0 -18 -5 -37 -15 -55c-23 -44 -88 -107 -164 -155c9 1 18 1 26 1c34 0 51 -12 60 -38c4 -12 -2 -16 -15 -16
c-34 0 -99 -9 -138 -20c-19 -6 -28 -4 -37 6c-7 6 -19 26 -21 34c-2 12 1 22 14 29c137 77 223 175 223 229c0 5 -1 8 -5 8z" />
    <glyph glyph-name="brokenbar" unicode="&#xa6;" horiz-adv-x="224" 
d="M191 469c14 31 86 147 105 173c16 23 34 20 43 -2c5 -10 8 -22 8 -34c0 -29 -11 -67 -41 -118c-16 -27 -53 -96 -66 -126c-9 -21 -17 -33 -35 -19c-13 11 -27 32 -27 58c0 21 4 47 13 68zM2 82c21 59 50 164 101 218c20 22 37 16 46 -4c4 -9 8 -21 8 -34
c0 -21 -7 -54 -26 -96c-19 -41 -72 -143 -90 -192c-7 -18 -22 -17 -35 -3c-9 10 -16 28 -16 49c0 15 4 36 12 62z" />
    <glyph glyph-name="minus" unicode="&#x2212;" horiz-adv-x="322" 
d="M275 245c-55 0 -103 -12 -142 -10c-52 2 -73 26 -81 57c-2 11 7 21 21 21c51 -2 126 8 170 8c57 0 77 -26 85 -57c2 -12 -2 -22 -23 -20c-10 1 -20 1 -30 1z" />
    <glyph glyph-name="multiply" unicode="&#xd7;" horiz-adv-x="273" 
d="M217 271c16 -30 30 -55 36 -76c4 -17 0 -29 -7 -36c-8 -8 -21 -9 -32 2c-13 13 -34 41 -54 72c-32 -22 -63 -46 -88 -69c-17 -16 -26 -15 -34 0c-14 25 -11 56 35 98c12 10 26 20 46 35c-18 32 -34 64 -39 80c-7 21 1 31 24 31c22 0 43 -13 53 -31l21 -37
c28 21 59 44 79 64c16 16 30 13 35 0c14 -28 10 -56 -23 -89c-12 -13 -32 -29 -52 -44z" />
    <glyph glyph-name="space" unicode=" " horiz-adv-x="220" 
 />
    <glyph glyph-name="exclam" unicode="!" horiz-adv-x="317" 
d="M131 204c39 106 137 300 212 409c14 21 30 23 41 -1c5 -11 10 -24 10 -39c0 -28 -10 -67 -37 -116c-54 -97 -137 -252 -187 -361c-9 -18 -17 -22 -34 -5c-11 11 -19 27 -19 51c0 14 4 36 14 62zM49 41c0 26 19 54 43 54c18 0 38 -13 49 -35c11 -26 3 -54 -8 -70
c-16 -19 -54 -13 -72 15c-7 12 -12 26 -12 36z" />
    <glyph glyph-name="quotedbl" unicode="&#x22;" horiz-adv-x="318" 
d="M283 561c-20 -36 -59 -95 -84 -132c-12 -17 -23 -21 -35 -19c-14 2 -18 11 -14 24c17 50 69 154 100 195c16 20 32 17 41 0c12 -22 4 -47 -8 -68zM358 521c-28 -45 -128 -160 -153 -142c-11 9 -12 15 -4 28c27 40 96 149 135 187c18 18 41 11 44 -6c5 -24 -8 -47 -22 -67
z" />
    <glyph glyph-name="numbersign" unicode="#" horiz-adv-x="510" 
d="M98 201l37 4c18 43 41 89 66 135c-29 -3 -57 -5 -87 -5c-15 0 -25 12 -17 23c11 14 31 27 87 33l46 5c33 62 65 116 85 148c10 15 29 24 37 1c9 -25 -6 -73 -26 -115l-14 -29c23 1 45 2 70 2c34 61 67 117 89 147c15 19 34 15 39 -3c7 -25 -8 -70 -46 -144
c31 0 56 -1 76 -4c24 -3 29 -12 16 -24c-25 -25 -71 -32 -125 -32l-71 -128c46 0 74 -1 94 -2c23 -2 29 -10 15 -24c-22 -23 -70 -33 -141 -33c-24 -43 -47 -91 -70 -137c-9 -19 -21 -18 -32 0c-7 10 -9 43 8 90c5 14 10 27 20 46c-23 0 -45 0 -70 -1
c-19 -39 -37 -78 -59 -123c-10 -20 -20 -19 -32 -1c-7 11 -13 39 18 119l-82 -5c-24 -2 -27 6 -18 19c10 15 31 32 87 38zM348 343h-64c-16 -31 -36 -68 -54 -103l-15 -28l67 2c21 44 41 83 66 129z" />
    <glyph glyph-name="dollar" unicode="$" horiz-adv-x="351" 
d="M81 314c0 86 83 155 151 183c14 6 31 9 47 7c20 35 40 66 58 96h-1c14 23 26 24 38 2c7 -12 9 -50 -32 -128c11 -11 22 -27 27 -40c13 -34 -5 -70 -43 -149c-9 -20 -19 -19 -37 -8c-19 11 -30 28 -30 48c0 16 8 41 23 68c10 22 22 46 15 51c-17 13 -126 -53 -126 -125
c0 -26 32 -47 64 -64c31 -21 60 -41 60 -61c0 -19 -11 -39 -30 -58c-18 -19 -49 -33 -86 -33c-12 0 -22 1 -33 3c-9 -18 -16 -34 -25 -52c-28 -57 -37 -55 -51 -38c-11 15 -14 34 3 77l15 37c-22 15 -47 37 -67 65c-7 9 -4 21 13 24c32 7 49 2 72 -17c41 -34 50 -47 84 -50
c12 -1 24 4 30 10c8 8 4 16 -3 22c-13 11 -24 18 -36 24c-45 25 -100 57 -100 106z" />
    <glyph glyph-name="percent" unicode="%" horiz-adv-x="596" 
d="M141 7c-8 21 -2 52 23 93c45 71 183 238 292 361c-23 1 -47 7 -67 17c0 -27 -60 -181 -142 -203c-33 -9 -75 -7 -107 41c-14 20 -21 41 -21 64c0 37 14 76 36 115c32 54 84 97 137 98c27 2 43 -8 60 -31c23 -31 64 -50 100 -50c32 0 62 11 82 33c29 31 41 26 45 1
c4 -34 -18 -76 -52 -116c-147 -171 -283 -330 -351 -426c-13 -18 -27 -20 -35 3zM279 396c35 62 50 126 38 139c-15 15 -62 -29 -94 -80c-20 -34 -32 -76 -32 -106c0 -23 5 -27 12 -27c17 0 49 25 76 74zM586 188c0 -71 -66 -182 -135 -203c-9 -3 -18 -4 -30 -4
c-28 0 -58 13 -79 41c-15 20 -21 45 -21 68c0 36 12 74 33 111c32 54 82 100 132 103c27 2 44 -5 61 -26c-1 1 10 -12 14 -16c11 -14 25 -35 25 -74zM479 107c34 64 45 127 33 139c-13 13 -59 -31 -89 -82c-19 -34 -32 -77 -32 -104c0 -23 6 -29 13 -29c18 0 47 26 75 76z
" />
    <glyph glyph-name="ampersand" unicode="&#x26;" horiz-adv-x="523" 
d="M101 84c-1 -38 18 -65 56 -68c42 -3 116 35 160 120l-28 -4c-52 -7 -77 11 -92 42c-6 14 -4 25 20 25c32 -1 62 7 100 16c31 7 62 14 90 16c54 4 86 -20 102 -54c4 -15 -2 -23 -23 -21c-28 4 -58 1 -87 -4c4 -27 -5 -65 -36 -106c-37 -48 -106 -89 -178 -89
c-40 0 -80 12 -113 41c-35 31 -51 69 -51 107c0 82 72 174 173 211c-29 13 -47 37 -49 75c-5 100 110 187 179 209c23 7 45 12 70 12c28 0 54 -7 78 -28c27 -24 41 -46 41 -69c0 -17 -5 -34 -16 -55c-15 -30 -33 -72 -41 -94c-4 -13 -14 -19 -35 -8c-19 10 -35 31 -35 60
c0 11 3 24 9 41c15 53 35 71 35 87c0 8 -5 12 -14 12c-47 1 -186 -96 -180 -179c3 -35 29 -40 61 -39c54 1 75 -26 83 -45c5 -14 -4 -21 -20 -22c-140 -12 -256 -98 -259 -189z" />
    <glyph glyph-name="quotesingle" unicode="'" horiz-adv-x="241" 
d="M288 568c-11 -25 -64 -104 -90 -137c-12 -16 -26 -18 -37 -16c-13 2 -17 11 -13 24c18 52 76 157 109 196c19 24 35 16 43 -2c9 -21 0 -45 -12 -65z" />
    <glyph glyph-name="parenleft" unicode="(" horiz-adv-x="228" 
d="M36 94c0 202 98 423 300 549c19 12 31 10 35 -11c5 -30 -20 -79 -71 -126c-116 -107 -199 -282 -199 -482c0 -28 3 -52 3 -73c0 -16 -17 -19 -31 -10c-9 6 -24 26 -29 55c-5 32 -8 64 -8 98z" />
    <glyph glyph-name="parenright" unicode=")" horiz-adv-x="245" 
d="M251 641c17 14 31 8 35 -12c8 -41 14 -82 14 -125c0 -224 -128 -436 -256 -531c-30 -22 -62 -32 -84 -32c-17 0 -21 13 -10 22c177 156 264 376 257 541c-2 69 18 115 44 137z" />
    <glyph glyph-name="asterisk" unicode="*" horiz-adv-x="366" 
d="M408 546c23 4 30 -3 27 -19c-5 -24 -28 -40 -57 -48c-15 -4 -31 -8 -58 -14c9 -21 31 -52 42 -65c10 -12 1 -23 -16 -24c-20 -1 -39 1 -58 28l-12 17c-15 -26 -29 -52 -39 -75c-7 -15 -22 -15 -32 -3c-7 8 -12 20 -12 32c0 9 1 25 9 43c2 5 8 15 10 22
c-21 -4 -41 -9 -57 -14c-17 -4 -29 0 -26 15s17 35 54 49c37 11 26 8 38 11c-16 26 -34 51 -48 76c-5 12 -1 24 17 26c27 3 46 -9 66 -37l12 -17c19 35 41 72 57 96c8 12 15 14 26 6c10 -7 21 -24 21 -40c0 -10 -3 -21 -11 -36l-23 -44c25 6 50 11 70 15z" />
    <glyph glyph-name="plus" unicode="+" horiz-adv-x="314" 
d="M254 410c11 -12 17 -27 17 -45c0 -14 -2 -29 -10 -46c43 -5 61 -29 67 -57c3 -12 2 -21 -23 -19c-11 1 -23 2 -34 2c-20 0 -34 -1 -52 -3c-19 -32 -36 -63 -49 -95c-6 -13 -17 -22 -35 -9c-15 11 -23 23 -23 48c0 10 4 26 9 40l3 9c-46 4 -65 27 -72 57c-3 14 1 23 23 21
c24 -2 59 0 87 2c32 57 43 76 53 93c9 17 26 18 39 2z" />
    <glyph glyph-name="comma" unicode="," horiz-adv-x="239" 
d="M46 -51c-15 6 -9 18 0 23c7 4 21 13 28 18c-12 11 -19 27 -15 47c8 32 36 51 62 51c29 -1 49 -35 36 -74c-12 -37 -55 -70 -92 -69c-7 0 -13 2 -19 4z" />
    <glyph glyph-name="hyphen" unicode="-" horiz-adv-x="325" 
d="M258 205c-53 0 -103 -11 -142 -9c-52 2 -73 25 -81 57c-2 10 7 20 22 20c72 0 124 8 170 8c56 0 77 -25 84 -56c3 -13 -2 -22 -22 -21c-11 1 -21 1 -31 1z" />
    <glyph glyph-name="period" unicode="." horiz-adv-x="223" 
d="M71 -17c-24 9 -33 42 -21 67c14 31 45 47 70 38c24 -8 32 -37 20 -66c-12 -30 -45 -48 -69 -39z" />
    <glyph glyph-name="slash" unicode="/" horiz-adv-x="396" 
d="M535 645c20 19 37 15 42 -10c6 -28 -15 -80 -63 -139c-22 -26 -61 -68 -106 -117c-112 -119 -275 -296 -348 -406c-10 -14 -28 -20 -38 3c-9 23 -5 56 17 97c64 114 381 465 496 572z" />
    <glyph glyph-name="zero" unicode="0" horiz-adv-x="489" 
d="M307 603c20 8 44 12 63 12c31 0 53 -3 76 -24c48 -28 82 -88 82 -157c0 -68 -22 -151 -55 -217c-61 -125 -158 -232 -268 -232c-19 0 -37 1 -63 12c-60 25 -109 92 -109 170c0 198 169 386 274 436zM159 39c56 -15 159 64 227 205c41 86 60 165 60 223
c0 49 -12 83 -32 89c-41 15 -148 -58 -230 -197c-44 -77 -65 -156 -65 -218c0 -53 16 -91 40 -102z" />
    <glyph glyph-name="one" unicode="1" horiz-adv-x="218" 
d="M-13 26c0 16 2 37 10 62c19 59 111 247 185 382c-49 1 -40 20 -28 31c29 29 60 58 89 90c18 16 31 19 45 5c17 -15 26 -31 26 -51c0 -23 -10 -53 -30 -90c-111 -205 -189 -349 -243 -476c-6 -14 -24 -20 -37 -6c-10 12 -17 28 -17 53z" />
    <glyph glyph-name="two" unicode="2" horiz-adv-x="423" 
d="M498 485c0 -27 -6 -56 -25 -93c-35 -71 -167 -213 -341 -316c31 7 62 10 86 11c54 0 86 -18 98 -52c5 -13 4 -22 -20 -22c-55 0 -183 -22 -240 -39c-30 -9 -46 -5 -60 9c-12 14 -22 31 -26 44c-8 20 -4 31 19 46c229 136 435 342 435 440c0 29 -17 41 -29 41
c-39 0 -97 -75 -123 -115c-32 -49 -58 -71 -108 -68c-22 1 -24 6 -18 23c16 47 77 154 159 195c20 11 44 17 68 17c33 0 65 -12 87 -35c24 -23 38 -50 38 -86z" />
    <glyph glyph-name="three" unicode="3" horiz-adv-x="429" 
d="M516 510c0 -52 -42 -135 -163 -193c48 -15 65 -49 65 -89c0 -42 -23 -95 -69 -152c-53 -64 -120 -91 -181 -91c-37 0 -72 11 -97 27c-48 31 -64 75 -64 111c0 18 5 35 10 48c18 43 57 68 90 68c17 0 23 -12 17 -23c-22 -40 -37 -81 -37 -112c0 -41 29 -61 53 -61
c41 0 96 35 136 85c32 40 56 86 56 117c0 27 -19 31 -30 31c-8 0 -19 -2 -29 -4c-12 -2 -23 -4 -37 -4c-22 0 -48 10 -69 32c-6 11 -5 22 14 28c171 51 261 152 261 209c0 24 -16 34 -28 34c-28 0 -71 -42 -105 -86c-33 -41 -72 -66 -117 -57c-18 3 -25 13 -18 26
c30 59 98 129 149 154c20 10 44 14 68 14c35 0 68 -10 89 -32c23 -24 36 -50 36 -80z" />
    <glyph glyph-name="four" unicode="4" horiz-adv-x="426" 
d="M118 247c53 12 112 21 166 24c34 68 76 142 119 207c-98 -69 -208 -154 -285 -231zM522 549c14 -24 14 -30 -7 -63c-35 -53 -85 -140 -136 -231c20 -13 30 -31 37 -51c2 -9 -5 -14 -25 -10c-12 3 -27 3 -44 3c-42 -77 -78 -153 -102 -211c-8 -19 -24 -20 -35 -5
c-10 16 -19 33 -19 55c0 14 3 33 12 57c10 27 20 53 39 95c-44 -7 -88 -15 -126 -24c-19 -4 -33 -4 -44 10c-15 19 -27 42 -35 57c-7 13 -3 27 6 38c82 96 274 250 399 331c17 11 40 17 53 -5z" />
    <glyph glyph-name="five" unicode="5" horiz-adv-x="415" 
d="M565 567c5 -14 1 -20 -20 -20c-53 0 -107 -10 -150 -18c-21 -4 -44 -7 -62 -10c-6 -1 -6 -1 -11 -1c-32 -47 -53 -81 -86 -132c12 3 23 4 36 4c34 0 65 -11 83 -24c28 -23 52 -58 52 -104c0 -38 -16 -90 -52 -150c-52 -85 -130 -124 -199 -124c-30 0 -58 6 -81 19
c-50 26 -69 70 -69 110c0 18 5 38 11 54c18 46 57 65 90 68c15 1 23 -10 15 -23c-24 -37 -35 -77 -35 -111c0 -38 20 -64 44 -64c44 0 110 55 147 118c27 46 41 96 41 128c0 24 -5 40 -15 45c-29 16 -86 -12 -126 -66c-15 -18 -23 -16 -37 -1c-10 12 -20 29 -20 55
c0 16 4 37 16 60c21 43 55 101 97 169c-28 28 -21 49 6 49c53 0 109 8 157 15c30 5 56 11 79 11c48 1 76 -20 89 -57z" />
    <glyph glyph-name="six" unicode="6" horiz-adv-x="401" 
d="M449 605c26 -18 41 -44 40 -80c-2 -54 -22 -118 -42 -157c-9 -15 -20 -19 -37 -7c-18 13 -29 35 -29 62c0 15 4 35 11 57c15 40 31 82 25 83c-34 5 -130 -49 -217 -193c17 7 33 9 52 9c25 0 50 -6 72 -20c39 -25 65 -65 65 -119c0 -37 -12 -83 -41 -134
c-46 -83 -109 -119 -170 -119c-26 0 -57 9 -79 22c-47 27 -73 81 -73 148c0 64 22 142 69 225c113 197 234 239 292 239c26 0 47 -7 62 -16zM285 321c-39 11 -133 -33 -167 -154c-5 -19 -7 -35 -7 -49c0 -37 11 -63 24 -70c32 -18 98 28 137 107c21 45 33 86 33 116
c0 25 -8 44 -20 50z" />
    <glyph glyph-name="seven" unicode="7" horiz-adv-x="337" 
d="M-6 20c0 19 8 50 26 83c61 107 225 315 335 419c-41 -10 -81 -19 -112 -23c-71 -8 -105 22 -116 56c-3 14 3 20 21 20c75 0 163 23 219 29c24 3 38 5 55 -19c12 -20 22 -43 29 -62c8 -23 3 -29 -20 -51c-115 -111 -301 -338 -392 -487c-11 -18 -23 -17 -35 0
c-6 10 -10 22 -10 35z" />
    <glyph glyph-name="eight" unicode="8" horiz-adv-x="388" 
d="M286 326c54 -107 63 -142 63 -177c0 -41 -15 -83 -57 -124c-35 -37 -96 -56 -150 -56c-27 0 -53 4 -73 14c-52 26 -73 66 -73 108c0 31 12 65 27 93c28 51 85 110 149 162c-15 35 -26 73 -22 99c11 60 69 124 127 148c23 10 51 15 75 15c63 0 111 -34 111 -101
c5 1 15 2 20 2c16 0 28 -2 36 -9c9 -7 9 -21 -2 -27c-62 -34 -147 -86 -231 -147zM247 444c0 -12 2 -27 6 -40c41 29 86 54 128 73c3 44 -13 86 -46 81c-44 -7 -88 -64 -88 -114zM248 148c0 32 -19 73 -39 116c-52 -45 -95 -93 -116 -141c-8 -19 -14 -37 -14 -54
c0 -31 20 -48 48 -48c26 0 56 13 80 38c21 24 41 48 41 89z" />
    <glyph glyph-name="nine" unicode="9" horiz-adv-x="414" 
d="M199 248c41 -19 110 27 148 123c20 49 27 89 27 122s-7 52 -17 58c-32 16 -101 -45 -145 -127c-23 -45 -35 -88 -35 -120c0 -30 8 -49 22 -56zM54 97c0 -42 14 -68 34 -74c48 -14 126 48 197 182c-18 -6 -35 -9 -54 -9c-21 0 -44 5 -67 15c-39 20 -72 61 -72 121
c0 37 11 81 39 131c50 92 119 143 188 143c23 0 47 -6 68 -17c47 -24 71 -70 71 -133c0 -69 -26 -158 -77 -260c-74 -151 -156 -225 -259 -226c-58 -1 -135 24 -140 113c-2 42 26 74 44 87c19 11 42 15 36 -12c-5 -23 -8 -44 -8 -61z" />
    <glyph glyph-name="colon" unicode=":" horiz-adv-x="255" 
d="M209 278c-24 9 -32 41 -21 67c13 28 43 48 69 37c24 -9 32 -36 21 -65c-12 -30 -44 -48 -69 -39zM54 -17c-21 7 -34 41 -20 68c15 30 45 45 70 37c22 -9 32 -38 20 -66c-11 -29 -44 -48 -70 -39z" />
    <glyph glyph-name="semicolon" unicode=";" horiz-adv-x="264" 
d="M219 278c-24 9 -34 40 -21 68c13 27 42 47 69 36c20 -8 32 -36 20 -65c-11 -30 -43 -48 -68 -39zM26 -51c-15 6 -9 18 0 23c7 4 21 13 28 18c-12 11 -19 27 -15 47c8 32 36 51 62 51c29 -1 49 -35 36 -74c-12 -37 -55 -70 -92 -69c-7 0 -13 2 -19 4z" />
    <glyph glyph-name="less" unicode="&#x3c;" horiz-adv-x="288" 
d="M300 384c0 -18 -13 -49 -40 -69c-18 -14 -53 -31 -88 -48c18 -10 34 -20 48 -32c24 -22 31 -46 28 -67c-4 -21 -17 -23 -35 -11c-35 25 -86 51 -117 67c-20 11 -30 29 -34 56c-2 17 2 26 24 34c49 17 142 59 182 84c20 13 32 6 32 -14z" />
    <glyph glyph-name="equal" unicode="=" horiz-adv-x="361" 
d="M300 292c-50 0 -94 -7 -128 -7c-53 2 -76 27 -82 58c-3 14 9 20 23 20c51 -2 125 9 170 7c55 -4 78 -28 83 -59c2 -12 -7 -21 -24 -21c-13 1 -30 2 -42 2zM265 189c-54 0 -102 -12 -140 -10c-53 2 -77 26 -83 58c-2 11 7 21 23 21c49 0 127 8 170 8c49 0 77 -26 83 -58
c2 -12 -2 -22 -22 -20c-11 1 -21 1 -31 1z" />
    <glyph glyph-name="greater" unicode="&#x3e;" horiz-adv-x="290" 
d="M51 172c-1 18 16 47 41 66c22 16 49 28 81 40c-20 12 -39 25 -50 35c-23 20 -31 52 -29 68c3 23 17 24 35 12c44 -30 97 -60 142 -79c20 -9 23 -20 15 -39c-15 -29 -25 -43 -47 -52c-69 -26 -122 -46 -158 -66c-21 -11 -28 -8 -30 15z" />
    <glyph glyph-name="question" unicode="?" horiz-adv-x="385" 
d="M156 442c0 23 8 54 28 86c39 63 102 103 163 103c25 0 50 -7 71 -20c35 -24 57 -64 57 -109c0 -27 -7 -59 -22 -91c-37 -75 -112 -123 -187 -166c-63 -36 -95 -91 -107 -140c-6 -20 -20 -21 -37 -5c-9 9 -19 28 -19 51c0 12 2 28 10 47c19 41 54 74 129 118
c55 32 108 84 137 146c10 22 18 51 18 75c0 26 -11 40 -29 40c-47 0 -115 -79 -162 -176c-13 -24 -24 -24 -38 -3c-7 11 -12 28 -12 44zM67 84c22 22 59 9 73 -25c5 -12 7 -24 7 -31c0 -15 -5 -28 -15 -38c-18 -19 -53 -17 -72 15c-7 12 -10 24 -10 36c0 16 6 31 17 43z" />
    <glyph glyph-name="at" unicode="@" horiz-adv-x="586" 
d="M387 103c-29 0 -65 26 -72 44c-23 -22 -53 -39 -86 -39c-48 0 -76 35 -76 85c0 34 14 78 43 120c62 89 131 129 174 129c26 0 45 -12 54 -30l13 19c12 17 19 20 35 5c8 -9 14 -24 14 -42c0 -25 -10 -48 -46 -110c-15 -24 -30 -50 -41 -76c-16 -35 -22 -64 -12 -66
c16 -4 52 34 89 115c16 41 26 86 26 123c0 57 -19 101 -53 116c-13 6 -27 8 -39 8c-64 0 -151 -47 -221 -145c-44 -61 -63 -129 -63 -185c0 -55 18 -100 54 -116c13 -6 28 -9 44 -9c42 0 87 20 106 37c10 9 20 15 28 15s14 -6 14 -14c0 -14 -7 -44 -43 -65
c-25 -15 -55 -20 -83 -20c-32 0 -60 7 -77 13c-86 33 -117 104 -118 178c-3 186 179 343 290 366c26 5 30 5 46 5c44 0 77 -14 98 -37c53 -24 93 -96 93 -161c0 -42 -10 -84 -25 -119c-38 -96 -111 -144 -166 -144zM340 262c54 88 57 126 41 127c-21 1 -73 -47 -115 -114
c-22 -37 -36 -78 -36 -103c0 -14 3 -23 8 -23c25 -1 61 47 102 113z" />
    <glyph glyph-name="A" unicode="A" horiz-adv-x="442" 
d="M308 226c12 83 32 180 57 255c-64 -77 -136 -173 -199 -271c20 2 40 4 59 7c34 4 56 8 83 9zM337 -9c-22 11 -41 37 -42 95c0 18 0 41 3 67l-70 -7c-40 -4 -79 -8 -107 -7c-27 -47 -49 -97 -72 -138c-12 -21 -29 -17 -36 -3c-6 12 -12 21 -12 37s4 39 16 68
c6 15 13 32 24 53c-18 13 -27 27 -30 33c-8 19 -4 25 22 21c14 -2 22 -3 36 -4c75 131 213 324 318 413c22 18 37 17 52 -3c10 -13 16 -24 23 -41c5 -12 8 -23 8 -35s-2 -26 -8 -41c-23 -72 -51 -176 -70 -281c27 -12 37 -31 44 -52c5 -16 -2 -20 -20 -17l-35 6
c-6 -50 -11 -101 -13 -150c0 -18 -13 -22 -31 -14z" />
    <glyph glyph-name="B" unicode="B" horiz-adv-x="454" 
d="M-1 86c0 12 6 37 15 60c38 105 113 250 183 357c-35 5 -54 27 -62 43c-6 14 -1 23 19 24c61 4 149 52 226 59c70 6 131 -31 131 -146c0 -35 -18 -76 -43 -108c-25 -34 -80 -82 -145 -114c30 -18 54 -50 54 -89c0 -28 -11 -61 -39 -90c-41 -45 -122 -81 -178 -94
c-14 -3 -30 -4 -42 -4c-18 0 -32 3 -47 10c-42 20 -72 60 -72 92zM253 419c-11 -21 -25 -45 -70 -119c164 44 268 151 267 218c0 21 -17 34 -34 34c-27 0 -68 -15 -133 -37c1 -22 -6 -51 -30 -96zM286 149c13 16 21 33 21 47c0 18 -18 34 -63 38c-38 -8 -76 -10 -97 -4
c-25 -49 -49 -100 -63 -144c-9 -28 -1 -38 20 -35c58 7 141 47 182 98z" />
    <glyph glyph-name="C" unicode="C" horiz-adv-x="462" 
d="M374 211c7 14 30 20 40 -3c5 -11 7 -23 7 -33c0 -58 -54 -116 -90 -143c-41 -29 -86 -41 -129 -41c-33 0 -63 7 -88 21c-47 25 -88 88 -90 170c-4 202 175 383 288 434c26 10 54 17 79 17s48 -7 65 -21c34 -30 60 -69 60 -108c0 -18 -4 -38 -14 -58
c-17 -34 -31 -68 -38 -90c-5 -17 -19 -27 -39 -15c-20 13 -34 35 -34 64c0 12 2 24 6 37c4 15 11 31 17 46c14 35 26 67 14 80c-24 26 -166 -61 -249 -195c-44 -71 -63 -153 -63 -213c0 -86 38 -124 74 -124c55 0 126 64 184 175z" />
    <glyph glyph-name="D" unicode="D" horiz-adv-x="483" 
d="M4 89c0 17 5 36 14 64c29 89 109 237 177 341c-36 5 -54 29 -60 44c-5 15 -3 23 18 26c32 4 62 16 93 30c29 13 57 23 91 29c68 11 117 -21 158 -89c15 -25 23 -65 23 -100c0 -161 -159 -368 -379 -442c-12 -4 -22 -6 -33 -6c-32 0 -51 17 -76 49c-18 24 -26 38 -26 54z
M393 547c-31 0 -89 -31 -120 -42c3 -25 -5 -62 -28 -103c-78 -131 -136 -235 -157 -308c-4 -14 -5 -22 -5 -29c0 -9 5 -11 15 -7c221 84 344 293 344 412c0 24 -4 42 -12 55c-10 16 -25 22 -37 22z" />
    <glyph glyph-name="E" unicode="E" horiz-adv-x="368" 
d="M-24 38c-8 13 -6 26 4 54c45 118 141 299 224 428c-23 15 -35 31 -40 50c-3 14 8 20 23 20c55 0 108 6 156 14c34 5 62 10 88 10c46 1 71 -17 84 -52c4 -11 -3 -20 -22 -20c-50 0 -104 -10 -151 -19c-15 -3 -25 -5 -40 -7c-33 -50 -79 -133 -126 -218c21 3 38 4 52 5
c55 2 81 -16 92 -48c5 -13 3 -23 -20 -23c-49 0 -119 -12 -173 -26c-28 -53 -49 -94 -69 -139c41 11 104 22 136 24c54 2 82 -14 94 -47c5 -14 2 -22 -19 -22c-53 1 -160 -25 -215 -40c-24 -7 -40 -7 -53 12c-7 10 -14 26 -25 44z" />
    <glyph glyph-name="F" unicode="F" horiz-adv-x="363" 
d="M-29 44c0 15 4 36 12 61c29 85 130 275 218 416c-23 13 -34 33 -38 51c-3 13 3 19 22 19c58 0 101 6 149 14c35 6 68 10 92 10c48 0 76 -20 90 -54c5 -11 0 -22 -21 -22c-51 1 -100 -10 -196 -27c-33 -55 -72 -124 -119 -210c19 3 33 4 48 5c57 4 84 -17 93 -49
c4 -14 2 -23 -20 -25c-46 -4 -117 -13 -172 -27c-37 -72 -66 -134 -101 -209c-6 -13 -20 -16 -34 -7s-23 30 -23 54z" />
    <glyph glyph-name="G" unicode="G" horiz-adv-x="500" 
d="M496 214c6 -15 7 -25 -21 -23c-15 1 -34 1 -56 -1c20 -93 -101 -182 -152 -196c-22 -6 -47 -11 -74 -11c-35 0 -69 8 -100 32c-38 27 -70 73 -70 156c0 213 203 402 316 441c29 10 51 12 73 12c26 0 51 -7 68 -19c48 -35 61 -82 61 -109c0 -15 -4 -33 -13 -54
c-11 -26 -27 -65 -38 -94c-5 -13 -17 -23 -36 -8s-36 35 -36 66c0 11 1 22 9 43c28 72 38 100 27 111c-29 30 -179 -56 -269 -193c-53 -81 -72 -166 -72 -230c0 -77 25 -103 57 -103c53 0 124 55 171 143c-26 -5 -50 -8 -70 -10c-52 -4 -90 19 -105 50c-6 15 -1 25 19 25
c40 1 80 8 117 15c34 5 65 11 95 11c55 1 85 -22 99 -54z" />
    <glyph glyph-name="H" unicode="H" horiz-adv-x="488" 
d="M561 460c-63 -112 -85 -151 -107 -191c21 -11 32 -28 36 -44c3 -13 -4 -21 -23 -18c-15 2 -29 3 -46 3c-32 -63 -65 -131 -98 -204c-7 -16 -24 -21 -35 -3c-9 14 -17 29 -17 51c0 15 4 35 13 62c7 19 20 52 36 85c-62 -8 -126 -20 -171 -20c-29 -60 -58 -124 -87 -188
c-7 -17 -25 -22 -37 -5c-9 12 -17 29 -17 52c0 29 10 59 52 158c-20 11 -28 23 -32 30c-10 19 -4 26 23 24c15 -1 21 -3 32 -3c62 129 153 295 195 355c16 21 31 18 42 -1c6 -11 9 -24 9 -41c0 -28 -9 -67 -33 -111l-107 -195c63 9 114 22 169 27c64 127 150 280 190 333
c18 23 33 20 43 -2c5 -11 9 -23 9 -38c0 -28 -10 -66 -39 -116z" />
    <glyph glyph-name="I" unicode="I" horiz-adv-x="182" 
d="M-11 111c52 136 189 390 268 503c16 23 31 20 42 -1c5 -10 9 -24 9 -40c0 -27 -12 -69 -38 -116c-61 -108 -172 -303 -241 -457c-8 -19 -18 -22 -34 -4c-10 10 -18 28 -18 53c0 14 4 38 12 62z" />
    <glyph glyph-name="J" unicode="J" horiz-adv-x="437" 
d="M-9 156c12 45 45 74 74 81c22 5 34 -5 27 -28c-14 -43 -22 -82 -22 -110c0 -59 19 -72 43 -72c73 0 145 135 206 262c52 106 135 273 170 325c15 22 30 20 42 -1c7 -11 12 -28 12 -49c0 -19 -6 -49 -19 -78c-34 -80 -129 -274 -183 -363c-64 -107 -136 -143 -207 -143
c-96 0 -148 54 -148 131c0 15 1 30 5 45z" />
    <glyph glyph-name="K" unicode="K" horiz-adv-x="397" 
d="M280 -7c-10 -14 -26 -16 -36 3c-37 71 -75 137 -117 198c-32 -62 -64 -129 -93 -199c-8 -19 -21 -23 -35 -5c-9 14 -16 31 -16 54c0 17 3 37 9 60c25 83 195 417 256 502c15 20 28 19 41 -2c6 -11 11 -27 11 -44c0 -26 -7 -62 -32 -106c-39 -70 -47 -82 -76 -135
c116 90 242 190 331 295c11 13 25 10 31 -8c7 -20 4 -58 -33 -108c-43 -60 -178 -177 -307 -270c29 -47 56 -94 68 -120c10 -24 15 -48 15 -64c0 -20 -8 -39 -17 -51z" />
    <glyph glyph-name="L" unicode="L" horiz-adv-x="353" 
d="M278 460c-87 -159 -152 -271 -207 -388c49 12 97 19 133 22c55 4 84 -17 97 -48c5 -12 3 -22 -20 -22c-47 1 -154 -24 -211 -39c-29 -7 -42 -7 -56 13c-10 14 -23 32 -27 43c-7 18 -7 34 3 61c48 122 213 422 275 506c16 22 28 15 38 -3c5 -10 9 -25 9 -41
c0 -25 -9 -60 -34 -104z" />
    <glyph glyph-name="M" unicode="M" horiz-adv-x="573" 
d="M169 77c0 11 1 22 3 35c7 45 36 158 70 268c-78 -120 -167 -264 -221 -388c-6 -14 -21 -17 -34 -4c-11 11 -18 28 -18 50c0 19 5 41 14 63c41 100 198 362 303 503c12 16 28 22 47 7c27 -23 41 -49 41 -81c0 -18 -5 -43 -14 -72c-31 -90 -51 -151 -87 -285
c105 159 212 257 323 433c13 21 26 22 45 4c20 -21 29 -45 29 -69c0 -27 -11 -55 -24 -82c-69 -129 -168 -327 -217 -467c-7 -20 -16 -20 -32 -6c-12 11 -23 28 -23 57c0 16 2 35 8 57v-1c12 47 61 152 110 252c-88 -113 -185 -248 -244 -355c-11 -20 -20 -20 -35 -9
c-27 21 -44 48 -44 90z" />
    <glyph glyph-name="N" unicode="N" horiz-adv-x="459" 
d="M211 82c-2 29 -3 49 -3 73c0 58 4 141 13 226c-71 -122 -142 -260 -186 -383c-7 -20 -22 -21 -36 -6c-10 13 -19 33 -19 56c0 15 5 39 13 60c52 134 179 372 255 498c13 22 25 22 40 10c30 -22 44 -43 44 -79c0 -14 -2 -30 -5 -48c-14 -81 -23 -185 -30 -300
c68 143 165 318 231 421c15 21 27 16 38 -3c6 -12 9 -25 9 -39c0 -24 -6 -59 -37 -109c-56 -92 -179 -327 -240 -462c-6 -12 -17 -18 -34 -9c-33 17 -49 43 -53 94z" />
    <glyph glyph-name="O" unicode="O" 
d="M393 628c36 0 64 -12 81 -30c65 -29 91 -90 91 -161c0 -74 -26 -160 -64 -230c-68 -124 -169 -227 -284 -227c-24 0 -45 4 -67 12c-86 32 -119 107 -119 190c0 211 188 396 302 436c20 7 39 10 60 10zM184 35c62 0 155 76 226 206c48 89 68 173 68 234
c0 48 -10 80 -31 88c-44 16 -162 -50 -253 -189c-51 -79 -73 -165 -73 -230c0 -70 25 -109 63 -109z" />
    <glyph glyph-name="P" unicode="P" horiz-adv-x="425" 
d="M238 401c-9 -15 -19 -33 -76 -133c199 45 296 191 278 258c-4 13 -19 20 -32 20c-23 0 -60 -13 -94 -25c-16 -6 -24 -9 -38 -13c-1 -25 -15 -65 -38 -107zM-17 49c0 14 2 32 7 50c25 86 115 266 201 402c-32 7 -49 24 -58 44c-7 15 -3 24 19 26c38 3 76 16 113 29
c36 13 71 22 109 24c55 2 104 -12 128 -85c23 -70 4 -120 -31 -173c-50 -78 -156 -160 -281 -177c-30 -4 -51 -2 -67 4c-27 -52 -59 -116 -91 -193c-8 -18 -16 -18 -30 -4c-11 12 -19 28 -19 53z" />
    <glyph glyph-name="Q" unicode="Q" horiz-adv-x="543" 
d="M247 -14l24 -13c57 -31 112 -59 163 -49c32 6 31 -10 20 -21c-26 -28 -57 -40 -97 -40c-65 0 -117 34 -160 59c-46 28 -90 54 -145 54c-14 0 -29 -2 -47 -5c-19 -4 -29 6 -19 19c18 22 58 37 102 40c-42 39 -60 95 -60 154c1 212 187 393 298 431c20 7 41 11 62 11
c36 0 63 -13 81 -31c63 -28 88 -89 88 -158c0 -74 -26 -160 -63 -231c-60 -112 -148 -204 -247 -220zM181 37c62 0 153 76 221 203c49 89 70 174 70 235c0 48 -12 79 -31 87c-43 18 -162 -52 -251 -188c-50 -76 -73 -164 -73 -228c0 -68 19 -109 64 -109z" />
    <glyph glyph-name="R" unicode="R" horiz-adv-x="458" 
d="M316 -7c-11 -17 -22 -19 -34 -3c-62 82 -110 146 -150 191c-25 -49 -51 -106 -81 -180c-7 -19 -18 -21 -33 -6c-11 12 -19 28 -19 53c0 14 2 32 7 50c25 87 113 269 201 406c-33 6 -47 20 -59 41c-8 14 -3 22 18 25c40 6 78 17 114 29c38 12 73 22 110 24
c53 2 102 -20 127 -83c27 -67 6 -124 -31 -175c-51 -69 -154 -130 -263 -158c36 -43 70 -91 89 -128c9 -17 14 -36 14 -52c0 -12 -4 -24 -10 -34zM330 523l-39 -13c-1 -28 -13 -63 -38 -110c-27 -50 -52 -92 -70 -123c200 51 298 183 272 249c-6 16 -17 21 -32 21
c-23 0 -61 -13 -93 -24z" />
    <glyph glyph-name="S" unicode="S" horiz-adv-x="444" 
d="M-40 111c-14 17 -7 28 7 33c8 2 19 3 31 3c29 0 57 -8 78 -25c39 -32 105 -82 163 -82c22 0 42 5 53 16c15 15 10 33 -1 42c-72 56 -211 110 -211 212c0 136 156 255 246 293c33 14 54 17 77 17c24 0 44 -7 61 -21c28 -26 46 -59 53 -86c10 -41 -15 -81 -30 -103
c-24 -32 -53 -84 -67 -108c-9 -16 -20 -24 -39 -4c-14 14 -24 31 -24 54c0 22 13 60 46 104c25 37 52 81 38 91c-37 27 -256 -120 -261 -235c-3 -66 134 -123 173 -151c19 -14 30 -32 30 -51c0 -23 -13 -49 -39 -80c-26 -30 -75 -51 -135 -51c-73 0 -170 41 -249 132z" />
    <glyph glyph-name="T" unicode="T" horiz-adv-x="403" 
d="M37 51c0 12 2 27 6 40c25 83 126 286 214 422c-15 -2 -29 -4 -43 -4c-65 0 -108 23 -119 62c-3 13 5 19 19 19c87 0 247 27 305 27c46 0 88 -12 103 -54c5 -12 1 -24 -22 -22c-43 5 -101 -4 -155 -13c1 -36 -28 -94 -71 -169c-52 -94 -124 -227 -182 -358
c-8 -18 -20 -19 -34 -5c-15 14 -21 30 -21 55z" />
    <glyph glyph-name="U" unicode="U" horiz-adv-x="452" 
d="M131 -23c-22 0 -41 4 -58 11c-42 17 -81 54 -81 124c0 19 2 38 7 60c27 109 140 296 230 434c14 20 30 17 42 -1c8 -13 13 -27 13 -45c0 -23 -8 -55 -31 -98c-48 -89 -144 -238 -171 -342c-4 -18 -7 -34 -7 -47c0 -33 15 -47 37 -47c51 0 117 79 176 195
c54 105 163 300 217 386c13 21 29 17 41 -1c6 -11 10 -26 10 -41c0 -22 -6 -52 -22 -86c-34 -76 -157 -304 -223 -395c-53 -73 -119 -107 -180 -107z" />
    <glyph glyph-name="V" unicode="V" horiz-adv-x="403" 
d="M189 465c-23 -100 -46 -204 -70 -334c103 159 281 391 367 482c13 13 24 12 31 -2c16 -30 2 -88 -108 -230c-79 -101 -193 -259 -283 -388c-11 -16 -22 -22 -43 -7c-33 25 -50 55 -50 104c0 10 1 21 2 33c17 152 66 382 102 478c11 26 24 28 40 8c11 -14 22 -38 22 -67
c0 -21 -3 -46 -10 -77z" />
    <glyph glyph-name="W" unicode="W" horiz-adv-x="630" 
d="M293 80c0 15 2 33 6 53c12 56 41 145 67 225c-82 -111 -182 -254 -251 -365c-10 -16 -26 -23 -46 -7c-26 23 -38 47 -38 83c0 18 3 36 8 59c35 149 115 376 164 470c14 25 31 26 44 4c10 -18 13 -31 13 -49c0 -28 -13 -72 -33 -126c-33 -88 -53 -129 -90 -254
c91 140 216 307 304 413c11 13 27 18 41 -2c12 -16 19 -31 19 -53c0 -18 -5 -42 -18 -80c-31 -92 -59 -159 -96 -302c104 161 252 338 349 461c18 22 35 16 38 -7c5 -36 -7 -82 -108 -212c-79 -102 -195 -251 -287 -393c-12 -17 -27 -23 -45 -6c-24 24 -41 52 -41 88z" />
    <glyph glyph-name="X" unicode="X" horiz-adv-x="399" 
d="M179 617c29 -5 66 -25 85 -91c7 -25 14 -68 21 -119c80 82 160 159 210 205c21 20 35 12 40 -9c6 -29 -5 -79 -68 -141c-56 -54 -109 -104 -167 -162c16 -112 36 -232 71 -288c13 -21 -1 -29 -20 -27c-43 3 -86 30 -111 131c-9 38 -14 60 -21 101
c-70 -73 -141 -153 -192 -225c-13 -17 -29 -13 -35 4c-4 10 -6 20 -6 30c0 19 9 47 29 78c28 42 103 128 188 217c-14 95 -29 190 -49 276c-4 15 8 23 25 20z" />
    <glyph glyph-name="Y" unicode="Y" horiz-adv-x="379" 
d="M181 196c-37 -73 -71 -145 -91 -202c-7 -19 -17 -24 -32 -11c-13 11 -24 36 -24 61c0 15 2 32 7 49c11 33 33 85 61 142c2 118 9 272 28 364c5 24 15 26 31 17c24 -15 48 -56 46 -121c-2 -55 -10 -96 -14 -168c90 97 212 215 289 285c18 17 32 14 36 -2
c7 -30 0 -81 -60 -140c-115 -109 -187 -177 -277 -274z" />
    <glyph glyph-name="Z" unicode="Z" horiz-adv-x="441" 
d="M544 531c7 -21 -3 -35 -27 -52c-137 -100 -324 -277 -440 -412c47 11 108 23 151 27c52 4 84 -16 98 -46c5 -13 2 -22 -20 -22c-60 0 -160 -22 -243 -45c-29 -8 -43 5 -72 57c-10 19 -10 34 6 58c75 112 302 330 450 440c-40 -7 -92 -20 -125 -24c-72 -8 -103 19 -115 54
c-5 14 -4 23 15 23c92 -2 195 28 239 28c21 0 39 -5 50 -20c13 -18 25 -43 33 -66z" />
    <glyph glyph-name="bracketleft" unicode="[" horiz-adv-x="316" 
d="M482 650c7 -11 0 -24 -19 -26c-27 -2 -64 -9 -95 -17c-107 -155 -240 -410 -319 -600c7 2 11 3 18 4c45 8 66 -7 81 -35c7 -12 5 -25 -17 -26c-22 -2 -62 -13 -87 -23c-21 -8 -31 -5 -46 11c-10 10 -17 21 -25 33c-8 15 -10 29 -2 56c49 137 193 446 323 621
c15 20 25 24 42 30c19 6 51 10 72 11c24 1 36 -3 48 -12c11 -9 18 -16 26 -27z" />
    <glyph glyph-name="backslash" unicode="\" horiz-adv-x="355" 
d="M245 42c-34 100 -88 427 -99 586c-2 25 16 28 35 18c32 -17 58 -55 70 -140c17 -120 56 -386 90 -525c3 -14 -7 -22 -24 -19c-27 4 -54 26 -72 80z" />
    <glyph glyph-name="bracketright" unicode="]" horiz-adv-x="319" 
d="M-50 -18c24 8 64 16 100 21c81 183 213 444 318 603l-31 -6c-29 -6 -50 18 -64 37c-13 19 -1 29 17 32c65 10 94 16 118 16c21 0 31 -4 37 -16l19 -36c8 -15 7 -25 -2 -39c-112 -171 -246 -425 -342 -633c-7 -15 -19 -28 -41 -31c-27 -4 -37 -6 -56 -10s-34 -6 -54 7
c-12 8 -23 18 -30 25c-10 10 -8 23 11 30z" />
    <glyph glyph-name="asciicircum" unicode="^" horiz-adv-x="267" 
d="M262 378c-18 -1 -55 4 -67 47c-4 12 -8 29 -13 50c-33 -44 -59 -74 -71 -95c-11 -16 -19 -19 -34 -5c-7 6 -17 23 -17 39c0 11 4 27 15 44c24 38 76 108 112 149c6 7 21 13 36 3c19 -13 26 -29 29 -53c4 -34 16 -111 29 -158c4 -17 1 -20 -19 -21z" />
    <glyph glyph-name="underscore" unicode="_" horiz-adv-x="366" 
d="M3 -59h424c18 0 27 -9 22 -22c-9 -20 -38 -42 -89 -42h-424c-21 0 -27 6 -22 22c7 20 39 42 89 42z" />
    <glyph glyph-name="grave" unicode="`" horiz-adv-x="77" 
d="M-50 483c-17 10 -6 19 1 24c9 6 24 9 41 9c12 0 28 -3 40 -9c29 -15 66 -41 88 -60c12 -10 11 -18 -4 -24c-14 -6 -37 -8 -59 1c-25 11 -70 36 -107 59z" />
    <glyph glyph-name="a" unicode="a" horiz-adv-x="407" 
d="M46 237c80 115 162 162 213 162c36 0 58 -18 67 -44l19 31c12 20 29 21 41 7c17 -20 26 -64 0 -116c-26 -55 -110 -164 -110 -231c0 -15 4 -24 14 -24c36 0 86 68 119 133c11 20 20 21 30 0c4 -9 10 -36 -4 -65c-26 -55 -90 -108 -151 -108c-50 0 -79 26 -87 63
c-29 -28 -74 -59 -114 -59c-59 0 -91 43 -91 102c0 43 18 99 54 149zM96 30c33 0 79 61 128 145c39 68 57 117 57 143c0 12 -2 19 -12 19c-20 0 -89 -63 -140 -145c-30 -47 -47 -100 -47 -132c0 -18 4 -30 14 -30z" />
    <glyph glyph-name="b" unicode="b" horiz-adv-x="352" 
d="M267 308c0 22 -3 34 -14 34c-12 0 -31 -11 -58 -37c-42 -44 -87 -124 -124 -200c2 -29 19 -59 39 -59c28 0 67 31 117 133c29 57 40 100 40 129zM352 297c0 -40 -11 -92 -36 -146c-47 -104 -110 -162 -172 -162c-48 0 -82 20 -102 53l-20 -44c-9 -19 -21 -22 -34 -5
c-16 22 -27 49 -6 113c29 88 203 414 287 538c15 22 29 22 42 -1c7 -12 10 -26 10 -42c0 -27 -11 -66 -35 -109c-15 -27 -40 -65 -69 -116c18 10 40 18 56 18c55 0 79 -40 79 -97z" />
    <glyph glyph-name="c" unicode="c" horiz-adv-x="311" 
d="M212 396c37 0 79 -34 95 -64c15 -33 -1 -70 -20 -109c-8 -15 -14 -30 -18 -41c-7 -19 -16 -21 -36 -11c-18 11 -35 30 -35 57c0 13 5 33 23 74c10 20 17 38 13 42c-12 10 -77 -55 -117 -136c-20 -41 -30 -82 -30 -112c0 -44 18 -71 45 -72c75 -1 144 76 184 136
c9 15 24 19 30 2c5 -13 5 -39 -13 -67c-38 -60 -119 -109 -197 -110c-92 -1 -143 58 -143 138c0 36 10 76 31 116c51 103 130 157 188 157z" />
    <glyph glyph-name="d" unicode="d" horiz-adv-x="401" 
d="M473 457c-58 -110 -143 -250 -190 -349c-12 -26 -18 -48 -18 -64c0 -15 4 -22 13 -22c35 0 84 66 118 132c10 19 23 18 32 0c5 -9 9 -37 -4 -65c-27 -54 -89 -106 -147 -106c-49 0 -82 17 -90 61c-31 -32 -70 -58 -114 -58c-58 0 -90 43 -90 102c0 42 18 97 53 148
c78 113 161 160 213 160c34 0 56 -14 64 -40c50 94 115 207 148 254c18 25 32 23 42 -1c5 -12 9 -25 9 -39c0 -27 -13 -66 -39 -113zM212 173c54 103 72 161 53 162c-28 1 -94 -60 -147 -144c-30 -47 -46 -97 -46 -130c0 -18 4 -31 15 -31c32 0 80 56 125 143z" />
    <glyph glyph-name="e" unicode="e" horiz-adv-x="320" 
d="M249 341c-15 12 -89 -49 -137 -145c8 -5 15 -7 22 -7c24 0 56 30 76 57c29 39 50 86 39 95zM324 301c0 -60 -67 -165 -155 -165c-24 0 -48 7 -71 22c-6 -20 -9 -41 -9 -59c0 -44 18 -75 48 -75c76 0 143 74 184 136c11 16 24 18 32 -2c3 -9 4 -38 -14 -65
c-42 -61 -122 -108 -200 -109c-93 -1 -144 60 -144 140c0 36 10 75 31 115c52 106 133 159 191 159c14 0 25 -2 35 -8c28 -16 48 -32 62 -52c6 -9 10 -24 10 -37z" />
    <glyph glyph-name="f" unicode="f" horiz-adv-x="245" 
d="M274 462c-42 -74 -109 -181 -157 -275c48 -17 54 -75 49 -129c31 25 58 64 79 108c11 22 31 24 40 -2c6 -17 0 -39 -9 -62c-10 -24 -58 -80 -117 -103c-15 -99 -59 -213 -107 -274c-20 -25 -40 -37 -66 -37c-38 0 -85 60 -85 137c0 204 250 618 364 790c6 9 14 14 21 14
c12 0 29 -18 29 -53c0 -28 -12 -63 -41 -114zM98 39c5 18 7 30 7 51c0 37 -4 53 -11 50s-13 -42 -13 -65c0 -18 3 -30 17 -36zM-29 -216c0 -19 3 -34 9 -34c21 0 74 128 102 240c-18 4 -35 12 -46 24c-38 -94 -65 -183 -65 -230z" />
    <glyph glyph-name="g" unicode="g" horiz-adv-x="401" 
d="M435 151c0 -16 -4 -37 -19 -60c-38 -59 -107 -99 -189 -129c-53 -129 -126 -281 -207 -319c-24 -9 -49 -5 -70 23c-14 21 -29 47 -29 78c0 90 97 193 219 235l13 33c-22 -15 -48 -25 -75 -25c-57 0 -90 41 -90 101c0 143 169 308 267 308c33 0 55 -18 64 -42
c4 7 10 17 16 28c12 23 30 22 43 7c9 -11 16 -30 16 -51c0 -27 -11 -54 -36 -104c-32 -63 -72 -136 -105 -212c62 38 112 80 151 134c13 17 31 17 31 -5zM90 29c32 -1 79 60 128 144c39 68 57 117 57 143c0 12 -3 18 -10 18c-34 0 -188 -157 -188 -273c0 -19 4 -32 13 -32z
M111 -87c-42 -30 -73 -66 -94 -101c-29 -49 -42 -96 -32 -105c9 -7 34 23 65 77c20 35 42 79 61 129z" />
    <glyph glyph-name="h" unicode="h" horiz-adv-x="377" 
d="M405 92c-29 -58 -94 -108 -158 -108c-66 0 -96 33 -96 85c0 63 49 150 87 209c19 33 34 57 27 57c-9 0 -104 -63 -157 -149c-34 -56 -70 -125 -94 -185c-8 -18 -23 -21 -35 -6c-16 19 -30 43 -5 109c40 105 238 440 319 544c16 20 31 16 40 -4c5 -11 8 -24 8 -38
c0 -27 -12 -64 -36 -106c-20 -33 -82 -126 -92 -140c30 22 65 34 84 34c29 0 58 -31 58 -70c0 -14 -3 -28 -11 -42c-55 -98 -80 -140 -91 -164c-9 -22 -13 -43 -13 -59c0 -21 5 -34 19 -34c35 0 88 71 118 132c7 15 23 17 31 0c5 -12 12 -35 -3 -65z" />
    <glyph glyph-name="i" unicode="i" horiz-adv-x="201" 
d="M153 441c0 28 21 54 44 54c28 0 55 -36 55 -65c0 -27 -15 -50 -40 -50c-32 0 -59 30 -59 61zM227 90c-30 -63 -99 -105 -158 -105c-61 0 -88 35 -88 85c0 19 4 40 12 66c25 70 89 186 126 238c15 20 27 22 40 7c19 -20 27 -63 1 -113c-19 -43 -65 -118 -82 -158
c-9 -23 -14 -44 -14 -60s4 -25 15 -25c40 0 92 67 123 135c8 18 21 16 30 -2c9 -17 8 -42 -5 -68z" />
    <glyph glyph-name="j" unicode="j" horiz-adv-x="178" 
d="M238 463v1c6 -11 8 -22 8 -31c0 -15 -7 -29 -16 -39c-17 -20 -54 -18 -72 15c-7 12 -10 25 -10 36c0 16 6 30 17 41c21 24 58 11 73 -23zM156 271c-11 -24 -29 -62 -51 -105c-26 -52 -55 -110 -78 -161c72 43 120 99 157 153c11 17 28 20 35 -2c3 -10 0 -35 -15 -62
c-37 -67 -117 -114 -204 -152c-55 -128 -130 -292 -210 -328c-22 -9 -47 -8 -69 22c-14 21 -32 58 -32 91c0 11 3 26 9 44c29 87 115 149 213 187c64 156 153 337 206 419c13 20 26 21 40 7c10 -11 15 -27 15 -47c0 -19 -4 -42 -16 -66zM-108 -97c-46 -31 -81 -70 -105 -107
c-37 -56 -50 -107 -39 -121c9 -12 36 28 75 98c20 36 43 81 69 130z" />
    <glyph glyph-name="k" unicode="k" horiz-adv-x="375" 
d="M316 604c0 -39 -45 -115 -105 -224c18 13 35 20 52 26c45 16 72 0 94 -46c8 -15 12 -31 12 -48c0 -24 -10 -49 -35 -73c-32 -31 -73 -59 -132 -79c4 -75 28 -130 58 -130c34 0 89 70 117 128c12 24 25 26 34 1c5 -13 3 -38 -12 -64c-19 -35 -70 -107 -155 -106
c-74 1 -134 59 -134 199c-27 -48 -54 -109 -86 -184c-7 -14 -23 -19 -35 -4c-10 11 -16 25 -16 46c0 16 3 38 13 67c45 128 189 410 277 531c16 20 32 20 43 -1c6 -12 10 -25 10 -39zM302 357c-8 12 -43 0 -89 -35c-34 -26 -62 -62 -92 -112c29 10 99 41 132 68
c40 33 58 66 49 79z" />
    <glyph glyph-name="l" unicode="l" horiz-adv-x="230" 
d="M341 536c0 -14 -1 -25 -6 -42c-31 -119 -140 -237 -228 -296c-20 -51 -33 -96 -33 -131c0 -24 6 -41 19 -41c46 0 104 67 142 139c13 25 35 25 42 -1c4 -15 3 -38 -10 -65c-15 -30 -89 -112 -173 -112c-61 0 -99 35 -99 104c0 17 2 37 7 57c39 166 152 351 250 454
c19 19 37 25 56 7c22 -19 33 -47 33 -73zM285 511c-4 2 -30 -37 -64 -96c-26 -44 -70 -119 -77 -136c43 42 77 88 100 127c34 57 47 101 41 105z" />
    <glyph glyph-name="m" unicode="m" horiz-adv-x="565" 
d="M167 391c9 -15 14 -32 14 -48c0 -8 -1 -17 -3 -27c43 42 99 80 131 80s53 -36 53 -78c45 40 98 74 130 73c29 -1 45 -28 45 -61c0 -34 -21 -80 -62 -143c-28 -43 -54 -87 -54 -122c0 -23 10 -39 26 -39c31 0 80 70 117 131c9 15 19 16 28 7c11 -11 12 -49 0 -72
c-28 -58 -99 -108 -161 -108c-68 0 -105 37 -105 91c0 18 4 40 15 65c16 34 49 88 72 124c22 33 46 63 38 63s-29 -10 -88 -69c-78 -78 -126 -173 -168 -266c-10 -19 -24 -22 -40 -6c-15 15 -22 29 -22 55c0 17 8 49 18 74c14 36 47 90 74 132c27 45 55 83 46 83
c-8 0 -47 -22 -107 -88c-56 -60 -102 -151 -141 -243c-7 -16 -18 -22 -35 -7c-14 12 -24 30 -24 53c0 14 3 31 11 54c21 60 93 199 154 292c13 19 28 18 38 0z" />
    <glyph glyph-name="n" unicode="n" horiz-adv-x="384" 
d="M164 389c9 -15 13 -31 13 -47c0 -7 0 -14 -1 -20c43 40 91 73 127 73c29 0 56 -35 56 -73c0 -22 -18 -54 -50 -110c-32 -51 -66 -117 -66 -154c0 -21 7 -34 20 -34c34 0 86 65 122 132c10 19 24 18 33 4c8 -12 9 -43 -5 -70c-28 -55 -101 -108 -161 -108
c-67 0 -96 34 -96 86c0 54 46 146 85 208c21 33 37 59 30 59c-9 0 -58 -28 -113 -90c-55 -58 -100 -156 -141 -246c-7 -16 -20 -22 -36 -6c-14 14 -22 31 -22 55c0 15 3 32 9 52c19 56 96 196 158 289c13 19 28 18 38 0z" />
    <glyph glyph-name="o" unicode="o" horiz-adv-x="332" 
d="M345 212c-7 -8 -15 -12 -26 -14c-21 -83 -85 -181 -161 -207c-9 -3 -21 -6 -36 -6c-33 0 -70 14 -98 51c-19 25 -28 55 -28 87c0 44 16 93 42 140c45 80 108 130 174 130c29 0 47 -11 66 -37c28 -33 56 -40 47 -125c26 0 28 -9 20 -19zM250 251c10 23 14 47 14 60
c0 15 -8 21 -15 21c-6 0 -15 -8 -15 -24c0 -18 5 -44 16 -57zM74 78c0 -30 9 -42 24 -42c26 0 66 37 103 105c15 26 27 51 33 72c-32 20 -53 46 -61 81c-21 -20 -40 -45 -57 -75c-26 -48 -42 -104 -42 -141z" />
    <glyph glyph-name="p" unicode="p" horiz-adv-x="389" 
d="M149 235l-32 -54c-31 -64 -24 -136 2 -136c31 0 76 55 117 138c24 47 36 98 36 131c0 18 -2 30 -7 32c-18 8 -73 -38 -116 -111zM357 284c0 -43 -16 -94 -39 -142c-24 -55 -57 -100 -89 -126c74 15 131 81 160 139c12 23 33 18 37 -2c2 -10 3 -38 -14 -68
c-45 -81 -129 -109 -212 -109c-79 0 -128 27 -151 81c-44 -82 -87 -168 -129 -266c-8 -18 -20 -22 -30 -10c-15 19 -20 33 -20 54c0 16 3 37 12 65c29 95 194 406 256 489c18 22 31 18 39 7s10 -24 10 -37c25 17 54 30 81 30c60 0 89 -54 89 -105z" />
    <glyph glyph-name="q" unicode="q" horiz-adv-x="372" 
d="M65 -197c0 31 26 104 66 193c-15 -7 -32 -11 -50 -11c-58 0 -90 43 -90 102c0 43 17 96 53 149c79 115 161 160 214 160c38 0 60 -17 67 -44c10 15 20 28 27 35c18 18 29 15 41 -3c7 -10 9 -25 9 -38c0 -25 -10 -58 -30 -94c-82 -149 -185 -330 -253 -491
c-9 -20 -22 -20 -35 -6c-9 11 -19 25 -19 48zM92 27c34 0 82 61 131 146c39 68 57 117 57 143c0 12 -1 19 -9 19c-25 0 -91 -60 -144 -144c-31 -48 -47 -100 -47 -133c0 -19 4 -31 12 -31z" />
    <glyph glyph-name="r" unicode="r" horiz-adv-x="330" 
d="M165 437c21 0 30 -12 30 -35c0 -19 -7 -48 -18 -80c24 6 51 20 81 42c17 12 27 14 40 1c14 -14 29 -40 29 -64c0 -12 -5 -26 -16 -39c-54 -62 -111 -141 -111 -200c0 -26 8 -42 22 -42c34 0 74 56 105 125c8 18 22 19 31 1c7 -14 8 -38 -3 -65
c-24 -57 -83 -100 -140 -100c-61 0 -94 43 -94 97c0 64 53 141 103 202c-26 -11 -51 -15 -73 -16c-75 -130 -132 -222 -146 -291c-4 -18 -17 -27 -35 -8c-17 16 -25 37 -25 59s7 46 21 72c17 32 68 114 123 182c-12 11 -19 24 -19 37c0 51 64 122 95 122z" />
    <glyph glyph-name="s" unicode="s" horiz-adv-x="302" 
d="M115 31c21 0 30 50 30 115c0 32 -1 64 -3 91c-24 -38 -52 -81 -82 -124c12 -47 33 -82 55 -82zM-22 127c0 30 10 59 32 78c20 17 35 12 38 -12c33 47 68 99 94 142c4 36 16 59 39 78c16 14 34 21 49 21c27 0 33 -22 2 -73c-1 -12 -2 -29 -2 -42c0 -71 13 -136 11 -190
c-1 -25 -6 -53 -17 -75c41 28 69 61 87 110c9 23 24 16 31 0c5 -10 8 -38 -10 -69c-38 -70 -108 -108 -183 -111c-60 -2 -120 14 -154 77c-11 19 -17 43 -17 66z" />
    <glyph glyph-name="t" unicode="t" horiz-adv-x="214" 
d="M-9 97c0 22 6 50 20 83c20 49 58 128 98 200c-31 4 -49 15 -57 27c-14 21 -4 31 19 30s50 0 72 2c31 54 52 87 75 120c15 22 27 21 38 2c7 -12 11 -29 11 -41c0 -18 -4 -41 -16 -69c31 -4 48 -20 55 -32c10 -18 3 -30 -21 -27c-18 2 -44 0 -66 -3
c-38 -65 -95 -164 -130 -240c-12 -27 -18 -53 -18 -75c0 -30 10 -51 27 -51c39 0 91 63 126 138c11 24 34 26 41 -1c5 -21 1 -36 -10 -59c-14 -30 -81 -116 -165 -116c-53 0 -99 43 -99 112z" />
    <glyph glyph-name="u" unicode="u" horiz-adv-x="404" 
d="M431 90c-29 -57 -94 -108 -156 -108c-59 0 -89 29 -93 74c-34 -38 -79 -69 -130 -69s-71 38 -71 81c0 22 4 45 13 69c22 63 73 163 135 250c13 17 31 15 43 0c11 -14 15 -31 15 -46c0 -41 -73 -157 -108 -234c-18 -40 -21 -77 1 -77c26 0 79 68 130 148
c59 96 85 164 121 210c14 19 30 23 42 6c10 -14 15 -30 15 -52c0 -34 -21 -78 -56 -136c-29 -47 -68 -115 -68 -154c0 -18 6 -28 19 -28c33 0 84 69 120 132c10 17 27 20 35 1c4 -9 8 -38 -7 -67z" />
    <glyph glyph-name="v" unicode="v" horiz-adv-x="300" 
d="M130 270c-25 -99 -35 -139 -44 -192c72 111 181 254 240 315c22 21 34 17 37 -7c3 -22 -8 -49 -42 -90c-91 -109 -159 -189 -231 -303c-7 -11 -18 -19 -33 -12c-41 19 -58 42 -55 95c4 69 30 208 65 312c6 18 20 23 36 10c23 -20 34 -44 34 -74c0 -16 -2 -34 -7 -54z" />
    <glyph glyph-name="w" unicode="w" horiz-adv-x="490" 
d="M238 48c0 -14 4 -22 13 -22c29 0 83 62 135 151c19 178 101 223 119 223s25 -17 21 -41c-6 -37 -23 -81 -86 -187c-68 -113 -140 -190 -210 -188c-40 1 -65 29 -72 62c-28 -30 -68 -57 -111 -57c-47 0 -68 34 -68 78c0 21 3 45 13 70c25 62 80 172 137 251
c12 16 28 18 38 4c8 -11 20 -34 20 -51c0 -24 -12 -54 -35 -91c-34 -54 -58 -100 -79 -147c-8 -21 -12 -40 -12 -55c0 -12 1 -19 9 -19c26 0 59 53 102 124c45 74 65 113 84 147c18 34 36 65 54 88c13 17 27 18 38 7c27 -29 27 -69 3 -118c-16 -33 -59 -93 -95 -170
c-12 -24 -18 -45 -18 -59z" />
    <glyph glyph-name="x" unicode="x" horiz-adv-x="385" 
d="M11 0c3 33 24 63 62 104c23 26 54 51 88 80c-11 70 -25 158 -32 158c-9 0 -34 -36 -63 -97c-8 -17 -28 -19 -35 -2c-6 15 -1 38 6 57c17 46 71 93 122 93c40 0 63 -21 74 -75c5 -23 8 -36 12 -67c46 39 91 81 129 130c19 25 39 26 39 -6c0 -33 -20 -64 -56 -103
c-20 -23 -60 -56 -102 -90c10 -73 12 -90 15 -104c8 -36 15 -49 25 -49c28 0 67 71 92 125c9 19 25 18 33 3c7 -13 6 -41 -7 -67c-31 -59 -86 -106 -139 -106c-69 0 -95 47 -102 128c-43 -36 -84 -76 -120 -120c-14 -16 -45 -24 -41 8z" />
    <glyph glyph-name="y" unicode="y" horiz-adv-x="375" 
d="M402 166c5 -16 3 -42 -14 -68c-40 -61 -106 -98 -188 -132c-55 -132 -123 -292 -210 -325c-23 -9 -44 -9 -68 23c-15 21 -30 51 -30 83c0 12 3 29 9 47c31 86 112 147 209 186l15 35c-26 -19 -52 -28 -82 -28c-50 0 -72 38 -72 80c0 21 4 45 13 70c23 63 72 164 134 249
c13 17 28 18 39 2c10 -14 19 -32 19 -48c0 -25 -12 -54 -35 -91c-34 -54 -55 -95 -74 -142c-14 -36 -23 -76 3 -76s71 59 120 142c67 113 94 174 118 210c14 18 27 20 38 9c15 -15 19 -30 19 -51c0 -20 -5 -42 -18 -67c-29 -56 -81 -153 -122 -248c61 37 113 88 145 133
c13 18 28 20 32 7zM84 -85c-48 -33 -82 -76 -103 -115c-25 -47 -32 -88 -22 -97c7 -6 28 23 56 72c21 37 45 86 69 140z" />
    <glyph glyph-name="z" unicode="z" horiz-adv-x="353" 
d="M-18 -199c0 12 3 27 10 44c38 82 118 133 200 167c6 29 0 50 -26 50c-22 0 -55 -11 -86 -31c-12 -9 -26 -11 -32 4c-15 43 11 78 47 99c138 81 204 173 179 204c-22 27 -145 -44 -217 -130c-14 -16 -29 -12 -34 6c-9 34 5 73 43 110c45 43 114 75 172 75
c34 0 63 -11 83 -40c12 -17 20 -40 20 -60c0 -22 -8 -49 -24 -75c-24 -39 -76 -87 -131 -123c37 -4 62 -32 72 -61c35 23 72 65 100 117c8 15 27 18 35 4c8 -13 2 -44 -12 -70c-22 -39 -77 -74 -118 -93c-1 -105 -105 -253 -169 -288c-10 -6 -20 -10 -32 -10
c-16 0 -30 7 -46 25c-16 19 -34 43 -34 76zM179 -41c-47 -29 -85 -70 -105 -98c-37 -52 -33 -96 -14 -96c12 0 37 31 62 71c22 36 42 80 57 123z" />
    <glyph glyph-name="braceleft" unicode="{" horiz-adv-x="193" 
d="M264 424c-9 -18 -16 -34 -23 -45c-23 -43 -51 -66 -88 -73c10 -13 16 -27 16 -42c0 -25 -5 -38 -50 -117c-28 -45 -61 -102 -56 -135c4 -24 -9 -32 -32 -18c-23 15 -39 40 -39 72c0 12 2 25 9 42c21 54 67 106 85 152c7 20 5 36 -5 47c-10 12 -5 28 17 30
c14 1 28 8 43 29c22 26 66 144 104 205c32 47 83 54 117 46c18 -4 20 -17 5 -28c-34 -25 -74 -107 -103 -165z" />
    <glyph glyph-name="bar" unicode="|" horiz-adv-x="224" 
d="M2 82c34 96 206 427 294 560c16 23 34 20 43 -2c5 -10 8 -22 8 -34c0 -28 -13 -70 -41 -118c-61 -109 -212 -382 -265 -514c-8 -18 -22 -17 -35 -3c-9 10 -16 28 -16 49c0 15 4 36 12 62z" />
    <glyph glyph-name="braceright" unicode="}" horiz-adv-x="306" 
d="M97 181c9 19 17 34 24 46c22 38 51 63 86 72c-9 12 -13 25 -13 41c0 19 5 40 18 63c28 51 100 150 89 194c-5 21 5 29 30 19c29 -10 47 -34 47 -64c0 -8 -2 -21 -6 -32c-12 -34 -44 -86 -64 -118c-13 -22 -27 -41 -33 -58c-9 -23 -5 -38 3 -46c13 -13 4 -26 -19 -32
c-13 -3 -24 -12 -39 -31c-13 -17 -30 -54 -47 -92c-16 -34 -32 -72 -53 -104c-31 -46 -79 -54 -118 -47c-22 4 -21 18 -4 29c30 18 69 100 99 160z" />
    <glyph glyph-name="asciitilde" unicode="~" horiz-adv-x="327" 
d="M60 211c-21 -11 -31 -2 -24 15c6 19 31 54 66 60c21 3 47 -3 74 -9c25 -6 52 -11 74 -11c13 0 26 2 37 7c19 9 34 4 24 -16c-10 -24 -30 -50 -56 -57c-28 -7 -63 1 -98 7c-25 5 -49 10 -68 10c-11 0 -20 -2 -29 -6z" />
    <glyph glyph-name="Adieresis" unicode="&#xc4;" horiz-adv-x="442" 
d="M364 643c-21 6 -31 33 -19 55c12 25 38 40 59 31c22 -10 26 -33 16 -54c-10 -24 -34 -39 -56 -32zM476 646c-19 6 -28 31 -19 53c10 25 38 37 57 31s28 -31 19 -54c-10 -24 -37 -37 -57 -30zM308 226c12 83 32 180 57 255c-64 -77 -136 -173 -199 -271c20 2 40 4 59 7
c34 4 56 8 83 9zM337 -9c-22 11 -41 37 -42 95c0 18 0 41 3 67l-70 -7c-40 -4 -79 -8 -107 -7c-27 -47 -49 -97 -72 -138c-12 -21 -29 -17 -36 -3c-6 12 -12 21 -12 37s4 39 16 68c6 15 13 32 24 53c-18 13 -27 27 -30 33c-8 19 -4 25 22 21c14 -2 22 -3 36 -4
c75 131 213 324 318 413c22 18 37 17 52 -3c10 -13 16 -24 23 -41c5 -12 8 -23 8 -35s-2 -26 -8 -41c-23 -72 -51 -176 -70 -281c27 -12 37 -31 44 -52c5 -16 -2 -20 -20 -17l-35 6c-6 -50 -11 -101 -13 -150c0 -18 -13 -22 -31 -14z" />
    <glyph glyph-name="Aring" unicode="&#xc5;" horiz-adv-x="442" 
d="M467 633c7 13 11 28 11 36c0 2 -1 5 -3 5c-5 0 -14 -8 -19 -19c-5 -12 -7 -22 -7 -29c0 -6 1 -11 3 -11c4 0 9 6 15 18zM308 226c12 83 32 180 57 255c-64 -77 -136 -173 -199 -271c20 2 40 4 59 7c34 4 56 8 83 9zM49 1c-12 -21 -29 -17 -36 -3c-6 12 -12 21 -12 37
s4 39 16 68c6 15 13 32 24 53c-18 13 -27 27 -30 33c-8 19 -4 25 22 21c14 -2 22 -3 36 -4c75 131 213 324 318 413c5 4 10 7 14 9c-1 5 -1 9 -1 14c0 12 3 24 8 35c10 20 31 35 56 35c32 0 60 -35 60 -60c0 -15 -4 -30 -12 -44c-11 -19 -30 -32 -50 -32v-1
c5 -12 8 -23 8 -35s-2 -26 -8 -41c-23 -72 -51 -176 -70 -281c27 -12 37 -31 44 -52c5 -16 -2 -20 -20 -17l-35 6c-6 -50 -11 -101 -13 -150c0 -18 -13 -22 -31 -14c-22 11 -41 37 -42 95c0 18 0 41 3 67l-70 -7c-40 -4 -79 -8 -107 -7c-27 -47 -49 -97 -72 -138z" />
    <glyph glyph-name="Ccedilla" unicode="&#xc7;" horiz-adv-x="462" 
d="M199 -98c-13 -22 -39 -33 -62 -33c-20 0 -42 10 -56 28c-9 14 1 18 16 18c37 0 63 11 59 21c-1 3 -8 2 -20 0c-13 -2 -22 -3 -33 10s-12 23 -6 34l19 31l-2 1c-47 25 -88 88 -90 170c-4 202 175 383 288 434c26 10 54 17 79 17s48 -7 65 -21c34 -30 60 -69 60 -108
c0 -18 -4 -38 -14 -58c-17 -34 -31 -68 -38 -90c-5 -17 -19 -27 -39 -15c-20 13 -34 35 -34 64c0 12 2 24 6 37c4 15 11 31 17 46c14 35 26 67 14 80c-24 26 -166 -61 -249 -195c-44 -71 -63 -153 -63 -213c0 -86 38 -124 74 -124c55 0 126 64 184 175c7 14 30 20 40 -3
c5 -11 7 -23 7 -33c0 -58 -54 -116 -90 -143c-41 -29 -86 -41 -129 -41c-12 0 -24 1 -35 3l-8 -18c18 -3 31 -9 39 -23c12 -24 8 -40 1 -51z" />
    <glyph glyph-name="Eacute" unicode="&#xc9;" horiz-adv-x="368" 
d="M426 736c18 0 34 -5 45 -11c13 -8 15 -17 -1 -25l-38 -19c-29 -15 -60 -30 -77 -35c-23 -7 -46 -6 -59 0c-14 7 -16 14 0 25c25 18 67 45 95 57c13 6 25 8 35 8zM-24 38c-8 13 -6 26 4 54c45 118 141 299 224 428c-23 15 -35 31 -40 50c-3 14 8 20 23 20
c55 0 108 6 156 14c34 5 62 10 88 10c46 1 71 -17 84 -52c4 -11 -3 -20 -22 -20c-50 0 -104 -10 -151 -19c-15 -3 -25 -5 -40 -7c-33 -50 -79 -133 -126 -218c21 3 38 4 52 5c55 2 81 -16 92 -48c5 -13 3 -23 -20 -23c-49 0 -119 -12 -173 -26c-28 -53 -49 -94 -69 -139
c41 11 104 22 136 24c54 2 82 -14 94 -47c5 -14 2 -22 -19 -22c-53 1 -160 -25 -215 -40c-24 -7 -40 -7 -53 12c-7 10 -14 26 -25 44z" />
    <glyph glyph-name="Ntilde" unicode="&#xd1;" horiz-adv-x="459" 
d="M351 665c-18 -5 -27 1 -21 17c7 17 34 39 70 39c23 0 41 -7 58 -14c19 -7 39 -15 56 -15c7 0 15 1 24 4c23 6 34 0 23 -20c-14 -27 -44 -37 -71 -37c-25 0 -47 8 -69 15c-18 7 -37 14 -54 14c-6 0 -11 -1 -16 -3zM211 82c-2 29 -3 49 -3 73c0 58 4 141 13 226
c-71 -122 -142 -260 -186 -383c-7 -20 -22 -21 -36 -6c-10 13 -19 33 -19 56c0 15 5 39 13 60c52 134 179 372 255 498c13 22 25 22 40 10c30 -22 44 -43 44 -79c0 -14 -2 -30 -5 -48c-14 -81 -23 -185 -30 -300c68 143 165 318 231 421c15 21 27 16 38 -3
c6 -12 9 -25 9 -39c0 -24 -6 -59 -37 -109c-56 -92 -179 -327 -240 -462c-6 -12 -17 -18 -34 -9c-33 17 -49 43 -53 94z" />
    <glyph glyph-name="Odieresis" unicode="&#xd6;" 
d="M411 643c-21 6 -31 33 -19 55c12 25 38 40 59 31c22 -10 26 -33 16 -54c-10 -24 -34 -39 -56 -32zM523 646c-19 6 -28 31 -19 53c10 25 38 37 57 31s28 -31 19 -54c-10 -24 -37 -37 -57 -30zM393 628c36 0 64 -12 81 -30c65 -29 91 -90 91 -161c0 -74 -26 -160 -64 -230
c-68 -124 -169 -227 -284 -227c-24 0 -45 4 -67 12c-86 32 -119 107 -119 190c0 211 188 396 302 436c20 7 39 10 60 10zM184 35c62 0 155 76 226 206c48 89 68 173 68 234c0 48 -10 80 -31 88c-44 16 -162 -50 -253 -189c-51 -79 -73 -165 -73 -230c0 -70 25 -109 63 -109z
" />
    <glyph glyph-name="Udieresis" unicode="&#xdc;" horiz-adv-x="452" 
d="M349 643c-21 6 -31 33 -19 55c12 25 38 40 59 31c22 -10 26 -33 16 -54c-10 -24 -34 -39 -56 -32zM461 646c-19 6 -28 31 -19 53c10 25 38 37 57 31s28 -31 19 -54c-10 -24 -37 -37 -57 -30zM131 -23c-22 0 -41 4 -58 11c-42 17 -81 54 -81 124c0 19 2 38 7 60
c27 109 140 296 230 434c14 20 30 17 42 -1c8 -13 13 -27 13 -45c0 -23 -8 -55 -31 -98c-48 -89 -144 -238 -171 -342c-4 -18 -7 -34 -7 -47c0 -33 15 -47 37 -47c51 0 117 79 176 195c54 105 163 300 217 386c13 21 29 17 41 -1c6 -11 10 -26 10 -41c0 -22 -6 -52 -22 -86
c-34 -76 -157 -304 -223 -395c-53 -73 -119 -107 -180 -107z" />
    <glyph glyph-name="aacute" unicode="&#xe1;" horiz-adv-x="407" 
d="M385 517c18 0 34 -5 45 -11c13 -8 15 -17 -1 -25l-38 -19c-29 -15 -60 -30 -77 -35c-23 -7 -46 -6 -59 0c-14 7 -16 14 0 25c25 18 67 45 95 57c13 6 25 8 35 8zM46 237c80 115 162 162 213 162c36 0 58 -18 67 -44l19 31c12 20 29 21 41 7c17 -20 26 -64 0 -116
c-26 -55 -110 -164 -110 -231c0 -15 4 -24 14 -24c36 0 86 68 119 133c11 20 20 21 30 0c4 -9 10 -36 -4 -65c-26 -55 -90 -108 -151 -108c-50 0 -79 26 -87 63c-29 -28 -74 -59 -114 -59c-59 0 -91 43 -91 102c0 43 18 99 54 149zM96 30c33 0 79 61 128 145
c39 68 57 117 57 143c0 12 -2 19 -12 19c-20 0 -89 -63 -140 -145c-30 -47 -47 -100 -47 -132c0 -18 4 -30 14 -30z" />
    <glyph glyph-name="agrave" unicode="&#xe0;" horiz-adv-x="407" 
d="M220 483c-17 10 -6 19 1 24c9 6 24 9 41 9c12 0 28 -3 40 -9c29 -15 66 -41 88 -60c12 -10 11 -18 -4 -24c-14 -6 -37 -8 -59 1c-25 11 -70 36 -107 59zM46 237c80 115 162 162 213 162c36 0 58 -18 67 -44l19 31c12 20 29 21 41 7c17 -20 26 -64 0 -116
c-26 -55 -110 -164 -110 -231c0 -15 4 -24 14 -24c36 0 86 68 119 133c11 20 20 21 30 0c4 -9 10 -36 -4 -65c-26 -55 -90 -108 -151 -108c-50 0 -79 26 -87 63c-29 -28 -74 -59 -114 -59c-59 0 -91 43 -91 102c0 43 18 99 54 149zM96 30c33 0 79 61 128 145
c39 68 57 117 57 143c0 12 -2 19 -12 19c-20 0 -89 -63 -140 -145c-30 -47 -47 -100 -47 -132c0 -18 4 -30 14 -30z" />
    <glyph glyph-name="acircumflex" unicode="&#xe2;" horiz-adv-x="407" 
d="M336 459l-50 -29c-22 -13 -45 -12 -57 -10c-17 4 -19 16 -6 25c69 50 91 67 115 81c4 3 10 5 16 5c15 0 26 -6 32 -17c11 -19 29 -52 39 -69c6 -11 -1 -20 -12 -23c-22 -6 -42 -1 -62 19c-6 6 -11 12 -15 18zM46 237c80 115 162 162 213 162c36 0 58 -18 67 -44l19 31
c12 20 29 21 41 7c17 -20 26 -64 0 -116c-26 -55 -110 -164 -110 -231c0 -15 4 -24 14 -24c36 0 86 68 119 133c11 20 20 21 30 0c4 -9 10 -36 -4 -65c-26 -55 -90 -108 -151 -108c-50 0 -79 26 -87 63c-29 -28 -74 -59 -114 -59c-59 0 -91 43 -91 102c0 43 18 99 54 149z
M96 30c33 0 79 61 128 145c39 68 57 117 57 143c0 12 -2 19 -12 19c-20 0 -89 -63 -140 -145c-30 -47 -47 -100 -47 -132c0 -18 4 -30 14 -30z" />
    <glyph glyph-name="adieresis" unicode="&#xe4;" horiz-adv-x="407" 
d="M365 419c-20 11 -28 33 -17 55c12 24 38 39 59 30c22 -10 26 -32 17 -54c-11 -24 -38 -41 -59 -31zM259 418c-18 8 -28 32 -18 55c11 24 36 39 58 29c18 -8 28 -30 17 -54c-11 -23 -37 -36 -57 -30zM46 237c80 115 162 162 213 162c36 0 58 -18 67 -44l19 31
c12 20 29 21 41 7c17 -20 26 -64 0 -116c-26 -55 -110 -164 -110 -231c0 -15 4 -24 14 -24c36 0 86 68 119 133c11 20 20 21 30 0c4 -9 10 -36 -4 -65c-26 -55 -90 -108 -151 -108c-50 0 -79 26 -87 63c-29 -28 -74 -59 -114 -59c-59 0 -91 43 -91 102c0 43 18 99 54 149z
M96 30c33 0 79 61 128 145c39 68 57 117 57 143c0 12 -2 19 -12 19c-20 0 -89 -63 -140 -145c-30 -47 -47 -100 -47 -132c0 -18 4 -30 14 -30z" />
    <glyph glyph-name="atilde" unicode="&#xe3;" horiz-adv-x="407" 
d="M243 428c-22 -12 -31 -2 -25 14c8 22 42 52 80 52c30 0 59 -13 85 -13c11 0 23 3 37 9c19 8 33 4 24 -17c-15 -34 -48 -50 -83 -50c-33 0 -64 12 -90 12c-9 0 -19 -2 -28 -7zM46 237c80 115 162 162 213 162c36 0 58 -18 67 -44l19 31c12 20 29 21 41 7
c17 -20 26 -64 0 -116c-26 -55 -110 -164 -110 -231c0 -15 4 -24 14 -24c36 0 86 68 119 133c11 20 20 21 30 0c4 -9 10 -36 -4 -65c-26 -55 -90 -108 -151 -108c-50 0 -79 26 -87 63c-29 -28 -74 -59 -114 -59c-59 0 -91 43 -91 102c0 43 18 99 54 149zM96 30
c33 0 79 61 128 145c39 68 57 117 57 143c0 12 -2 19 -12 19c-20 0 -89 -63 -140 -145c-30 -47 -47 -100 -47 -132c0 -18 4 -30 14 -30z" />
    <glyph glyph-name="aring" unicode="&#xe5;" horiz-adv-x="407" 
d="M384 549c32 0 60 -35 60 -60c0 -15 -4 -30 -12 -44c-16 -28 -50 -44 -82 -21c-21 14 -30 35 -30 55c0 12 3 24 8 35c10 20 31 35 56 35zM387 470c7 13 11 28 11 36c0 2 -1 5 -3 5c-5 0 -14 -8 -19 -19c-5 -12 -7 -22 -7 -29c0 -6 1 -11 3 -11c4 0 9 6 15 18zM46 237
c80 115 162 162 213 162c36 0 58 -18 67 -44l19 31c12 20 29 21 41 7c17 -20 26 -64 0 -116c-26 -55 -110 -164 -110 -231c0 -15 4 -24 14 -24c36 0 86 68 119 133c11 20 20 21 30 0c4 -9 10 -36 -4 -65c-26 -55 -90 -108 -151 -108c-50 0 -79 26 -87 63
c-29 -28 -74 -59 -114 -59c-59 0 -91 43 -91 102c0 43 18 99 54 149zM96 30c33 0 79 61 128 145c39 68 57 117 57 143c0 12 -2 19 -12 19c-20 0 -89 -63 -140 -145c-30 -47 -47 -100 -47 -132c0 -18 4 -30 14 -30z" />
    <glyph glyph-name="ccedilla" unicode="&#xe7;" horiz-adv-x="310" 
d="M143 -102c-13 -22 -39 -33 -62 -33c-20 0 -42 10 -56 28c-9 14 1 18 16 18c37 0 63 11 59 21c-1 3 -8 2 -20 0c-13 -2 -22 -3 -33 10s-9 23 -2 33l17 25c-45 23 -69 68 -69 123c0 36 10 76 31 116c51 103 130 157 188 157c37 0 79 -34 95 -64c15 -33 -1 -70 -20 -109
c-8 -15 -14 -30 -18 -41c-7 -19 -16 -21 -36 -11c-18 11 -35 30 -35 57c0 13 5 33 23 74c10 20 17 38 13 42c-12 10 -77 -55 -117 -136c-20 -41 -30 -82 -30 -112c0 -44 18 -71 45 -72c75 -1 144 76 184 136c9 15 24 19 30 2c5 -13 5 -39 -13 -67
c-38 -60 -119 -109 -197 -110c-9 0 -17 0 -26 1l-7 -14c18 -3 31 -9 39 -23c12 -24 8 -40 1 -51z" />
    <glyph glyph-name="eacute" unicode="&#xe9;" horiz-adv-x="320" 
d="M302 517c18 0 34 -5 45 -11c13 -8 15 -17 -1 -25l-38 -19c-29 -15 -60 -30 -77 -35c-23 -7 -46 -6 -59 0c-14 7 -16 14 0 25c25 18 67 45 95 57c13 6 25 8 35 8zM249 341c-15 12 -89 -49 -137 -145c8 -5 15 -7 22 -7c24 0 56 30 76 57c29 39 50 86 39 95zM324 301
c0 -60 -67 -165 -155 -165c-24 0 -48 7 -71 22c-6 -20 -9 -41 -9 -59c0 -44 18 -75 48 -75c76 0 143 74 184 136c11 16 24 18 32 -2c3 -9 4 -38 -14 -65c-42 -61 -122 -108 -200 -109c-93 -1 -144 60 -144 140c0 36 10 75 31 115c52 106 133 159 191 159c14 0 25 -2 35 -8
c28 -16 48 -32 62 -52c6 -9 10 -24 10 -37z" />
    <glyph glyph-name="egrave" unicode="&#xe8;" horiz-adv-x="320" 
d="M176 483c-17 10 -6 19 1 24c9 6 24 9 41 9c12 0 28 -3 40 -9c29 -15 66 -41 88 -60c12 -10 11 -18 -4 -24c-14 -6 -37 -8 -59 1c-25 11 -70 36 -107 59zM249 341c-15 12 -89 -49 -137 -145c8 -5 15 -7 22 -7c24 0 56 30 76 57c29 39 50 86 39 95zM324 301
c0 -60 -67 -165 -155 -165c-24 0 -48 7 -71 22c-6 -20 -9 -41 -9 -59c0 -44 18 -75 48 -75c76 0 143 74 184 136c11 16 24 18 32 -2c3 -9 4 -38 -14 -65c-42 -61 -122 -108 -200 -109c-93 -1 -144 60 -144 140c0 36 10 75 31 115c52 106 133 159 191 159c14 0 25 -2 35 -8
c28 -16 48 -32 62 -52c6 -9 10 -24 10 -37z" />
    <glyph glyph-name="ecircumflex" unicode="&#xea;" horiz-adv-x="320" 
d="M273 459l-50 -29c-22 -13 -45 -12 -57 -10c-17 4 -19 16 -6 25c69 50 91 67 115 81c4 3 10 5 16 5c15 0 26 -6 32 -17c11 -19 29 -52 39 -69c6 -11 -1 -20 -12 -23c-22 -6 -42 -1 -62 19c-6 6 -11 12 -15 18zM249 341c-15 12 -89 -49 -137 -145c8 -5 15 -7 22 -7
c24 0 56 30 76 57c29 39 50 86 39 95zM324 301c0 -60 -67 -165 -155 -165c-24 0 -48 7 -71 22c-6 -20 -9 -41 -9 -59c0 -44 18 -75 48 -75c76 0 143 74 184 136c11 16 24 18 32 -2c3 -9 4 -38 -14 -65c-42 -61 -122 -108 -200 -109c-93 -1 -144 60 -144 140
c0 36 10 75 31 115c52 106 133 159 191 159c14 0 25 -2 35 -8c28 -16 48 -32 62 -52c6 -9 10 -24 10 -37z" />
    <glyph glyph-name="edieresis" unicode="&#xeb;" horiz-adv-x="320" 
d="M292 419c-20 11 -28 33 -17 55c12 24 38 39 59 30c22 -10 26 -32 17 -54c-11 -24 -38 -41 -59 -31zM186 418c-18 8 -28 32 -18 55c11 24 36 39 58 29c18 -8 28 -30 17 -54c-11 -23 -37 -36 -57 -30zM249 341c-15 12 -89 -49 -137 -145c8 -5 15 -7 22 -7c24 0 56 30 76 57
c29 39 50 86 39 95zM324 301c0 -60 -67 -165 -155 -165c-24 0 -48 7 -71 22c-6 -20 -9 -41 -9 -59c0 -44 18 -75 48 -75c76 0 143 74 184 136c11 16 24 18 32 -2c3 -9 4 -38 -14 -65c-42 -61 -122 -108 -200 -109c-93 -1 -144 60 -144 140c0 36 10 75 31 115
c52 106 133 159 191 159c14 0 25 -2 35 -8c28 -16 48 -32 62 -52c6 -9 10 -24 10 -37z" />
    <glyph glyph-name="iacute" unicode="&#xed;" horiz-adv-x="201" 
d="M242 517c18 0 34 -5 45 -11c13 -8 15 -17 -1 -25l-38 -19c-29 -15 -60 -30 -77 -35c-23 -7 -46 -6 -59 0c-14 7 -16 14 0 25c25 18 67 45 95 57c13 6 25 8 35 8zM227 90c-30 -63 -99 -105 -158 -105c-61 0 -88 35 -88 85c0 19 4 40 12 66c25 70 89 186 126 238
c15 20 27 22 40 7c19 -20 27 -63 1 -113c-19 -43 -65 -118 -82 -158c-9 -23 -14 -44 -14 -60s4 -25 15 -25c40 0 92 67 123 135c8 18 21 16 30 -2c9 -17 8 -42 -5 -68z" />
    <glyph glyph-name="igrave" unicode="&#xec;" horiz-adv-x="201" 
d="M97 483c-17 10 -6 19 1 24c9 6 24 9 41 9c12 0 28 -3 40 -9c29 -15 66 -41 88 -60c12 -10 11 -18 -4 -24c-14 -6 -37 -8 -59 1c-25 11 -70 36 -107 59zM227 90c-30 -63 -99 -105 -158 -105c-61 0 -88 35 -88 85c0 19 4 40 12 66c25 70 89 186 126 238c15 20 27 22 40 7
c19 -20 27 -63 1 -113c-19 -43 -65 -118 -82 -158c-9 -23 -14 -44 -14 -60s4 -25 15 -25c40 0 92 67 123 135c8 18 21 16 30 -2c9 -17 8 -42 -5 -68z" />
    <glyph glyph-name="icircumflex" unicode="&#xee;" horiz-adv-x="201" 
d="M183 459l-50 -29c-22 -13 -45 -12 -57 -10c-17 4 -19 16 -6 25c69 50 91 67 115 81c4 3 10 5 16 5c15 0 26 -6 32 -17c11 -19 29 -52 39 -69c6 -11 -1 -20 -12 -23c-22 -6 -42 -1 -62 19c-6 6 -11 12 -15 18zM227 90c-30 -63 -99 -105 -158 -105c-61 0 -88 35 -88 85
c0 19 4 40 12 66c25 70 89 186 126 238c15 20 27 22 40 7c19 -20 27 -63 1 -113c-19 -43 -65 -118 -82 -158c-9 -23 -14 -44 -14 -60s4 -25 15 -25c40 0 92 67 123 135c8 18 21 16 30 -2c9 -17 8 -42 -5 -68z" />
    <glyph glyph-name="idieresis" unicode="&#xef;" horiz-adv-x="201" 
d="M222 419c-20 11 -28 33 -17 55c12 24 38 39 59 30c22 -10 26 -32 17 -54c-11 -24 -38 -41 -59 -31zM116 418c-18 8 -28 32 -18 55c11 24 36 39 58 29c18 -8 28 -30 17 -54c-11 -23 -37 -36 -57 -30zM227 90c-30 -63 -99 -105 -158 -105c-61 0 -88 35 -88 85
c0 19 4 40 12 66c25 70 89 186 126 238c15 20 27 22 40 7c19 -20 27 -63 1 -113c-19 -43 -65 -118 -82 -158c-9 -23 -14 -44 -14 -60s4 -25 15 -25c40 0 92 67 123 135c8 18 21 16 30 -2c9 -17 8 -42 -5 -68z" />
    <glyph glyph-name="ntilde" unicode="&#xf1;" horiz-adv-x="384" 
d="M202 428c-22 -12 -31 -2 -25 14c8 22 42 52 80 52c30 0 59 -13 85 -13c11 0 23 3 37 9c19 8 33 4 24 -17c-15 -34 -48 -50 -83 -50c-33 0 -64 12 -90 12c-9 0 -19 -2 -28 -7zM164 389c9 -15 13 -31 13 -47c0 -7 0 -14 -1 -20c43 40 91 73 127 73c29 0 56 -35 56 -73
c0 -22 -18 -54 -50 -110c-32 -51 -66 -117 -66 -154c0 -21 7 -34 20 -34c34 0 86 65 122 132c10 19 24 18 33 4c8 -12 9 -43 -5 -70c-28 -55 -101 -108 -161 -108c-67 0 -96 34 -96 86c0 54 46 146 85 208c21 33 37 59 30 59c-9 0 -58 -28 -113 -90
c-55 -58 -100 -156 -141 -246c-7 -16 -20 -22 -36 -6c-14 14 -22 31 -22 55c0 15 3 32 9 52c19 56 96 196 158 289c13 19 28 18 38 0z" />
    <glyph glyph-name="oacute" unicode="&#xf3;" horiz-adv-x="332" 
d="M308 517c18 0 34 -5 45 -11c13 -8 15 -17 -1 -25l-38 -19c-29 -15 -60 -30 -77 -35c-23 -7 -46 -6 -59 0c-14 7 -16 14 0 25c25 18 67 45 95 57c13 6 25 8 35 8zM345 212c-7 -8 -15 -12 -26 -14c-21 -83 -85 -181 -161 -207c-9 -3 -21 -6 -36 -6c-33 0 -70 14 -98 51
c-19 25 -28 55 -28 87c0 44 16 93 42 140c45 80 108 130 174 130c29 0 47 -11 66 -37c28 -33 56 -40 47 -125c26 0 28 -9 20 -19zM250 251c10 23 14 47 14 60c0 15 -8 21 -15 21c-6 0 -15 -8 -15 -24c0 -18 5 -44 16 -57zM74 78c0 -30 9 -42 24 -42c26 0 66 37 103 105
c15 26 27 51 33 72c-32 20 -53 46 -61 81c-21 -20 -40 -45 -57 -75c-26 -48 -42 -104 -42 -141z" />
    <glyph glyph-name="ograve" unicode="&#xf2;" horiz-adv-x="332" 
d="M182 483c-17 10 -6 19 1 24c9 6 24 9 41 9c12 0 28 -3 40 -9c29 -15 66 -41 88 -60c12 -10 11 -18 -4 -24c-14 -6 -37 -8 -59 1c-25 11 -70 36 -107 59zM345 212c-7 -8 -15 -12 -26 -14c-21 -83 -85 -181 -161 -207c-9 -3 -21 -6 -36 -6c-33 0 -70 14 -98 51
c-19 25 -28 55 -28 87c0 44 16 93 42 140c45 80 108 130 174 130c29 0 47 -11 66 -37c28 -33 56 -40 47 -125c26 0 28 -9 20 -19zM250 251c10 23 14 47 14 60c0 15 -8 21 -15 21c-6 0 -15 -8 -15 -24c0 -18 5 -44 16 -57zM74 78c0 -30 9 -42 24 -42c26 0 66 37 103 105
c15 26 27 51 33 72c-32 20 -53 46 -61 81c-21 -20 -40 -45 -57 -75c-26 -48 -42 -104 -42 -141z" />
    <glyph glyph-name="ocircumflex" unicode="&#xf4;" horiz-adv-x="332" 
d="M279 459l-50 -29c-22 -13 -45 -12 -57 -10c-17 4 -19 16 -6 25c69 50 91 67 115 81c4 3 10 5 16 5c15 0 26 -6 32 -17c11 -19 29 -52 39 -69c6 -11 -1 -20 -12 -23c-22 -6 -42 -1 -62 19c-6 6 -11 12 -15 18zM345 212c-7 -8 -15 -12 -26 -14c-21 -83 -85 -181 -161 -207
c-9 -3 -21 -6 -36 -6c-33 0 -70 14 -98 51c-19 25 -28 55 -28 87c0 44 16 93 42 140c45 80 108 130 174 130c29 0 47 -11 66 -37c28 -33 56 -40 47 -125c26 0 28 -9 20 -19zM250 251c10 23 14 47 14 60c0 15 -8 21 -15 21c-6 0 -15 -8 -15 -24c0 -18 5 -44 16 -57zM74 78
c0 -30 9 -42 24 -42c26 0 66 37 103 105c15 26 27 51 33 72c-32 20 -53 46 -61 81c-21 -20 -40 -45 -57 -75c-26 -48 -42 -104 -42 -141z" />
    <glyph glyph-name="odieresis" unicode="&#xf6;" horiz-adv-x="332" 
d="M298 419c-20 11 -28 33 -17 55c12 24 38 39 59 30c22 -10 26 -32 17 -54c-11 -24 -38 -41 -59 -31zM192 418c-18 8 -28 32 -18 55c11 24 36 39 58 29c18 -8 28 -30 17 -54c-11 -23 -37 -36 -57 -30zM345 212c-7 -8 -15 -12 -26 -14c-21 -83 -85 -181 -161 -207
c-9 -3 -21 -6 -36 -6c-33 0 -70 14 -98 51c-19 25 -28 55 -28 87c0 44 16 93 42 140c45 80 108 130 174 130c29 0 47 -11 66 -37c28 -33 56 -40 47 -125c26 0 28 -9 20 -19zM250 251c10 23 14 47 14 60c0 15 -8 21 -15 21c-6 0 -15 -8 -15 -24c0 -18 5 -44 16 -57zM74 78
c0 -30 9 -42 24 -42c26 0 66 37 103 105c15 26 27 51 33 72c-32 20 -53 46 -61 81c-21 -20 -40 -45 -57 -75c-26 -48 -42 -104 -42 -141z" />
    <glyph glyph-name="otilde" unicode="&#xf5;" horiz-adv-x="332" 
d="M176 428c-22 -12 -31 -2 -25 14c8 22 42 52 80 52c30 0 59 -13 85 -13c11 0 23 3 37 9c19 8 33 4 24 -17c-15 -34 -48 -50 -83 -50c-33 0 -64 12 -90 12c-9 0 -19 -2 -28 -7zM345 212c-7 -8 -15 -12 -26 -14c-21 -83 -85 -181 -161 -207c-9 -3 -21 -6 -36 -6
c-33 0 -70 14 -98 51c-19 25 -28 55 -28 87c0 44 16 93 42 140c45 80 108 130 174 130c29 0 47 -11 66 -37c28 -33 56 -40 47 -125c26 0 28 -9 20 -19zM250 251c10 23 14 47 14 60c0 15 -8 21 -15 21c-6 0 -15 -8 -15 -24c0 -18 5 -44 16 -57zM74 78c0 -30 9 -42 24 -42
c26 0 66 37 103 105c15 26 27 51 33 72c-32 20 -53 46 -61 81c-21 -20 -40 -45 -57 -75c-26 -48 -42 -104 -42 -141z" />
    <glyph glyph-name="uacute" unicode="&#xfa;" horiz-adv-x="404" 
d="M344 517c18 0 34 -5 45 -11c13 -8 15 -17 -1 -25l-38 -19c-29 -15 -60 -30 -77 -35c-23 -7 -46 -6 -59 0c-14 7 -16 14 0 25c25 18 67 45 95 57c13 6 25 8 35 8zM431 90c-29 -57 -94 -108 -156 -108c-59 0 -89 29 -93 74c-34 -38 -79 -69 -130 -69s-71 38 -71 81
c0 22 4 45 13 69c22 63 73 163 135 250c13 17 31 15 43 0c11 -14 15 -31 15 -46c0 -41 -73 -157 -108 -234c-18 -40 -21 -77 1 -77c26 0 79 68 130 148c59 96 85 164 121 210c14 19 30 23 42 6c10 -14 15 -30 15 -52c0 -34 -21 -78 -56 -136c-29 -47 -68 -115 -68 -154
c0 -18 6 -28 19 -28c33 0 84 69 120 132c10 17 27 20 35 1c4 -9 8 -38 -7 -67z" />
    <glyph glyph-name="ugrave" unicode="&#xf9;" horiz-adv-x="404" 
d="M218 483c-17 10 -6 19 1 24c9 6 24 9 41 9c12 0 28 -3 40 -9c29 -15 66 -41 88 -60c12 -10 11 -18 -4 -24c-14 -6 -37 -8 -59 1c-25 11 -70 36 -107 59zM431 90c-29 -57 -94 -108 -156 -108c-59 0 -89 29 -93 74c-34 -38 -79 -69 -130 -69s-71 38 -71 81c0 22 4 45 13 69
c22 63 73 163 135 250c13 17 31 15 43 0c11 -14 15 -31 15 -46c0 -41 -73 -157 -108 -234c-18 -40 -21 -77 1 -77c26 0 79 68 130 148c59 96 85 164 121 210c14 19 30 23 42 6c10 -14 15 -30 15 -52c0 -34 -21 -78 -56 -136c-29 -47 -68 -115 -68 -154c0 -18 6 -28 19 -28
c33 0 84 69 120 132c10 17 27 20 35 1c4 -9 8 -38 -7 -67z" />
    <glyph glyph-name="ucircumflex" unicode="&#xfb;" horiz-adv-x="404" 
d="M315 459l-50 -29c-22 -13 -45 -12 -57 -10c-17 4 -19 16 -6 25c69 50 91 67 115 81c4 3 10 5 16 5c15 0 26 -6 32 -17c11 -19 29 -52 39 -69c6 -11 -1 -20 -12 -23c-22 -6 -42 -1 -62 19c-6 6 -11 12 -15 18zM431 90c-29 -57 -94 -108 -156 -108c-59 0 -89 29 -93 74
c-34 -38 -79 -69 -130 -69s-71 38 -71 81c0 22 4 45 13 69c22 63 73 163 135 250c13 17 31 15 43 0c11 -14 15 -31 15 -46c0 -41 -73 -157 -108 -234c-18 -40 -21 -77 1 -77c26 0 79 68 130 148c59 96 85 164 121 210c14 19 30 23 42 6c10 -14 15 -30 15 -52
c0 -34 -21 -78 -56 -136c-29 -47 -68 -115 -68 -154c0 -18 6 -28 19 -28c33 0 84 69 120 132c10 17 27 20 35 1c4 -9 8 -38 -7 -67z" />
    <glyph glyph-name="udieresis" unicode="&#xfc;" horiz-adv-x="404" 
d="M334 419c-20 11 -28 33 -17 55c12 24 38 39 59 30c22 -10 26 -32 17 -54c-11 -24 -38 -41 -59 -31zM228 418c-18 8 -28 32 -18 55c11 24 36 39 58 29c18 -8 28 -30 17 -54c-11 -23 -37 -36 -57 -30zM431 90c-29 -57 -94 -108 -156 -108c-59 0 -89 29 -93 74
c-34 -38 -79 -69 -130 -69s-71 38 -71 81c0 22 4 45 13 69c22 63 73 163 135 250c13 17 31 15 43 0c11 -14 15 -31 15 -46c0 -41 -73 -157 -108 -234c-18 -40 -21 -77 1 -77c26 0 79 68 130 148c59 96 85 164 121 210c14 19 30 23 42 6c10 -14 15 -30 15 -52
c0 -34 -21 -78 -56 -136c-29 -47 -68 -115 -68 -154c0 -18 6 -28 19 -28c33 0 84 69 120 132c10 17 27 20 35 1c4 -9 8 -38 -7 -67z" />
    <glyph glyph-name="dagger" unicode="&#x2020;" horiz-adv-x="326" 
d="M385 554c19 0 27 -6 19 -22c-11 -23 -39 -38 -76 -38h-25c-7 -11 -12 -22 -18 -33c-27 -46 -57 -99 -80 -146c-9 -17 -18 -17 -33 -2c-6 8 -11 17 -11 30c0 9 4 24 8 36c9 30 32 74 55 115c-17 0 -34 -1 -50 -3s-26 5 -20 19c7 16 23 36 64 42c10 2 24 2 40 2
c8 14 17 26 44 71c6 9 14 15 28 6c8 -5 18 -20 18 -36c0 -10 -3 -25 -10 -41h47z" />
    <glyph glyph-name="degree" unicode="&#xb0;" horiz-adv-x="302" 
d="M147 540c24 47 66 74 109 74c20 0 44 -6 62 -31c17 -24 26 -45 24 -78c-3 -63 -50 -141 -112 -153c-26 -5 -61 0 -87 37c-14 19 -20 41 -20 63c0 29 9 59 24 88zM247 454c32 62 33 93 26 103c-8 10 -39 -20 -59 -55c-21 -37 -32 -86 -21 -98c8 -9 33 9 54 50z" />
    <glyph glyph-name="cent" unicode="&#xa2;" horiz-adv-x="353" 
d="M50 223c0 128 164 274 246 264c20 35 39 67 58 97c11 19 21 24 35 2c11 -17 8 -49 -13 -93l-18 -38c12 -11 22 -22 28 -37c14 -32 -5 -71 -22 -105c-6 -12 -16 -29 -21 -41c-7 -14 -17 -24 -38 -10c-18 11 -30 26 -30 49c0 14 8 42 22 67c11 22 23 50 15 55
c-29 18 -175 -124 -175 -237c0 -32 10 -53 28 -60c34 -12 86 19 116 69c12 21 23 20 34 2c11 -19 4 -49 -14 -72c-25 -32 -66 -50 -108 -50c-12 0 -21 1 -31 2c-15 -27 -30 -58 -42 -83c-9 -22 -24 -21 -34 -4c-9 17 -12 34 4 78l13 35c-36 28 -53 64 -53 110z" />
    <glyph glyph-name="sterling" unicode="&#xa3;" horiz-adv-x="355" 
d="M418 433c0 -30 -16 -57 -35 -76c-33 -34 -66 -34 -86 -30c-8 2 -23 12 -10 25c39 41 72 106 59 115c-11 7 -52 -18 -87 -50c-27 -24 -52 -64 -51 -93c57 6 82 -15 90 -41c4 -13 3 -18 -16 -18c-22 0 -44 -2 -63 -4c3 -22 -1 -45 -16 -66l24 3c46 6 74 -15 86 -43
c5 -11 3 -19 -18 -19c-43 0 -123 -20 -168 -35c-16 -6 -27 -7 -39 8l-25 31c-9 11 -7 24 9 32c30 16 68 44 85 73l-20 -3c-39 -6 -67 16 -77 38c-6 14 3 21 17 21c21 -1 47 5 75 12c-4 12 -12 35 -12 55c0 29 14 64 65 110c36 31 74 46 108 46c22 0 45 -6 65 -21
c29 -21 40 -47 40 -70z" />
    <glyph glyph-name="section" unicode="&#xa7;" horiz-adv-x="476" 
d="M227 116c63 8 104 38 104 64c0 24 -32 49 -64 75c-12 8 -26 18 -37 29c-51 -23 -79 -62 -79 -89c0 -33 36 -55 76 -79zM345 295c42 -33 83 -66 83 -105c0 -53 -53 -99 -130 -117c24 -18 40 -37 40 -58c0 -42 -56 -108 -162 -109c-77 -1 -155 37 -214 105
c-14 17 -7 27 7 32c9 3 18 4 30 4c28 0 58 -10 79 -25c48 -37 87 -55 124 -55c25 0 40 12 40 28c0 25 -38 49 -76 72c-53 32 -116 71 -116 124c0 52 50 118 134 148c-9 15 -14 31 -14 47c0 85 91 183 210 227c27 10 51 15 72 15c35 0 57 -13 76 -35c20 -27 31 -49 31 -72
s-11 -47 -31 -74c-24 -31 -52 -81 -67 -108c-9 -16 -22 -20 -39 -4c-14 14 -24 32 -24 54c0 23 18 64 50 107c20 29 47 66 18 66c-61 0 -195 -55 -195 -174c0 -34 37 -64 74 -93z" />
    <glyph glyph-name="bullet" unicode="&#x2022;" horiz-adv-x="151" 
d="M148 280c0 -11 -3 -23 -10 -35c-19 -36 -51 -42 -75 -31c-17 7 -27 23 -27 42c0 9 3 21 9 32c16 30 47 41 76 34c16 -4 27 -22 27 -42z" />
    <glyph glyph-name="paragraph" unicode="&#xb6;" horiz-adv-x="471" 
d="M614 542c-18 0 -32 1 -45 0c-4 -20 -15 -45 -35 -79c-64 -107 -168 -287 -236 -456c-8 -19 -22 -18 -34 -4c-9 11 -17 26 -17 48c0 15 3 34 9 55c26 89 127 290 221 431c-9 -1 -17 -3 -26 -5c-92 -154 -214 -373 -277 -531c-8 -20 -20 -25 -36 -6c-11 14 -16 27 -16 51
c0 41 21 100 64 189c-48 11 -83 41 -92 100c-7 61 22 119 68 164c80 78 226 125 378 122c54 -1 85 -32 95 -57c5 -11 1 -22 -21 -22z" />
    <glyph glyph-name="germandbls" unicode="&#xdf;" horiz-adv-x="410" 
d="M488 499c0 -31 -11 -65 -39 -102c-25 -33 -69 -68 -121 -90c41 -20 61 -53 61 -91c0 -42 -22 -91 -68 -143c-50 -55 -104 -84 -153 -84c-29 0 -66 8 -88 32c-11 13 -6 26 16 26c49 -1 115 31 157 79c46 54 73 115 54 136c-10 12 -20 11 -39 7c-31 -6 -51 0 -74 37
c-8 12 -1 24 14 29c164 52 226 173 204 218c-5 10 -11 13 -22 13c-43 0 -106 -85 -129 -116v1c-61 -85 -167 -285 -231 -448c-8 -21 -23 -20 -34 -4c-10 15 -17 29 -17 51c0 14 2 33 11 61c24 78 105 247 174 351c33 49 79 111 140 140c21 9 46 17 68 17c34 0 65 -14 87 -40
c18 -23 29 -51 29 -80z" />
    <glyph glyph-name="registered" unicode="&#xae;" horiz-adv-x="567" 
d="M591 441c0 -40 -9 -82 -25 -119c-38 -92 -108 -137 -173 -137c-58 0 -106 31 -130 94c-14 -27 -28 -54 -41 -81c-8 -15 -23 -18 -34 -3c-9 12 -15 20 -15 41c0 11 5 32 12 50c15 40 53 111 96 183c-5 4 -10 9 -15 18c-7 12 7 22 20 26c18 5 28 9 49 17c23 9 46 18 73 19
c33 1 70 -14 84 -56c5 -14 7 -26 7 -36c0 -24 -13 -51 -27 -73c-26 -31 -83 -64 -132 -81c13 -50 36 -75 56 -76c24 -1 59 27 96 108c19 42 27 82 27 118c0 61 -23 107 -58 122c-13 6 -27 8 -39 8c-63 0 -151 -49 -221 -145c-42 -59 -64 -129 -64 -184s18 -99 51 -115
c15 -8 33 -12 51 -12c40 0 82 18 109 41c20 18 32 20 32 -7c0 -15 -9 -41 -44 -63c-25 -14 -53 -19 -80 -19c-33 0 -62 7 -79 15c-82 36 -113 107 -113 180c-1 213 225 368 335 368c42 0 73 -14 94 -34c66 -26 98 -99 98 -167zM313 370c72 25 128 74 128 101c0 4 0 9 -8 9
c-10 0 -32 -7 -61 -17c-27 -42 -39 -59 -59 -93z" />
    <glyph glyph-name="copyright" unicode="&#xa9;" horiz-adv-x="550" 
d="M497 612c59 -19 91 -87 91 -150c0 -47 -14 -96 -35 -139c-49 -100 -142 -161 -238 -157c-83 3 -129 53 -129 119c0 32 11 71 35 109c53 84 126 136 177 136c28 0 64 -31 76 -58c12 -26 -4 -65 -22 -99c-5 -9 -13 -26 -17 -35c-7 -17 -13 -20 -33 -11c-18 8 -29 25 -29 47
c0 9 2 21 8 34c9 17 26 50 26 63c0 4 -2 5 -4 5c-16 0 -59 -44 -98 -110c-22 -38 -32 -74 -32 -101c0 -33 15 -55 40 -57c61 -3 123 58 163 134c19 36 37 94 37 144c0 58 -45 102 -87 102c-61 0 -155 -61 -218 -147c-37 -59 -57 -125 -57 -180c0 -57 20 -105 53 -125
c19 -11 45 -17 64 -17c37 0 66 7 94 25c20 14 29 8 29 -10c0 -23 -45 -63 -112 -63c-36 0 -72 10 -102 28c-68 41 -100 102 -100 173c0 200 200 375 325 375c42 0 75 -14 95 -35z" />
    <glyph glyph-name="trademark" unicode="&#x2122;" horiz-adv-x="577" 
d="M483 582c5 -11 -1 -25 -20 -23c-29 3 -62 -2 -95 -10c-50 -71 -116 -177 -160 -273c-5 -11 -23 -19 -35 -1c-7 10 -14 23 -14 41c0 12 3 29 12 50c14 38 48 95 88 161c-54 -4 -89 22 -100 55c-5 14 3 23 21 19c10 -2 19 -3 29 -3c30 0 68 9 101 16c26 6 51 12 77 15
c42 4 81 -17 96 -47zM657 508c3 -12 3 -28 -10 -49c-35 -58 -82 -147 -115 -221c-7 -20 -18 -19 -32 -4c-9 11 -18 25 -18 43s10 48 20 68c-24 -31 -45 -64 -67 -94c-10 -14 -21 -12 -34 -3c-19 12 -35 33 -34 67c1 25 2 30 4 37c-22 -39 -42 -77 -63 -121
c-6 -13 -23 -19 -34 -3c-7 10 -14 24 -14 41c0 12 3 29 12 52c18 41 76 145 124 217c10 14 21 23 42 2c29 -28 30 -39 30 -66c0 -25 -4 -41 -12 -75c41 54 93 112 138 153c16 13 27 17 41 0c9 -13 18 -31 22 -44z" />
    <glyph glyph-name="acute" unicode="&#xb4;" horiz-adv-x="181" 
d="M133 517c18 0 34 -5 45 -11c13 -8 15 -17 -1 -25l-38 -19c-29 -15 -60 -30 -77 -35c-23 -7 -46 -6 -59 0c-14 7 -16 14 0 25c25 18 67 45 95 57c13 6 25 8 35 8z" />
    <glyph glyph-name="dieresis" unicode="&#xa8;" horiz-adv-x="181" 
d="M123 419c-20 11 -28 33 -17 55c12 24 38 39 59 30c22 -10 26 -32 17 -54c-11 -24 -38 -41 -59 -31zM17 418c-18 8 -28 32 -18 55c11 24 36 39 58 29c18 -8 28 -30 17 -54c-11 -23 -37 -36 -57 -30z" />
    <glyph glyph-name="notequal" unicode="&#x2260;" horiz-adv-x="361" 
d="M148 259l23 27c-54 1 -76 28 -81 57c-2 11 5 20 17 20c26 -1 73 2 134 6c32 38 62 70 75 81c25 21 38 11 42 -9c3 -19 -10 -44 -25 -61l-14 -16c30 -10 44 -29 47 -51c2 -13 -1 -23 -24 -21c-13 1 -24 2 -35 2c-21 0 -35 -2 -53 -3l-23 -26c60 0 81 -28 87 -57
c3 -12 -2 -22 -22 -20c-10 1 -20 1 -29 1c-42 0 -79 -7 -113 -10c-25 -28 -45 -48 -54 -56c-16 -13 -26 -14 -37 -11c-11 4 -15 15 -7 28c5 7 17 24 32 44c-27 10 -42 28 -46 51c-2 11 7 21 23 21c23 -1 55 0 83 3z" />
    <glyph glyph-name="AE" unicode="&#xc6;" horiz-adv-x="651" 
d="M212 232c43 11 78 24 115 33c34 67 83 148 121 212c-71 -65 -161 -158 -236 -245zM36 -6c-10 -17 -19 -16 -31 1c-6 8 -11 17 -11 31c0 18 6 46 24 81c5 12 16 29 27 44c-19 10 -25 20 -28 26c-7 16 -4 24 20 24c14 -1 28 0 44 2c89 118 243 289 355 365
c17 12 38 22 63 28c51 11 146 24 200 25c55 1 83 -18 97 -53c5 -13 1 -23 -23 -22c-46 2 -133 -11 -199 -26c-38 -60 -81 -137 -131 -229c22 4 43 5 60 6c57 2 82 -22 92 -54c5 -18 0 -23 -22 -23c-53 1 -125 -11 -180 -24c-23 -47 -41 -83 -57 -122c45 12 100 20 132 22
c55 4 87 -18 99 -51c5 -12 3 -22 -20 -22c-53 0 -154 -22 -209 -37c-33 -9 -48 -7 -62 12c-11 15 -22 32 -24 37c-10 19 -11 35 0 62c10 26 16 43 30 73c-50 -13 -107 -25 -145 -30c-42 -53 -76 -106 -101 -146z" />
    <glyph glyph-name="Oslash" unicode="&#xd8;" horiz-adv-x="525" 
d="M444 561c-44 17 -160 -50 -251 -188c-50 -77 -71 -160 -72 -225c88 119 231 280 342 395c-5 9 -13 16 -19 18zM184 36c61 0 156 79 223 204c39 72 62 147 68 204c-13 -14 -28 -30 -43 -46c-86 -94 -194 -213 -292 -336c12 -20 24 -26 44 -26zM556 634c21 18 33 15 37 -6
c3 -24 -18 -67 -48 -105c12 -26 17 -57 17 -88c0 -73 -26 -157 -64 -228c-67 -123 -167 -225 -282 -225c-41 0 -84 15 -110 35c-15 -19 -28 -34 -40 -52c-14 -18 -29 -15 -34 4c-3 11 -6 40 30 94c-21 36 -31 77 -31 118c1 211 189 395 301 433c21 7 40 10 60 10
c36 0 66 -12 85 -32c7 -4 15 -7 22 -12c21 21 40 39 57 54z" />
    <glyph glyph-name="infinity" unicode="&#x221e;" horiz-adv-x="567" 
d="M312 231c-35 -27 -69 -50 -104 -68c-17 -10 -34 -14 -53 -14c-25 0 -49 8 -68 23c-27 22 -41 46 -41 78c0 76 81 178 155 178c47 0 70 -28 115 -101c40 31 83 62 123 83c17 9 36 14 53 14c57 0 94 -51 94 -90c0 -92 -84 -188 -161 -188c-38 0 -72 29 -113 85zM357 265
c27 -36 44 -48 58 -48c61 0 102 116 87 140c-29 -6 -88 -47 -145 -92zM209 352c-53 0 -97 -94 -87 -143c32 0 92 37 150 81c-23 33 -44 62 -63 62z" />
    <glyph glyph-name="plusminus" unicode="&#xb1;" horiz-adv-x="314" 
d="M136 145c-12 8 -25 21 -25 46c0 10 3 24 12 44c-44 4 -65 27 -72 57c-2 14 1 23 24 21c24 -2 59 0 87 2l52 93c10 18 25 19 40 2c11 -12 17 -27 17 -45c0 -14 -2 -28 -10 -45c45 -4 64 -28 67 -58c1 -11 -8 -19 -24 -19c-11 1 -24 1 -34 1c-19 0 -34 0 -51 -2
c-18 -30 -35 -62 -47 -89c-6 -13 -21 -20 -36 -8zM189 58c-48 0 -84 -9 -124 -9c-52 1 -75 24 -82 53c-2 11 7 21 21 21c49 -2 112 8 159 8c57 0 73 -24 83 -53c4 -13 -7 -22 -22 -22c-11 1 -25 2 -35 2z" />
    <glyph glyph-name="lessequal" unicode="&#x2264;" horiz-adv-x="288" 
d="M298 375c0 -19 -14 -50 -40 -70c-21 -15 -60 -33 -92 -45c19 -11 38 -23 51 -35c25 -21 32 -46 29 -67c-4 -20 -18 -23 -35 -11c-36 25 -86 52 -117 67c-20 11 -30 29 -34 56c-3 17 2 26 24 34c50 17 143 58 182 84c20 14 32 6 32 -13zM174 62c-40 0 -66 -6 -104 -6
c-52 1 -76 24 -83 53c-3 13 0 23 22 21c50 -5 97 6 144 6c54 0 74 -27 83 -54c5 -14 -2 -24 -21 -22c-16 1 -29 2 -41 2z" />
    <glyph glyph-name="greaterequal" unicode="&#x2265;" horiz-adv-x="290" 
d="M48 166c-1 18 17 47 42 66c21 16 49 29 81 40c-20 12 -39 26 -50 35c-23 21 -31 52 -29 69c3 22 20 21 34 11c39 -28 97 -60 143 -79c20 -9 23 -20 14 -39c-14 -29 -24 -44 -46 -52c-59 -22 -122 -46 -158 -66c-21 -10 -29 -7 -31 15zM174 60c-40 0 -66 -6 -104 -6
c-52 1 -76 24 -83 53c-3 13 0 23 22 21c50 -5 97 6 144 6c54 0 74 -27 83 -54c5 -14 -2 -24 -21 -22c-16 1 -29 2 -41 2z" />
    <glyph glyph-name="yen" unicode="&#xa5;" horiz-adv-x="355" 
d="M339 245c4 -11 -2 -20 -18 -18c-39 4 -72 0 -106 -7c-21 -43 -34 -81 -47 -116c-7 -18 -20 -17 -35 -6c-16 12 -25 29 -25 51c0 13 1 27 14 60c-34 0 -63 12 -74 42c-5 14 3 20 18 20c25 0 50 2 77 6c-8 73 -8 161 -3 218c2 22 18 27 35 18c39 -19 48 -42 47 -95l-2 -90
c62 74 128 146 174 186c23 19 37 13 37 -10s-8 -43 -47 -86c-30 -35 -68 -74 -119 -126c40 0 64 -19 74 -47z" />
    <glyph glyph-name="mu" unicode="&#xb5;" horiz-adv-x="404" 
d="M435 90c-30 -57 -98 -108 -161 -108c-58 0 -89 29 -92 74c-35 -38 -81 -74 -130 -69c-14 1 -27 6 -36 10c-32 -63 -64 -132 -96 -206c-8 -18 -22 -20 -35 -3c-12 15 -17 28 -17 50c0 15 4 35 15 62c41 99 161 349 246 487c12 19 30 16 43 0c11 -14 14 -31 14 -46
c0 -25 -11 -55 -33 -91c-40 -65 -87 -139 -87 -198c0 -12 3 -22 12 -22c26 0 80 68 131 148c60 97 92 164 121 209c15 23 28 24 42 7c9 -11 16 -30 16 -52c0 -19 -4 -41 -16 -65c-20 -39 -64 -102 -93 -167c-8 -17 -15 -42 -15 -58c0 -18 5 -29 18 -28c33 1 88 69 124 132
c10 17 29 19 37 0c6 -14 6 -37 -8 -66z" />
    <glyph glyph-name="partialdiff" unicode="&#x2202;" horiz-adv-x="368" 
d="M215 582c-19 0 -41 -5 -62 -14c-23 -11 -30 -3 -28 12c1 11 15 26 41 38c19 10 48 17 77 17c90 0 151 -61 151 -202c0 -226 -138 -448 -256 -448c-55 0 -126 57 -126 139c0 44 15 93 42 140c30 54 91 129 176 129c31 0 52 -5 71 -24c3 23 5 47 5 68
c0 106 -34 145 -91 145zM289 310c-12 14 -25 21 -38 21c-34 0 -79 -40 -119 -111c-26 -48 -42 -104 -42 -141c0 -31 12 -44 20 -44c59 1 140 139 179 275z" />
    <glyph glyph-name="summation" unicode="&#x2211;" horiz-adv-x="364" 
d="M487 563c3 -13 -3 -21 -22 -21c-61 0 -153 -12 -226 -31c12 -67 37 -130 66 -184c16 -29 4 -43 -22 -61c-70 -47 -158 -126 -226 -201c49 12 114 24 146 26c54 2 83 -14 95 -47c5 -14 2 -22 -20 -22c-53 1 -189 -32 -244 -47c-24 -6 -41 -4 -53 12c-7 10 -11 18 -25 44
c-7 14 -7 29 8 49c58 76 166 180 261 248c-28 55 -63 157 -69 212c-2 18 8 35 30 41c67 18 166 31 222 32c49 1 67 -14 79 -50z" />
    <glyph glyph-name="product" unicode="&#x220f;" horiz-adv-x="425" 
d="M444 539c-29 -4 -58 -9 -144 -24c-106 -176 -248 -443 -331 -633c-8 -18 -18 -24 -35 -5c-10 10 -19 28 -19 53c0 14 4 38 13 62c41 108 187 393 271 531c-21 13 -31 30 -35 48c-3 15 3 21 23 20c76 -6 209 23 270 26c34 2 48 -2 61 -16c21 -23 30 -39 30 -54
c0 -11 -6 -25 -15 -40c-93 -155 -246 -446 -323 -613c-9 -20 -19 -21 -35 -5c-11 11 -18 25 -18 49c0 17 4 39 14 66c34 98 186 388 273 535z" />
    <glyph glyph-name="integral" unicode="&#x222b;" horiz-adv-x="311" 
d="M272 473c-65 -131 -141 -335 -214 -483c-38 -87 -100 -127 -180 -127c-41 0 -84 18 -105 41c-12 13 -5 24 7 31c13 7 29 10 45 10c37 0 51 -25 76 -25c22 0 39 12 71 85c72 153 165 397 216 493c43 81 102 118 176 118c41 0 82 -16 102 -41c14 -17 6 -24 -7 -31
c-11 -6 -26 -9 -42 -9c-34 0 -53 24 -76 24c-19 0 -33 -15 -69 -86z" />
    </font>
</defs>
</svg>
